# WaveFront *.obj file (generated by Autodesk ATF)

mtllib TinyDeskN20AngleShaft.mtl

g TinyDeskN20AngleShaft

v -115.000000 145.121974 -119.964609
v -115.000000 145.322006 -120.319521
v -115.000000 145.409128 -120.717497
v -115.000000 145.375676 -121.123522
v -115.000000 145.224592 -121.501872
v -115.000000 144.969170 -121.819258
v -115.000000 144.631881 -122.047757
v -115.000000 144.242403 -122.167264
v -115.000000 143.835003 -122.167264
v -115.000000 143.445525 -122.047757
v -115.000000 143.108236 -121.819258
v -115.000000 142.852814 -121.501872
v -115.000000 142.701730 -121.123522
v -115.000000 142.668278 -120.717497
v -115.000000 142.755400 -120.319521
v -115.000000 142.955432 -119.964609
v -122.500000 142.955432 -119.964609
v -122.500000 142.755400 -120.319521
v -122.500000 142.668278 -120.717497
v -122.500000 142.701730 -121.123522
v -122.500000 142.852814 -121.501872
v -122.500000 143.108236 -121.819258
v -122.500000 143.445525 -122.047757
v -122.500000 143.835003 -122.167264
v -122.500000 144.242403 -122.167264
v -122.500000 144.631881 -122.047757
v -122.500000 144.969170 -121.819258
v -122.500000 145.224592 -121.501872
v -122.500000 145.375676 -121.123522
v -122.500000 145.409128 -120.717497
v -122.500000 145.322006 -120.319521
v -122.500000 145.121974 -119.964609
v -111.000000 140.666161 -149.908978
v -111.000000 140.666161 -152.115712
v -111.000000 140.088070 -152.115712
v -111.000000 140.088070 -149.908978
v -111.000000 147.918582 -149.908978
v -111.000000 147.918582 -152.115712
v -111.000000 147.498152 -152.115712
v -111.000000 147.498152 -149.908978
v -109.000000 140.088070 -152.115712
v -109.000000 140.088070 -149.908978
v -109.000000 140.666161 -152.115712
v -109.000000 140.666161 -149.908978
v -109.000000 147.498152 -152.115712
v -109.000000 147.498152 -149.908978
v -109.000000 147.918582 -152.115712
v -109.000000 147.918582 -149.908978
v -108.000000 150.038703 -134.808978
v -105.000000 147.038703 -134.808978
v -105.000000 147.038703 -149.908978
v -108.000000 150.038703 -149.908978
v -112.000000 138.038703 -149.908978
v -115.000000 141.038703 -149.908978
v -115.000000 147.038703 -149.908978
v -112.000000 150.038703 -149.908978
v -105.000000 141.038703 -149.908978
v -108.000000 138.038703 -149.908978
v -115.000000 147.038703 -134.808978
v -112.000000 150.038703 -134.808978
v -105.000000 141.038703 -134.808978
v -108.000000 138.038703 -134.808978
v -112.000000 138.038703 -134.808978
v -115.000000 141.038703 -134.808978
v -115.000000 138.038703 -134.808978
v -105.000000 138.038703 -134.808978
v -105.000000 150.038703 -134.808978
v -115.000000 150.038703 -134.808978
v -115.000000 150.038703 -116.808978
v -105.000000 150.038703 -116.808978
v -115.000000 138.038703 -116.808978
v -105.000000 138.038703 -116.808978
vt -0.750000 -0.090937 0.000000
vt -0.000000 -0.090937 0.000000
vt -0.750000 -0.050046 0.000000
vt -0.000000 -0.050046 0.000000
vt -0.750000 -0.009155 0.000000
vt -0.000000 -0.009155 0.000000
vt -0.750000 0.031736 0.000000
vt -0.000000 0.031736 0.000000
vt -0.750000 0.072627 0.000000
vt -0.000000 0.072627 0.000000
vt -0.750000 0.113518 0.000000
vt -0.000000 0.113518 0.000000
vt -0.750000 0.154409 0.000000
vt -0.000000 0.154409 0.000000
vt -0.750000 0.195300 0.000000
vt -0.000000 0.195300 0.000000
vt -0.750000 0.236190 0.000000
vt 0.000000 0.236190 0.000000
vt -0.750000 0.277081 0.000000
vt -0.000000 0.277081 0.000000
vt -0.750000 0.317972 0.000000
vt -0.000000 0.317972 0.000000
vt -0.750000 0.358863 0.000000
vt -0.000000 0.358863 0.000000
vt -0.750000 0.399754 0.000000
vt -0.000000 0.399754 0.000000
vt -0.750000 0.440645 0.000000
vt -0.000000 0.440645 0.000000
vt -0.750000 0.481536 0.000000
vt -0.000000 0.481536 0.000000
vt -0.750000 0.522427 0.000000
vt -0.000000 0.522427 0.000000
vt 0.000000 0.000000 0.000000
vt 0.216654 0.000000 0.000000
vt 0.000000 0.750000 0.000000
vt 0.216654 0.750000 0.000000
vt 0.108327 0.110892 0.000000
vt -0.108327 0.110892 0.000000
vt 0.128330 0.075401 0.000000
vt -0.128330 0.075401 0.000000
vt 0.137043 0.035603 0.000000
vt -0.137043 0.035603 0.000000
vt 0.133697 -0.004999 0.000000
vt -0.133697 -0.004999 0.000000
vt 0.118589 -0.042834 0.000000
vt -0.118589 -0.042834 0.000000
vt 0.093047 -0.074573 0.000000
vt -0.093047 -0.074573 0.000000
vt 0.059318 -0.097423 0.000000
vt -0.059318 -0.097423 0.000000
vt 0.020370 -0.109373 0.000000
vt -0.020370 -0.109373 0.000000
vt 0.110337 0.028905 0.000000
vt -0.110337 0.028905 0.000000
vt 0.110337 -0.028905 0.000000
vt -0.110337 -0.028905 0.000000
vt 0.110337 0.021022 0.000000
vt -0.110337 0.021022 0.000000
vt 0.110337 -0.021022 0.000000
vt -0.110337 -0.021022 0.000000
vt 0.000000 0.400000 0.000000
vt 0.220673 0.400000 0.000000
vt 0.000000 0.600000 0.000000
vt 0.220673 0.600000 0.000000
vt 0.000000 0.400000 0.000000
vt 0.057809 0.400000 0.000000
vt 0.000000 0.600000 0.000000
vt 0.057809 0.600000 0.000000
vt 0.000000 0.400000 0.000000
vt 0.220673 0.400000 0.000000
vt 0.000000 0.600000 0.000000
vt 0.220673 0.600000 0.000000
vt 0.000000 0.400000 0.000000
vt 0.220673 0.400000 0.000000
vt 0.000000 0.600000 0.000000
vt 0.220673 0.600000 0.000000
vt 0.000000 0.400000 0.000000
vt 0.042043 0.400000 0.000000
vt 0.000000 0.600000 0.000000
vt 0.042043 0.600000 0.000000
vt 0.000000 0.400000 0.000000
vt 0.220673 0.400000 0.000000
vt 0.000000 0.600000 0.000000
vt 0.220673 0.600000 0.000000
vt 0.110337 0.021022 0.000000
vt -0.110337 0.021022 0.000000
vt 0.110337 -0.021022 0.000000
vt -0.110337 -0.021022 0.000000
vt 0.110337 0.028905 0.000000
vt -0.110337 0.028905 0.000000
vt 0.110337 -0.028905 0.000000
vt -0.110337 -0.028905 0.000000
vt -1.132500 -0.212132 0.000000
vt 0.377500 -0.212132 0.000000
vt -1.132500 0.212132 0.000000
vt 0.377500 0.212132 0.000000
vt 0.204937 0.600000 0.000000
vt 0.000000 0.300000 0.000000
vt 0.204937 0.400000 0.000000
vt 0.300000 0.000000 0.000000
vt 0.262746 0.400000 0.000000
vt 0.900000 0.000000 0.000000
vt 0.945945 0.400000 0.000000
vt 0.987988 0.400000 0.000000
vt 1.200000 0.300000 0.000000
vt 0.987988 0.600000 0.000000
vt 1.200000 0.700000 0.000000
vt 0.900000 1.000000 0.000000
vt 0.262746 0.600000 0.000000
vt 0.300000 1.000000 0.000000
vt 0.000000 0.700000 0.000000
vt 0.945945 0.600000 0.000000
vt -0.377500 -0.212132 0.000000
vt 1.132500 -0.212132 0.000000
vt -0.377500 0.212132 0.000000
vt 1.132500 0.212132 0.000000
vt 1.132500 0.212132 0.000000
vt -0.377500 0.212132 0.000000
vt 1.132500 -0.212132 0.000000
vt -0.377500 -0.212132 0.000000
vt 0.377500 0.212132 0.000000
vt -1.132500 0.212132 0.000000
vt 0.377500 -0.212132 0.000000
vt -1.132500 -0.212132 0.000000
vt 0.300000 0.000000 0.000000
vt 0.000000 0.300000 0.000000
vt 0.000000 0.000000 0.000000
vt 0.000000 0.700000 0.000000
vt 0.300000 1.000000 0.000000
vt 0.000000 1.000000 0.000000
vt 0.900000 1.000000 0.000000
vt 1.200000 0.700000 0.000000
vt 1.200000 1.000000 0.000000
vt 1.200000 0.300000 0.000000
vt 0.900000 0.000000 0.000000
vt 1.200000 0.000000 0.000000
vt 0.000000 0.000000 0.000000
vt 1.800000 0.000000 0.000000
vt 0.000000 0.300000 0.000000
vt 0.000000 0.700000 0.000000
vt -1.510000 0.700000 0.000000
vt 1.800000 1.000000 0.000000
vt 0.000000 1.000000 0.000000
vt -1.510000 0.300000 0.000000
vt 1.800000 0.000000 0.000000
vt 1.800000 0.300000 0.000000
vt -0.000000 0.000000 0.000000
vt 1.800000 0.700000 0.000000
vt -0.000000 1.000000 0.000000
vt 1.800000 1.000000 0.000000
vt 3.310000 0.300000 0.000000
vt 3.310000 0.700000 0.000000
vt -0.000000 0.000000 0.000000
vt 1.200000 0.000000 0.000000
vt -0.000000 1.000000 0.000000
vt 1.200000 1.000000 0.000000
vt 0.900000 0.600000 0.000000
vt -0.900000 0.600000 0.000000
vt 0.900000 0.300000 0.000000
vt -0.900000 -0.600000 0.000000
vt 0.900000 -0.300000 0.000000
vt 0.900000 -0.600000 0.000000
vt 2.410000 -0.300000 0.000000
vt 2.410000 0.300000 0.000000
vt 0.128330 0.548946 0.000000
vt 0.600000 0.900000 0.000000
vt 0.108327 0.584437 0.000000
vt -0.600000 0.900000 0.000000
vt -0.108327 0.584437 0.000000
vt -0.128330 0.548946 0.000000
vt -0.137043 0.509148 0.000000
vt -0.133697 0.468546 0.000000
vt -0.300000 -0.900000 0.000000
vt -0.118589 0.430711 0.000000
vt -0.093047 0.398972 0.000000
vt -0.059318 0.376122 0.000000
vt -0.020370 0.364171 0.000000
vt 0.300000 -0.900000 0.000000
vt 0.020370 0.364171 0.000000
vt 0.059318 0.376122 0.000000
vt 0.093047 0.398972 0.000000
vt 0.118589 0.430711 0.000000
vt 0.133697 0.468546 0.000000
vt 0.137043 0.509148 0.000000
vt -0.600000 -0.900000 0.000000
vt -0.300000 -2.410000 0.000000
vt 0.300000 -2.410000 0.000000
vt 0.600000 -0.900000 0.000000
vn 0.000000 0.078871 0.061477
vn 0.000000 0.078871 0.061477
vn 0.000000 0.093435 0.035636
vn 0.000000 0.093435 0.035636
vn 0.000000 0.099778 0.006661
vn 0.000000 0.099778 0.006661
vn -0.000000 0.097342 -0.022901
vn -0.000000 0.097342 -0.022901
vn -0.000000 0.086342 -0.050448
vn -0.000000 0.086342 -0.050448
vn -0.000000 0.067745 -0.073557
vn -0.000000 0.067745 -0.073557
vn -0.000000 0.043188 -0.090193
vn -0.000000 0.043188 -0.090193
vn -0.000000 0.014831 -0.098894
vn -0.000000 0.014831 -0.098894
vn 0.000000 -0.014831 -0.098894
vn 0.000000 -0.014831 -0.098894
vn 0.000000 -0.043188 -0.090193
vn 0.000000 -0.043188 -0.090193
vn 0.000000 -0.067745 -0.073557
vn 0.000000 -0.067745 -0.073557
vn 0.000000 -0.086342 -0.050448
vn 0.000000 -0.086342 -0.050448
vn 0.000000 -0.097342 -0.022901
vn 0.000000 -0.097342 -0.022901
vn 0.000000 -0.099778 0.006661
vn 0.000000 -0.099778 0.006661
vn 0.000000 -0.093435 0.035636
vn 0.000000 -0.093435 0.035636
vn 0.000000 -0.078871 0.061477
vn 0.000000 -0.078871 0.061477
vn 0.000000 0.000000 0.100000
vn 0.000000 0.000000 0.100000
vn 0.000000 0.000000 0.100000
vn 0.000000 0.000000 0.100000
vn -0.100000 0.000000 0.000000
vn -0.100000 0.000000 0.000000
vn -0.100000 0.000000 0.000000
vn -0.100000 0.000000 0.000000
vn -0.100000 0.000000 0.000000
vn -0.100000 0.000000 0.000000
vn -0.100000 0.000000 0.000000
vn -0.100000 0.000000 0.000000
vn -0.100000 0.000000 0.000000
vn -0.100000 0.000000 0.000000
vn -0.100000 0.000000 0.000000
vn -0.100000 0.000000 0.000000
vn -0.100000 0.000000 0.000000
vn -0.100000 0.000000 0.000000
vn -0.100000 0.000000 0.000000
vn -0.100000 0.000000 0.000000
vn -0.100000 0.000000 0.000000
vn -0.100000 0.000000 0.000000
vn -0.100000 0.000000 0.000000
vn -0.100000 0.000000 0.000000
vn -0.100000 0.000000 0.000000
vn -0.100000 0.000000 0.000000
vn -0.100000 0.000000 0.000000
vn -0.100000 0.000000 0.000000
vn 0.000000 -0.100000 0.000000
vn 0.000000 -0.100000 0.000000
vn 0.000000 -0.100000 0.000000
vn 0.000000 -0.100000 0.000000
vn 0.000000 0.000000 -0.100000
vn 0.000000 0.000000 -0.100000
vn 0.000000 0.000000 -0.100000
vn 0.000000 0.000000 -0.100000
vn 0.000000 0.100000 0.000000
vn 0.000000 0.100000 0.000000
vn 0.000000 0.100000 0.000000
vn 0.000000 0.100000 0.000000
vn 0.000000 -0.100000 0.000000
vn 0.000000 -0.100000 0.000000
vn 0.000000 -0.100000 0.000000
vn 0.000000 -0.100000 0.000000
vn 0.000000 0.000000 -0.100000
vn 0.000000 0.000000 -0.100000
vn 0.000000 0.000000 -0.100000
vn 0.000000 0.000000 -0.100000
vn 0.000000 0.100000 0.000000
vn 0.000000 0.100000 0.000000
vn 0.000000 0.100000 0.000000
vn 0.000000 0.100000 0.000000
vn 0.100000 0.000000 0.000000
vn 0.100000 0.000000 0.000000
vn 0.100000 0.000000 0.000000
vn 0.100000 0.000000 0.000000
vn 0.100000 0.000000 0.000000
vn 0.100000 0.000000 0.000000
vn 0.100000 0.000000 0.000000
vn 0.100000 0.000000 0.000000
vn 0.070711 0.070711 0.000000
vn 0.070711 0.070711 0.000000
vn 0.070711 0.070711 0.000000
vn 0.070711 0.070711 0.000000
vn 0.000000 0.000000 -0.100000
vn 0.000000 0.000000 -0.100000
vn 0.000000 0.000000 -0.100000
vn 0.000000 0.000000 -0.100000
vn 0.000000 0.000000 -0.100000
vn 0.000000 0.000000 -0.100000
vn 0.000000 0.000000 -0.100000
vn 0.000000 0.000000 -0.100000
vn 0.000000 0.000000 -0.100000
vn 0.000000 0.000000 -0.100000
vn 0.000000 0.000000 -0.100000
vn 0.000000 0.000000 -0.100000
vn 0.000000 0.000000 -0.100000
vn 0.000000 0.000000 -0.100000
vn 0.000000 0.000000 -0.100000
vn 0.000000 0.000000 -0.100000
vn -0.070711 0.070711 0.000000
vn -0.070711 0.070711 0.000000
vn -0.070711 0.070711 0.000000
vn -0.070711 0.070711 0.000000
vn 0.070711 -0.070711 0.000000
vn 0.070711 -0.070711 0.000000
vn 0.070711 -0.070711 0.000000
vn 0.070711 -0.070711 0.000000
vn -0.070711 -0.070711 0.000000
vn -0.070711 -0.070711 0.000000
vn -0.070711 -0.070711 0.000000
vn -0.070711 -0.070711 0.000000
vn 0.000000 0.000000 -0.100000
vn 0.000000 0.000000 -0.100000
vn 0.000000 0.000000 -0.100000
vn 0.000000 0.000000 -0.100000
vn 0.000000 0.000000 -0.100000
vn 0.000000 0.000000 -0.100000
vn 0.000000 0.000000 -0.100000
vn 0.000000 0.000000 -0.100000
vn 0.000000 0.000000 -0.100000
vn 0.000000 0.000000 -0.100000
vn 0.000000 0.000000 -0.100000
vn 0.000000 0.000000 -0.100000
vn 0.000000 0.100000 0.000000
vn 0.000000 0.100000 0.000000
vn 0.000000 0.100000 0.000000
vn 0.000000 0.100000 0.000000
vn 0.000000 0.100000 0.000000
vn 0.000000 0.100000 0.000000
vn 0.000000 0.100000 0.000000
vn 0.000000 0.100000 0.000000
vn 0.000000 -0.100000 0.000000
vn 0.000000 -0.100000 0.000000
vn 0.000000 -0.100000 0.000000
vn 0.000000 -0.100000 0.000000
vn 0.000000 -0.100000 0.000000
vn 0.000000 -0.100000 0.000000
vn 0.000000 -0.100000 0.000000
vn 0.000000 -0.100000 0.000000
vn 0.000000 0.000000 0.100000
vn 0.000000 0.000000 0.100000
vn 0.000000 0.000000 0.100000
vn 0.000000 0.000000 0.100000
vn 0.100000 0.000000 0.000000
vn 0.100000 0.000000 0.000000
vn 0.100000 0.000000 0.000000
vn 0.100000 0.000000 0.000000
vn 0.100000 0.000000 0.000000
vn 0.100000 0.000000 0.000000
vn 0.100000 0.000000 0.000000
vn 0.100000 0.000000 0.000000
vn -0.100000 0.000000 0.000000
vn -0.100000 0.000000 0.000000
vn -0.100000 0.000000 0.000000
vn -0.100000 0.000000 0.000000
vn -0.100000 0.000000 0.000000
vn -0.100000 0.000000 0.000000
vn -0.100000 0.000000 0.000000
vn -0.100000 0.000000 0.000000
vn -0.100000 0.000000 0.000000
vn -0.100000 0.000000 0.000000
vn -0.100000 0.000000 0.000000
vn -0.100000 0.000000 0.000000
vn -0.100000 0.000000 0.000000
vn -0.100000 0.000000 0.000000
vn -0.100000 0.000000 0.000000
vn -0.100000 0.000000 0.000000
vn -0.100000 0.000000 0.000000
vn -0.100000 0.000000 0.000000
vn -0.100000 0.000000 0.000000
vn -0.100000 0.000000 0.000000
vn -0.100000 0.000000 0.000000
vn -0.100000 0.000000 0.000000
vn -0.100000 0.000000 0.000000
vn -0.100000 0.000000 0.000000
usemtl Steel_-_Satin
f 32/1/1 1/2/2 31/3/3
f 31/3/3 1/2/2 2/4/4
f 31/3/3 2/4/4 30/5/5
f 30/5/5 2/4/4 3/6/6
f 30/5/5 3/6/6 29/7/7
f 29/7/7 3/6/6 4/8/8
f 29/7/7 4/8/8 28/9/9
f 28/9/9 4/8/8 5/10/10
f 28/9/9 5/10/10 27/11/11
f 27/11/11 5/10/10 6/12/12
f 27/11/11 6/12/12 26/13/13
f 26/13/13 6/12/12 7/14/14
f 26/13/13 7/14/14 25/15/15
f 25/15/15 7/14/14 8/16/16
f 25/15/15 8/16/16 24/17/17
f 24/17/17 8/16/16 9/18/18
f 24/17/17 9/18/18 23/19/19
f 23/19/19 9/18/18 10/20/20
f 23/19/19 10/20/20 22/21/21
f 22/21/21 10/20/20 11/22/22
f 22/21/21 11/22/22 21/23/23
f 21/23/23 11/22/22 12/24/24
f 21/23/23 12/24/24 20/25/25
f 20/25/25 12/24/24 13/26/26
f 20/25/25 13/26/26 19/27/27
f 19/27/27 13/26/26 14/28/28
f 19/27/27 14/28/28 18/29/29
f 18/29/29 14/28/28 15/30/30
f 18/29/29 15/30/30 17/31/31
f 17/31/31 15/30/30 16/32/32
f 16/33/33 1/34/34 17/35/35
f 17/35/35 1/34/34 32/36/36
f 17/37/37 32/38/38 18/39/39
f 18/39/39 32/38/38 31/40/40
f 18/39/39 31/40/40 19/41/41
f 19/41/41 31/40/40 30/42/42
f 19/41/41 30/42/42 20/43/43
f 20/43/43 30/42/42 29/44/44
f 20/43/43 29/44/44 21/45/45
f 21/45/45 29/44/44 28/46/46
f 21/45/45 28/46/46 22/47/47
f 22/47/47 28/46/46 27/48/48
f 22/47/47 27/48/48 23/49/49
f 23/49/49 27/48/48 26/50/50
f 23/49/49 26/50/50 24/51/51
f 24/51/51 26/50/50 25/52/52
f 33/53/53 34/54/54 36/55/55
f 36/55/55 34/54/54 35/56/56
f 37/57/57 38/58/58 40/59/59
f 40/59/59 38/58/58 39/60/60
f 36/61/61 35/62/62 42/63/63
f 42/63/63 35/62/62 41/64/64
f 35/65/65 34/66/66 41/67/67
f 41/67/67 34/66/66 43/68/68
f 34/69/69 33/70/70 43/71/71
f 43/71/71 33/70/70 44/72/72
f 40/73/73 39/74/74 46/75/75
f 46/75/75 39/74/74 45/76/76
f 39/77/77 38/78/78 45/79/79
f 45/79/79 38/78/78 47/80/80
f 38/81/81 37/82/82 47/83/83
f 47/83/83 37/82/82 48/84/84
f 47/85/85 48/86/86 45/87/87
f 45/87/87 48/86/86 46/88/88
f 43/89/89 44/90/90 41/91/91
f 41/91/91 44/90/90 42/92/92
f 50/93/93 51/94/94 49/95/95
f 49/95/95 51/94/94 52/96/96
f 42/97/97 53/98/98 36/99/99
f 36/99/99 53/98/98 54/100/100
f 36/99/99 54/100/100 33/101/101
f 33/101/101 54/100/100 55/102/102
f 33/101/101 55/102/102 40/103/103
f 40/103/103 55/102/102 37/104/104
f 37/104/104 55/102/102 56/105/105
f 37/104/104 56/105/105 48/106/106
f 48/106/106 56/105/105 52/107/107
f 48/106/106 52/107/107 51/108/108
f 44/109/109 57/110/110 42/97/97
f 42/97/97 57/110/110 58/111/111
f 42/97/97 58/111/111 53/98/98
f 33/101/101 40/103/103 44/109/109
f 44/109/109 40/103/103 46/112/112
f 44/109/109 46/112/112 51/108/108
f 51/108/108 46/112/112 48/106/106
f 51/108/108 57/110/110 44/109/109
f 55/113/113 59/114/114 56/115/115
f 56/115/115 59/114/114 60/116/116
f 57/117/117 61/118/118 58/119/119
f 58/119/119 61/118/118 62/120/120
f 64/121/121 54/122/122 63/123/123
f 63/123/123 54/122/122 53/124/124
f 64/125/125 63/126/126 65/127/127
f 62/128/128 61/129/129 66/130/130
f 50/131/131 49/132/132 67/133/133
f 60/134/134 59/135/135 68/136/136
f 68/137/137 69/138/138 60/139/139
f 60/139/139 69/138/138 49/140/140
f 60/139/139 49/140/140 52/141/141
f 69/138/138 70/142/142 49/140/140
f 49/140/140 70/142/142 67/143/143
f 52/141/141 56/144/144 60/139/139
f 65/145/145 63/146/146 71/147/147
f 71/147/147 63/146/146 62/148/148
f 71/147/147 62/148/148 72/149/149
f 72/149/149 62/148/148 66/150/150
f 63/146/146 53/151/151 62/148/148
f 62/148/148 53/151/151 58/152/152
f 69/153/153 71/154/154 70/155/155
f 70/155/155 71/154/154 72/156/156
f 67/157/157 70/158/158 50/159/159
f 50/159/159 70/158/158 72/160/160
f 50/159/159 72/160/160 61/161/161
f 61/161/161 72/160/160 66/162/162
f 61/161/161 57/163/163 50/159/159
f 50/159/159 57/163/163 51/164/164
f 15/165/165 71/166/166 16/167/167
f 16/167/167 71/166/166 69/168/168
f 16/167/167 69/168/168 1/169/169
f 1/169/169 69/168/168 2/170/170
f 2/170/170 69/168/168 3/171/171
f 3/171/171 69/168/168 4/172/172
f 4/172/172 69/168/168 59/173/173
f 4/172/172 59/173/173 5/174/174
f 5/174/174 59/173/173 6/175/175
f 6/175/175 59/173/173 7/176/176
f 7/176/176 59/173/173 8/177/177
f 8/177/177 59/173/173 64/178/178
f 8/177/177 64/178/178 9/179/179
f 9/179/179 64/178/178 10/180/180
f 10/180/180 64/178/178 11/181/181
f 11/181/181 64/178/178 12/182/182
f 12/182/182 64/178/178 13/183/183
f 13/183/183 64/178/178 71/166/166
f 13/183/183 71/166/166 14/184/184
f 14/184/184 71/166/166 15/165/165
f 69/168/168 68/185/185 59/173/173
f 55/186/186 54/187/187 59/173/173
f 59/173/173 54/187/187 64/178/178
f 64/178/178 65/188/188 71/166/166
# 72 vertices
# 188 texture params
# 188 normals
# 140 facets

# 1 groups
