# Blender 4.4.1
# www.blender.org
mtllib sm_28byj_bit.mtl
o sm_28byj_bit
v 0.001496 0.001732 -0.001997
v 0.001496 0.001732 0.002003
v 0.001717 0.001732 0.001816
v 0.001915 0.001732 0.001605
v 0.002088 0.001732 0.001372
v 0.002232 0.001732 0.001121
v 0.002346 0.001732 0.000855
v 0.002429 0.001732 0.000577
v 0.002479 0.001732 0.000292
v 0.002496 0.001732 0.000003
v 0.002479 0.001732 -0.000286
v 0.002429 0.001732 -0.000572
v 0.002346 0.001732 -0.000849
v 0.002232 0.001732 -0.001115
v 0.002088 0.001732 -0.001366
v 0.001915 0.001732 -0.001599
v 0.001717 0.001732 -0.001810
v -0.001504 0.001732 0.002003
v -0.001504 0.001732 -0.001997
v -0.001725 0.001732 -0.001810
v -0.001923 0.001732 -0.001599
v -0.002096 0.001732 -0.001366
v -0.002240 0.001732 -0.001115
v -0.002354 0.001732 -0.000849
v -0.002437 0.001732 -0.000572
v -0.002487 0.001732 -0.000286
v -0.002504 0.001732 0.000003
v -0.002487 0.001732 0.000292
v -0.002437 0.001732 0.000577
v -0.002354 0.001732 0.000855
v -0.002240 0.001732 0.001121
v -0.002096 0.001732 0.001372
v -0.001923 0.001732 0.001605
v -0.001725 0.001732 0.001816
v -0.000004 -0.000068 -0.002497
v 0.000286 -0.000068 -0.002480
v 0.000573 -0.000068 -0.002430
v 0.000851 -0.000068 -0.002346
v 0.001118 -0.000068 -0.002231
v 0.001370 -0.000068 -0.002086
v 0.001603 -0.000068 -0.001912
v 0.001814 -0.000068 -0.001713
v 0.002001 -0.000068 -0.001490
v 0.002161 -0.000068 -0.001247
v 0.002292 -0.000068 -0.000987
v 0.002391 -0.000068 -0.000714
v 0.002458 -0.000068 -0.000431
v 0.002492 -0.000068 -0.000143
v 0.002492 -0.000068 0.000148
v 0.002458 -0.000068 0.000437
v 0.002391 -0.000068 0.000720
v 0.002292 -0.000068 0.000993
v 0.002161 -0.000068 0.001253
v 0.002001 -0.000068 0.001496
v 0.001814 -0.000068 0.001718
v 0.001603 -0.000068 0.001918
v 0.001370 -0.000068 0.002091
v 0.001118 -0.000068 0.002237
v 0.000851 -0.000068 0.002352
v 0.000573 -0.000068 0.002435
v 0.000286 -0.000068 0.002486
v -0.000004 -0.000068 0.002503
v -0.000294 -0.000068 0.002486
v -0.000581 -0.000068 0.002435
v -0.000859 -0.000068 0.002352
v -0.001126 -0.000068 0.002237
v -0.001378 -0.000068 0.002091
v -0.001611 -0.000068 0.001918
v -0.001822 -0.000068 0.001718
v -0.002009 -0.000068 0.001496
v -0.002169 -0.000068 0.001253
v -0.002299 -0.000068 0.000993
v -0.002399 -0.000068 0.000720
v -0.002466 -0.000068 0.000437
v -0.002500 -0.000068 0.000148
v -0.002500 -0.000068 -0.000143
v -0.002466 -0.000068 -0.000431
v -0.002399 -0.000068 -0.000714
v -0.002299 -0.000068 -0.000987
v -0.002169 -0.000068 -0.001247
v -0.002009 -0.000068 -0.001490
v -0.001822 -0.000068 -0.001713
v -0.001611 -0.000068 -0.001912
v -0.001378 -0.000068 -0.002086
v -0.001126 -0.000068 -0.002231
v -0.000859 -0.000068 -0.002346
v -0.000581 -0.000068 -0.002430
v -0.000294 -0.000068 -0.002480
v -0.001504 0.007932 0.002003
v -0.001504 0.007932 -0.001997
v 0.001496 0.007932 -0.001997
v 0.001496 0.007932 0.002003
v 0.001273 0.007932 0.002152
v 0.001036 0.007932 0.002276
v 0.000787 0.007932 0.002374
v 0.000528 0.007932 0.002445
v 0.000264 0.007932 0.002488
v -0.000004 0.007932 0.002503
v -0.000272 0.007932 0.002488
v -0.000536 0.007932 0.002445
v -0.000794 0.007932 0.002374
v -0.001044 0.007932 0.002276
v -0.001281 0.007932 0.002152
v -0.001281 0.007932 -0.002146
v -0.001044 0.007932 -0.002271
v -0.000794 0.007932 -0.002369
v -0.000536 0.007932 -0.002440
v -0.000272 0.007932 -0.002483
v -0.000004 0.007932 -0.002497
v 0.000264 0.007932 -0.002483
v 0.000528 0.007932 -0.002440
v 0.000787 0.007932 -0.002369
v 0.001036 0.007932 -0.002271
v 0.001273 0.007932 -0.002146
v -0.000004 0.003932 -0.002497
v -0.000294 0.003932 -0.002480
v -0.000581 0.003932 -0.002430
v -0.000859 0.003932 -0.002346
v -0.001126 0.003932 -0.002231
v -0.001378 0.003932 -0.002086
v -0.001378 0.003932 0.002091
v -0.001126 0.003932 0.002237
v -0.000859 0.003932 0.002352
v -0.000581 0.003932 0.002435
v -0.000294 0.003932 0.002486
v -0.000004 0.003932 0.002503
v 0.000286 0.003932 0.002486
v 0.000573 0.003932 0.002435
v 0.000851 0.003932 0.002352
v 0.001118 0.003932 0.002237
v 0.001370 0.003932 0.002091
v 0.001370 0.003932 -0.002086
v 0.001118 0.003932 -0.002231
v 0.000851 0.003932 -0.002346
v 0.000573 0.003932 -0.002430
v 0.000286 0.003932 -0.002480
vn -0.0000 1.0000 -0.0000
vn -0.0000 -1.0000 -0.0000
vn -1.0000 -0.0000 -0.0000
vn 1.0000 -0.0000 -0.0000
vn -0.1160 -0.0000 -0.9932
vn -0.1160 -0.0002 -0.9933
vn -0.0000 -0.0000 -1.0000
vn -0.0000 -0.0001 -1.0000
vn 0.1161 -0.0000 -0.9932
vn 0.1160 -0.0002 -0.9932
vn 0.2306 -0.0000 -0.9730
vn 0.2306 -0.0003 -0.9730
vn 0.3420 -0.0000 -0.9397
vn 0.3420 -0.0001 -0.9397
vn 0.4487 -0.0000 -0.8937
vn 0.4487 -0.0005 -0.8937
vn 0.5495 -0.0000 -0.8355
vn 0.6001 -0.0000 -0.7999
vn 0.5999 -0.0000 -0.8001
vn 0.5110 0.0001 -0.8596
vn 0.4160 0.0001 -0.9094
vn 0.3162 -0.0001 -0.9487
vn 0.2129 -0.0001 -0.9771
vn 0.1070 0.0001 -0.9943
vn -0.1069 0.0001 -0.9943
vn -0.2129 -0.0001 -0.9771
vn -0.2306 -0.0003 -0.9731
vn -0.3161 -0.0000 -0.9487
vn -0.3420 -0.0004 -0.9397
vn -0.4160 0.0002 -0.9094
vn -0.4487 -0.0005 -0.8937
vn -0.5110 0.0001 -0.8596
vn -0.5496 -0.0000 -0.8355
vn -0.5999 -0.0000 -0.8001
vn -0.6001 -0.0000 -0.7999
vn -0.5495 -0.0000 -0.8355
vn -0.6428 -0.0001 -0.7660
vn -0.2306 -0.0000 -0.9730
vn -0.3420 -0.0000 -0.9397
vn -0.4487 -0.0000 -0.8937
vn -0.6885 -0.0000 -0.7252
vn -0.7275 -0.0000 -0.6861
vn -0.7678 -0.0000 -0.6407
vn -0.8022 -0.0000 -0.5970
vn -0.8366 -0.0000 -0.5478
vn -0.8660 -0.0000 -0.5000
vn -0.8944 -0.0001 -0.4473
vn -0.9182 -0.0001 -0.3962
vn -0.9402 0.0001 -0.3407
vn -0.9580 -0.0001 -0.2867
vn -0.9733 -0.0001 -0.2296
vn -0.9848 -0.0001 -0.1737
vn -0.9933 0.0001 -0.1156
vn -0.9983 -0.0000 -0.0583
vn -1.0000 0.0001 -0.0000
vn -0.9983 -0.0000 0.0583
vn -0.9933 0.0001 0.1156
vn -0.9848 -0.0001 0.1737
vn -0.9733 -0.0001 0.2296
vn -0.9580 -0.0001 0.2868
vn -0.9402 -0.0000 0.3407
vn -0.9182 -0.0001 0.3962
vn -0.8944 -0.0001 0.4473
vn -0.8660 -0.0000 0.5000
vn -0.8366 -0.0000 0.5478
vn -0.8022 -0.0001 0.5971
vn -0.7677 -0.0000 0.6408
vn -0.7275 -0.0001 0.6861
vn -0.6885 -0.0000 0.7252
vn -0.6428 -0.0000 0.7660
vn -0.6001 -0.0000 0.8000
vn -0.5496 -0.0000 0.8354
vn -0.5495 -0.0000 0.8355
vn -0.4488 -0.0005 0.8936
vn -0.5109 0.0001 0.8596
vn -0.4159 0.0004 0.9094
vn -0.3419 -0.0001 0.9397
vn -0.3162 -0.0000 0.9487
vn -0.2306 -0.0003 0.9731
vn -0.2129 -0.0001 0.9771
vn -0.1161 -0.0002 0.9932
vn -0.1069 0.0001 0.9943
vn -0.0000 -0.0001 1.0000
vn -0.0000 -0.0000 1.0000
vn 0.1070 0.0001 0.9943
vn 0.1161 -0.0002 0.9932
vn 0.2128 -0.0001 0.9771
vn 0.2306 -0.0003 0.9730
vn 0.3162 0.0001 0.9487
vn 0.3419 -0.0004 0.9397
vn 0.4160 0.0004 0.9094
vn 0.4488 -0.0005 0.8936
vn 0.5109 -0.0000 0.8596
vn 0.5495 -0.0000 0.8355
vn 0.5999 -0.0000 0.8001
vn 0.6000 -0.0000 0.8000
vn 0.5496 -0.0000 0.8355
vn 0.6428 -0.0000 0.7660
vn -0.4488 -0.0000 0.8936
vn -0.3420 -0.0000 0.9397
vn -0.2306 -0.0000 0.9730
vn -0.1161 -0.0000 0.9932
vn 0.1161 -0.0000 0.9932
vn 0.2306 -0.0000 0.9730
vn 0.3420 -0.0000 0.9397
vn 0.4488 -0.0000 0.8936
vn 0.6886 -0.0000 0.7252
vn 0.7273 -0.0000 0.6863
vn 0.7678 0.0001 0.6407
vn 0.8021 0.0001 0.5972
vn 0.8366 0.0001 0.5478
vn 0.8660 -0.0000 0.5000
vn 0.8944 -0.0000 0.4472
vn 0.9183 -0.0000 0.3959
vn 0.9402 -0.0000 0.3406
vn 0.9580 -0.0001 0.2869
vn 0.9732 -0.0000 0.2298
vn 0.9848 -0.0001 0.1738
vn 0.9933 0.0001 0.1158
vn 0.9983 -0.0001 0.0581
vn 0.9983 -0.0001 -0.0581
vn 0.9933 0.0001 -0.1158
vn 0.9848 -0.0001 -0.1738
vn 0.9732 -0.0000 -0.2298
vn 0.9580 -0.0001 -0.2869
vn 0.9402 -0.0000 -0.3406
vn 0.9183 -0.0000 -0.3959
vn 0.8944 -0.0000 -0.4472
vn 0.8660 -0.0000 -0.5000
vn 0.8366 0.0001 -0.5478
vn 0.8021 0.0001 -0.5972
vn 0.7678 -0.0000 -0.6407
vn 0.7273 -0.0000 -0.6863
vn 0.6886 -0.0000 -0.7252
vn 0.6428 -0.0001 -0.7660
vn -0.5999 -0.0000 0.8001
vt 0.513470 0.753055
vt 0.755941 0.753055
vt 0.524800 0.766466
vt 0.744612 0.766466
vt 0.537604 0.778477
vt 0.731808 0.778477
vt 0.551712 0.788926
vt 0.717700 0.788926
vt 0.566933 0.797674
vt 0.702478 0.797674
vt 0.583064 0.804603
vt 0.686347 0.804603
vt 0.599888 0.809619
vt 0.669523 0.809619
vt 0.617179 0.812656
vt 0.652232 0.812656
vt 0.634706 0.813673
vt 0.754450 0.706139
vt 0.511979 0.706139
vt 0.743120 0.692728
vt 0.523308 0.692728
vt 0.730316 0.680717
vt 0.536112 0.680717
vt 0.716208 0.670268
vt 0.550220 0.670268
vt 0.700987 0.661520
vt 0.565442 0.661520
vt 0.684856 0.654592
vt 0.581573 0.654592
vt 0.668032 0.649576
vt 0.598397 0.649576
vt 0.650741 0.646539
vt 0.615688 0.646539
vt 0.633214 0.645522
vt 0.378203 0.220523
vt 0.077163 0.220523
vt 0.379227 0.202930
vt 0.076139 0.202930
vt 0.378203 0.185337
vt 0.077163 0.185337
vt 0.375142 0.167981
vt 0.080224 0.167981
vt 0.370088 0.151099
vt 0.085278 0.151099
vt 0.363108 0.134917
vt 0.092258 0.134917
vt 0.354296 0.119655
vt 0.101069 0.119655
vt 0.343773 0.105519
vt 0.111593 0.105519
vt 0.331679 0.092701
vt 0.123687 0.092701
vt 0.318179 0.081372
vt 0.137187 0.081372
vt 0.303455 0.071689
vt 0.151911 0.071689
vt 0.287707 0.063779
vt 0.167659 0.063779
vt 0.271146 0.057752
vt 0.184219 0.057752
vt 0.253998 0.053688
vt 0.201368 0.053688
vt 0.236494 0.051642
vt 0.218871 0.051642
vt 0.080224 0.237878
vt 0.375142 0.237878
vt 0.085278 0.254761
vt 0.370088 0.254761
vt 0.092258 0.270943
vt 0.363108 0.270943
vt 0.101069 0.286205
vt 0.354296 0.286205
vt 0.111593 0.300341
vt 0.343773 0.300341
vt 0.123687 0.313159
vt 0.331679 0.313159
vt 0.137187 0.324487
vt 0.318179 0.324487
vt 0.151911 0.334171
vt 0.303455 0.334171
vt 0.167659 0.342080
vt 0.287707 0.342080
vt 0.184219 0.348107
vt 0.271146 0.348107
vt 0.201368 0.352172
vt 0.253998 0.352172
vt 0.218871 0.354218
vt 0.236494 0.354218
vt 0.029762 0.973172
vt 0.029762 0.730701
vt 0.405592 0.973172
vt 0.405592 0.730701
vt 0.027809 0.697936
vt 0.027809 0.455465
vt 0.403639 0.697936
vt 0.403639 0.455465
vt 0.968219 0.037314
vt 0.725748 0.037314
vt 0.968219 0.019681
vt 0.725748 0.019681
vt 0.968219 0.971862
vt 0.725748 0.971862
vt 0.968219 0.954228
vt 0.725748 0.954228
vt 0.968219 0.936596
vt 0.725748 0.936596
vt 0.968219 0.918963
vt 0.725748 0.918963
vt 0.968219 0.901330
vt 0.725748 0.901330
vt 0.968219 0.883697
vt 0.725748 0.883697
vt 0.859107 0.874343
vt 0.483277 0.874343
vt 0.483277 0.890596
vt 0.483277 0.906849
vt 0.483277 0.923102
vt 0.483277 0.939355
vt 0.483277 0.955609
vt 0.483277 0.971862
vt 0.483277 0.019681
vt 0.483277 0.035933
vt 0.483277 0.052187
vt 0.725748 0.054946
vt 0.483277 0.068440
vt 0.725748 0.072579
vt 0.483277 0.084693
vt 0.725748 0.090212
vt 0.483277 0.100946
vt 0.725748 0.107845
vt 0.483277 0.117199
vt 0.859107 0.117199
vt 0.968219 0.107845
vt 0.968219 0.125479
vt 0.968219 0.054946
vt 0.968219 0.072579
vt 0.968219 0.090212
vt 0.859107 0.134765
vt 0.968219 0.143112
vt 0.859107 0.152331
vt 0.968219 0.160744
vt 0.859107 0.169897
vt 0.968219 0.178377
vt 0.859107 0.187463
vt 0.968219 0.196010
vt 0.859107 0.205028
vt 0.968219 0.213643
vt 0.859107 0.222594
vt 0.968219 0.231276
vt 0.859107 0.240160
vt 0.968219 0.248910
vt 0.859107 0.257726
vt 0.968219 0.266542
vt 0.859107 0.275292
vt 0.968219 0.284175
vt 0.859107 0.292857
vt 0.968219 0.301808
vt 0.859107 0.310423
vt 0.968219 0.319441
vt 0.859107 0.327989
vt 0.968219 0.337074
vt 0.859107 0.345555
vt 0.968219 0.354707
vt 0.859107 0.363121
vt 0.968219 0.372340
vt 0.859107 0.380686
vt 0.968219 0.389973
vt 0.859107 0.398252
vt 0.968219 0.407606
vt 0.725748 0.407606
vt 0.725748 0.425239
vt 0.483277 0.414505
vt 0.483277 0.430759
vt 0.725748 0.442872
vt 0.483277 0.447011
vt 0.725748 0.460505
vt 0.483277 0.463265
vt 0.725748 0.478138
vt 0.483277 0.479518
vt 0.725748 0.495771
vt 0.483277 0.495771
vt 0.483277 0.512024
vt 0.725748 0.513404
vt 0.483277 0.528277
vt 0.725748 0.531037
vt 0.483277 0.544531
vt 0.725748 0.548670
vt 0.483277 0.560784
vt 0.725748 0.566303
vt 0.483277 0.577037
vt 0.725748 0.583936
vt 0.483277 0.593290
vt 0.859107 0.593290
vt 0.968219 0.583936
vt 0.968219 0.601569
vt 0.968219 0.425239
vt 0.968219 0.442872
vt 0.968219 0.460505
vt 0.968219 0.478138
vt 0.968219 0.495771
vt 0.968219 0.513404
vt 0.968219 0.531037
vt 0.968219 0.548670
vt 0.968219 0.566303
vt 0.859107 0.610856
vt 0.968219 0.619202
vt 0.859107 0.628421
vt 0.968219 0.636835
vt 0.859107 0.645987
vt 0.968219 0.654468
vt 0.859107 0.663553
vt 0.968219 0.672101
vt 0.859107 0.681119
vt 0.968219 0.689734
vt 0.859107 0.698685
vt 0.968219 0.707367
vt 0.859107 0.716250
vt 0.968219 0.725000
vt 0.859107 0.733816
vt 0.968219 0.742633
vt 0.859107 0.751382
vt 0.968219 0.760266
vt 0.859107 0.768948
vt 0.968219 0.777899
vt 0.859107 0.786514
vt 0.968219 0.795532
vt 0.859107 0.804079
vt 0.968219 0.813165
vt 0.859107 0.821645
vt 0.968219 0.830798
vt 0.859107 0.839211
vt 0.968219 0.848430
vt 0.859107 0.856777
vt 0.968219 0.866064
vt 0.483277 0.398252
vt 0.521744 0.167968
vt 0.764215 0.167968
vt 0.512707 0.181468
vt 0.773252 0.181468
vt 0.505168 0.195857
vt 0.780791 0.195857
vt 0.499212 0.210972
vt 0.786748 0.210972
vt 0.494908 0.226637
vt 0.791051 0.226637
vt 0.492306 0.242672
vt 0.793654 0.242672
vt 0.491436 0.258894
vt 0.794524 0.258894
vt 0.492306 0.275116
vt 0.793654 0.275116
vt 0.494908 0.291152
vt 0.791051 0.291152
vt 0.499212 0.306817
vt 0.786748 0.306817
vt 0.505168 0.321931
vt 0.780791 0.321931
vt 0.512707 0.336321
vt 0.773252 0.336321
vt 0.521744 0.349821
vt 0.764215 0.349821
s 1
usemtl mat_sm_28byj_bit
f 1/1/1 2/2/1 17/3/1
f 17/3/1 2/2/1 3/4/1
f 17/3/1 3/4/1 16/5/1
f 16/5/1 3/4/1 4/6/1
f 16/5/1 4/6/1 15/7/1
f 15/7/1 4/6/1 5/8/1
f 15/7/1 5/8/1 14/9/1
f 14/9/1 5/8/1 6/10/1
f 14/9/1 6/10/1 13/11/1
f 13/11/1 6/10/1 7/12/1
f 13/11/1 7/12/1 12/13/1
f 12/13/1 7/12/1 8/14/1
f 12/13/1 8/14/1 11/15/1
f 11/15/1 8/14/1 9/16/1
f 11/15/1 9/16/1 10/17/1
f 18/18/1 19/19/1 34/20/1
f 34/20/1 19/19/1 20/21/1
f 34/20/1 20/21/1 33/22/1
f 33/22/1 20/21/1 21/23/1
f 33/22/1 21/23/1 32/24/1
f 32/24/1 21/23/1 22/25/1
f 32/24/1 22/25/1 31/26/1
f 31/26/1 22/25/1 23/27/1
f 31/26/1 23/27/1 30/28/1
f 30/28/1 23/27/1 24/29/1
f 30/28/1 24/29/1 29/30/1
f 29/30/1 24/29/1 25/31/1
f 29/30/1 25/31/1 28/32/1
f 28/32/1 25/31/1 26/33/1
f 28/32/1 26/33/1 27/34/1
f 36/35/2 61/36/2 35/37/2
f 35/37/2 61/36/2 62/38/2
f 35/37/2 62/38/2 88/39/2
f 88/39/2 62/38/2 63/40/2
f 88/39/2 63/40/2 87/41/2
f 87/41/2 63/40/2 64/42/2
f 87/41/2 64/42/2 86/43/2
f 86/43/2 64/42/2 65/44/2
f 86/43/2 65/44/2 85/45/2
f 85/45/2 65/44/2 66/46/2
f 85/45/2 66/46/2 84/47/2
f 84/47/2 66/46/2 67/48/2
f 84/47/2 67/48/2 83/49/2
f 83/49/2 67/48/2 68/50/2
f 83/49/2 68/50/2 82/51/2
f 82/51/2 68/50/2 69/52/2
f 82/51/2 69/52/2 81/53/2
f 81/53/2 69/52/2 70/54/2
f 81/53/2 70/54/2 80/55/2
f 80/55/2 70/54/2 71/56/2
f 80/55/2 71/56/2 79/57/2
f 79/57/2 71/56/2 72/58/2
f 79/57/2 72/58/2 78/59/2
f 78/59/2 72/58/2 73/60/2
f 78/59/2 73/60/2 77/61/2
f 77/61/2 73/60/2 74/62/2
f 77/61/2 74/62/2 76/63/2
f 76/63/2 74/62/2 75/64/2
f 61/36/2 36/35/2 60/65/2
f 60/65/2 36/35/2 37/66/2
f 60/65/2 37/66/2 59/67/2
f 59/67/2 37/66/2 38/68/2
f 59/67/2 38/68/2 58/69/2
f 58/69/2 38/68/2 39/70/2
f 58/69/2 39/70/2 57/71/2
f 57/71/2 39/70/2 40/72/2
f 57/71/2 40/72/2 56/73/2
f 56/73/2 40/72/2 41/74/2
f 56/73/2 41/74/2 55/75/2
f 55/75/2 41/74/2 42/76/2
f 55/75/2 42/76/2 54/77/2
f 54/77/2 42/76/2 43/78/2
f 54/77/2 43/78/2 53/79/2
f 53/79/2 43/78/2 44/80/2
f 53/79/2 44/80/2 52/81/2
f 52/81/2 44/80/2 45/82/2
f 52/81/2 45/82/2 51/83/2
f 51/83/2 45/82/2 46/84/2
f 51/83/2 46/84/2 50/85/2
f 50/85/2 46/84/2 47/86/2
f 50/85/2 47/86/2 49/87/2
f 49/87/2 47/86/2 48/88/2
f 19/89/3 18/90/3 90/91/3
f 90/91/3 18/90/3 89/92/3
f 2/93/4 1/94/4 92/95/4
f 92/95/4 1/94/4 91/96/4
f 88/97/5 116/98/6 35/99/7
f 35/99/7 116/98/6 115/100/8
f 35/101/7 115/102/8 36/103/9
f 36/103/9 115/102/8 136/104/10
f 36/103/9 136/104/10 37/105/11
f 37/105/11 136/104/10 135/106/12
f 37/105/11 135/106/12 38/107/13
f 38/107/13 135/106/12 134/108/14
f 38/107/13 134/108/14 39/109/15
f 39/109/15 134/108/14 133/110/16
f 39/109/15 133/110/16 40/111/17
f 40/111/17 133/110/16 132/112/17
f 40/111/17 132/112/17 1/113/18
f 1/113/18 132/112/17 91/114/19
f 91/114/19 132/112/17 114/115/20
f 114/115/20 132/112/17 133/110/16
f 114/115/20 133/110/16 113/116/21
f 113/116/21 133/110/16 134/108/14
f 113/116/21 134/108/14 112/117/22
f 112/117/22 134/108/14 135/106/12
f 112/117/22 135/106/12 111/118/23
f 111/118/23 135/106/12 136/104/10
f 111/118/23 136/104/10 110/119/24
f 110/119/24 136/104/10 115/102/8
f 110/119/24 115/102/8 109/120/7
f 109/121/7 115/100/8 108/122/25
f 108/122/25 115/100/8 116/98/6
f 108/122/25 116/98/6 107/123/26
f 107/123/26 116/98/6 117/124/27
f 107/123/26 117/124/27 106/125/28
f 106/125/28 117/124/27 118/126/29
f 106/125/28 118/126/29 105/127/30
f 105/127/30 118/126/29 119/128/31
f 105/127/30 119/128/31 104/129/32
f 104/129/32 119/128/31 120/130/33
f 104/129/32 120/130/33 90/131/34
f 90/131/34 120/130/33 19/132/35
f 19/132/35 120/130/33 84/133/36
f 19/132/35 84/133/36 83/134/37
f 116/98/6 88/97/5 117/124/27
f 117/124/27 88/97/5 87/135/38
f 117/124/27 87/135/38 118/126/29
f 118/126/29 87/135/38 86/136/39
f 118/126/29 86/136/39 119/128/31
f 119/128/31 86/136/39 85/137/40
f 119/128/31 85/137/40 120/130/33
f 120/130/33 85/137/40 84/133/36
f 19/132/35 83/134/37 20/138/41
f 20/138/41 83/134/37 82/139/42
f 20/138/41 82/139/42 21/140/43
f 21/140/43 82/139/42 81/141/44
f 21/140/43 81/141/44 22/142/45
f 22/142/45 81/141/44 80/143/46
f 22/142/45 80/143/46 23/144/47
f 23/144/47 80/143/46 79/145/48
f 23/144/47 79/145/48 24/146/49
f 24/146/49 79/145/48 78/147/50
f 24/146/49 78/147/50 25/148/51
f 25/148/51 78/147/50 77/149/52
f 25/148/51 77/149/52 26/150/53
f 26/150/53 77/149/52 76/151/54
f 26/150/53 76/151/54 27/152/55
f 27/152/55 76/151/54 75/153/56
f 27/152/55 75/153/56 28/154/57
f 28/154/57 75/153/56 74/155/58
f 28/154/57 74/155/58 29/156/59
f 29/156/59 74/155/58 73/157/60
f 29/156/59 73/157/60 30/158/61
f 30/158/61 73/157/60 72/159/62
f 30/158/61 72/159/62 31/160/63
f 31/160/63 72/159/62 71/161/64
f 31/160/63 71/161/64 32/162/65
f 32/162/65 71/161/64 70/163/66
f 32/162/65 70/163/66 33/164/67
f 33/164/67 70/163/66 69/165/68
f 33/164/67 69/165/68 34/166/69
f 34/166/69 69/165/68 68/167/70
f 34/166/69 68/167/70 18/168/71
f 18/168/71 68/167/70 67/169/72
f 18/168/71 67/169/72 121/170/73
f 121/170/73 67/169/72 122/171/74
f 121/170/73 122/171/74 103/172/75
f 103/172/75 122/171/74 102/173/76
f 102/173/76 122/171/74 123/174/77
f 102/173/76 123/174/77 101/175/78
f 101/175/78 123/174/77 124/176/79
f 101/175/78 124/176/79 100/177/80
f 100/177/80 124/176/79 125/178/81
f 100/177/80 125/178/81 99/179/82
f 99/179/82 125/178/81 126/180/83
f 99/179/82 126/180/83 98/181/84
f 98/181/84 126/180/83 97/182/85
f 97/182/85 126/180/83 127/183/86
f 97/182/85 127/183/86 96/184/87
f 96/184/87 127/183/86 128/185/88
f 96/184/87 128/185/88 95/186/89
f 95/186/89 128/185/88 129/187/90
f 95/186/89 129/187/90 94/188/91
f 94/188/91 129/187/90 130/189/92
f 94/188/91 130/189/92 93/190/93
f 93/190/93 130/189/92 131/191/94
f 93/190/93 131/191/94 92/192/95
f 92/192/95 131/191/94 2/193/96
f 2/193/96 131/191/94 57/194/97
f 2/193/96 57/194/97 56/195/98
f 67/169/72 66/196/99 122/171/74
f 122/171/74 66/196/99 123/174/77
f 66/196/99 65/197/100 123/174/77
f 123/174/77 65/197/100 124/176/79
f 65/197/100 64/198/101 124/176/79
f 124/176/79 64/198/101 125/178/81
f 64/198/101 63/199/102 125/178/81
f 125/178/81 63/199/102 126/180/83
f 63/199/102 62/200/84 126/180/83
f 126/180/83 62/200/84 127/183/86
f 62/200/84 61/201/103 127/183/86
f 127/183/86 61/201/103 128/185/88
f 61/201/103 60/202/104 128/185/88
f 128/185/88 60/202/104 129/187/90
f 60/202/104 59/203/105 129/187/90
f 129/187/90 59/203/105 130/189/92
f 59/203/105 58/204/106 130/189/92
f 130/189/92 58/204/106 131/191/94
f 58/204/106 57/194/97 131/191/94
f 2/193/96 56/195/98 3/205/107
f 3/205/107 56/195/98 55/206/108
f 3/205/107 55/206/108 4/207/109
f 4/207/109 55/206/108 54/208/110
f 4/207/109 54/208/110 5/209/111
f 5/209/111 54/208/110 53/210/112
f 5/209/111 53/210/112 6/211/113
f 6/211/113 53/210/112 52/212/114
f 6/211/113 52/212/114 7/213/115
f 7/213/115 52/212/114 51/214/116
f 7/213/115 51/214/116 8/215/117
f 8/215/117 51/214/116 50/216/118
f 8/215/117 50/216/118 9/217/119
f 9/217/119 50/216/118 49/218/120
f 9/217/119 49/218/120 10/219/4
f 10/219/4 49/218/120 48/220/121
f 10/219/4 48/220/121 11/221/122
f 11/221/122 48/220/121 47/222/123
f 11/221/122 47/222/123 12/223/124
f 12/223/124 47/222/123 46/224/125
f 12/223/124 46/224/125 13/225/126
f 13/225/126 46/224/125 45/226/127
f 13/225/126 45/226/127 14/227/128
f 14/227/128 45/226/127 44/228/129
f 14/227/128 44/228/129 15/229/130
f 15/229/130 44/228/129 43/230/131
f 15/229/130 43/230/131 16/231/132
f 16/231/132 43/230/131 42/232/133
f 16/231/132 42/232/133 17/233/134
f 17/233/134 42/232/133 41/234/135
f 17/233/134 41/234/135 1/113/18
f 1/113/18 41/234/135 40/111/17
f 103/172/75 89/235/136 121/170/73
f 121/170/73 89/235/136 18/168/71
f 90/236/1 89/237/1 104/238/1
f 104/238/1 89/237/1 103/239/1
f 104/238/1 103/239/1 105/240/1
f 105/240/1 103/239/1 102/241/1
f 105/240/1 102/241/1 106/242/1
f 106/242/1 102/241/1 101/243/1
f 106/242/1 101/243/1 107/244/1
f 107/244/1 101/243/1 100/245/1
f 107/244/1 100/245/1 108/246/1
f 108/246/1 100/245/1 99/247/1
f 108/246/1 99/247/1 109/248/1
f 109/248/1 99/247/1 98/249/1
f 109/248/1 98/249/1 110/250/1
f 110/250/1 98/249/1 97/251/1
f 110/250/1 97/251/1 111/252/1
f 111/252/1 97/251/1 96/253/1
f 111/252/1 96/253/1 112/254/1
f 112/254/1 96/253/1 95/255/1
f 112/254/1 95/255/1 113/256/1
f 113/256/1 95/255/1 94/257/1
f 113/256/1 94/257/1 114/258/1
f 114/258/1 94/257/1 93/259/1
f 114/258/1 93/259/1 91/260/1
f 91/260/1 93/259/1 92/261/1
