# Blender 4.4.1
# www.blender.org
mtllib mini_motor_gear_hide.mtl
o mini_motor_gear_hide
v -0.001497 0.000010 -0.010705
v -0.001469 0.000304 -0.010705
v -0.001383 0.000582 -0.010705
v -0.001244 0.000842 -0.010705
v -0.001058 0.001071 -0.010705
v -0.000831 0.001258 -0.010705
v -0.000571 0.001395 -0.010705
v -0.000290 0.001483 -0.010705
v 0.000003 0.001509 -0.010705
v 0.000296 0.001483 -0.010705
v 0.000577 0.001395 -0.010705
v 0.000836 0.001258 -0.010705
v 0.001063 0.001071 -0.010705
v 0.001250 0.000842 -0.010705
v 0.001389 0.000582 -0.010705
v 0.001474 0.000304 -0.010705
v 0.001503 0.000010 -0.010705
v 0.001474 -0.000284 -0.010705
v 0.001389 -0.000562 -0.010705
v 0.001250 -0.000821 -0.010705
v 0.001063 -0.001050 -0.010705
v 0.000836 -0.001237 -0.010705
v 0.000577 -0.001375 -0.010705
v 0.000296 -0.001462 -0.010705
v 0.000003 -0.001489 -0.010705
v -0.000290 -0.001462 -0.010705
v -0.000571 -0.001375 -0.010705
v -0.000831 -0.001237 -0.010705
v -0.001058 -0.001050 -0.010705
v -0.001244 -0.000821 -0.010705
v -0.001383 -0.000562 -0.010705
v -0.001469 -0.000284 -0.010705
v -0.001497 0.000010 -0.011405
v -0.001469 0.000304 -0.011405
v -0.001383 0.000582 -0.011405
v -0.001244 0.000842 -0.011405
v -0.001058 0.001071 -0.011405
v -0.000831 0.001258 -0.011405
v -0.000571 0.001395 -0.011405
v -0.000290 0.001483 -0.011405
v 0.000003 0.001509 -0.011405
v 0.000296 0.001483 -0.011405
v 0.000577 0.001395 -0.011405
v 0.000836 0.001258 -0.011405
v 0.001063 0.001071 -0.011405
v 0.001250 0.000842 -0.011405
v 0.001389 0.000582 -0.011405
v 0.001474 0.000304 -0.011405
v 0.001503 0.000010 -0.011405
v 0.001474 -0.000284 -0.011405
v 0.001389 -0.000562 -0.011405
v 0.001250 -0.000821 -0.011405
v 0.001063 -0.001050 -0.011405
v 0.000836 -0.001237 -0.011405
v 0.000577 -0.001375 -0.011405
v 0.000296 -0.001462 -0.011405
v 0.000003 -0.001489 -0.011405
v -0.000290 -0.001462 -0.011405
v -0.000571 -0.001375 -0.011405
v -0.000831 -0.001237 -0.011405
v -0.001058 -0.001050 -0.011405
v -0.001244 -0.000821 -0.011405
v -0.001383 -0.000562 -0.011405
v -0.001469 -0.000284 -0.011405
v -0.005997 -0.003991 -0.011405
v -0.004997 -0.004991 -0.011405
v -0.004997 -0.004991 -0.000005
v -0.005997 -0.003991 -0.000005
v -0.005997 0.004012 -0.000005
v -0.005997 0.004012 -0.011405
v -0.004997 0.005011 -0.011405
v -0.004997 0.005011 -0.000005
v 0.005003 0.005011 -0.000005
v 0.005003 0.005011 -0.011405
v 0.005003 -0.004991 -0.011405
v 0.006003 -0.003991 -0.011405
v 0.006003 -0.003991 -0.000005
v 0.005003 -0.004991 -0.000005
v 0.006003 0.004012 -0.011405
v 0.006003 0.004012 -0.000005
vn -0.0000 -0.0000 -1.0000
vn 0.9805 0.1967 -0.0000
vn 1.0000 -0.0000 -0.0000
vn 0.9805 -0.1967 -0.0000
vn 0.9232 -0.3842 -0.0000
vn 0.9232 0.3842 -0.0000
vn 0.8324 0.5541 -0.0000
vn 0.7086 0.7057 -0.0000
vn 0.5546 0.8321 -0.0000
vn 0.3844 0.9232 -0.0000
vn 0.3844 0.9231 -0.0000
vn 0.1954 0.9807 -0.0000
vn -0.0000 1.0000 -0.0000
vn -0.1954 0.9807 -0.0000
vn -0.3844 0.9231 -0.0000
vn -0.3844 0.9232 -0.0000
vn -0.5546 0.8321 -0.0000
vn -0.7086 0.7057 -0.0000
vn -0.8324 0.5541 -0.0000
vn -0.9232 0.3842 -0.0000
vn -0.9805 0.1967 -0.0000
vn -1.0000 -0.0000 -0.0000
vn -0.9805 -0.1967 -0.0000
vn -0.9232 -0.3842 -0.0000
vn -0.8324 -0.5541 -0.0000
vn -0.7086 -0.7057 -0.0000
vn -0.5546 -0.8321 -0.0000
vn -0.3844 -0.9232 -0.0000
vn -0.3844 -0.9231 -0.0000
vn -0.1954 -0.9807 -0.0000
vn -0.0000 -1.0000 -0.0000
vn 0.1954 -0.9807 -0.0000
vn 0.3844 -0.9231 -0.0000
vn 0.3844 -0.9232 -0.0000
vn 0.5546 -0.8321 -0.0000
vn 0.7086 -0.7057 -0.0000
vn 0.8324 -0.5541 -0.0000
vn -0.7071 -0.7071 -0.0000
vn -0.7071 0.7071 -0.0000
vn 0.7071 -0.7071 -0.0000
vn 0.7071 0.7071 -0.0000
vn -0.0000 -0.0000 1.0000
vt 0.648405 0.826968
vt 0.593289 0.826968
vt 0.648945 0.821486
vt 0.592749 0.821486
vt 0.648405 0.816004
vt 0.593289 0.816004
vt 0.646806 0.810733
vt 0.594888 0.810733
vt 0.644209 0.805876
vt 0.597484 0.805876
vt 0.640715 0.801618
vt 0.600979 0.801618
vt 0.636457 0.798123
vt 0.605236 0.798123
vt 0.631600 0.795527
vt 0.610094 0.795527
vt 0.626329 0.793928
vt 0.615365 0.793928
vt 0.620847 0.793388
vt 0.594888 0.832239
vt 0.646806 0.832239
vt 0.597484 0.837096
vt 0.644209 0.837096
vt 0.600979 0.841354
vt 0.640715 0.841354
vt 0.605236 0.844848
vt 0.636457 0.844848
vt 0.610094 0.847445
vt 0.631600 0.847445
vt 0.615365 0.849044
vt 0.626329 0.849044
vt 0.620847 0.849584
vt 0.824505 0.360023
vt 0.803004 0.360023
vt 0.824505 0.350976
vt 0.803004 0.350976
vt 0.824505 0.640462
vt 0.803004 0.640462
vt 0.824505 0.631415
vt 0.803004 0.631415
vt 0.803004 0.622369
vt 0.824505 0.369069
vt 0.803004 0.369069
vt 0.824505 0.378115
vt 0.803004 0.378115
vt 0.824505 0.387162
vt 0.803004 0.387162
vt 0.824505 0.396208
vt 0.803004 0.396208
vt 0.824505 0.405255
vt 0.803004 0.405255
vt 0.824505 0.414301
vt 0.803004 0.414301
vt 0.824505 0.423348
vt 0.803004 0.423348
vt 0.824505 0.432394
vt 0.803004 0.432394
vt 0.824505 0.441440
vt 0.803004 0.441440
vt 0.824505 0.450487
vt 0.803004 0.450487
vt 0.824505 0.459533
vt 0.803004 0.459533
vt 0.824505 0.468580
vt 0.803004 0.468580
vt 0.824505 0.477626
vt 0.803004 0.477626
vt 0.824505 0.486673
vt 0.803004 0.486673
vt 0.824505 0.495719
vt 0.803004 0.495719
vt 0.824505 0.504765
vt 0.803004 0.504765
vt 0.824505 0.513812
vt 0.803004 0.513812
vt 0.824505 0.522858
vt 0.803004 0.522858
vt 0.824505 0.531905
vt 0.803004 0.531905
vt 0.824505 0.540951
vt 0.803004 0.540951
vt 0.824505 0.549998
vt 0.803004 0.549998
vt 0.824505 0.559044
vt 0.803004 0.559044
vt 0.824505 0.568090
vt 0.803004 0.568090
vt 0.824505 0.577137
vt 0.803004 0.577137
vt 0.824505 0.586183
vt 0.803004 0.586183
vt 0.824505 0.595230
vt 0.803004 0.595230
vt 0.824505 0.604276
vt 0.803004 0.604276
vt 0.824505 0.613323
vt 0.803004 0.613323
vt 0.824505 0.622369
vt 0.908553 0.565200
vt 0.908553 0.215044
vt 0.951991 0.565200
vt 0.951991 0.215044
vt 0.776421 0.367677
vt 0.776421 0.613400
vt 0.426265 0.367677
vt 0.426265 0.613400
vt 0.851416 0.565200
vt 0.851416 0.215044
vt 0.894854 0.565200
vt 0.894855 0.215044
vt 0.414547 0.040086
vt 0.414547 0.347240
vt 0.064391 0.040086
vt 0.064391 0.347240
vt 0.951991 0.598987
vt 0.951991 0.949142
vt 0.908553 0.598987
vt 0.908553 0.949142
vt 0.431978 0.349145
vt 0.431978 0.041990
vt 0.782134 0.349145
vt 0.782134 0.041990
vt 0.894854 0.598987
vt 0.894854 0.949142
vt 0.851416 0.598987
vt 0.851416 0.949142
vt 0.056773 0.619114
vt 0.056773 0.373390
vt 0.406929 0.619114
vt 0.406929 0.373390
vt 0.666539 0.811193
vt 0.805643 0.697320
vt 0.667424 0.820181
vt 0.805643 0.943043
vt 0.666539 0.829170
vt 0.663917 0.837813
vt 0.659659 0.845778
vt 0.653929 0.852760
vt 0.774928 0.973759
vt 0.646948 0.858490
vt 0.638982 0.862747
vt 0.630339 0.865369
vt 0.621351 0.866255
vt 0.467774 0.973759
vt 0.612362 0.865369
vt 0.603719 0.862747
vt 0.595754 0.858490
vt 0.588772 0.852760
vt 0.437058 0.943043
vt 0.583043 0.845778
vt 0.578785 0.837813
vt 0.576163 0.829170
vt 0.575278 0.820181
vt 0.437058 0.697320
vt 0.576163 0.811193
vt 0.578785 0.802550
vt 0.583043 0.794584
vt 0.588772 0.787603
vt 0.467774 0.666604
vt 0.595754 0.781873
vt 0.603719 0.777615
vt 0.612362 0.774994
vt 0.621351 0.774108
vt 0.774928 0.666604
vt 0.630339 0.774994
vt 0.638982 0.777615
vt 0.646948 0.781873
vt 0.653929 0.787603
vt 0.659659 0.794584
vt 0.663917 0.802550
vt 0.076698 0.669175
vt 0.383853 0.669175
vt 0.045983 0.699890
vt 0.414568 0.699890
vt 0.045983 0.945614
vt 0.414568 0.945614
vt 0.076698 0.976329
vt 0.383853 0.976329
s 1
usemtl Steel_-_Satin.001
f 2/1/1 16/2/1 1/3/1
f 1/3/1 16/2/1 17/4/1
f 1/3/1 17/4/1 32/5/1
f 32/5/1 17/4/1 18/6/1
f 32/5/1 18/6/1 31/7/1
f 31/7/1 18/6/1 19/8/1
f 31/7/1 19/8/1 30/9/1
f 30/9/1 19/8/1 20/10/1
f 30/9/1 20/10/1 29/11/1
f 29/11/1 20/10/1 21/12/1
f 29/11/1 21/12/1 28/13/1
f 28/13/1 21/12/1 22/14/1
f 28/13/1 22/14/1 27/15/1
f 27/15/1 22/14/1 23/16/1
f 27/15/1 23/16/1 26/17/1
f 26/17/1 23/16/1 24/18/1
f 26/17/1 24/18/1 25/19/1
f 16/2/1 2/1/1 15/20/1
f 15/20/1 2/1/1 3/21/1
f 15/20/1 3/21/1 14/22/1
f 14/22/1 3/21/1 4/23/1
f 14/22/1 4/23/1 13/24/1
f 13/24/1 4/23/1 5/25/1
f 13/24/1 5/25/1 12/26/1
f 12/26/1 5/25/1 6/27/1
f 12/26/1 6/27/1 11/28/1
f 11/28/1 6/27/1 7/29/1
f 11/28/1 7/29/1 10/30/1
f 10/30/1 7/29/1 8/31/1
f 10/30/1 8/31/1 9/32/1
f 32/33/2 64/34/2 1/35/3
f 1/35/3 64/34/2 33/36/3
f 1/37/3 33/38/3 2/39/4
f 2/39/4 33/38/3 34/40/4
f 2/39/4 34/40/4 35/41/5
f 32/33/2 31/42/6 64/34/2
f 64/34/2 31/42/6 63/43/6
f 63/43/6 31/42/6 30/44/7
f 63/43/6 30/44/7 62/45/7
f 62/45/7 30/44/7 29/46/8
f 62/45/7 29/46/8 61/47/8
f 61/47/8 29/46/8 28/48/9
f 61/47/8 28/48/9 60/49/9
f 60/49/9 28/48/9 27/50/10
f 60/49/9 27/50/10 59/51/11
f 59/51/11 27/50/10 26/52/12
f 59/51/11 26/52/12 58/53/12
f 58/53/12 26/52/12 25/54/13
f 58/53/12 25/54/13 57/55/13
f 57/55/13 25/54/13 24/56/14
f 57/55/13 24/56/14 56/57/14
f 56/57/14 24/56/14 23/58/15
f 56/57/14 23/58/15 55/59/16
f 55/59/16 23/58/15 22/60/17
f 55/59/16 22/60/17 54/61/17
f 54/61/17 22/60/17 21/62/18
f 54/61/17 21/62/18 53/63/18
f 53/63/18 21/62/18 20/64/19
f 53/63/18 20/64/19 52/65/19
f 52/65/19 20/64/19 19/66/20
f 52/65/19 19/66/20 51/67/20
f 51/67/20 19/66/20 18/68/21
f 51/67/20 18/68/21 50/69/21
f 50/69/21 18/68/21 17/70/22
f 50/69/21 17/70/22 49/71/22
f 49/71/22 17/70/22 16/72/23
f 49/71/22 16/72/23 48/73/23
f 48/73/23 16/72/23 15/74/24
f 48/73/23 15/74/24 47/75/24
f 47/75/24 15/74/24 14/76/25
f 47/75/24 14/76/25 46/77/25
f 46/77/25 14/76/25 13/78/26
f 46/77/25 13/78/26 45/79/26
f 45/79/26 13/78/26 12/80/27
f 45/79/26 12/80/27 44/81/27
f 44/81/27 12/80/27 11/82/28
f 44/81/27 11/82/28 43/83/29
f 43/83/29 11/82/28 10/84/30
f 43/83/29 10/84/30 42/85/30
f 42/85/30 10/84/30 9/86/31
f 42/85/30 9/86/31 41/87/31
f 41/87/31 9/86/31 8/88/32
f 41/87/31 8/88/32 40/89/32
f 40/89/32 8/88/32 7/90/33
f 40/89/32 7/90/33 39/91/34
f 39/91/34 7/90/33 6/92/35
f 39/91/34 6/92/35 38/93/35
f 38/93/35 6/92/35 5/94/36
f 38/93/35 5/94/36 37/95/36
f 37/95/36 5/94/36 4/96/37
f 37/95/36 4/96/37 36/97/37
f 36/97/37 4/96/37 3/98/5
f 36/97/37 3/98/5 35/41/5
f 35/41/5 3/98/5 2/39/4
f 66/99/38 67/100/38 65/101/38
f 65/101/38 67/100/38 68/102/38
f 68/103/22 69/104/22 65/105/22
f 65/105/22 69/104/22 70/106/22
f 70/107/39 69/108/39 71/109/39
f 71/109/39 69/108/39 72/110/39
f 72/111/13 73/112/13 71/113/13
f 71/113/13 73/112/13 74/114/13
f 76/115/40 77/116/40 75/117/40
f 75/117/40 77/116/40 78/118/40
f 66/119/31 75/120/31 67/121/31
f 67/121/31 75/120/31 78/122/31
f 74/123/41 73/124/41 79/125/41
f 79/125/41 73/124/41 80/126/41
f 76/127/3 79/128/3 77/129/3
f 77/129/3 79/128/3 80/130/3
f 64/131/1 65/132/1 33/133/1
f 33/133/1 65/132/1 70/134/1
f 33/133/1 70/134/1 34/135/1
f 34/135/1 70/134/1 35/136/1
f 35/136/1 70/134/1 36/137/1
f 36/137/1 70/134/1 37/138/1
f 37/138/1 70/134/1 71/139/1
f 37/138/1 71/139/1 38/140/1
f 38/140/1 71/139/1 39/141/1
f 39/141/1 71/139/1 40/142/1
f 40/142/1 71/139/1 41/143/1
f 41/143/1 71/139/1 74/144/1
f 41/143/1 74/144/1 42/145/1
f 42/145/1 74/144/1 43/146/1
f 43/146/1 74/144/1 44/147/1
f 44/147/1 74/144/1 45/148/1
f 45/148/1 74/144/1 79/149/1
f 45/148/1 79/149/1 46/150/1
f 46/150/1 79/149/1 47/151/1
f 47/151/1 79/149/1 48/152/1
f 48/152/1 79/149/1 49/153/1
f 49/153/1 79/149/1 76/154/1
f 49/153/1 76/154/1 50/155/1
f 50/155/1 76/154/1 51/156/1
f 51/156/1 76/154/1 52/157/1
f 52/157/1 76/154/1 53/158/1
f 53/158/1 76/154/1 75/159/1
f 53/158/1 75/159/1 54/160/1
f 54/160/1 75/159/1 55/161/1
f 55/161/1 75/159/1 56/162/1
f 56/162/1 75/159/1 57/163/1
f 57/163/1 75/159/1 66/164/1
f 57/163/1 66/164/1 58/165/1
f 58/165/1 66/164/1 59/166/1
f 59/166/1 66/164/1 60/167/1
f 60/167/1 66/164/1 61/168/1
f 61/168/1 66/164/1 65/132/1
f 61/168/1 65/132/1 62/169/1
f 62/169/1 65/132/1 63/170/1
f 63/170/1 65/132/1 64/131/1
f 67/171/42 78/172/42 68/173/42
f 68/173/42 78/172/42 77/174/42
f 68/173/42 77/174/42 69/175/42
f 69/175/42 77/174/42 80/176/42
f 69/175/42 80/176/42 72/177/42
f 72/177/42 80/176/42 73/178/42
