# Blender 4.4.1
# www.blender.org
mtllib 2026_04_24_3d_led_rgb_of_strip_color_tip.mtl
o led_rgb_of_strip_high_observed_color_zone
v -0.000614 -0.000085 -0.001493
v -0.000614 -0.000085 -0.001493
v -0.001439 -0.000085 -0.000641
v -0.001439 -0.000085 -0.000641
v -0.001439 0.000015 -0.000641
v -0.001439 0.000015 -0.000641
v -0.001331 0.000015 -0.000859
v -0.001191 0.000015 -0.001058
v -0.001022 0.000015 -0.001232
v -0.000828 0.000015 -0.001378
v -0.000614 0.000015 -0.001493
v -0.000614 0.000015 -0.001493
v -0.000614 -0.000085 -0.000486
v -0.000614 -0.000085 -0.000486
v -0.000614 -0.000085 -0.000486
v -0.000614 0.000015 -0.000486
v -0.000614 0.000015 -0.000486
v -0.000614 0.000015 -0.000486
v -0.001501 -0.000085 -0.000453
v -0.001538 -0.000085 -0.000259
v -0.001551 -0.000085 -0.000061
v -0.001551 -0.000085 -0.000061
v -0.000431 -0.000085 -0.000061
v -0.000431 -0.000085 -0.000061
v -0.000431 -0.000085 -0.000061
v 0.000114 -0.000085 0.000041
v 0.000114 -0.000085 0.000041
v 0.000114 -0.000085 0.000041
v 0.000114 -0.000085 0.001497
v 0.000114 -0.000085 0.001497
v 0.000250 -0.000085 0.001481
v 0.000384 -0.000085 0.001455
v 0.000515 -0.000085 0.001416
v 0.000515 -0.000085 0.001416
v 0.000515 -0.000085 -0.000367
v 0.000515 -0.000085 -0.000367
v 0.000515 -0.000085 -0.000367
v 0.001426 -0.000085 -0.000721
v 0.001426 -0.000085 -0.000721
v 0.001394 -0.000085 -0.000786
v 0.001358 -0.000085 -0.000850
v 0.001320 -0.000085 -0.000912
v 0.001320 -0.000085 -0.000912
v -0.000336 -0.000085 -0.000268
v -0.000336 -0.000085 -0.000268
v -0.000336 -0.000085 -0.000268
v -0.000336 -0.000085 -0.001584
v -0.000336 -0.000085 -0.001584
v -0.000430 -0.000085 -0.001559
v -0.000523 -0.000085 -0.001529
v 0.000515 0.000015 -0.000367
v 0.000515 0.000015 -0.000367
v 0.000515 0.000015 -0.000367
v 0.001426 0.000015 -0.000721
v 0.001426 0.000015 -0.000721
v 0.000515 0.000015 0.001416
v 0.000515 0.000015 0.001416
v 0.001516 0.000015 -0.000475
v 0.001564 0.000015 -0.000218
v 0.001569 0.000015 0.000044
v 0.001529 0.000015 0.000302
v 0.001447 0.000015 0.000551
v 0.001325 0.000015 0.000782
v 0.001166 0.000015 0.000989
v 0.000974 0.000015 0.001168
v 0.000755 0.000015 0.001311
v -0.000336 0.000015 -0.000268
v -0.000336 0.000015 -0.000268
v -0.000336 0.000015 -0.000268
v -0.000336 0.000015 -0.001584
v -0.000336 0.000015 -0.001584
v 0.001320 0.000015 -0.000912
v 0.001320 0.000015 -0.000912
v -0.000101 0.000015 -0.001619
v 0.000137 0.000015 -0.001618
v 0.000371 0.000015 -0.001580
v 0.000598 0.000015 -0.001508
v 0.000810 0.000015 -0.001403
v 0.001005 0.000015 -0.001266
v 0.001176 0.000015 -0.001101
v -0.000222 0.000015 -0.000675
v -0.000222 0.000015 -0.000675
v -0.000222 0.000015 -0.000675
v 0.000011 0.000015 -0.000675
v 0.000011 0.000015 -0.000675
v 0.000011 0.000015 -0.000675
v 0.000011 0.000015 -0.000482
v 0.000011 0.000015 -0.000482
v 0.000011 0.000015 -0.000482
v -0.000222 0.000015 -0.000482
v -0.000222 0.000015 -0.000482
v -0.000222 0.000015 -0.000482
v 0.000011 0.000115 -0.000482
v 0.000011 0.000115 -0.000482
v 0.000011 0.000115 -0.000482
v -0.000222 0.000115 -0.000482
v -0.000222 0.000115 -0.000482
v -0.000222 0.000115 -0.000482
v 0.000011 0.000115 -0.000675
v 0.000011 0.000115 -0.000675
v 0.000011 0.000115 -0.000675
v -0.000431 0.000015 -0.000061
v -0.000431 0.000015 -0.000061
v -0.000431 0.000015 -0.000061
v 0.000114 0.000015 0.000041
v 0.000114 0.000015 0.000041
v 0.000114 0.000015 0.000041
v -0.001551 0.000015 -0.000061
v -0.001551 0.000015 -0.000061
v 0.000114 0.000015 0.001497
v 0.000114 0.000015 0.001497
v -0.000142 0.000015 0.001492
v -0.000393 0.000015 0.001447
v -0.000633 0.000015 0.001361
v -0.000856 0.000015 0.001237
v -0.001056 0.000015 0.001078
v -0.001228 0.000015 0.000889
v -0.001366 0.000015 0.000675
v -0.001468 0.000015 0.000440
v -0.001530 0.000015 0.000193
v 0.000011 0.000015 0.000083
v 0.000011 0.000015 0.000083
v 0.000011 0.000015 0.000083
v 0.000011 0.000015 0.000223
v 0.000011 0.000015 0.000223
v 0.000011 0.000015 0.000223
v -0.000140 0.000015 0.000223
v -0.000140 0.000015 0.000223
v -0.000140 0.000015 0.000223
v -0.000140 0.000015 0.000083
v -0.000140 0.000015 0.000083
v -0.000140 0.000015 0.000083
v -0.000140 0.000115 0.000223
v -0.000140 0.000115 0.000223
v -0.000140 0.000115 0.000223
v -0.000140 0.000115 0.000083
v -0.000140 0.000115 0.000083
v -0.000140 0.000115 0.000083
v 0.000011 0.000115 0.000223
v 0.000011 0.000115 0.000223
v 0.000011 0.000115 0.000223
v -0.000222 0.000115 -0.000675
v -0.000222 0.000115 -0.000675
v -0.000222 0.000115 -0.000675
v 0.000011 0.000115 0.000083
v 0.000011 0.000115 0.000083
v 0.000011 0.000115 0.000083
vn -0.1857 -0.0000 0.9826
vn 1.0000 -0.0000 -0.0000
vn -0.0000 1.0000 -0.0000
vn -0.3622 -0.0000 -0.9321
vn -1.0000 -0.0000 -0.0000
vn 0.3623 -0.0000 0.9320
vn -0.0000 -0.0000 1.0000
vn 0.1852 -0.0000 -0.9827
vn -0.0000 -0.0000 -1.0000
vt 0.380122 0.041209
vt 0.464107 0.041209
vt 0.380122 0.051209
vt 0.464107 0.051209
vt 0.381078 0.009339
vt 0.481771 0.009339
vt 0.381078 0.019339
vt 0.481771 0.019339
vt 0.291670 0.494225
vt 0.305875 0.501809
vt 0.291670 0.560965
vt 0.318736 0.511478
vt 0.329954 0.523044
vt 0.339229 0.536190
vt 0.346355 0.550631
vt 0.285650 0.491823
vt 0.279504 0.489832
vt 0.273247 0.488189
vt 0.273247 0.575375
vt 0.279536 0.589089
vt 0.243480 0.595883
vt 0.350447 0.563113
vt 0.352928 0.575975
vt 0.353765 0.589089
vt 0.243480 0.692328
vt 0.234442 0.691317
vt 0.225547 0.689547
vt 0.216841 0.686987
vt 0.216841 0.568833
vt 0.156499 0.545386
vt 0.158648 0.541056
vt 0.160987 0.536822
vt 0.163515 0.532714
vt 0.478755 0.009339
vt 0.478755 0.019339
vt 0.559375 0.009339
vt 0.559375 0.019339
vt 0.200961 0.680035
vt 0.186457 0.670524
vt 0.173753 0.658705
vt 0.163199 0.644959
vt 0.155093 0.629633
vt 0.149658 0.613169
vt 0.147051 0.596041
vt 0.147335 0.578692
vt 0.150527 0.561660
vt 0.512637 0.009339
vt 0.512637 0.019339
vt 0.558717 0.009339
vt 0.558717 0.019339
vt 0.250290 0.548388
vt 0.257668 0.485882
vt 0.265695 0.548388
vt 0.250290 0.561217
vt 0.173074 0.520200
vt 0.184418 0.509266
vt 0.265695 0.561217
vt 0.197296 0.500197
vt 0.211390 0.493214
vt 0.226384 0.488410
vt 0.241931 0.485945
vt 0.404321 0.019339
vt 0.381078 0.029339
vt 0.404321 0.029339
vt 0.400398 0.019339
vt 0.400398 0.029339
vt 0.436462 0.009339
vt 0.436462 0.019339
vt 0.493073 0.009339
vt 0.493073 0.019339
vt 0.526587 0.009339
vt 0.526587 0.019339
vt 0.260260 0.598664
vt 0.250290 0.598664
vt 0.250290 0.607923
vt 0.260386 0.692043
vt 0.260260 0.607923
vt 0.277039 0.689041
vt 0.292966 0.683353
vt 0.307755 0.675137
vt 0.321011 0.664614
vt 0.332372 0.652069
vt 0.341536 0.637880
vt 0.348267 0.622333
vt 0.352375 0.605932
vt 0.395085 0.019339
vt 0.395085 0.029339
vt 0.395154 0.051209
vt 0.380122 0.061209
vt 0.395154 0.061209
vt 0.396110 0.019339
vt 0.396110 0.029339
s 0
usemtl mat_led_rgb_of_strip_high_observed_color_zone
f 4/1/1 15/2/1 6/3/1
f 6/3/1 15/2/1 18/4/1
f 14/5/2 2/6/2 17/7/2
f 17/7/2 2/6/2 12/8/2
f 11/9/3 10/10/3 16/11/3
f 16/11/3 10/10/3 9/12/3
f 16/11/3 9/12/3 8/13/3
f 8/13/3 7/14/3 16/11/3
f 16/11/3 7/14/3 5/15/3
f 1/9/3 13/11/3 50/16/3
f 50/16/3 13/11/3 49/17/3
f 49/17/3 13/11/3 47/18/3
f 47/18/3 13/11/3 44/19/3
f 44/19/3 13/11/3 23/20/3
f 44/19/3 23/20/3 26/21/3
f 3/15/3 19/22/3 13/11/3
f 13/11/3 19/22/3 20/23/3
f 13/11/3 20/23/3 21/24/3
f 21/24/3 23/20/3 13/11/3
f 29/25/3 31/26/3 26/21/3
f 26/21/3 31/26/3 32/27/3
f 26/21/3 32/27/3 33/28/3
f 33/28/3 35/29/3 26/21/3
f 26/21/3 35/29/3 44/19/3
f 38/30/3 40/31/3 35/29/3
f 35/29/3 40/31/3 41/32/3
f 35/29/3 41/32/3 42/33/3
f 42/33/3 44/19/3 35/29/3
f 39/5/4 36/34/4 55/7/4
f 55/7/4 36/34/4 52/35/4
f 37/5/5 34/36/5 53/7/5
f 53/7/5 34/36/5 57/37/5
f 56/28/3 66/38/3 51/29/3
f 51/29/3 66/38/3 65/39/3
f 51/29/3 65/39/3 64/40/3
f 64/40/3 63/41/3 51/29/3
f 51/29/3 63/41/3 62/42/3
f 51/29/3 62/42/3 61/43/3
f 61/43/3 60/44/3 51/29/3
f 51/29/3 60/44/3 59/45/3
f 51/29/3 59/45/3 58/46/3
f 58/46/3 54/30/3 51/29/3
f 48/5/5 46/47/5 71/7/5
f 71/7/5 46/47/5 69/48/5
f 45/5/6 43/49/6 68/7/6
f 68/7/6 43/49/6 73/50/6
f 84/51/3 74/52/3 81/53/3
f 81/53/3 74/52/3 70/18/3
f 81/53/3 70/18/3 67/19/3
f 87/54/3 72/33/3 84/51/3
f 84/51/3 72/33/3 80/55/3
f 84/51/3 80/55/3 79/56/3
f 72/33/3 87/54/3 67/19/3
f 67/19/3 87/54/3 90/57/3
f 67/19/3 90/57/3 81/53/3
f 79/56/3 78/58/3 84/51/3
f 84/51/3 78/58/3 77/59/3
f 84/51/3 77/59/3 76/60/3
f 76/60/3 75/61/3 84/51/3
f 84/51/3 75/61/3 74/52/3
f 91/7/7 88/62/7 97/63/7
f 97/63/7 88/62/7 94/64/7
f 89/7/2 86/65/2 95/63/2
f 95/63/2 86/65/2 101/66/2
f 27/5/8 25/67/8 106/7/8
f 106/7/8 25/67/8 104/68/8
f 24/5/9 22/69/9 103/7/9
f 103/7/9 22/69/9 109/70/9
f 30/5/2 28/71/2 111/7/2
f 111/7/2 28/71/2 107/72/2
f 130/73/3 121/74/3 105/21/3
f 105/21/3 121/74/3 124/75/3
f 105/21/3 124/75/3 110/25/3
f 110/25/3 124/75/3 112/76/3
f 112/76/3 124/75/3 127/77/3
f 112/76/3 127/77/3 113/78/3
f 113/78/3 127/77/3 114/79/3
f 114/79/3 127/77/3 115/80/3
f 115/80/3 127/77/3 116/81/3
f 116/81/3 127/77/3 117/82/3
f 117/82/3 127/77/3 102/20/3
f 117/82/3 102/20/3 118/83/3
f 118/83/3 102/20/3 119/84/3
f 119/84/3 102/20/3 120/85/3
f 120/85/3 102/20/3 108/24/3
f 127/77/3 130/73/3 102/20/3
f 102/20/3 130/73/3 105/21/3
f 132/7/5 129/86/5 138/63/5
f 138/63/5 129/86/5 135/87/5
f 128/3/7 125/88/7 134/89/7
f 134/89/7 125/88/7 140/90/7
f 83/7/5 92/65/5 144/63/5
f 144/63/5 92/65/5 98/66/5
f 85/7/9 82/62/9 100/63/9
f 100/63/9 82/62/9 143/64/9
f 99/51/3 142/53/3 93/54/3
f 93/54/3 142/53/3 96/57/3
f 122/7/9 131/91/9 146/63/9
f 146/63/9 131/91/9 137/92/9
f 126/7/2 123/86/2 141/63/2
f 141/63/2 123/86/2 147/87/2
f 145/74/3 136/73/3 139/75/3
f 139/75/3 136/73/3 133/77/3
