# Blender 4.4.1
# www.blender.org
mtllib solo_line_tracker_car_rc.mtl
o solo_line_tracker_car_rc
v 0.001770 0.001050 -0.002509
v 0.001747 0.001050 -0.002784
v 0.001682 0.001050 -0.003052
v 0.001577 0.001050 -0.003308
v 0.001432 0.001050 -0.003543
v 0.001253 0.001050 -0.003753
v 0.001043 0.001050 -0.003932
v 0.000808 0.001050 -0.004076
v 0.000553 0.001050 -0.004182
v 0.000284 0.001050 -0.004247
v 0.000009 0.001050 -0.004268
v -0.000265 0.001050 -0.004247
v -0.000534 0.001050 -0.004182
v -0.000790 0.001050 -0.004076
v -0.001025 0.001050 -0.003932
v -0.001234 0.001050 -0.003753
v -0.001414 0.001050 -0.003543
v -0.001559 0.001050 -0.003308
v -0.001664 0.001050 -0.003052
v -0.001728 0.001050 -0.002784
v -0.001751 0.001050 -0.002509
v -0.001728 0.001050 -0.002233
v -0.001664 0.001050 -0.001965
v -0.001559 0.001050 -0.001710
v -0.001414 0.001050 -0.001474
v -0.001234 0.001050 -0.001264
v -0.001025 0.001050 -0.001085
v -0.000790 0.001050 -0.000941
v -0.000534 0.001050 -0.000835
v -0.000265 0.001050 -0.000771
v 0.000009 0.001050 -0.000749
v 0.000284 0.001050 -0.000771
v 0.000553 0.001050 -0.000835
v 0.000808 0.001050 -0.000941
v 0.001043 0.001050 -0.001085
v 0.001253 0.001050 -0.001264
v 0.001432 0.001050 -0.001474
v 0.001577 0.001050 -0.001710
v 0.001682 0.001050 -0.001965
v 0.001747 0.001050 -0.002233
v 0.001770 0.000049 -0.002509
v 0.001747 0.000049 -0.002233
v 0.001682 0.000049 -0.001965
v 0.001577 0.000049 -0.001710
v 0.001432 0.000049 -0.001474
v 0.001253 0.000049 -0.001264
v 0.001043 0.000049 -0.001085
v 0.000808 0.000049 -0.000941
v 0.000553 0.000049 -0.000835
v 0.000284 0.000049 -0.000771
v 0.000009 0.000049 -0.000749
v -0.000265 0.000049 -0.000771
v -0.000534 0.000049 -0.000835
v -0.000790 0.000049 -0.000941
v -0.001025 0.000049 -0.001085
v -0.001234 0.000049 -0.001264
v -0.001414 0.000049 -0.001474
v -0.001559 0.000049 -0.001710
v -0.001664 0.000049 -0.001965
v -0.001728 0.000049 -0.002233
v -0.001751 0.000049 -0.002509
v -0.001728 0.000049 -0.002784
v -0.001664 0.000049 -0.003052
v -0.001559 0.000049 -0.003308
v -0.001414 0.000049 -0.003543
v -0.001234 0.000049 -0.003753
v -0.001025 0.000049 -0.003932
v -0.000790 0.000049 -0.004076
v -0.000534 0.000049 -0.004182
v -0.000265 0.000049 -0.004247
v 0.000009 0.000049 -0.004268
v 0.000284 0.000049 -0.004247
v 0.000553 0.000049 -0.004182
v 0.000808 0.000049 -0.004076
v 0.001043 0.000049 -0.003932
v 0.001253 0.000049 -0.003753
v 0.001432 0.000049 -0.003543
v 0.001577 0.000049 -0.003308
v 0.001682 0.000049 -0.003052
v 0.001747 0.000049 -0.002784
v 0.001770 0.001050 0.002491
v 0.001747 0.001050 0.002216
v 0.001682 0.001050 0.001948
v 0.001577 0.001050 0.001693
v 0.001432 0.001050 0.001457
v 0.001253 0.001050 0.001247
v 0.001043 0.001050 0.001068
v 0.000808 0.001050 0.000923
v 0.000553 0.001050 0.000818
v 0.000284 0.001050 0.000753
v 0.000009 0.001050 0.000732
v -0.000265 0.001050 0.000753
v -0.000534 0.001050 0.000818
v -0.000790 0.001050 0.000923
v -0.001025 0.001050 0.001068
v -0.001234 0.001050 0.001247
v -0.001414 0.001050 0.001457
v -0.001559 0.001050 0.001693
v -0.001664 0.001050 0.001948
v -0.001728 0.001050 0.002216
v -0.001751 0.001050 0.002491
v -0.001728 0.001050 0.002767
v -0.001664 0.001050 0.003035
v -0.001559 0.001050 0.003290
v -0.001414 0.001050 0.003526
v -0.001234 0.001050 0.003736
v -0.001025 0.001050 0.003915
v -0.000790 0.001050 0.004059
v -0.000534 0.001050 0.004165
v -0.000265 0.001050 0.004230
v 0.000009 0.001050 0.004251
v 0.000284 0.001050 0.004230
v 0.000553 0.001050 0.004165
v 0.000808 0.001050 0.004059
v 0.001043 0.001050 0.003915
v 0.001253 0.001050 0.003736
v 0.001432 0.001050 0.003526
v 0.001577 0.001050 0.003290
v 0.001682 0.001050 0.003035
v 0.001747 0.001050 0.002767
v 0.001770 0.000049 0.002491
v 0.001747 0.000049 0.002767
v 0.001682 0.000049 0.003035
v 0.001577 0.000049 0.003290
v 0.001432 0.000049 0.003526
v 0.001253 0.000049 0.003736
v 0.001043 0.000049 0.003915
v 0.000808 0.000049 0.004059
v 0.000553 0.000049 0.004165
v 0.000284 0.000049 0.004230
v 0.000009 0.000049 0.004251
v -0.000265 0.000049 0.004230
v -0.000534 0.000049 0.004165
v -0.000790 0.000049 0.004059
v -0.001025 0.000049 0.003915
v -0.001234 0.000049 0.003736
v -0.001414 0.000049 0.003526
v -0.001559 0.000049 0.003290
v -0.001664 0.000049 0.003035
v -0.001728 0.000049 0.002767
v -0.001751 0.000049 0.002491
v -0.001728 0.000049 0.002216
v -0.001664 0.000049 0.001948
v -0.001559 0.000049 0.001693
v -0.001414 0.000049 0.001457
v -0.001234 0.000049 0.001247
v -0.001025 0.000049 0.001068
v -0.000790 0.000049 0.000923
v -0.000534 0.000049 0.000818
v -0.000265 0.000049 0.000753
v 0.000009 0.000049 0.000732
v 0.000284 0.000049 0.000753
v 0.000553 0.000049 0.000818
v 0.000808 0.000049 0.000923
v 0.001043 0.000049 0.001068
v 0.001253 0.000049 0.001247
v 0.001432 0.000049 0.001457
v 0.001577 0.000049 0.001693
v 0.001682 0.000049 0.001948
v 0.001747 0.000049 0.002216
v -0.002741 0.008050 -0.005009
v 0.002760 0.008050 -0.005009
v 0.002760 0.000049 -0.005009
v -0.002741 0.000049 -0.005009
v -0.002741 0.008050 0.004992
v -0.002741 0.000049 0.004992
v 0.002760 0.008050 0.004992
v 0.002760 0.000049 0.004992
vn -0.9872 -0.0000 0.1592
vn -1.0000 -0.0000 -0.0000
vn -0.9872 -0.0000 -0.1592
vn -0.9513 -0.0000 -0.3084
vn -0.8912 -0.0000 -0.4537
vn -0.8084 -0.0000 -0.5887
vn -0.7071 -0.0000 -0.7071
vn -0.5888 -0.0000 -0.8083
vn -0.4546 -0.0000 -0.8907
vn -0.3083 -0.0000 -0.9513
vn -0.1562 -0.0000 -0.9877
vn -0.0000 -0.0000 -1.0000
vn 0.1562 -0.0000 -0.9877
vn 0.3083 -0.0000 -0.9513
vn 0.4546 -0.0000 -0.8907
vn 0.5888 -0.0000 -0.8083
vn 0.7071 -0.0000 -0.7071
vn 0.8084 -0.0000 -0.5887
vn 0.8912 -0.0000 -0.4537
vn 0.9513 -0.0000 -0.3084
vn 0.9872 -0.0000 -0.1592
vn 1.0000 -0.0000 -0.0000
vn 0.9872 -0.0000 0.1592
vn 0.9513 -0.0000 0.3084
vn 0.8911 -0.0000 0.4539
vn 0.8084 -0.0000 0.5886
vn 0.7071 -0.0000 0.7071
vn 0.5885 -0.0000 0.8085
vn 0.4546 -0.0000 0.8907
vn 0.3087 -0.0000 0.9512
vn 0.1562 -0.0000 0.9877
vn -0.0000 -0.0000 1.0000
vn -0.1562 -0.0000 0.9877
vn -0.3087 -0.0000 0.9512
vn -0.4546 -0.0000 0.8907
vn -0.5885 -0.0000 0.8085
vn -0.7071 -0.0000 0.7071
vn -0.8084 -0.0000 0.5886
vn -0.8911 -0.0000 0.4539
vn -0.9513 -0.0000 0.3084
vn -0.0000 -1.0000 -0.0000
vn -0.9872 -0.0000 0.1593
vn -0.8911 -0.0000 -0.4539
vn -0.8084 -0.0000 -0.5886
vn -0.7073 -0.0000 -0.7069
vn -0.5885 -0.0000 -0.8085
vn -0.3087 -0.0000 -0.9512
vn -0.1558 -0.0000 -0.9878
vn 0.1558 -0.0000 -0.9878
vn 0.3087 -0.0000 -0.9512
vn 0.5885 -0.0000 -0.8085
vn 0.7073 -0.0000 -0.7069
vn 0.8084 -0.0000 -0.5886
vn 0.8911 -0.0000 -0.4539
vn 0.9872 -0.0000 0.1593
vn 0.9512 -0.0000 0.3085
vn 0.8912 -0.0000 0.4537
vn 0.8084 -0.0000 0.5887
vn 0.5888 -0.0000 0.8083
vn 0.3083 -0.0000 0.9513
vn -0.3083 -0.0000 0.9513
vn -0.5888 -0.0000 0.8083
vn -0.8084 -0.0000 0.5887
vn -0.8912 -0.0000 0.4537
vn -0.9512 -0.0000 0.3085
vn -0.0000 1.0000 -0.0000
vt 0.519004 0.325617
vt 0.460808 0.325617
vt 0.519004 0.309531
vt 0.460808 0.309531
vt 0.519004 0.952984
vt 0.460808 0.952984
vt 0.519004 0.936898
vt 0.460808 0.936898
vt 0.519004 0.920811
vt 0.460808 0.920811
vt 0.519004 0.904725
vt 0.460808 0.904725
vt 0.519004 0.888639
vt 0.460808 0.888639
vt 0.519004 0.872552
vt 0.460808 0.872552
vt 0.519004 0.856466
vt 0.460808 0.856466
vt 0.519004 0.840380
vt 0.460808 0.840380
vt 0.519004 0.824294
vt 0.460808 0.824294
vt 0.519004 0.808207
vt 0.460808 0.808207
vt 0.519004 0.792121
vt 0.460808 0.792121
vt 0.519004 0.776035
vt 0.460808 0.776035
vt 0.519004 0.759948
vt 0.460808 0.759948
vt 0.519004 0.743862
vt 0.460808 0.743862
vt 0.519004 0.727775
vt 0.460808 0.727775
vt 0.519004 0.711689
vt 0.460808 0.711689
vt 0.519004 0.695603
vt 0.460808 0.695603
vt 0.519004 0.679517
vt 0.460808 0.679517
vt 0.519004 0.663431
vt 0.460808 0.663431
vt 0.519004 0.647344
vt 0.460808 0.647344
vt 0.519004 0.631258
vt 0.460808 0.631258
vt 0.519004 0.615171
vt 0.460808 0.615171
vt 0.519004 0.599085
vt 0.460808 0.599085
vt 0.519004 0.582998
vt 0.460808 0.582998
vt 0.519004 0.566912
vt 0.460808 0.566912
vt 0.519004 0.550826
vt 0.460808 0.550826
vt 0.519004 0.534740
vt 0.460808 0.534740
vt 0.519004 0.518654
vt 0.460808 0.518654
vt 0.519004 0.502567
vt 0.460808 0.502567
vt 0.519004 0.486481
vt 0.460808 0.486481
vt 0.519004 0.470394
vt 0.460808 0.470394
vt 0.519004 0.454308
vt 0.460808 0.454308
vt 0.519004 0.438222
vt 0.460808 0.438222
vt 0.519004 0.422136
vt 0.460808 0.422136
vt 0.519004 0.406049
vt 0.460808 0.406049
vt 0.519004 0.389963
vt 0.460808 0.389963
vt 0.519004 0.373876
vt 0.460808 0.373876
vt 0.519004 0.357790
vt 0.460808 0.357790
vt 0.519004 0.341704
vt 0.460808 0.341704
vt 0.137209 0.791909
vt 0.325702 0.791909
vt 0.136034 0.806836
vt 0.326877 0.806836
vt 0.137209 0.821763
vt 0.325702 0.821763
vt 0.140704 0.836323
vt 0.322207 0.836323
vt 0.146434 0.850156
vt 0.316477 0.850156
vt 0.154258 0.862924
vt 0.308653 0.862924
vt 0.163982 0.874309
vt 0.298928 0.874309
vt 0.175368 0.884034
vt 0.287543 0.884034
vt 0.188135 0.891857
vt 0.274776 0.891857
vt 0.201968 0.897587
vt 0.260942 0.897587
vt 0.216528 0.901083
vt 0.246383 0.901083
vt 0.231455 0.902258
vt 0.322207 0.777349
vt 0.140704 0.777349
vt 0.316477 0.763516
vt 0.146434 0.763516
vt 0.308653 0.750748
vt 0.154258 0.750748
vt 0.298928 0.739363
vt 0.163982 0.739363
vt 0.287543 0.729638
vt 0.175368 0.729638
vt 0.274776 0.721815
vt 0.188135 0.721815
vt 0.260942 0.716085
vt 0.201968 0.716085
vt 0.246383 0.712589
vt 0.216528 0.712589
vt 0.091721 0.221567
vt 0.050149 0.221567
vt 0.070935 0.219931
vt 0.603220 0.328597
vt 0.545146 0.328597
vt 0.603220 0.312544
vt 0.545146 0.312544
vt 0.603220 0.954653
vt 0.545146 0.954653
vt 0.603220 0.938600
vt 0.545146 0.938600
vt 0.603220 0.922547
vt 0.545146 0.922547
vt 0.603220 0.906495
vt 0.545146 0.906495
vt 0.603220 0.890442
vt 0.545146 0.890442
vt 0.603220 0.874389
vt 0.545146 0.874389
vt 0.603220 0.858336
vt 0.545146 0.858336
vt 0.603220 0.842284
vt 0.545146 0.842284
vt 0.603220 0.826231
vt 0.545146 0.826231
vt 0.603220 0.810179
vt 0.545146 0.810179
vt 0.603220 0.794126
vt 0.545146 0.794126
vt 0.603220 0.778073
vt 0.545146 0.778073
vt 0.603220 0.762020
vt 0.545146 0.762020
vt 0.603220 0.745968
vt 0.545146 0.745968
vt 0.603220 0.729915
vt 0.545146 0.729915
vt 0.603220 0.713862
vt 0.545146 0.713862
vt 0.603220 0.697810
vt 0.545146 0.697810
vt 0.603220 0.681757
vt 0.545146 0.681757
vt 0.603220 0.665704
vt 0.545146 0.665704
vt 0.603220 0.649652
vt 0.545146 0.649652
vt 0.603220 0.633599
vt 0.545146 0.633599
vt 0.603220 0.617546
vt 0.545146 0.617546
vt 0.603220 0.601493
vt 0.545146 0.601493
vt 0.603220 0.585440
vt 0.545146 0.585440
vt 0.603220 0.569388
vt 0.545146 0.569388
vt 0.603220 0.553335
vt 0.545146 0.553335
vt 0.603220 0.537283
vt 0.545146 0.537283
vt 0.603220 0.521230
vt 0.545146 0.521230
vt 0.603220 0.505177
vt 0.545146 0.505177
vt 0.603220 0.489124
vt 0.545146 0.489124
vt 0.603220 0.473072
vt 0.545146 0.473072
vt 0.603220 0.457019
vt 0.545146 0.457019
vt 0.603220 0.440966
vt 0.545146 0.440966
vt 0.603220 0.424914
vt 0.545146 0.424914
vt 0.603220 0.408861
vt 0.545146 0.408861
vt 0.603220 0.392808
vt 0.545146 0.392808
vt 0.603220 0.376756
vt 0.545146 0.376756
vt 0.603220 0.360703
vt 0.545146 0.360703
vt 0.603220 0.344650
vt 0.545146 0.344650
vt 0.133546 0.449214
vt 0.334265 0.449214
vt 0.132295 0.465109
vt 0.335516 0.465109
vt 0.133546 0.481005
vt 0.334265 0.481005
vt 0.137268 0.496509
vt 0.330543 0.496509
vt 0.143370 0.511239
vt 0.324441 0.511239
vt 0.151701 0.524835
vt 0.316110 0.524835
vt 0.162056 0.536959
vt 0.305755 0.536959
vt 0.174180 0.547314
vt 0.293631 0.547314
vt 0.187776 0.555645
vt 0.280036 0.555645
vt 0.202506 0.561747
vt 0.265305 0.561747
vt 0.218010 0.565469
vt 0.249801 0.565469
vt 0.233906 0.566720
vt 0.330543 0.433710
vt 0.137268 0.433710
vt 0.324441 0.418979
vt 0.143370 0.418979
vt 0.316110 0.405384
vt 0.151701 0.405384
vt 0.305755 0.393260
vt 0.162056 0.393260
vt 0.293631 0.382904
vt 0.174180 0.382904
vt 0.280036 0.374573
vt 0.187776 0.374573
vt 0.265305 0.368472
vt 0.202506 0.368472
vt 0.249801 0.364750
vt 0.218010 0.364750
vt 0.233906 0.363499
vt 0.629767 0.755076
vt 0.629767 0.515117
vt 0.978799 0.755076
vt 0.978799 0.515117
vt 0.725276 0.036502
vt 0.962725 0.036502
vt 0.725276 0.226461
vt 0.962725 0.226461
vt 0.628451 0.501050
vt 0.628451 0.261090
vt 0.977483 0.501050
vt 0.977483 0.261091
vt 0.466393 0.034952
vt 0.703842 0.034952
vt 0.466393 0.224911
vt 0.703842 0.224911
vt 0.351014 0.483724
vt 0.352497 0.464890
vt 0.420250 0.293839
vt 0.351014 0.446055
vt 0.346604 0.427683
vt 0.339374 0.410229
vt 0.329502 0.394119
vt 0.317232 0.379753
vt 0.302865 0.367483
vt 0.286756 0.357611
vt 0.269301 0.350381
vt 0.250930 0.345971
vt 0.232095 0.344488
vt 0.043940 0.293839
vt 0.213260 0.345971
vt 0.194889 0.350381
vt 0.177434 0.357611
vt 0.161325 0.367483
vt 0.146959 0.379753
vt 0.134688 0.394119
vt 0.124817 0.410229
vt 0.117587 0.427683
vt 0.113176 0.446055
vt 0.111694 0.464890
vt 0.113176 0.483724
vt 0.113176 0.788155
vt 0.117587 0.502096
vt 0.117587 0.769784
vt 0.124817 0.752329
vt 0.124817 0.519550
vt 0.134688 0.736219
vt 0.134688 0.535660
vt 0.146959 0.721853
vt 0.146959 0.550026
vt 0.161325 0.709583
vt 0.161325 0.562296
vt 0.177434 0.699711
vt 0.177434 0.572168
vt 0.194889 0.692481
vt 0.194889 0.579398
vt 0.213260 0.688071
vt 0.213260 0.583808
vt 0.232095 0.686588
vt 0.232095 0.585291
vt 0.250930 0.583808
vt 0.250930 0.688071
vt 0.269301 0.579398
vt 0.269301 0.692481
vt 0.286756 0.572168
vt 0.286756 0.699711
vt 0.302865 0.562296
vt 0.302865 0.709583
vt 0.317232 0.550026
vt 0.317232 0.721853
vt 0.329502 0.535660
vt 0.329502 0.736219
vt 0.339374 0.519550
vt 0.339374 0.752329
vt 0.346604 0.502096
vt 0.346604 0.769784
vt 0.351014 0.788155
vt 0.351014 0.825824
vt 0.352497 0.806990
vt 0.420250 0.978040
vt 0.043940 0.978040
vt 0.111694 0.806990
vt 0.113176 0.825824
vt 0.117587 0.844196
vt 0.124817 0.861651
vt 0.134688 0.877760
vt 0.146959 0.892126
vt 0.161325 0.904397
vt 0.177434 0.914268
vt 0.194889 0.921498
vt 0.213260 0.925909
vt 0.232095 0.927391
vt 0.250930 0.925909
vt 0.269301 0.921498
vt 0.286756 0.914268
vt 0.302865 0.904397
vt 0.317232 0.892126
vt 0.329502 0.877760
vt 0.339374 0.861651
vt 0.346604 0.844196
vt 0.627658 0.963611
vt 0.627658 0.771420
vt 0.977097 0.963611
vt 0.977097 0.771420
s 1
usemtl mat_solo_line_tracker_car_rc
f 2/1/1 80/2/1 1/3/2
f 1/3/2 80/2/1 41/4/2
f 1/5/2 41/6/2 40/7/3
f 40/7/3 41/6/2 42/8/3
f 40/7/3 42/8/3 39/9/4
f 39/9/4 42/8/3 43/10/4
f 39/9/4 43/10/4 38/11/5
f 38/11/5 43/10/4 44/12/5
f 38/11/5 44/12/5 37/13/6
f 37/13/6 44/12/5 45/14/6
f 37/13/6 45/14/6 36/15/7
f 36/15/7 45/14/6 46/16/7
f 36/15/7 46/16/7 35/17/8
f 35/17/8 46/16/7 47/18/8
f 35/17/8 47/18/8 34/19/9
f 34/19/9 47/18/8 48/20/9
f 34/19/9 48/20/9 33/21/10
f 33/21/10 48/20/9 49/22/10
f 33/21/10 49/22/10 32/23/11
f 32/23/11 49/22/10 50/24/11
f 32/23/11 50/24/11 31/25/12
f 31/25/12 50/24/11 51/26/12
f 31/25/12 51/26/12 30/27/13
f 30/27/13 51/26/12 52/28/13
f 30/27/13 52/28/13 29/29/14
f 29/29/14 52/28/13 53/30/14
f 29/29/14 53/30/14 28/31/15
f 28/31/15 53/30/14 54/32/15
f 28/31/15 54/32/15 27/33/16
f 27/33/16 54/32/15 55/34/16
f 27/33/16 55/34/16 26/35/17
f 26/35/17 55/34/16 56/36/17
f 26/35/17 56/36/17 25/37/18
f 25/37/18 56/36/17 57/38/18
f 25/37/18 57/38/18 24/39/19
f 24/39/19 57/38/18 58/40/19
f 24/39/19 58/40/19 23/41/20
f 23/41/20 58/40/19 59/42/20
f 23/41/20 59/42/20 22/43/21
f 22/43/21 59/42/20 60/44/21
f 22/43/21 60/44/21 21/45/22
f 21/45/22 60/44/21 61/46/22
f 21/45/22 61/46/22 20/47/23
f 20/47/23 61/46/22 62/48/23
f 20/47/23 62/48/23 19/49/24
f 19/49/24 62/48/23 63/50/24
f 19/49/24 63/50/24 18/51/25
f 18/51/25 63/50/24 64/52/25
f 18/51/25 64/52/25 17/53/26
f 17/53/26 64/52/25 65/54/26
f 17/53/26 65/54/26 16/55/27
f 16/55/27 65/54/26 66/56/27
f 16/55/27 66/56/27 15/57/28
f 15/57/28 66/56/27 67/58/28
f 15/57/28 67/58/28 14/59/29
f 14/59/29 67/58/28 68/60/29
f 14/59/29 68/60/29 13/61/30
f 13/61/30 68/60/29 69/62/30
f 13/61/30 69/62/30 12/63/31
f 12/63/31 69/62/30 70/64/31
f 12/63/31 70/64/31 11/65/32
f 11/65/32 70/64/31 71/66/32
f 11/65/32 71/66/32 10/67/33
f 10/67/33 71/66/32 72/68/33
f 10/67/33 72/68/33 9/69/34
f 9/69/34 72/68/33 73/70/34
f 9/69/34 73/70/34 8/71/35
f 8/71/35 73/70/34 74/72/35
f 8/71/35 74/72/35 7/73/36
f 7/73/36 74/72/35 75/74/36
f 7/73/36 75/74/36 6/75/37
f 6/75/37 75/74/36 76/76/37
f 6/75/37 76/76/37 5/77/38
f 5/77/38 76/76/37 77/78/38
f 5/77/38 77/78/38 4/79/39
f 4/79/39 77/78/38 78/80/39
f 4/79/39 78/80/39 3/81/40
f 3/81/40 78/80/39 79/82/40
f 3/81/40 79/82/40 2/1/1
f 2/1/1 79/82/40 80/2/1
f 40/83/41 22/84/41 1/85/41
f 1/85/41 22/84/41 21/86/41
f 1/85/41 21/86/41 2/87/41
f 2/87/41 21/86/41 20/88/41
f 2/87/41 20/88/41 3/89/41
f 3/89/41 20/88/41 19/90/41
f 3/89/41 19/90/41 4/91/41
f 4/91/41 19/90/41 18/92/41
f 4/91/41 18/92/41 5/93/41
f 5/93/41 18/92/41 17/94/41
f 5/93/41 17/94/41 6/95/41
f 6/95/41 17/94/41 16/96/41
f 6/95/41 16/96/41 7/97/41
f 7/97/41 16/96/41 15/98/41
f 7/97/41 15/98/41 8/99/41
f 8/99/41 15/98/41 14/100/41
f 8/99/41 14/100/41 9/101/41
f 9/101/41 14/100/41 13/102/41
f 9/101/41 13/102/41 10/103/41
f 10/103/41 13/102/41 12/104/41
f 10/103/41 12/104/41 11/105/41
f 22/84/41 40/83/41 23/106/41
f 23/106/41 40/83/41 39/107/41
f 23/106/41 39/107/41 24/108/41
f 24/108/41 39/107/41 38/109/41
f 24/108/41 38/109/41 25/110/41
f 25/110/41 38/109/41 37/111/41
f 25/110/41 37/111/41 26/112/41
f 26/112/41 37/111/41 36/113/41
f 26/112/41 36/113/41 27/114/41
f 27/114/41 36/113/41 35/115/41
f 27/114/41 35/115/41 28/116/41
f 28/116/41 35/115/41 34/117/41
f 28/116/41 34/117/41 29/118/41
f 29/118/41 34/117/41 33/119/41
f 29/118/41 33/119/41 30/120/41
f 30/120/41 33/119/41 32/121/41
f 30/122/41 32/123/41 31/124/41
f 82/125/42 160/126/42 81/127/2
f 81/127/2 160/126/42 121/128/2
f 81/129/2 121/130/2 120/131/3
f 120/131/3 121/130/2 122/132/3
f 120/131/3 122/132/3 119/133/4
f 119/133/4 122/132/3 123/134/4
f 119/133/4 123/134/4 118/135/43
f 118/135/43 123/134/4 124/136/43
f 118/135/43 124/136/43 117/137/44
f 117/137/44 124/136/43 125/138/44
f 117/137/44 125/138/44 116/139/45
f 116/139/45 125/138/44 126/140/45
f 116/139/45 126/140/45 115/141/46
f 115/141/46 126/140/45 127/142/46
f 115/141/46 127/142/46 114/143/9
f 114/143/9 127/142/46 128/144/9
f 114/143/9 128/144/9 113/145/47
f 113/145/47 128/144/9 129/146/47
f 113/145/47 129/146/47 112/147/48
f 112/147/48 129/146/47 130/148/48
f 112/147/48 130/148/48 111/149/12
f 111/149/12 130/148/48 131/150/12
f 111/149/12 131/150/12 110/151/49
f 110/151/49 131/150/12 132/152/49
f 110/151/49 132/152/49 109/153/50
f 109/153/50 132/152/49 133/154/50
f 109/153/50 133/154/50 108/155/15
f 108/155/15 133/154/50 134/156/15
f 108/155/15 134/156/15 107/157/51
f 107/157/51 134/156/15 135/158/51
f 107/157/51 135/158/51 106/159/52
f 106/159/52 135/158/51 136/160/52
f 106/159/52 136/160/52 105/161/53
f 105/161/53 136/160/52 137/162/53
f 105/161/53 137/162/53 104/163/54
f 104/163/54 137/162/53 138/164/54
f 104/163/54 138/164/54 103/165/20
f 103/165/20 138/164/54 139/166/20
f 103/165/20 139/166/20 102/167/21
f 102/167/21 139/166/20 140/168/21
f 102/167/21 140/168/21 101/169/22
f 101/169/22 140/168/21 141/170/22
f 101/169/22 141/170/22 100/171/55
f 100/171/55 141/170/22 142/172/55
f 100/171/55 142/172/55 99/173/56
f 99/173/56 142/172/55 143/174/56
f 99/173/56 143/174/56 98/175/57
f 98/175/57 143/174/56 144/176/57
f 98/175/57 144/176/57 97/177/58
f 97/177/58 144/176/57 145/178/58
f 97/177/58 145/178/58 96/179/27
f 96/179/27 145/178/58 146/180/27
f 96/179/27 146/180/27 95/181/59
f 95/181/59 146/180/27 147/182/59
f 95/181/59 147/182/59 94/183/29
f 94/183/29 147/182/59 148/184/29
f 94/183/29 148/184/29 93/185/60
f 93/185/60 148/184/29 149/186/60
f 93/185/60 149/186/60 92/187/31
f 92/187/31 149/186/60 150/188/31
f 92/187/31 150/188/31 91/189/32
f 91/189/32 150/188/31 151/190/32
f 91/189/32 151/190/32 90/191/33
f 90/191/33 151/190/32 152/192/33
f 90/191/33 152/192/33 89/193/61
f 89/193/61 152/192/33 153/194/61
f 89/193/61 153/194/61 88/195/35
f 88/195/35 153/194/61 154/196/35
f 88/195/35 154/196/35 87/197/62
f 87/197/62 154/196/35 155/198/62
f 87/197/62 155/198/62 86/199/37
f 86/199/37 155/198/62 156/200/37
f 86/199/37 156/200/37 85/201/63
f 85/201/63 156/200/37 157/202/63
f 85/201/63 157/202/63 84/203/64
f 84/203/64 157/202/63 158/204/64
f 84/203/64 158/204/64 83/205/65
f 83/205/65 158/204/64 159/206/65
f 83/205/65 159/206/65 82/125/42
f 82/125/42 159/206/65 160/126/42
f 120/207/41 102/208/41 81/209/41
f 81/209/41 102/208/41 101/210/41
f 81/209/41 101/210/41 82/211/41
f 82/211/41 101/210/41 100/212/41
f 82/211/41 100/212/41 83/213/41
f 83/213/41 100/212/41 99/214/41
f 83/213/41 99/214/41 84/215/41
f 84/215/41 99/214/41 98/216/41
f 84/215/41 98/216/41 85/217/41
f 85/217/41 98/216/41 97/218/41
f 85/217/41 97/218/41 86/219/41
f 86/219/41 97/218/41 96/220/41
f 86/219/41 96/220/41 87/221/41
f 87/221/41 96/220/41 95/222/41
f 87/221/41 95/222/41 88/223/41
f 88/223/41 95/222/41 94/224/41
f 88/223/41 94/224/41 89/225/41
f 89/225/41 94/224/41 93/226/41
f 89/225/41 93/226/41 90/227/41
f 90/227/41 93/226/41 92/228/41
f 90/227/41 92/228/41 91/229/41
f 102/208/41 120/207/41 103/230/41
f 103/230/41 120/207/41 119/231/41
f 103/230/41 119/231/41 104/232/41
f 104/232/41 119/231/41 118/233/41
f 104/232/41 118/233/41 105/234/41
f 105/234/41 118/233/41 117/235/41
f 105/234/41 117/235/41 106/236/41
f 106/236/41 117/235/41 116/237/41
f 106/236/41 116/237/41 107/238/41
f 107/238/41 116/237/41 115/239/41
f 107/238/41 115/239/41 108/240/41
f 108/240/41 115/239/41 114/241/41
f 108/240/41 114/241/41 109/242/41
f 109/242/41 114/241/41 113/243/41
f 109/242/41 113/243/41 110/244/41
f 110/244/41 113/243/41 112/245/41
f 110/244/41 112/245/41 111/246/41
f 161/247/12 162/248/12 164/249/12
f 164/249/12 162/248/12 163/250/12
f 165/251/2 161/252/2 166/253/2
f 166/253/2 161/252/2 164/254/2
f 167/255/32 165/256/32 168/257/32
f 168/257/32 165/256/32 166/258/32
f 162/259/22 167/260/22 163/261/22
f 163/261/22 167/260/22 168/262/22
f 42/263/41 41/264/41 163/265/41
f 163/265/41 41/264/41 80/266/41
f 163/265/41 80/266/41 79/267/41
f 79/267/41 78/268/41 163/265/41
f 163/265/41 78/268/41 77/269/41
f 163/265/41 77/269/41 76/270/41
f 76/270/41 75/271/41 163/265/41
f 163/265/41 75/271/41 74/272/41
f 163/265/41 74/272/41 73/273/41
f 73/273/41 72/274/41 163/265/41
f 163/265/41 72/274/41 71/275/41
f 163/265/41 71/275/41 164/276/41
f 164/276/41 71/275/41 70/277/41
f 164/276/41 70/277/41 69/278/41
f 69/278/41 68/279/41 164/276/41
f 164/276/41 68/279/41 67/280/41
f 164/276/41 67/280/41 66/281/41
f 66/281/41 65/282/41 164/276/41
f 164/276/41 65/282/41 64/283/41
f 164/276/41 64/283/41 63/284/41
f 63/284/41 62/285/41 164/276/41
f 164/276/41 62/285/41 61/286/41
f 164/276/41 61/286/41 60/287/41
f 164/276/41 60/287/41 142/288/41
f 142/288/41 60/287/41 59/289/41
f 142/288/41 59/289/41 143/290/41
f 143/290/41 59/289/41 144/291/41
f 144/291/41 59/289/41 58/292/41
f 144/291/41 58/292/41 145/293/41
f 145/293/41 58/292/41 57/294/41
f 145/293/41 57/294/41 146/295/41
f 146/295/41 57/294/41 56/296/41
f 146/295/41 56/296/41 147/297/41
f 147/297/41 56/296/41 55/298/41
f 147/297/41 55/298/41 148/299/41
f 148/299/41 55/298/41 54/300/41
f 148/299/41 54/300/41 149/301/41
f 149/301/41 54/300/41 53/302/41
f 149/301/41 53/302/41 150/303/41
f 150/303/41 53/302/41 52/304/41
f 150/303/41 52/304/41 151/305/41
f 151/305/41 52/304/41 51/306/41
f 151/305/41 51/306/41 50/307/41
f 151/305/41 50/307/41 152/308/41
f 152/308/41 50/307/41 49/309/41
f 152/308/41 49/309/41 153/310/41
f 153/310/41 49/309/41 48/311/41
f 153/310/41 48/311/41 154/312/41
f 154/312/41 48/311/41 47/313/41
f 154/312/41 47/313/41 155/314/41
f 155/314/41 47/313/41 46/315/41
f 155/314/41 46/315/41 156/316/41
f 156/316/41 46/315/41 45/317/41
f 156/316/41 45/317/41 157/318/41
f 157/318/41 45/317/41 44/319/41
f 157/318/41 44/319/41 158/320/41
f 158/320/41 44/319/41 43/321/41
f 158/320/41 43/321/41 159/322/41
f 159/322/41 43/321/41 160/323/41
f 160/323/41 43/321/41 42/263/41
f 160/323/41 42/263/41 163/265/41
f 122/324/41 121/325/41 168/326/41
f 168/326/41 121/325/41 160/323/41
f 168/326/41 160/323/41 163/265/41
f 164/276/41 142/288/41 166/327/41
f 166/327/41 142/288/41 141/328/41
f 166/327/41 141/328/41 140/329/41
f 140/329/41 139/330/41 166/327/41
f 166/327/41 139/330/41 138/331/41
f 166/327/41 138/331/41 137/332/41
f 137/332/41 136/333/41 166/327/41
f 166/327/41 136/333/41 135/334/41
f 166/327/41 135/334/41 134/335/41
f 134/335/41 133/336/41 166/327/41
f 166/327/41 133/336/41 132/337/41
f 166/327/41 132/337/41 131/338/41
f 166/327/41 131/338/41 168/326/41
f 168/326/41 131/338/41 130/339/41
f 168/326/41 130/339/41 129/340/41
f 129/340/41 128/341/41 168/326/41
f 168/326/41 128/341/41 127/342/41
f 168/326/41 127/342/41 126/343/41
f 126/343/41 125/344/41 168/326/41
f 168/326/41 125/344/41 124/345/41
f 168/326/41 124/345/41 123/346/41
f 123/346/41 122/324/41 168/326/41
f 162/347/66 161/348/66 167/349/66
f 167/349/66 161/348/66 165/350/66
