# Blender 4.4.1
# www.blender.org
mtllib tri_line_tracker_car_rc.mtl
o tri_line_tracker_car_rc
v -0.002750 0.008016 -0.004991
v 0.002751 0.008016 -0.004991
v 0.002751 0.000017 -0.004991
v -0.002750 0.000017 -0.004991
v -0.002750 0.000017 0.004989
v -0.002750 0.008016 0.004989
v 0.002751 0.008016 0.004989
v 0.002751 0.000017 0.004989
v 0.001759 0.000017 0.002499
v 0.001702 0.000017 0.002044
v 0.001526 0.000017 0.001619
v 0.001244 0.000017 0.001255
v 0.000882 0.000017 0.000975
v 0.000454 0.000017 0.000799
v 0.000000 0.000017 0.000739
v -0.000454 0.000017 0.000799
v -0.000881 0.000017 0.000975
v -0.001243 0.000017 0.001255
v -0.001522 0.000017 0.001619
v -0.001701 0.000017 0.002044
v -0.001758 0.000017 0.002499
v -0.001701 0.000017 0.002955
v -0.001522 0.000017 0.003379
v -0.001243 0.000017 0.003743
v -0.000881 0.000017 0.004023
v -0.000454 0.000017 0.004199
v 0.000000 0.000017 0.004259
v 0.000454 0.000017 0.004199
v 0.000882 0.000017 0.004023
v 0.001244 0.000017 0.003743
v 0.001526 0.000017 0.003379
v 0.001702 0.000017 0.002955
v 0.001759 0.000017 -0.002501
v 0.001702 0.000017 -0.002956
v 0.001526 0.000017 -0.003381
v 0.001244 0.000017 -0.003745
v 0.000882 0.000017 -0.004025
v 0.000454 0.000017 -0.004201
v 0.000000 0.000017 -0.004261
v -0.000454 0.000017 -0.004201
v -0.000881 0.000017 -0.004025
v -0.001243 0.000017 -0.003745
v -0.001522 0.000017 -0.003381
v -0.001701 0.000017 -0.002956
v -0.001758 0.000017 -0.002501
v -0.001701 0.000017 -0.002045
v -0.001522 0.000017 -0.001621
v -0.001243 0.000017 -0.001257
v -0.000881 0.000017 -0.000977
v -0.000454 0.000017 -0.000801
v 0.000000 0.000017 -0.000741
v 0.000454 0.000017 -0.000801
v 0.000882 0.000017 -0.000977
v 0.001244 0.000017 -0.001257
v 0.001526 0.000017 -0.001621
v 0.001702 0.000017 -0.002045
v 0.001759 0.001016 -0.002501
v 0.001702 0.001016 -0.002956
v 0.001526 0.001016 -0.003381
v 0.001244 0.001016 -0.003745
v 0.000882 0.001016 -0.004025
v 0.000454 0.001016 -0.004201
v 0.000000 0.001016 -0.004261
v -0.000454 0.001016 -0.004201
v -0.000881 0.001016 -0.004025
v -0.001243 0.001016 -0.003745
v -0.001522 0.001016 -0.003381
v -0.001701 0.001016 -0.002956
v -0.001758 0.001016 -0.002501
v -0.001701 0.001016 -0.002045
v -0.001522 0.001016 -0.001621
v -0.001243 0.001016 -0.001257
v -0.000881 0.001016 -0.000977
v -0.000454 0.001016 -0.000801
v 0.000000 0.001016 -0.000741
v 0.000454 0.001016 -0.000801
v 0.000882 0.001016 -0.000977
v 0.001244 0.001016 -0.001257
v 0.001526 0.001016 -0.001621
v 0.001702 0.001016 -0.002045
v 0.001759 0.001016 0.002499
v 0.001702 0.001016 0.002044
v 0.001526 0.001016 0.001619
v 0.001244 0.001016 0.001255
v 0.000882 0.001016 0.000975
v 0.000454 0.001016 0.000799
v 0.000000 0.001016 0.000739
v -0.000454 0.001016 0.000799
v -0.000881 0.001016 0.000975
v -0.001243 0.001016 0.001255
v -0.001522 0.001016 0.001619
v -0.001701 0.001016 0.002044
v -0.001758 0.001016 0.002499
v -0.001701 0.001016 0.002955
v -0.001522 0.001016 0.003379
v -0.001243 0.001016 0.003743
v -0.000881 0.001016 0.004023
v -0.000454 0.001016 0.004199
v 0.000000 0.001016 0.004259
v 0.000454 0.001016 0.004199
v 0.000882 0.001016 0.004023
v 0.001244 0.001016 0.003743
v 0.001526 0.001016 0.003379
v 0.001702 0.001016 0.002955
v 0.012501 0.008016 -0.004991
v 0.012501 0.008016 0.004989
v 0.012509 0.008016 0.004989
v 0.012509 0.008016 -0.004991
v 0.012509 0.000017 -0.004991
v 0.012509 0.000017 0.004989
v 0.007000 0.008016 -0.004991
v 0.007000 0.000017 -0.004991
v 0.007000 0.000017 0.004989
v 0.007000 0.008016 0.004989
v 0.011509 0.000017 0.002499
v 0.011448 0.000017 0.002044
v 0.011273 0.000017 0.001619
v 0.010994 0.000017 0.001255
v 0.010632 0.000017 0.000975
v 0.010205 0.000017 0.000799
v 0.009751 0.000017 0.000739
v 0.009297 0.000017 0.000799
v 0.008870 0.000017 0.000975
v 0.008507 0.000017 0.001255
v 0.008225 0.000017 0.001619
v 0.008049 0.000017 0.002044
v 0.007992 0.000017 0.002499
v 0.008049 0.000017 0.002955
v 0.008225 0.000017 0.003379
v 0.008507 0.000017 0.003743
v 0.008870 0.000017 0.004023
v 0.009297 0.000017 0.004199
v 0.009751 0.000017 0.004259
v 0.010205 0.000017 0.004199
v 0.010632 0.000017 0.004023
v 0.010994 0.000017 0.003743
v 0.011273 0.000017 0.003379
v 0.011448 0.000017 0.002955
v 0.011509 0.000017 -0.002501
v 0.011448 0.000017 -0.002956
v 0.011273 0.000017 -0.003381
v 0.010994 0.000017 -0.003745
v 0.010632 0.000017 -0.004025
v 0.010205 0.000017 -0.004201
v 0.009751 0.000017 -0.004261
v 0.009297 0.000017 -0.004201
v 0.008870 0.000017 -0.004025
v 0.008507 0.000017 -0.003745
v 0.008225 0.000017 -0.003381
v 0.008049 0.000017 -0.002956
v 0.007992 0.000017 -0.002501
v 0.008049 0.000017 -0.002045
v 0.008225 0.000017 -0.001621
v 0.008507 0.000017 -0.001257
v 0.008870 0.000017 -0.000977
v 0.009297 0.000017 -0.000801
v 0.009751 0.000017 -0.000741
v 0.010205 0.000017 -0.000801
v 0.010632 0.000017 -0.000977
v 0.010994 0.000017 -0.001257
v 0.011273 0.000017 -0.001621
v 0.011448 0.000017 -0.002045
v 0.011509 0.001016 -0.002501
v 0.011448 0.001016 -0.002956
v 0.011273 0.001016 -0.003381
v 0.010994 0.001016 -0.003745
v 0.010632 0.001016 -0.004025
v 0.010205 0.001016 -0.004201
v 0.009751 0.001016 -0.004261
v 0.009297 0.001016 -0.004201
v 0.008870 0.001016 -0.004025
v 0.008507 0.001016 -0.003745
v 0.008225 0.001016 -0.003381
v 0.008049 0.001016 -0.002956
v 0.007992 0.001016 -0.002501
v 0.008049 0.001016 -0.002045
v 0.008225 0.001016 -0.001621
v 0.008507 0.001016 -0.001257
v 0.008870 0.001016 -0.000977
v 0.009297 0.001016 -0.000801
v 0.009751 0.001016 -0.000741
v 0.010205 0.001016 -0.000801
v 0.010632 0.001016 -0.000977
v 0.010994 0.001016 -0.001257
v 0.011273 0.001016 -0.001621
v 0.011448 0.001016 -0.002045
v 0.011509 0.001016 0.002499
v 0.011448 0.001016 0.002044
v 0.011273 0.001016 0.001619
v 0.010994 0.001016 0.001255
v 0.010632 0.001016 0.000975
v 0.010205 0.001016 0.000799
v 0.009751 0.001016 0.000739
v 0.009297 0.001016 0.000799
v 0.008870 0.001016 0.000975
v 0.008507 0.001016 0.001255
v 0.008225 0.001016 0.001619
v 0.008049 0.001016 0.002044
v 0.007992 0.001016 0.002499
v 0.008049 0.001016 0.002955
v 0.008225 0.001016 0.003379
v 0.008507 0.001016 0.003743
v 0.008870 0.001016 0.004023
v 0.009297 0.001016 0.004199
v 0.009751 0.001016 0.004259
v 0.010205 0.001016 0.004199
v 0.010632 0.001016 0.004023
v 0.010994 0.001016 0.003743
v 0.011273 0.001016 0.003379
v 0.011448 0.001016 0.002955
v -0.012500 0.008016 0.004989
v -0.012500 0.008016 -0.004991
v -0.012508 0.008016 -0.004991
v -0.012508 0.008016 0.004989
v -0.012508 0.000017 -0.004991
v -0.012508 0.000017 0.004989
v -0.007000 0.008016 -0.004991
v -0.007000 0.000017 -0.004991
v -0.007000 0.008016 0.004989
v -0.007000 0.000017 0.004989
v -0.007991 0.000017 0.002499
v -0.008049 0.000017 0.002044
v -0.008224 0.000017 0.001619
v -0.008506 0.000017 0.001255
v -0.008869 0.000017 0.000975
v -0.009296 0.000017 0.000799
v -0.009750 0.000017 0.000739
v -0.010204 0.000017 0.000799
v -0.010631 0.000017 0.000975
v -0.010994 0.000017 0.001255
v -0.011272 0.000017 0.001619
v -0.011448 0.000017 0.002044
v -0.011509 0.000017 0.002499
v -0.011448 0.000017 0.002955
v -0.011272 0.000017 0.003379
v -0.010994 0.000017 0.003743
v -0.010631 0.000017 0.004023
v -0.010204 0.000017 0.004199
v -0.009750 0.000017 0.004259
v -0.009296 0.000017 0.004199
v -0.008869 0.000017 0.004023
v -0.008506 0.000017 0.003743
v -0.008224 0.000017 0.003379
v -0.008049 0.000017 0.002955
v -0.007991 0.000017 -0.002501
v -0.008049 0.000017 -0.002956
v -0.008224 0.000017 -0.003381
v -0.008506 0.000017 -0.003745
v -0.008869 0.000017 -0.004025
v -0.009296 0.000017 -0.004201
v -0.009750 0.000017 -0.004261
v -0.010204 0.000017 -0.004201
v -0.010631 0.000017 -0.004025
v -0.010994 0.000017 -0.003745
v -0.011272 0.000017 -0.003381
v -0.011448 0.000017 -0.002956
v -0.011509 0.000017 -0.002501
v -0.011448 0.000017 -0.002045
v -0.011272 0.000017 -0.001621
v -0.010994 0.000017 -0.001257
v -0.010631 0.000017 -0.000977
v -0.010204 0.000017 -0.000801
v -0.009750 0.000017 -0.000741
v -0.009296 0.000017 -0.000801
v -0.008869 0.000017 -0.000977
v -0.008506 0.000017 -0.001257
v -0.008224 0.000017 -0.001621
v -0.008049 0.000017 -0.002045
v -0.007991 0.001016 -0.002501
v -0.008049 0.001016 -0.002956
v -0.008224 0.001016 -0.003381
v -0.008506 0.001016 -0.003745
v -0.008869 0.001016 -0.004025
v -0.009296 0.001016 -0.004201
v -0.009750 0.001016 -0.004261
v -0.010204 0.001016 -0.004201
v -0.010631 0.001016 -0.004025
v -0.010994 0.001016 -0.003745
v -0.011272 0.001016 -0.003381
v -0.011448 0.001016 -0.002956
v -0.011509 0.001016 -0.002501
v -0.011448 0.001016 -0.002045
v -0.011272 0.001016 -0.001621
v -0.010994 0.001016 -0.001257
v -0.010631 0.001016 -0.000977
v -0.010204 0.001016 -0.000801
v -0.009750 0.001016 -0.000741
v -0.009296 0.001016 -0.000801
v -0.008869 0.001016 -0.000977
v -0.008506 0.001016 -0.001257
v -0.008224 0.001016 -0.001621
v -0.008049 0.001016 -0.002045
v -0.007991 0.001016 0.002499
v -0.008049 0.001016 0.002044
v -0.008224 0.001016 0.001619
v -0.008506 0.001016 0.001255
v -0.008869 0.001016 0.000975
v -0.009296 0.001016 0.000799
v -0.009750 0.001016 0.000739
v -0.010204 0.001016 0.000799
v -0.010631 0.001016 0.000975
v -0.010994 0.001016 0.001255
v -0.011272 0.001016 0.001619
v -0.011448 0.001016 0.002044
v -0.011509 0.001016 0.002499
v -0.011448 0.001016 0.002955
v -0.011272 0.001016 0.003379
v -0.010994 0.001016 0.003743
v -0.010631 0.001016 0.004023
v -0.010204 0.001016 0.004199
v -0.009750 0.001016 0.004259
v -0.009296 0.001016 0.004199
v -0.008869 0.001016 0.004023
v -0.008506 0.001016 0.003743
v -0.008224 0.001016 0.003379
v -0.008049 0.001016 0.002955
v 0.012501 0.008016 0.004999
v -0.012500 0.008016 0.004999
v -0.012500 0.008016 -0.005001
v 0.012501 0.008016 -0.005001
v 0.012501 0.028016 0.004999
v -0.012500 0.028016 0.004999
v 0.012501 0.028016 -0.005001
v -0.012500 0.028016 -0.005001
vn -0.0000 -0.0000 -1.0000
vn -1.0000 -0.0000 -0.0000
vn -0.0000 -0.0000 1.0000
vn -0.0000 -1.0000 -0.0000
vn -0.9668 -0.0000 0.2556
vn -1.0000 -0.0000 0.0001
vn -0.9668 -0.0000 -0.2556
vn -0.8650 -0.0000 -0.5018
vn -0.7064 -0.0000 -0.7078
vn -0.5003 -0.0000 -0.8658
vn -0.2579 -0.0000 -0.9662
vn 0.2579 -0.0000 -0.9662
vn 0.5003 -0.0000 -0.8658
vn 0.7087 -0.0000 -0.7055
vn 0.8647 -0.0000 -0.5022
vn 0.9658 -0.0000 -0.2593
vn 1.0000 -0.0000 0.0001
vn 0.9658 -0.0000 0.2593
vn 0.8649 -0.0000 0.5020
vn 0.7088 -0.0000 0.7054
vn 0.5001 -0.0000 0.8660
vn 0.2579 -0.0000 0.9662
vn -0.2579 -0.0000 0.9662
vn -0.5001 -0.0000 0.8660
vn -0.7065 -0.0000 0.7077
vn -0.8651 -0.0000 0.5016
vn -0.9668 -0.0000 -0.2557
vn -0.8651 -0.0000 -0.5016
vn -0.7067 -0.0000 -0.7075
vn -0.5001 -0.0000 -0.8660
vn -0.2577 -0.0000 -0.9662
vn 0.2577 -0.0000 -0.9662
vn 0.5001 -0.0000 -0.8660
vn 0.7090 -0.0000 -0.7052
vn 0.8648 -0.0000 -0.5021
vn 0.9658 -0.0000 -0.2594
vn 1.0000 -0.0000 -0.0000
vn 0.8647 -0.0000 0.5022
vn 0.7087 -0.0000 0.7055
vn 0.5003 -0.0000 0.8658
vn -0.5003 -0.0000 0.8658
vn -0.7064 -0.0000 0.7078
vn -0.8650 -0.0000 0.5018
vn -0.0000 1.0000 -0.0000
vn -0.9657 -0.0000 0.2596
vn -0.9657 -0.0000 -0.2596
vn -0.8666 -0.0000 -0.4989
vn -0.7087 -0.0000 -0.7055
vn 0.7064 -0.0000 -0.7078
vn 0.8650 -0.0000 -0.5018
vn 0.9668 -0.0000 -0.2556
vn 0.9668 -0.0000 0.2556
vn 0.8651 -0.0000 0.5016
vn 0.7065 -0.0000 0.7077
vn -0.7088 -0.0000 0.7054
vn -0.8668 -0.0000 0.4987
vn -0.8667 -0.0000 -0.4988
vn -0.7090 -0.0000 -0.7052
vn 0.7067 -0.0000 -0.7075
vn 0.8651 -0.0000 -0.5016
vn 0.9668 -0.0000 -0.2557
vn 0.8650 -0.0000 0.5018
vn 0.7064 -0.0000 0.7078
vn -0.7087 -0.0000 0.7055
vn -0.8666 -0.0000 0.4989
vn 0.8666 -0.0000 -0.4989
vn 0.9657 -0.0000 -0.2596
vn 0.9657 -0.0000 0.2596
vn 0.8668 -0.0000 0.4987
vn 0.8667 -0.0000 -0.4988
vn 0.8666 -0.0000 0.4989
vn -0.0000 -1.0000 0.0002
vn -0.0000 -1.0000 -0.0001
vt -0.000000 0.550000
vt -0.800000 0.550000
vt -0.000000 0.000000
vt -0.800000 0.000000
vt 0.999000 0.800000
vt 0.001000 0.800000
vt 0.999000 0.000000
vt 0.001000 0.000000
vt -0.000000 -0.550000
vt 0.800000 -0.550000
vt 0.800000 0.000000
vt 0.275000 -0.499000
vt 0.000000 -0.425974
vt -0.275000 -0.499000
vt -0.045545 -0.419978
vt -0.087987 -0.402398
vt 0.275000 0.499000
vt 0.169978 0.204455
vt 0.169978 -0.204455
vt 0.175974 -0.250000
vt -0.275000 0.499000
vt 0.000000 0.425974
vt 0.045545 0.419978
vt 0.087987 0.402398
vt -0.169978 0.204455
vt -0.175974 0.250000
vt -0.169978 0.295545
vt 0.169978 0.295545
vt 0.175974 0.250000
vt 0.152398 0.162013
vt 0.152398 -0.162013
vt 0.124432 0.125568
vt 0.124432 -0.125568
vt 0.087987 0.097602
vt 0.087987 -0.097602
vt 0.045545 0.080022
vt 0.045545 -0.080022
vt 0.000000 0.074026
vt 0.000000 -0.074026
vt -0.045545 -0.080022
vt -0.045545 0.080022
vt -0.087987 -0.097602
vt -0.087987 0.097602
vt -0.124432 -0.125568
vt -0.124432 0.125568
vt -0.152398 -0.162013
vt -0.152398 0.162013
vt -0.169978 -0.204455
vt -0.152398 0.337987
vt -0.124432 0.374432
vt -0.087987 0.402398
vt -0.045545 0.419978
vt 0.124432 0.374432
vt 0.152398 0.337987
vt 0.169978 -0.295545
vt 0.152398 -0.337987
vt 0.124432 -0.374432
vt 0.087987 -0.402398
vt 0.045545 -0.419978
vt -0.124432 -0.374432
vt -0.152398 -0.337987
vt -0.169978 -0.295545
vt -0.175974 -0.250000
vt 0.100000 -0.506768
vt 0.000000 -0.506768
vt 0.100000 -0.552838
vt 0.000000 -0.552838
vt 0.100000 0.552838
vt 0.000000 0.552838
vt 0.100000 0.506768
vt 0.000000 0.506768
vt 0.100000 0.460698
vt 0.000000 0.460698
vt 0.100000 0.414628
vt 0.000000 0.414628
vt 0.100000 0.368558
vt 0.000000 0.368558
vt 0.100000 0.322489
vt 0.000000 0.322489
vt 0.100000 0.276419
vt 0.000000 0.276419
vt 0.100000 0.230349
vt 0.000000 0.230349
vt 0.100000 0.184279
vt 0.000000 0.184279
vt 0.100000 0.138209
vt 0.000000 0.138209
vt 0.100000 0.092140
vt 0.000000 0.092140
vt 0.100000 0.046070
vt 0.000000 0.046070
vt 0.100000 0.000000
vt 0.100000 -0.046070
vt 0.000000 -0.046070
vt 0.100000 -0.092140
vt -0.000000 -0.092140
vt 0.100000 -0.138209
vt 0.000000 -0.138209
vt 0.100000 -0.184279
vt -0.000000 -0.184279
vt 0.100000 -0.230349
vt -0.000000 -0.230349
vt 0.100000 -0.276419
vt 0.000000 -0.276419
vt 0.100000 -0.322489
vt 0.000000 -0.322489
vt 0.100000 -0.368558
vt 0.000000 -0.368558
vt 0.100000 -0.414628
vt 0.000000 -0.414628
vt 0.100000 -0.460698
vt 0.000000 -0.460698
vt -0.169978 -0.045545
vt 0.169978 -0.045545
vt -0.175974 -0.000000
vt 0.175974 0.000000
vt -0.169978 0.045545
vt 0.169978 0.045545
vt -0.152398 0.087987
vt 0.152398 0.087987
vt -0.124432 0.124432
vt 0.124432 0.124432
vt -0.087987 0.152398
vt 0.087987 0.152398
vt -0.045545 0.169978
vt 0.045545 0.169978
vt 0.000000 0.175974
vt 0.152398 -0.087987
vt -0.152398 -0.087987
vt 0.124432 -0.124432
vt -0.124432 -0.124432
vt 0.087987 -0.152398
vt -0.087987 -0.152398
vt 0.045545 -0.169978
vt -0.045545 -0.169978
vt 0.000000 -0.175974
vt 0.998000 0.000000
vt 0.000000 0.001000
vt 0.998000 0.001000
vt -0.800000 0.001000
vt -0.800000 0.999000
vt 0.000000 0.999000
vt -0.800000 0.551000
vt -0.000000 0.551000
vt 0.800000 0.001000
vt 0.276000 -0.499000
vt 0.276000 0.499000
vt 0.000000 -0.999000
vt 0.800000 -0.999000
vt 0.000000 -0.001000
vt 0.800000 -0.001000
vt -0.800000 -0.001000
vt 0.800000 -0.551000
vt -0.000000 -0.551000
vt -0.276000 -0.499000
vt -0.276000 0.499000
vt 1.250000 -0.500000
vt 0.700000 -0.499000
vt 0.700000 0.499000
vt 1.250000 0.500000
vt 1.250000 0.499000
vt -0.700000 0.499000
vt -0.700000 -0.499000
vt -1.250000 -0.500000
vt -1.250000 -0.499000
vt -1.250000 0.500000
vt -1.250000 0.499000
vt 1.250000 -0.499000
vt 2.500000 0.000000
vt 0.000000 2.000000
vt 2.500000 2.000000
vt 1.000000 2.000000
vt 0.999000 2.000000
vt 1.000000 0.000000
vt 0.001000 2.000000
s 1
usemtl mat_tri_line_tracker_car_rc
f 2/1/1 3/2/1 1/3/1
f 1/3/1 3/2/1 4/4/1
f 4/5/2 5/6/2 1/7/2
f 1/7/2 5/6/2 6/8/2
f 6/9/3 5/10/3 7/3/3
f 7/3/3 5/10/3 8/11/3
f 3/12/4 39/13/4 4/14/4
f 4/14/4 39/13/4 40/15/4
f 4/14/4 40/15/4 41/16/4
f 8/17/4 10/18/4 3/12/4
f 3/12/4 10/18/4 56/19/4
f 3/12/4 56/19/4 33/20/4
f 5/21/4 27/22/4 8/17/4
f 8/17/4 27/22/4 28/23/4
f 8/17/4 28/23/4 29/24/4
f 4/14/4 20/25/4 5/21/4
f 5/21/4 20/25/4 21/26/4
f 5/21/4 21/26/4 22/27/4
f 32/28/4 9/29/4 8/17/4
f 8/17/4 9/29/4 10/18/4
f 10/18/4 11/30/4 56/19/4
f 56/19/4 11/30/4 55/31/4
f 55/31/4 11/30/4 12/32/4
f 55/31/4 12/32/4 54/33/4
f 54/33/4 12/32/4 13/34/4
f 54/33/4 13/34/4 53/35/4
f 53/35/4 13/34/4 14/36/4
f 53/35/4 14/36/4 52/37/4
f 52/37/4 14/36/4 15/38/4
f 52/37/4 15/38/4 51/39/4
f 51/39/4 15/38/4 50/40/4
f 50/40/4 15/38/4 16/41/4
f 50/40/4 16/41/4 49/42/4
f 49/42/4 16/41/4 17/43/4
f 49/42/4 17/43/4 48/44/4
f 48/44/4 17/43/4 18/45/4
f 48/44/4 18/45/4 47/46/4
f 47/46/4 18/45/4 19/47/4
f 47/46/4 19/47/4 46/48/4
f 46/48/4 19/47/4 20/25/4
f 46/48/4 20/25/4 4/14/4
f 22/27/4 23/49/4 5/21/4
f 5/21/4 23/49/4 24/50/4
f 5/21/4 24/50/4 25/51/4
f 25/51/4 26/52/4 5/21/4
f 5/21/4 26/52/4 27/22/4
f 29/24/4 30/53/4 8/17/4
f 8/17/4 30/53/4 31/54/4
f 8/17/4 31/54/4 32/28/4
f 33/20/4 34/55/4 3/12/4
f 3/12/4 34/55/4 35/56/4
f 3/12/4 35/56/4 36/57/4
f 36/57/4 37/58/4 3/12/4
f 3/12/4 37/58/4 38/59/4
f 3/12/4 38/59/4 39/13/4
f 41/16/4 42/60/4 4/14/4
f 4/14/4 42/60/4 43/61/4
f 4/14/4 43/61/4 44/62/4
f 44/62/4 45/63/4 4/14/4
f 4/14/4 45/63/4 46/48/4
f 58/64/5 34/65/5 57/66/6
f 57/66/6 34/65/5 33/67/6
f 57/68/6 33/69/6 80/70/7
f 80/70/7 33/69/6 56/71/7
f 80/70/7 56/71/7 79/72/8
f 79/72/8 56/71/7 55/73/8
f 79/72/8 55/73/8 78/74/9
f 78/74/9 55/73/8 54/75/9
f 78/74/9 54/75/9 77/76/10
f 77/76/10 54/75/9 53/77/10
f 77/76/10 53/77/10 76/78/11
f 76/78/11 53/77/10 52/79/11
f 76/78/11 52/79/11 75/80/1
f 75/80/1 52/79/11 51/81/1
f 75/80/1 51/81/1 74/82/12
f 74/82/12 51/81/1 50/83/12
f 74/82/12 50/83/12 73/84/13
f 73/84/13 50/83/12 49/85/13
f 73/84/13 49/85/13 72/86/14
f 72/86/14 49/85/13 48/87/14
f 72/86/14 48/87/14 71/88/15
f 71/88/15 48/87/14 47/89/15
f 71/88/15 47/89/15 70/90/16
f 70/90/16 47/89/15 46/91/16
f 70/90/16 46/91/16 69/92/17
f 69/92/17 46/91/16 45/3/17
f 69/92/17 45/3/17 68/93/18
f 68/93/18 45/3/17 44/94/18
f 68/93/18 44/94/18 67/95/19
f 67/95/19 44/94/18 43/96/19
f 67/95/19 43/96/19 66/97/20
f 66/97/20 43/96/19 42/98/20
f 66/97/20 42/98/20 65/99/21
f 65/99/21 42/98/20 41/100/21
f 65/99/21 41/100/21 64/101/22
f 64/101/22 41/100/21 40/102/22
f 64/101/22 40/102/22 63/103/3
f 63/103/3 40/102/22 39/104/3
f 63/103/3 39/104/3 62/105/23
f 62/105/23 39/104/3 38/106/23
f 62/105/23 38/106/23 61/107/24
f 61/107/24 38/106/23 37/108/24
f 61/107/24 37/108/24 60/109/25
f 60/109/25 37/108/24 36/110/25
f 60/109/25 36/110/25 59/111/26
f 59/111/26 36/110/25 35/112/26
f 59/111/26 35/112/26 58/64/5
f 58/64/5 35/112/26 34/65/5
f 80/113/4 70/114/4 57/115/4
f 57/115/4 70/114/4 69/116/4
f 57/115/4 69/116/4 58/117/4
f 58/117/4 69/116/4 68/118/4
f 58/117/4 68/118/4 59/119/4
f 59/119/4 68/118/4 67/120/4
f 59/119/4 67/120/4 60/121/4
f 60/121/4 67/120/4 66/122/4
f 60/121/4 66/122/4 61/123/4
f 61/123/4 66/122/4 65/124/4
f 61/123/4 65/124/4 62/125/4
f 62/125/4 65/124/4 64/126/4
f 62/125/4 64/126/4 63/127/4
f 70/114/4 80/113/4 71/128/4
f 71/128/4 80/113/4 79/129/4
f 71/128/4 79/129/4 72/130/4
f 72/130/4 79/129/4 78/131/4
f 72/130/4 78/131/4 73/132/4
f 73/132/4 78/131/4 77/133/4
f 73/132/4 77/133/4 74/134/4
f 74/134/4 77/133/4 76/135/4
f 74/134/4 76/135/4 75/136/4
f 82/64/5 10/65/5 81/66/2
f 81/66/2 10/65/5 9/67/2
f 81/68/2 9/69/2 104/70/27
f 104/70/27 9/69/2 32/71/27
f 104/70/27 32/71/27 103/72/28
f 103/72/28 32/71/27 31/73/28
f 103/72/28 31/73/28 102/74/29
f 102/74/29 31/73/28 30/75/29
f 102/74/29 30/75/29 101/76/30
f 101/76/30 30/75/29 29/77/30
f 101/76/30 29/77/30 100/78/31
f 100/78/31 29/77/30 28/79/31
f 100/78/31 28/79/31 99/80/1
f 99/80/1 28/79/31 27/81/1
f 99/80/1 27/81/1 98/82/32
f 98/82/32 27/81/1 26/83/32
f 98/82/32 26/83/32 97/84/33
f 97/84/33 26/83/32 25/85/33
f 97/84/33 25/85/33 96/86/34
f 96/86/34 25/85/33 24/87/34
f 96/86/34 24/87/34 95/88/35
f 95/88/35 24/87/34 23/89/35
f 95/88/35 23/89/35 94/90/36
f 94/90/36 23/89/35 22/91/36
f 94/90/36 22/91/36 93/92/37
f 93/92/37 22/91/36 21/3/37
f 93/92/37 21/3/37 92/93/18
f 92/93/18 21/3/37 20/94/18
f 92/93/18 20/94/18 91/95/38
f 91/95/38 20/94/18 19/96/38
f 91/95/38 19/96/38 90/97/39
f 90/97/39 19/96/38 18/98/39
f 90/97/39 18/98/39 89/99/40
f 89/99/40 18/98/39 17/100/40
f 89/99/40 17/100/40 88/101/22
f 88/101/22 17/100/40 16/102/22
f 88/101/22 16/102/22 87/103/3
f 87/103/3 16/102/22 15/104/3
f 87/103/3 15/104/3 86/105/23
f 86/105/23 15/104/3 14/106/23
f 86/105/23 14/106/23 85/107/41
f 85/107/41 14/106/23 13/108/41
f 85/107/41 13/108/41 84/109/42
f 84/109/42 13/108/41 12/110/42
f 84/109/42 12/110/42 83/111/43
f 83/111/43 12/110/42 11/112/43
f 83/111/43 11/112/43 82/64/5
f 82/64/5 11/112/43 10/65/5
f 104/113/4 94/114/4 81/115/4
f 81/115/4 94/114/4 93/116/4
f 81/115/4 93/116/4 82/117/4
f 82/117/4 93/116/4 92/118/4
f 82/117/4 92/118/4 83/119/4
f 83/119/4 92/118/4 91/120/4
f 83/119/4 91/120/4 84/121/4
f 84/121/4 91/120/4 90/122/4
f 84/121/4 90/122/4 85/123/4
f 85/123/4 90/122/4 89/124/4
f 85/123/4 89/124/4 86/125/4
f 86/125/4 89/124/4 88/126/4
f 86/125/4 88/126/4 87/127/4
f 94/114/4 104/113/4 95/128/4
f 95/128/4 104/113/4 103/129/4
f 95/128/4 103/129/4 96/130/4
f 96/130/4 103/129/4 102/131/4
f 96/130/4 102/131/4 97/132/4
f 97/132/4 102/131/4 101/133/4
f 97/132/4 101/133/4 98/134/4
f 98/134/4 101/133/4 100/135/4
f 98/134/4 100/135/4 99/136/4
f 2/8/37 7/7/37 3/6/37
f 3/6/37 7/7/37 8/5/37
f 105/3/44 106/137/44 108/138/44
f 108/138/44 106/137/44 107/139/44
f 109/140/37 108/138/37 110/141/37
f 110/141/37 108/138/37 107/142/37
f 111/3/1 105/1/1 112/4/1
f 112/4/1 105/1/1 109/143/1
f 109/143/1 105/1/1 108/144/1
f 112/5/2 113/6/2 111/7/2
f 111/7/2 113/6/2 114/8/2
f 114/9/3 113/10/3 106/3/3
f 106/3/3 113/10/3 110/145/3
f 106/3/3 110/145/3 107/138/3
f 109/146/4 145/13/4 112/14/4
f 112/14/4 145/13/4 146/15/4
f 112/14/4 146/15/4 147/16/4
f 110/147/4 116/18/4 109/146/4
f 109/146/4 116/18/4 162/19/4
f 109/146/4 162/19/4 139/20/4
f 113/21/4 133/22/4 110/147/4
f 110/147/4 133/22/4 134/23/4
f 110/147/4 134/23/4 135/24/4
f 112/14/4 126/25/4 113/21/4
f 113/21/4 126/25/4 127/26/4
f 113/21/4 127/26/4 128/27/4
f 138/28/4 115/29/4 110/147/4
f 110/147/4 115/29/4 116/18/4
f 116/18/4 117/30/4 162/19/4
f 162/19/4 117/30/4 161/31/4
f 161/31/4 117/30/4 118/32/4
f 161/31/4 118/32/4 160/33/4
f 160/33/4 118/32/4 119/34/4
f 160/33/4 119/34/4 159/35/4
f 159/35/4 119/34/4 120/36/4
f 159/35/4 120/36/4 158/37/4
f 158/37/4 120/36/4 121/38/4
f 158/37/4 121/38/4 157/39/4
f 157/39/4 121/38/4 156/40/4
f 156/40/4 121/38/4 122/41/4
f 156/40/4 122/41/4 155/42/4
f 155/42/4 122/41/4 123/43/4
f 155/42/4 123/43/4 154/44/4
f 154/44/4 123/43/4 124/45/4
f 154/44/4 124/45/4 153/46/4
f 153/46/4 124/45/4 125/47/4
f 153/46/4 125/47/4 152/48/4
f 152/48/4 125/47/4 126/25/4
f 152/48/4 126/25/4 112/14/4
f 128/27/4 129/49/4 113/21/4
f 113/21/4 129/49/4 130/50/4
f 113/21/4 130/50/4 131/51/4
f 131/51/4 132/52/4 113/21/4
f 113/21/4 132/52/4 133/22/4
f 135/24/4 136/53/4 110/147/4
f 110/147/4 136/53/4 137/54/4
f 110/147/4 137/54/4 138/28/4
f 139/20/4 140/55/4 109/146/4
f 109/146/4 140/55/4 141/56/4
f 109/146/4 141/56/4 142/57/4
f 142/57/4 143/58/4 109/146/4
f 109/146/4 143/58/4 144/59/4
f 109/146/4 144/59/4 145/13/4
f 147/16/4 148/60/4 112/14/4
f 112/14/4 148/60/4 149/61/4
f 112/14/4 149/61/4 150/62/4
f 150/62/4 151/63/4 112/14/4
f 112/14/4 151/63/4 152/48/4
f 164/64/45 140/65/45 163/66/6
f 163/66/6 140/65/45 139/67/6
f 163/68/6 139/69/6 186/70/46
f 186/70/46 139/69/6 162/71/46
f 186/70/46 162/71/46 185/72/47
f 185/72/47 162/71/46 161/73/47
f 185/72/47 161/73/47 184/74/48
f 184/74/48 161/73/47 160/75/48
f 184/74/48 160/75/48 183/76/10
f 183/76/10 160/75/48 159/77/10
f 183/76/10 159/77/10 182/78/11
f 182/78/11 159/77/10 158/79/11
f 182/78/11 158/79/11 181/80/1
f 181/80/1 158/79/11 157/81/1
f 181/80/1 157/81/1 180/82/12
f 180/82/12 157/81/1 156/83/12
f 180/82/12 156/83/12 179/84/13
f 179/84/13 156/83/12 155/85/13
f 179/84/13 155/85/13 178/86/49
f 178/86/49 155/85/13 154/87/49
f 178/86/49 154/87/49 177/88/50
f 177/88/50 154/87/49 153/89/50
f 177/88/50 153/89/50 176/90/51
f 176/90/51 153/89/50 152/91/51
f 176/90/51 152/91/51 175/92/17
f 175/92/17 152/91/51 151/3/17
f 175/92/17 151/3/17 174/93/52
f 174/93/52 151/3/17 150/94/52
f 174/93/52 150/94/52 173/95/53
f 173/95/53 150/94/52 149/96/53
f 173/95/53 149/96/53 172/97/54
f 172/97/54 149/96/53 148/98/54
f 172/97/54 148/98/54 171/99/21
f 171/99/21 148/98/54 147/100/21
f 171/99/21 147/100/21 170/101/22
f 170/101/22 147/100/21 146/102/22
f 170/101/22 146/102/22 169/103/3
f 169/103/3 146/102/22 145/104/3
f 169/103/3 145/104/3 168/105/23
f 168/105/23 145/104/3 144/106/23
f 168/105/23 144/106/23 167/107/24
f 167/107/24 144/106/23 143/108/24
f 167/107/24 143/108/24 166/109/55
f 166/109/55 143/108/24 142/110/55
f 166/109/55 142/110/55 165/111/56
f 165/111/56 142/110/55 141/112/56
f 165/111/56 141/112/56 164/64/45
f 164/64/45 141/112/56 140/65/45
f 186/113/4 176/114/4 163/115/4
f 163/115/4 176/114/4 175/116/4
f 163/115/4 175/116/4 164/117/4
f 164/117/4 175/116/4 174/118/4
f 164/117/4 174/118/4 165/119/4
f 165/119/4 174/118/4 173/120/4
f 165/119/4 173/120/4 166/121/4
f 166/121/4 173/120/4 172/122/4
f 166/121/4 172/122/4 167/123/4
f 167/123/4 172/122/4 171/124/4
f 167/123/4 171/124/4 168/125/4
f 168/125/4 171/124/4 170/126/4
f 168/125/4 170/126/4 169/127/4
f 176/114/4 186/113/4 177/128/4
f 177/128/4 186/113/4 185/129/4
f 177/128/4 185/129/4 178/130/4
f 178/130/4 185/129/4 184/131/4
f 178/130/4 184/131/4 179/132/4
f 179/132/4 184/131/4 183/133/4
f 179/132/4 183/133/4 180/134/4
f 180/134/4 183/133/4 182/135/4
f 180/134/4 182/135/4 181/136/4
f 188/64/45 116/65/45 187/66/2
f 187/66/2 116/65/45 115/67/2
f 187/68/2 115/69/2 210/70/46
f 210/70/46 115/69/2 138/71/46
f 210/70/46 138/71/46 209/72/57
f 209/72/57 138/71/46 137/73/57
f 209/72/57 137/73/57 208/74/58
f 208/74/58 137/73/57 136/75/58
f 208/74/58 136/75/58 207/76/30
f 207/76/30 136/75/58 135/77/30
f 207/76/30 135/77/30 206/78/31
f 206/78/31 135/77/30 134/79/31
f 206/78/31 134/79/31 205/80/1
f 205/80/1 134/79/31 133/81/1
f 205/80/1 133/81/1 204/82/32
f 204/82/32 133/81/1 132/83/32
f 204/82/32 132/83/32 203/84/33
f 203/84/33 132/83/32 131/85/33
f 203/84/33 131/85/33 202/86/59
f 202/86/59 131/85/33 130/87/59
f 202/86/59 130/87/59 201/88/60
f 201/88/60 130/87/59 129/89/60
f 201/88/60 129/89/60 200/90/61
f 200/90/61 129/89/60 128/91/61
f 200/90/61 128/91/61 199/92/37
f 199/92/37 128/91/61 127/3/37
f 199/92/37 127/3/37 198/93/52
f 198/93/52 127/3/37 126/94/52
f 198/93/52 126/94/52 197/95/62
f 197/95/62 126/94/52 125/96/62
f 197/95/62 125/96/62 196/97/63
f 196/97/63 125/96/62 124/98/63
f 196/97/63 124/98/63 195/99/40
f 195/99/40 124/98/63 123/100/40
f 195/99/40 123/100/40 194/101/22
f 194/101/22 123/100/40 122/102/22
f 194/101/22 122/102/22 193/103/3
f 193/103/3 122/102/22 121/104/3
f 193/103/3 121/104/3 192/105/23
f 192/105/23 121/104/3 120/106/23
f 192/105/23 120/106/23 191/107/41
f 191/107/41 120/106/23 119/108/41
f 191/107/41 119/108/41 190/109/64
f 190/109/64 119/108/41 118/110/64
f 190/109/64 118/110/64 189/111/65
f 189/111/65 118/110/64 117/112/65
f 189/111/65 117/112/65 188/64/45
f 188/64/45 117/112/65 116/65/45
f 210/113/4 200/114/4 187/115/4
f 187/115/4 200/114/4 199/116/4
f 187/115/4 199/116/4 188/117/4
f 188/117/4 199/116/4 198/118/4
f 188/117/4 198/118/4 189/119/4
f 189/119/4 198/118/4 197/120/4
f 189/119/4 197/120/4 190/121/4
f 190/121/4 197/120/4 196/122/4
f 190/121/4 196/122/4 191/123/4
f 191/123/4 196/122/4 195/124/4
f 191/123/4 195/124/4 192/125/4
f 192/125/4 195/124/4 194/126/4
f 192/125/4 194/126/4 193/127/4
f 200/114/4 210/113/4 201/128/4
f 201/128/4 210/113/4 209/129/4
f 201/128/4 209/129/4 202/130/4
f 202/130/4 209/129/4 208/131/4
f 202/130/4 208/131/4 203/132/4
f 203/132/4 208/131/4 207/133/4
f 203/132/4 207/133/4 204/134/4
f 204/134/4 207/133/4 206/135/4
f 204/134/4 206/135/4 205/136/4
f 211/3/44 212/137/44 214/138/44
f 214/138/44 212/137/44 213/139/44
f 213/148/2 215/149/2 214/150/2
f 214/150/2 215/149/2 216/151/2
f 217/1/1 218/2/1 212/3/1
f 212/3/1 218/2/1 215/152/1
f 212/3/1 215/152/1 213/150/1
f 219/3/3 211/9/3 220/11/3
f 220/11/3 211/9/3 216/153/3
f 216/153/3 211/9/3 214/154/3
f 218/12/4 251/13/4 215/155/4
f 215/155/4 251/13/4 252/15/4
f 215/155/4 252/15/4 253/16/4
f 220/17/4 222/18/4 218/12/4
f 218/12/4 222/18/4 268/19/4
f 218/12/4 268/19/4 245/20/4
f 216/156/4 239/22/4 220/17/4
f 220/17/4 239/22/4 240/23/4
f 220/17/4 240/23/4 241/24/4
f 215/155/4 232/25/4 216/156/4
f 216/156/4 232/25/4 233/26/4
f 216/156/4 233/26/4 234/27/4
f 244/28/4 221/29/4 220/17/4
f 220/17/4 221/29/4 222/18/4
f 222/18/4 223/30/4 268/19/4
f 268/19/4 223/30/4 267/31/4
f 267/31/4 223/30/4 224/32/4
f 267/31/4 224/32/4 266/33/4
f 266/33/4 224/32/4 225/34/4
f 266/33/4 225/34/4 265/35/4
f 265/35/4 225/34/4 226/36/4
f 265/35/4 226/36/4 264/37/4
f 264/37/4 226/36/4 227/38/4
f 264/37/4 227/38/4 263/39/4
f 263/39/4 227/38/4 262/40/4
f 262/40/4 227/38/4 228/41/4
f 262/40/4 228/41/4 261/42/4
f 261/42/4 228/41/4 229/43/4
f 261/42/4 229/43/4 260/44/4
f 260/44/4 229/43/4 230/45/4
f 260/44/4 230/45/4 259/46/4
f 259/46/4 230/45/4 231/47/4
f 259/46/4 231/47/4 258/48/4
f 258/48/4 231/47/4 232/25/4
f 258/48/4 232/25/4 215/155/4
f 234/27/4 235/49/4 216/156/4
f 216/156/4 235/49/4 236/50/4
f 216/156/4 236/50/4 237/51/4
f 237/51/4 238/52/4 216/156/4
f 216/156/4 238/52/4 239/22/4
f 241/24/4 242/53/4 220/17/4
f 220/17/4 242/53/4 243/54/4
f 220/17/4 243/54/4 244/28/4
f 245/20/4 246/55/4 218/12/4
f 218/12/4 246/55/4 247/56/4
f 218/12/4 247/56/4 248/57/4
f 248/57/4 249/58/4 218/12/4
f 218/12/4 249/58/4 250/59/4
f 218/12/4 250/59/4 251/13/4
f 253/16/4 254/60/4 215/155/4
f 215/155/4 254/60/4 255/61/4
f 215/155/4 255/61/4 256/62/4
f 256/62/4 257/63/4 215/155/4
f 215/155/4 257/63/4 258/48/4
f 270/64/5 246/65/5 269/66/6
f 269/66/6 246/65/5 245/67/6
f 269/68/6 245/69/6 292/70/7
f 292/70/7 245/69/6 268/71/7
f 292/70/7 268/71/7 291/72/8
f 291/72/8 268/71/7 267/73/8
f 291/72/8 267/73/8 290/74/9
f 290/74/9 267/73/8 266/75/9
f 290/74/9 266/75/9 289/76/10
f 289/76/10 266/75/9 265/77/10
f 289/76/10 265/77/10 288/78/11
f 288/78/11 265/77/10 264/79/11
f 288/78/11 264/79/11 287/80/1
f 287/80/1 264/79/11 263/81/1
f 287/80/1 263/81/1 286/82/12
f 286/82/12 263/81/1 262/83/12
f 286/82/12 262/83/12 285/84/13
f 285/84/13 262/83/12 261/85/13
f 285/84/13 261/85/13 284/86/14
f 284/86/14 261/85/13 260/87/14
f 284/86/14 260/87/14 283/88/66
f 283/88/66 260/87/14 259/89/66
f 283/88/66 259/89/66 282/90/67
f 282/90/67 259/89/66 258/91/67
f 282/90/67 258/91/67 281/92/17
f 281/92/17 258/91/67 257/3/17
f 281/92/17 257/3/17 280/93/68
f 280/93/68 257/3/17 256/94/68
f 280/93/68 256/94/68 279/95/69
f 279/95/69 256/94/68 255/96/69
f 279/95/69 255/96/69 278/97/20
f 278/97/20 255/96/69 254/98/20
f 278/97/20 254/98/20 277/99/21
f 277/99/21 254/98/20 253/100/21
f 277/99/21 253/100/21 276/101/22
f 276/101/22 253/100/21 252/102/22
f 276/101/22 252/102/22 275/103/3
f 275/103/3 252/102/22 251/104/3
f 275/103/3 251/104/3 274/105/23
f 274/105/23 251/104/3 250/106/23
f 274/105/23 250/106/23 273/107/24
f 273/107/24 250/106/23 249/108/24
f 273/107/24 249/108/24 272/109/25
f 272/109/25 249/108/24 248/110/25
f 272/109/25 248/110/25 271/111/26
f 271/111/26 248/110/25 247/112/26
f 271/111/26 247/112/26 270/64/5
f 270/64/5 247/112/26 246/65/5
f 292/113/4 282/114/4 269/115/4
f 269/115/4 282/114/4 281/116/4
f 269/115/4 281/116/4 270/117/4
f 270/117/4 281/116/4 280/118/4
f 270/117/4 280/118/4 271/119/4
f 271/119/4 280/118/4 279/120/4
f 271/119/4 279/120/4 272/121/4
f 272/121/4 279/120/4 278/122/4
f 272/121/4 278/122/4 273/123/4
f 273/123/4 278/122/4 277/124/4
f 273/123/4 277/124/4 274/125/4
f 274/125/4 277/124/4 276/126/4
f 274/125/4 276/126/4 275/127/4
f 282/114/4 292/113/4 283/128/4
f 283/128/4 292/113/4 291/129/4
f 283/128/4 291/129/4 284/130/4
f 284/130/4 291/129/4 290/131/4
f 284/130/4 290/131/4 285/132/4
f 285/132/4 290/131/4 289/133/4
f 285/132/4 289/133/4 286/134/4
f 286/134/4 289/133/4 288/135/4
f 286/134/4 288/135/4 287/136/4
f 294/64/5 222/65/5 293/66/2
f 293/66/2 222/65/5 221/67/2
f 293/68/2 221/69/2 316/70/27
f 316/70/27 221/69/2 244/71/27
f 316/70/27 244/71/27 315/72/28
f 315/72/28 244/71/27 243/73/28
f 315/72/28 243/73/28 314/74/29
f 314/74/29 243/73/28 242/75/29
f 314/74/29 242/75/29 313/76/30
f 313/76/30 242/75/29 241/77/30
f 313/76/30 241/77/30 312/78/31
f 312/78/31 241/77/30 240/79/31
f 312/78/31 240/79/31 311/80/1
f 311/80/1 240/79/31 239/81/1
f 311/80/1 239/81/1 310/82/32
f 310/82/32 239/81/1 238/83/32
f 310/82/32 238/83/32 309/84/33
f 309/84/33 238/83/32 237/85/33
f 309/84/33 237/85/33 308/86/34
f 308/86/34 237/85/33 236/87/34
f 308/86/34 236/87/34 307/88/70
f 307/88/70 236/87/34 235/89/70
f 307/88/70 235/89/70 306/90/67
f 306/90/67 235/89/70 234/91/67
f 306/90/67 234/91/67 305/92/37
f 305/92/37 234/91/67 233/3/37
f 305/92/37 233/3/37 304/93/68
f 304/93/68 233/3/37 232/94/68
f 304/93/68 232/94/68 303/95/71
f 303/95/71 232/94/68 231/96/71
f 303/95/71 231/96/71 302/97/39
f 302/97/39 231/96/71 230/98/39
f 302/97/39 230/98/39 301/99/40
f 301/99/40 230/98/39 229/100/40
f 301/99/40 229/100/40 300/101/22
f 300/101/22 229/100/40 228/102/22
f 300/101/22 228/102/22 299/103/3
f 299/103/3 228/102/22 227/104/3
f 299/103/3 227/104/3 298/105/23
f 298/105/23 227/104/3 226/106/23
f 298/105/23 226/106/23 297/107/41
f 297/107/41 226/106/23 225/108/41
f 297/107/41 225/108/41 296/109/42
f 296/109/42 225/108/41 224/110/42
f 296/109/42 224/110/42 295/111/43
f 295/111/43 224/110/42 223/112/43
f 295/111/43 223/112/43 294/64/5
f 294/64/5 223/112/43 222/65/5
f 316/113/4 306/114/4 293/115/4
f 293/115/4 306/114/4 305/116/4
f 293/115/4 305/116/4 294/117/4
f 294/117/4 305/116/4 304/118/4
f 294/117/4 304/118/4 295/119/4
f 295/119/4 304/118/4 303/120/4
f 295/119/4 303/120/4 296/121/4
f 296/121/4 303/120/4 302/122/4
f 296/121/4 302/122/4 297/123/4
f 297/123/4 302/122/4 301/124/4
f 297/123/4 301/124/4 298/125/4
f 298/125/4 301/124/4 300/126/4
f 298/125/4 300/126/4 299/127/4
f 306/114/4 316/113/4 307/128/4
f 307/128/4 316/113/4 315/129/4
f 307/128/4 315/129/4 308/130/4
f 308/130/4 315/129/4 314/131/4
f 308/130/4 314/131/4 309/132/4
f 309/132/4 314/131/4 313/133/4
f 309/132/4 313/133/4 310/134/4
f 310/134/4 313/133/4 312/135/4
f 310/134/4 312/135/4 311/136/4
f 217/8/37 219/7/37 218/6/37
f 218/6/37 219/7/37 220/5/37
f 1/14/4 320/157/4 2/12/72
f 2/12/72 320/157/4 111/158/4
f 2/12/72 111/158/4 7/17/4
f 7/17/4 111/158/4 114/159/4
f 7/17/4 114/159/4 317/160/4
f 317/160/4 114/159/4 106/161/4
f 6/21/73 219/162/4 1/14/4
f 1/14/4 219/162/4 217/163/4
f 1/14/4 217/163/4 319/164/4
f 319/164/4 217/163/4 212/165/4
f 219/162/4 6/21/73 318/166/4
f 318/166/4 6/21/73 7/17/4
f 318/166/4 7/17/4 317/160/4
f 318/166/4 211/167/4 219/162/4
f 319/164/4 320/157/4 1/14/4
f 320/157/4 105/168/4 111/158/4
f 321/3/3 322/169/3 317/170/3
f 317/170/3 322/169/3 318/171/3
f 317/172/37 106/173/37 321/174/37
f 321/174/37 106/173/37 105/175/37
f 321/174/37 105/175/37 323/3/37
f 323/3/37 105/175/37 320/170/37
f 324/3/1 323/169/1 319/170/1
f 319/170/1 323/169/1 320/171/1
f 319/172/2 212/173/2 324/174/2
f 324/174/2 212/173/2 211/175/2
f 324/174/2 211/175/2 322/3/2
f 322/3/2 211/175/2 318/170/2
f 322/160/44 321/166/44 324/157/44
f 324/157/44 321/166/44 323/164/44
