# WaveFront *.obj file (generated by Autodesk ATF)

mtllib PhotoInterrupter.mtl

g PhotoInterrupter

v 46.912578 5.322462 0.000000
v 47.385837 5.322462 0.000000
v 47.385837 5.322462 7.750000
v 46.912578 5.322462 7.750000
v 46.912578 4.043050 0.000000
v 46.912578 4.043050 7.750000
v 47.385837 4.043050 0.000000
v 47.385837 4.043050 7.750000
v 47.385837 1.682756 0.000000
v 47.385837 1.682756 7.750000
v 47.385837 7.682756 0.000000
v 47.385837 7.682756 7.750000
v 43.385837 7.682756 7.750000
v 43.385837 1.682756 7.750000
v 52.925086 5.322462 0.000000
v 52.925086 4.043050 0.000000
v 52.925086 4.043050 7.750000
v 52.925086 5.322462 7.750000
v 52.515837 5.322462 0.000000
v 52.515837 5.322462 7.750000
v 52.515837 7.682756 0.000000
v 52.515837 7.682756 7.750000
v 52.515837 4.043050 0.000000
v 52.515837 1.682756 0.000000
v 52.515837 1.682756 7.750000
v 52.515837 4.043050 7.750000
v 56.515837 1.682756 7.750000
v 56.515837 7.682756 7.750000
v 56.515837 7.682756 -2.000000
v 43.385837 7.682756 -2.000000
v 43.385837 1.682756 -2.000000
v 56.515837 1.682756 -2.000000
vt 0.000000 0.000000 0.000000
vt 0.047326 0.000000 0.000000
vt 0.000000 0.775000 0.000000
vt 0.047326 0.775000 0.000000
vt 0.000000 0.000000 0.000000
vt 0.127941 0.000000 0.000000
vt 0.000000 0.775000 0.000000
vt 0.127941 0.775000 0.000000
vt -0.000000 0.000000 0.000000
vt 0.047326 0.000000 0.000000
vt -0.000000 0.775000 0.000000
vt 0.047326 0.775000 0.000000
vt 0.000000 0.000000 0.000000
vt 0.236029 0.000000 0.000000
vt 0.000000 0.775000 0.000000
vt 0.236029 0.775000 0.000000
vt 0.000000 0.000000 0.000000
vt 0.236029 0.000000 0.000000
vt 0.000000 0.775000 0.000000
vt 0.236029 0.775000 0.000000
vt 0.200000 0.063971 0.000000
vt 0.200000 0.300000 0.000000
vt 0.152674 0.063971 0.000000
vt -0.200000 0.300000 0.000000
vt -0.200000 -0.300000 0.000000
vt 0.152674 -0.063971 0.000000
vt 0.200000 -0.300000 0.000000
vt 0.200000 -0.063971 0.000000
vt 0.000000 0.000000 0.000000
vt 0.127941 0.000000 0.000000
vt 0.000000 0.775000 0.000000
vt 0.127941 0.775000 0.000000
vt 0.000000 0.000000 0.000000
vt 0.040925 0.000000 0.000000
vt 0.000000 0.775000 0.000000
vt 0.040925 0.775000 0.000000
vt 0.000000 0.000000 0.000000
vt 0.236029 0.000000 0.000000
vt 0.000000 0.775000 0.000000
vt 0.236029 0.775000 0.000000
vt 0.000000 0.000000 0.000000
vt 0.236029 0.000000 0.000000
vt 0.000000 0.775000 0.000000
vt 0.236029 0.775000 0.000000
vt 0.000000 0.000000 0.000000
vt 0.040925 0.000000 0.000000
vt 0.000000 0.775000 0.000000
vt 0.040925 0.775000 0.000000
vt -0.200000 -0.063971 0.000000
vt -0.200000 -0.300000 0.000000
vt -0.159075 -0.063971 0.000000
vt 0.200000 -0.300000 0.000000
vt -0.159075 0.063971 0.000000
vt 0.200000 0.300000 0.000000
vt -0.200000 0.300000 0.000000
vt -0.200000 0.063971 0.000000
vt 0.913000 -0.775000 0.000000
vt 1.313000 -0.775000 0.000000
vt 0.913000 0.000000 0.000000
vt 1.313000 0.200000 0.000000
vt 0.000000 0.200000 0.000000
vt 0.400000 0.000000 0.000000
vt 0.000000 -0.775000 0.000000
vt 0.400000 -0.775000 0.000000
vt 0.600000 0.200000 0.000000
vt 0.000000 0.200000 0.000000
vt 0.600000 -0.775000 0.000000
vt 0.000000 -0.775000 0.000000
vt 0.913000 -0.775000 0.000000
vt 1.313000 -0.775000 0.000000
vt 0.913000 0.000000 0.000000
vt 1.313000 0.200000 0.000000
vt 0.000000 0.200000 0.000000
vt 0.400000 0.000000 0.000000
vt -0.000000 -0.775000 0.000000
vt 0.400000 -0.775000 0.000000
vt 0.600000 0.200000 0.000000
vt 0.000000 0.200000 0.000000
vt 0.600000 -0.775000 0.000000
vt -0.000000 -0.775000 0.000000
vt -0.256500 -0.300000 0.000000
vt 0.256500 -0.300000 0.000000
vt -0.256500 -0.063971 0.000000
vt 0.256500 -0.063971 0.000000
vt -0.256500 0.063971 0.000000
vt 0.256500 0.063971 0.000000
vt -0.256500 0.300000 0.000000
vt 0.256500 0.300000 0.000000
vt 0.297425 -0.063971 0.000000
vt 0.297425 0.063971 0.000000
vt -0.303826 0.063971 0.000000
vt -0.303826 -0.063971 0.000000
vt -0.656500 -0.300000 0.000000
vt 0.656500 -0.300000 0.000000
vt -0.656500 0.300000 0.000000
vt 0.656500 0.300000 0.000000
vn 0.000000 -0.100000 0.000000
vn 0.000000 -0.100000 0.000000
vn 0.000000 -0.100000 0.000000
vn 0.000000 -0.100000 0.000000
vn 0.100000 0.000000 0.000000
vn 0.100000 0.000000 0.000000
vn 0.100000 0.000000 0.000000
vn 0.100000 0.000000 0.000000
vn 0.000000 0.100000 0.000000
vn 0.000000 0.100000 0.000000
vn 0.000000 0.100000 0.000000
vn 0.000000 0.100000 0.000000
vn 0.100000 0.000000 0.000000
vn 0.100000 0.000000 0.000000
vn 0.100000 0.000000 0.000000
vn 0.100000 0.000000 0.000000
vn 0.100000 0.000000 0.000000
vn 0.100000 0.000000 0.000000
vn 0.100000 0.000000 0.000000
vn 0.100000 0.000000 0.000000
vn 0.000000 0.000000 0.100000
vn 0.000000 0.000000 0.100000
vn 0.000000 0.000000 0.100000
vn 0.000000 0.000000 0.100000
vn 0.000000 0.000000 0.100000
vn 0.000000 0.000000 0.100000
vn 0.000000 0.000000 0.100000
vn 0.000000 0.000000 0.100000
vn -0.100000 0.000000 0.000000
vn -0.100000 0.000000 0.000000
vn -0.100000 0.000000 0.000000
vn -0.100000 0.000000 0.000000
vn 0.000000 -0.100000 0.000000
vn 0.000000 -0.100000 0.000000
vn 0.000000 -0.100000 0.000000
vn 0.000000 -0.100000 0.000000
vn -0.100000 0.000000 0.000000
vn -0.100000 0.000000 0.000000
vn -0.100000 0.000000 0.000000
vn -0.100000 0.000000 0.000000
vn -0.100000 0.000000 0.000000
vn -0.100000 0.000000 0.000000
vn -0.100000 0.000000 0.000000
vn -0.100000 0.000000 0.000000
vn 0.000000 0.100000 0.000000
vn 0.000000 0.100000 0.000000
vn 0.000000 0.100000 0.000000
vn 0.000000 0.100000 0.000000
vn 0.000000 0.000000 0.100000
vn 0.000000 0.000000 0.100000
vn 0.000000 0.000000 0.100000
vn 0.000000 0.000000 0.100000
vn 0.000000 0.000000 0.100000
vn 0.000000 0.000000 0.100000
vn 0.000000 0.000000 0.100000
vn 0.000000 0.000000 0.100000
vn 0.000000 0.100000 0.000000
vn 0.000000 0.100000 0.000000
vn 0.000000 0.100000 0.000000
vn 0.000000 0.100000 0.000000
vn 0.000000 0.100000 0.000000
vn 0.000000 0.100000 0.000000
vn 0.000000 0.100000 0.000000
vn 0.000000 0.100000 0.000000
vn -0.100000 0.000000 0.000000
vn -0.100000 0.000000 0.000000
vn -0.100000 0.000000 0.000000
vn -0.100000 0.000000 0.000000
vn 0.000000 -0.100000 0.000000
vn 0.000000 -0.100000 0.000000
vn 0.000000 -0.100000 0.000000
vn 0.000000 -0.100000 0.000000
vn 0.000000 -0.100000 0.000000
vn 0.000000 -0.100000 0.000000
vn 0.000000 -0.100000 0.000000
vn 0.000000 -0.100000 0.000000
vn 0.100000 -0.000000 0.000000
vn 0.100000 -0.000000 0.000000
vn 0.100000 -0.000000 0.000000
vn 0.100000 -0.000000 0.000000
vn 0.000000 0.000000 0.100000
vn 0.000000 0.000000 0.100000
vn 0.000000 0.000000 0.100000
vn 0.000000 0.000000 0.100000
vn 0.000000 0.000000 0.100000
vn 0.000000 0.000000 0.100000
vn 0.000000 0.000000 0.100000
vn 0.000000 0.000000 0.100000
vn 0.000000 0.000000 0.100000
vn 0.000000 0.000000 0.100000
vn 0.000000 0.000000 0.100000
vn 0.000000 0.000000 0.100000
vn 0.000000 0.000000 -0.100000
vn 0.000000 0.000000 -0.100000
vn 0.000000 0.000000 -0.100000
vn 0.000000 0.000000 -0.100000
usemtl Steel_-_Satin
f 1/1/1 2/2/2 4/3/3
f 4/3/3 2/2/2 3/4/4
f 5/5/5 1/6/6 6/7/7
f 6/7/7 1/6/6 4/8/8
f 7/9/9 5/10/10 8/11/11
f 8/11/11 5/10/10 6/12/12
f 9/13/13 7/14/14 10/15/15
f 10/15/15 7/14/14 8/16/16
f 2/17/17 11/18/18 3/19/19
f 3/19/19 11/18/18 12/20/20
f 3/21/21 12/22/22 4/23/23
f 4/23/23 12/22/22 13/24/24
f 4/23/23 13/24/24 14/25/25
f 4/23/23 14/25/25 6/26/26
f 6/26/26 14/25/25 10/27/27
f 6/26/26 10/27/27 8/28/28
f 15/29/29 16/30/30 18/31/31
f 18/31/31 16/30/30 17/32/32
f 19/33/33 15/34/34 20/35/35
f 20/35/35 15/34/34 18/36/36
f 21/37/37 19/38/38 22/39/39
f 22/39/39 19/38/38 20/40/40
f 23/41/41 24/42/42 26/43/43
f 26/43/43 24/42/42 25/44/44
f 16/45/45 23/46/46 17/47/47
f 17/47/47 23/46/46 26/48/48
f 26/49/49 25/50/50 17/51/51
f 17/51/51 25/50/50 27/52/52
f 17/51/51 27/52/52 18/53/53
f 18/53/53 27/52/52 28/54/54
f 18/53/53 28/54/54 22/55/55
f 22/55/55 20/56/56 18/53/53
f 22/57/57 28/58/58 21/59/59
f 21/59/59 28/58/58 29/60/60
f 21/59/59 29/60/60 30/61/61
f 21/59/59 30/61/61 11/62/62
f 11/62/62 30/61/61 13/63/63
f 11/62/62 13/63/63 12/64/64
f 30/65/65 31/66/66 13/67/67
f 13/67/67 31/66/66 14/68/68
f 10/69/69 14/70/70 9/71/71
f 9/71/71 14/70/70 31/72/72
f 9/71/71 31/72/72 32/73/73
f 9/71/71 32/73/73 24/74/74
f 24/74/74 32/73/73 27/75/75
f 24/74/74 27/75/75 25/76/76
f 32/77/77 29/78/78 27/79/79
f 27/79/79 29/78/78 28/80/80
f 9/81/81 24/82/82 7/83/83
f 7/83/83 24/82/82 23/84/84
f 7/83/83 23/84/84 2/85/85
f 2/85/85 23/84/84 19/86/86
f 2/85/85 19/86/86 11/87/87
f 11/87/87 19/86/86 21/88/88
f 23/84/84 16/89/89 19/86/86
f 19/86/86 16/89/89 15/90/90
f 2/85/85 1/91/91 7/83/83
f 7/83/83 1/91/91 5/92/92
f 32/93/93 31/94/94 29/95/95
f 29/95/95 31/94/94 30/96/96
# 32 vertices
# 96 texture params
# 96 normals
# 60 facets

# 1 groups
