# WaveFront *.obj file (generated by Autodesk ATF)

mtllib PowerMaleTerminal220v.mtl

g PowerMaleTerminal220v

v 56.250000 235.915130 36.057445
v 56.250000 230.000000 36.057445
v 54.250000 230.000000 34.057445
v 54.250000 235.915130 34.057445
v 51.350564 258.029930 38.956881
v 52.541776 257.030384 39.795599
v 56.250000 236.000000 36.087375
v 54.220070 236.000000 34.057445
v 50.511846 257.030384 37.765669
v 56.250000 236.000000 54.527515
v 56.250000 235.915130 54.557445
v 56.250000 230.000000 54.557445
v 52.541776 257.030384 50.819291
v 50.194479 259.000000 40.112966
v 50.194479 259.000000 50.501924
v 51.350564 258.029930 51.658009
v 31.488154 257.030384 37.765669
v 30.649436 258.029930 38.956881
v 31.805521 259.000000 40.112966
v 50.511846 257.030384 52.849221
v 54.220070 236.000000 56.557445
v 54.250000 235.915130 56.557445
v 54.250000 230.000000 56.557445
v 27.750000 230.000000 56.557445
v 25.750000 230.000000 54.557445
v 25.750000 230.000000 36.057445
v 27.750000 230.000000 34.057445
v 47.650000 230.000000 53.557445
v 53.250000 230.000000 47.957445
v 53.250000 230.000000 37.057445
v 28.750000 230.000000 37.057445
v 28.750000 230.000000 47.957445
v 34.350000 230.000000 53.557445
v 27.779930 236.000000 56.557445
v 27.750000 235.915130 56.557445
v 27.750000 235.915130 34.057445
v 25.750000 235.915130 36.057445
v 27.779930 236.000000 34.057445
v 25.750000 236.000000 36.087375
v 29.458224 257.030384 39.795599
v 29.458224 257.030384 50.819291
v 30.649436 258.029930 51.658009
v 31.805521 259.000000 50.501924
v 25.750000 236.000000 54.527515
v 25.750000 235.915130 54.557445
v 31.488154 257.030384 52.849221
v 28.750000 213.000000 47.957445
v 28.750000 213.000000 37.057445
v 34.350000 213.000000 53.557445
v 47.650000 213.000000 53.557445
v 50.250000 230.000000 44.057445
v 50.250000 228.000000 46.057445
v 47.250000 228.000000 46.057445
v 47.250000 230.000000 44.057445
v 47.250000 213.000000 46.057445
v 47.250000 213.000000 40.057445
v 47.250000 228.000000 40.057445
v 47.250000 230.000000 42.057445
v 50.250000 230.000000 42.057445
v 50.250000 228.000000 40.057445
v 31.750000 230.000000 42.057445
v 31.750000 228.000000 40.057445
v 34.750000 228.000000 40.057445
v 34.750000 230.000000 42.057445
v 34.750000 213.000000 40.057445
v 34.750000 213.000000 46.057445
v 34.750000 228.000000 46.057445
v 34.750000 230.000000 44.057445
v 31.750000 230.000000 44.057445
v 31.750000 228.000000 46.057445
v 39.500000 230.000000 47.307445
v 39.500000 228.000000 45.307445
v 42.500000 228.000000 45.307445
v 42.500000 230.000000 47.307445
v 42.500000 213.000000 45.307445
v 42.500000 213.000000 50.557445
v 42.500000 228.000000 50.557445
v 42.500000 230.000000 48.557445
v 39.500000 230.000000 48.557445
v 39.500000 228.000000 50.557445
v 50.250000 213.000000 46.057445
v 50.250000 213.000000 40.057445
v 31.750000 213.000000 46.057445
v 31.750000 213.000000 40.057445
v 39.500000 213.000000 50.557445
v 39.500000 213.000000 45.307445
v 53.250000 213.000000 47.957445
v 53.250000 213.000000 37.057445
vt -0.141421 -0.600000 0.000000
vt 0.141421 -0.600000 0.000000
vt -0.141421 -0.008487 0.000000
vt 0.141421 -0.008487 0.000000
vt -0.143538 2.009694 0.000000
vt -0.141421 -0.166491 0.000000
vt -0.000000 2.112710 0.000000
vt 0.141421 -0.166491 0.000000
vt 0.143538 2.009694 0.000000
vt 0.143538 -0.157744 0.000000
vt -0.143538 -0.157744 0.000000
vt 2.050000 0.600000 0.000000
vt 0.200000 0.600000 0.000000
vt 2.050000 0.008487 0.000000
vt 0.200000 0.008487 0.000000
vt 2.047007 0.000000 0.000000
vt 0.202993 0.000000 0.000000
vt 1.676185 2.135481 0.000000
vt 0.573815 2.135481 0.000000
vt 2.047007 0.000000 0.000000
vt 0.202993 0.000000 0.000000
vt 0.011315 -0.153209 0.000000
vt 1.113685 -0.153209 0.000000
vt -0.072556 0.002293 0.000000
vt 1.197556 0.002293 0.000000
vt 0.043052 0.153209 0.000000
vt 1.081948 0.153209 0.000000
vt -0.188685 -0.153209 0.000000
vt 1.713685 -0.153209 0.000000
vt -0.272556 0.002293 0.000000
vt 1.797556 0.002293 0.000000
vt -0.156948 0.153209 0.000000
vt 1.681948 0.153209 0.000000
vt -0.143538 1.941259 0.000000
vt -0.141421 -0.234926 0.000000
vt -0.000000 2.044274 0.000000
vt 0.141421 -0.234926 0.000000
vt 0.143538 1.941259 0.000000
vt 0.143538 -0.226179 0.000000
vt -0.143538 -0.226179 0.000000
vt -0.141421 -0.600000 0.000000
vt 0.141421 -0.600000 0.000000
vt -0.141421 -0.008487 0.000000
vt 0.141421 -0.008487 0.000000
vt 1.525000 -0.925000 0.000000
vt 1.225000 -0.825000 0.000000
vt 1.325000 -1.125000 0.000000
vt -1.225000 -0.825000 0.000000
vt -1.325000 -1.125000 0.000000
vt -1.525000 -0.925000 0.000000
vt -1.225000 0.265000 0.000000
vt -1.525000 0.925000 0.000000
vt -0.665000 0.825000 0.000000
vt -1.325000 1.125000 0.000000
vt 0.665000 0.825000 0.000000
vt 1.325000 1.125000 0.000000
vt 1.525000 0.925000 0.000000
vt 1.225000 0.265000 0.000000
vt 2.850000 0.600000 0.000000
vt 0.200000 0.600000 0.000000
vt 2.850000 0.008487 0.000000
vt 0.200000 0.008487 0.000000
vt 2.847007 0.000000 0.000000
vt 0.202993 0.000000 0.000000
vt -0.141421 -0.600000 0.000000
vt 0.141421 -0.600000 0.000000
vt -0.141421 -0.008487 0.000000
vt 0.141421 -0.008487 0.000000
vt -0.143538 1.941259 0.000000
vt -0.141421 -0.234926 0.000000
vt -0.000000 2.044274 0.000000
vt 0.141421 -0.234926 0.000000
vt 0.143538 1.941259 0.000000
vt 0.143538 -0.226179 0.000000
vt -0.143538 -0.226179 0.000000
vt 0.011315 -0.153209 0.000000
vt 1.113685 -0.153209 0.000000
vt -0.072556 0.002293 0.000000
vt 1.197556 0.002293 0.000000
vt 0.043052 0.153209 0.000000
vt 1.081948 0.153209 0.000000
vt 0.202993 0.000000 0.000000
vt 2.047007 0.000000 0.000000
vt 0.573815 2.135481 0.000000
vt 1.676185 2.135481 0.000000
vt 0.202993 0.000000 0.000000
vt 2.047007 0.000000 0.000000
vt 0.200000 0.008487 0.000000
vt 2.050000 0.008487 0.000000
vt 0.200000 0.600000 0.000000
vt 2.050000 0.600000 0.000000
vt -0.141421 -0.600000 0.000000
vt 0.141421 -0.600000 0.000000
vt -0.141421 -0.008487 0.000000
vt 0.141421 -0.008487 0.000000
vt -0.143538 2.009694 0.000000
vt -0.141421 -0.166491 0.000000
vt -0.000000 2.112710 0.000000
vt 0.141421 -0.166491 0.000000
vt 0.143538 2.009694 0.000000
vt 0.143538 -0.157744 0.000000
vt -0.143538 -0.157744 0.000000
vt -0.188685 -0.153209 0.000000
vt 1.713685 -0.153209 0.000000
vt -0.272556 0.002293 0.000000
vt 1.797556 0.002293 0.000000
vt -0.156948 0.153209 0.000000
vt 1.681948 0.153209 0.000000
vt 0.202993 0.000000 0.000000
vt 2.847007 0.000000 0.000000
vt 0.573815 2.135481 0.000000
vt 2.476185 2.135481 0.000000
vt -0.519448 -0.919448 0.000000
vt 0.519448 -0.919448 0.000000
vt -0.519448 0.919448 0.000000
vt 0.519448 0.919448 0.000000
vt -0.000000 0.000000 0.000000
vt 1.090000 0.000000 0.000000
vt 0.000000 1.700000 0.000000
vt 1.090000 1.700000 0.000000
vt 0.000000 0.000000 0.000000
vt 0.791960 0.000000 0.000000
vt -0.000000 1.700000 0.000000
vt 0.791960 1.700000 0.000000
vt -0.000000 0.000000 0.000000
vt 1.330000 0.000000 0.000000
vt 0.000000 1.700000 0.000000
vt 1.330000 1.700000 0.000000
vt -0.612500 -0.141421 0.000000
vt -0.312500 -0.141421 0.000000
vt -0.612500 0.141421 0.000000
vt -0.312500 0.141421 0.000000
vt 0.600000 0.200000 0.000000
vt 0.600000 1.700000 0.000000
vt 0.400000 0.000000 0.000000
vt 0.000000 1.700000 0.000000
vt 0.200000 0.000000 0.000000
vt 0.000000 0.200000 0.000000
vt 0.925000 -0.125000 0.000000
vt 0.625000 -0.125000 0.000000
vt 0.925000 -0.325000 0.000000
vt 0.625000 -0.325000 0.000000
vt 0.162500 -0.141421 0.000000
vt 0.462500 -0.141421 0.000000
vt 0.162500 0.141421 0.000000
vt 0.462500 0.141421 0.000000
vt -0.612500 -0.141421 0.000000
vt -0.312500 -0.141421 0.000000
vt -0.612500 0.141421 0.000000
vt -0.312500 0.141421 0.000000
vt 0.600000 0.200000 0.000000
vt 0.600000 1.700000 0.000000
vt 0.400000 0.000000 0.000000
vt 0.000000 1.700000 0.000000
vt 0.200000 0.000000 0.000000
vt 0.000000 0.200000 0.000000
vt -0.925000 -0.325000 0.000000
vt -0.625000 -0.325000 0.000000
vt -0.925000 -0.125000 0.000000
vt -0.625000 -0.125000 0.000000
vt 0.162500 -0.141421 0.000000
vt 0.462500 -0.141421 0.000000
vt 0.162500 0.141421 0.000000
vt 0.462500 0.141421 0.000000
vt -0.225000 -0.141421 0.000000
vt 0.075000 -0.141421 0.000000
vt -0.225000 0.141421 0.000000
vt 0.075000 0.141421 0.000000
vt 0.525000 0.200000 0.000000
vt 0.525000 1.700000 0.000000
vt 0.325000 0.000000 0.000000
vt 0.000000 1.700000 0.000000
vt 0.200000 0.000000 0.000000
vt 0.000000 0.200000 0.000000
vt -0.150000 0.200000 0.000000
vt 0.150000 0.200000 0.000000
vt -0.150000 0.325000 0.000000
vt 0.150000 0.325000 0.000000
vt -0.225000 -0.141421 0.000000
vt 0.075000 -0.141421 0.000000
vt -0.225000 0.141421 0.000000
vt 0.075000 0.141421 0.000000
vt 0.000000 0.200000 0.000000
vt 0.300000 0.200000 0.000000
vt 0.000000 1.700000 0.000000
vt 0.300000 1.700000 0.000000
vt 0.000000 0.200000 0.000000
vt 0.300000 0.200000 0.000000
vt 0.000000 1.700000 0.000000
vt 0.300000 1.700000 0.000000
vt 0.000000 0.200000 0.000000
vt 0.200000 0.000000 0.000000
vt 0.000000 1.700000 0.000000
vt 0.400000 0.000000 0.000000
vt 0.600000 1.700000 0.000000
vt 0.600000 0.200000 0.000000
vt 0.000000 0.200000 0.000000
vt 0.200000 0.000000 0.000000
vt 0.000000 1.700000 0.000000
vt 0.400000 0.000000 0.000000
vt 0.600000 1.700000 0.000000
vt 0.600000 0.200000 0.000000
vt 0.000000 0.200000 0.000000
vt 0.300000 0.200000 0.000000
vt 0.000000 1.700000 0.000000
vt 0.300000 1.700000 0.000000
vt 0.000000 0.200000 0.000000
vt 0.300000 0.200000 0.000000
vt 0.000000 1.700000 0.000000
vt 0.300000 1.700000 0.000000
vt 0.000000 0.200000 0.000000
vt 0.300000 0.200000 0.000000
vt 0.000000 1.700000 0.000000
vt 0.300000 1.700000 0.000000
vt 0.000000 0.200000 0.000000
vt 0.200000 0.000000 0.000000
vt 0.000000 1.700000 0.000000
vt 0.325000 0.000000 0.000000
vt 0.525000 1.700000 0.000000
vt 0.525000 0.200000 0.000000
vt 0.000000 0.200000 0.000000
vt 0.300000 0.200000 0.000000
vt 0.000000 1.700000 0.000000
vt 0.300000 1.700000 0.000000
vt 0.000000 0.000000 0.000000
vt 0.791960 0.000000 0.000000
vt 0.000000 1.700000 0.000000
vt 0.791960 1.700000 0.000000
vt 0.000000 0.000000 0.000000
vt 1.090000 0.000000 0.000000
vt 0.000000 1.700000 0.000000
vt 1.090000 1.700000 0.000000
vt 0.000000 0.000000 0.000000
vt 2.450000 0.000000 0.000000
vt 0.000000 1.700000 0.000000
vt 2.450000 1.700000 0.000000
vt 0.000000 -0.150000 0.000000
vt 0.525000 -0.625000 0.000000
vt 0.000000 0.150000 0.000000
vt 0.525000 0.625000 0.000000
vt -0.075000 0.625000 0.000000
vt -0.075000 -0.625000 0.000000
vt -0.525000 -0.150000 0.000000
vt -0.825000 -0.665000 0.000000
vt -0.525000 0.150000 0.000000
vt -0.825000 0.665000 0.000000
vt -0.075000 0.925000 0.000000
vt -0.075000 -0.925000 0.000000
vt -0.265000 -1.225000 0.000000
vt 0.525000 -0.925000 0.000000
vt 0.825000 -1.225000 0.000000
vt -0.265000 1.225000 0.000000
vt 0.525000 0.925000 0.000000
vt 0.825000 1.225000 0.000000
vt 2.850000 0.600000 0.000000
vt 0.200000 0.600000 0.000000
vt 2.850000 0.008487 0.000000
vt 0.200000 0.008487 0.000000
vt 2.847007 0.000000 0.000000
vt 0.202993 0.000000 0.000000
vt 2.476185 2.135481 0.000000
vt 0.573815 2.135481 0.000000
vt 2.847007 0.000000 0.000000
vt 0.202993 0.000000 0.000000
vn 0.070711 0.000000 -0.070711
vn 0.070711 0.000000 -0.070711
vn 0.070711 0.000000 -0.070711
vn 0.070711 0.000000 -0.070711
vn 0.068610 0.024195 -0.068610
vn 0.068610 0.024195 -0.068610
vn 0.068610 0.024195 -0.068610
vn 0.068610 0.024195 -0.068610
vn 0.068610 0.024195 -0.068610
vn 0.068610 0.024195 -0.068610
vn 0.068610 0.024195 -0.068610
vn 0.100000 0.000000 0.000000
vn 0.100000 0.000000 0.000000
vn 0.100000 0.000000 0.000000
vn 0.100000 0.000000 0.000000
vn 0.100000 0.000000 0.000000
vn 0.100000 0.000000 0.000000
vn 0.098481 0.017365 0.000000
vn 0.098481 0.017365 0.000000
vn 0.098481 0.017365 0.000000
vn 0.098481 0.017365 0.000000
vn 0.064279 0.076604 0.000000
vn 0.064279 0.076604 0.000000
vn 0.064279 0.076604 0.000000
vn 0.064279 0.076604 0.000000
vn 0.064279 0.076604 0.000000
vn 0.064279 0.076604 0.000000
vn 0.000000 0.076604 -0.064279
vn 0.000000 0.076604 -0.064279
vn 0.000000 0.076604 -0.064279
vn 0.000000 0.076604 -0.064279
vn 0.000000 0.076604 -0.064279
vn 0.000000 0.076604 -0.064279
vn 0.068610 0.024195 0.068610
vn 0.068610 0.024195 0.068610
vn 0.068610 0.024195 0.068610
vn 0.068610 0.024195 0.068610
vn 0.068610 0.024195 0.068610
vn 0.068610 0.024195 0.068610
vn 0.068610 0.024195 0.068610
vn 0.070711 0.000000 0.070711
vn 0.070711 0.000000 0.070711
vn 0.070711 0.000000 0.070711
vn 0.070711 0.000000 0.070711
vn 0.000000 -0.100000 0.000000
vn 0.000000 -0.100000 0.000000
vn 0.000000 -0.100000 0.000000
vn 0.000000 -0.100000 0.000000
vn 0.000000 -0.100000 0.000000
vn 0.000000 -0.100000 0.000000
vn 0.000000 -0.100000 0.000000
vn 0.000000 -0.100000 0.000000
vn 0.000000 -0.100000 0.000000
vn 0.000000 -0.100000 0.000000
vn 0.000000 -0.100000 0.000000
vn 0.000000 -0.100000 0.000000
vn 0.000000 -0.100000 0.000000
vn 0.000000 -0.100000 0.000000
vn 0.000000 0.000000 0.100000
vn 0.000000 0.000000 0.100000
vn 0.000000 0.000000 0.100000
vn 0.000000 0.000000 0.100000
vn 0.000000 0.000000 0.100000
vn 0.000000 0.000000 0.100000
vn -0.070711 0.000000 -0.070711
vn -0.070711 0.000000 -0.070711
vn -0.070711 0.000000 -0.070711
vn -0.070711 0.000000 -0.070711
vn -0.068610 0.024195 -0.068610
vn -0.068610 0.024195 -0.068610
vn -0.068610 0.024195 -0.068610
vn -0.068610 0.024195 -0.068610
vn -0.068610 0.024195 -0.068610
vn -0.068610 0.024195 -0.068610
vn -0.068610 0.024195 -0.068610
vn -0.064279 0.076604 0.000000
vn -0.064279 0.076604 0.000000
vn -0.064279 0.076604 0.000000
vn -0.064279 0.076604 0.000000
vn -0.064279 0.076604 0.000000
vn -0.064279 0.076604 0.000000
vn -0.098481 0.017365 0.000000
vn -0.098481 0.017365 0.000000
vn -0.098481 0.017365 0.000000
vn -0.098481 0.017365 0.000000
vn -0.100000 0.000000 0.000000
vn -0.100000 0.000000 0.000000
vn -0.100000 0.000000 0.000000
vn -0.100000 0.000000 0.000000
vn -0.100000 0.000000 0.000000
vn -0.100000 0.000000 0.000000
vn -0.070711 0.000000 0.070711
vn -0.070711 0.000000 0.070711
vn -0.070711 0.000000 0.070711
vn -0.070711 0.000000 0.070711
vn -0.068610 0.024195 0.068610
vn -0.068610 0.024195 0.068610
vn -0.068610 0.024195 0.068610
vn -0.068610 0.024195 0.068610
vn -0.068610 0.024195 0.068610
vn -0.068610 0.024195 0.068610
vn -0.068610 0.024195 0.068610
vn 0.000000 0.076604 0.064279
vn 0.000000 0.076604 0.064279
vn 0.000000 0.076604 0.064279
vn 0.000000 0.076604 0.064279
vn 0.000000 0.076604 0.064279
vn 0.000000 0.076604 0.064279
vn 0.000000 0.017365 -0.098481
vn 0.000000 0.017365 -0.098481
vn 0.000000 0.017365 -0.098481
vn 0.000000 0.017365 -0.098481
vn 0.000000 0.100000 0.000000
vn 0.000000 0.100000 0.000000
vn 0.000000 0.100000 0.000000
vn 0.000000 0.100000 0.000000
vn -0.100000 0.000000 0.000000
vn -0.100000 0.000000 0.000000
vn -0.100000 0.000000 0.000000
vn -0.100000 0.000000 0.000000
vn -0.070711 0.000000 0.070711
vn -0.070711 0.000000 0.070711
vn -0.070711 0.000000 0.070711
vn -0.070711 0.000000 0.070711
vn 0.000000 0.000000 0.100000
vn 0.000000 0.000000 0.100000
vn 0.000000 0.000000 0.100000
vn 0.000000 0.000000 0.100000
vn 0.000000 -0.070711 -0.070711
vn 0.000000 -0.070711 -0.070711
vn 0.000000 -0.070711 -0.070711
vn 0.000000 -0.070711 -0.070711
vn 0.100000 0.000000 0.000000
vn 0.100000 0.000000 0.000000
vn 0.100000 0.000000 0.000000
vn 0.100000 0.000000 0.000000
vn 0.100000 0.000000 0.000000
vn 0.100000 0.000000 0.000000
vn 0.000000 -0.100000 0.000000
vn 0.000000 -0.100000 0.000000
vn 0.000000 -0.100000 0.000000
vn 0.000000 -0.100000 0.000000
vn 0.000000 -0.070711 0.070711
vn 0.000000 -0.070711 0.070711
vn 0.000000 -0.070711 0.070711
vn 0.000000 -0.070711 0.070711
vn 0.000000 -0.070711 0.070711
vn 0.000000 -0.070711 0.070711
vn 0.000000 -0.070711 0.070711
vn 0.000000 -0.070711 0.070711
vn -0.100000 0.000000 0.000000
vn -0.100000 0.000000 0.000000
vn -0.100000 0.000000 0.000000
vn -0.100000 0.000000 0.000000
vn -0.100000 0.000000 0.000000
vn -0.100000 0.000000 0.000000
vn 0.000000 -0.100000 0.000000
vn 0.000000 -0.100000 0.000000
vn 0.000000 -0.100000 0.000000
vn 0.000000 -0.100000 0.000000
vn 0.000000 -0.070711 -0.070711
vn 0.000000 -0.070711 -0.070711
vn 0.000000 -0.070711 -0.070711
vn 0.000000 -0.070711 -0.070711
vn 0.000000 -0.070711 0.070711
vn 0.000000 -0.070711 0.070711
vn 0.000000 -0.070711 0.070711
vn 0.000000 -0.070711 0.070711
vn -0.100000 0.000000 0.000000
vn -0.100000 0.000000 0.000000
vn -0.100000 0.000000 0.000000
vn -0.100000 0.000000 0.000000
vn -0.100000 0.000000 0.000000
vn -0.100000 0.000000 0.000000
vn 0.000000 -0.100000 0.000000
vn 0.000000 -0.100000 0.000000
vn 0.000000 -0.100000 0.000000
vn 0.000000 -0.100000 0.000000
vn 0.000000 -0.070711 -0.070711
vn 0.000000 -0.070711 -0.070711
vn 0.000000 -0.070711 -0.070711
vn 0.000000 -0.070711 -0.070711
vn 0.000000 0.000000 -0.100000
vn 0.000000 0.000000 -0.100000
vn 0.000000 0.000000 -0.100000
vn 0.000000 0.000000 -0.100000
vn 0.000000 0.000000 0.100000
vn 0.000000 0.000000 0.100000
vn 0.000000 0.000000 0.100000
vn 0.000000 0.000000 0.100000
vn -0.100000 0.000000 0.000000
vn -0.100000 0.000000 0.000000
vn -0.100000 0.000000 0.000000
vn -0.100000 0.000000 0.000000
vn -0.100000 0.000000 0.000000
vn -0.100000 0.000000 0.000000
vn 0.100000 0.000000 0.000000
vn 0.100000 0.000000 0.000000
vn 0.100000 0.000000 0.000000
vn 0.100000 0.000000 0.000000
vn 0.100000 0.000000 0.000000
vn 0.100000 0.000000 0.000000
vn 0.000000 0.000000 0.100000
vn 0.000000 0.000000 0.100000
vn 0.000000 0.000000 0.100000
vn 0.000000 0.000000 0.100000
vn 0.000000 0.000000 -0.100000
vn 0.000000 0.000000 -0.100000
vn 0.000000 0.000000 -0.100000
vn 0.000000 0.000000 -0.100000
vn 0.000000 0.000000 -0.100000
vn 0.000000 0.000000 -0.100000
vn 0.000000 0.000000 -0.100000
vn 0.000000 0.000000 -0.100000
vn 0.100000 0.000000 0.000000
vn 0.100000 0.000000 0.000000
vn 0.100000 0.000000 0.000000
vn 0.100000 0.000000 0.000000
vn 0.100000 0.000000 0.000000
vn 0.100000 0.000000 0.000000
vn 0.000000 0.000000 0.100000
vn 0.000000 0.000000 0.100000
vn 0.000000 0.000000 0.100000
vn 0.000000 0.000000 0.100000
vn 0.070711 0.000000 0.070711
vn 0.070711 0.000000 0.070711
vn 0.070711 0.000000 0.070711
vn 0.070711 0.000000 0.070711
vn 0.100000 0.000000 0.000000
vn 0.100000 0.000000 0.000000
vn 0.100000 0.000000 0.000000
vn 0.100000 0.000000 0.000000
vn 0.000000 0.000000 -0.100000
vn 0.000000 0.000000 -0.100000
vn 0.000000 0.000000 -0.100000
vn 0.000000 0.000000 -0.100000
vn 0.000000 -0.100000 0.000000
vn 0.000000 -0.100000 0.000000
vn 0.000000 -0.100000 0.000000
vn 0.000000 -0.100000 0.000000
vn 0.000000 -0.100000 0.000000
vn 0.000000 -0.100000 0.000000
vn 0.000000 -0.100000 0.000000
vn 0.000000 -0.100000 0.000000
vn 0.000000 -0.100000 0.000000
vn 0.000000 -0.100000 0.000000
vn 0.000000 -0.100000 0.000000
vn 0.000000 -0.100000 0.000000
vn 0.000000 -0.100000 0.000000
vn 0.000000 -0.100000 0.000000
vn 0.000000 -0.100000 0.000000
vn 0.000000 -0.100000 0.000000
vn 0.000000 -0.100000 0.000000
vn 0.000000 -0.100000 0.000000
vn 0.000000 0.000000 -0.100000
vn 0.000000 0.000000 -0.100000
vn 0.000000 0.000000 -0.100000
vn 0.000000 0.000000 -0.100000
vn 0.000000 0.000000 -0.100000
vn 0.000000 0.000000 -0.100000
vn 0.000000 0.017365 0.098481
vn 0.000000 0.017365 0.098481
vn 0.000000 0.017365 0.098481
vn 0.000000 0.017365 0.098481
usemtl Steel_-_Satin
f 2/1/1 3/2/2 1/3/3
f 1/3/3 3/2/2 4/4/4
f 6/5/5 1/6/6 5/7/7
f 5/7/7 1/6/6 4/8/8
f 5/7/7 4/8/8 9/9/9
f 9/9/9 4/8/8 8/10/10
f 6/5/5 7/11/11 1/6/6
f 12/12/12 2/13/13 11/14/14
f 11/14/14 2/13/13 1/15/15
f 11/14/14 1/15/15 10/16/16
f 10/16/16 1/15/15 7/17/17
f 6/18/18 13/19/19 7/20/20
f 7/20/20 13/19/19 10/21/21
f 13/22/22 6/23/23 16/24/24
f 16/24/24 6/23/23 5/25/25
f 16/24/24 5/25/25 15/26/26
f 15/26/26 5/25/25 14/27/27
f 9/28/28 17/29/29 5/30/30
f 5/30/30 17/29/29 18/31/31
f 5/30/30 18/31/31 14/32/32
f 14/32/32 18/31/31 19/33/33
f 20/34/34 22/35/35 16/36/36
f 16/36/36 22/35/35 11/37/37
f 16/36/36 11/37/37 13/38/38
f 13/38/38 11/37/37 10/39/39
f 20/34/34 21/40/40 22/35/35
f 23/41/41 12/42/42 22/43/43
f 22/43/43 12/42/42 11/44/44
f 2/45/45 30/46/46 3/47/47
f 3/47/47 30/46/46 31/48/48
f 3/47/47 31/48/48 27/49/49
f 27/49/49 31/48/48 26/50/50
f 26/50/50 31/48/48 32/51/51
f 26/50/50 32/51/51 25/52/52
f 25/52/52 32/51/51 33/53/53
f 25/52/52 33/53/53 24/54/54
f 24/54/54 33/53/53 28/55/55
f 24/54/54 28/55/55 23/56/56
f 23/56/56 28/55/55 12/57/57
f 12/57/57 28/55/55 29/58/58
f 12/57/57 29/58/58 2/45/45
f 2/45/45 29/58/58 30/46/46
f 24/59/59 23/60/60 35/61/61
f 35/61/61 23/60/60 22/62/62
f 35/61/61 22/62/62 34/63/63
f 34/63/63 22/62/62 21/64/64
f 27/65/65 26/66/66 36/67/67
f 36/67/67 26/66/66 37/68/68
f 17/69/69 36/70/70 18/71/71
f 18/71/71 36/70/70 37/72/72
f 18/71/71 37/72/72 40/73/73
f 40/73/73 37/72/72 39/74/74
f 17/69/69 38/75/75 36/70/70
f 40/76/76 41/77/77 18/78/78
f 18/78/78 41/77/77 42/79/79
f 18/78/78 42/79/79 19/80/80
f 19/80/80 42/79/79 43/81/81
f 39/82/82 44/83/83 40/84/84
f 40/84/84 44/83/83 41/85/85
f 44/86/86 39/87/87 45/88/88
f 45/88/88 39/87/87 37/89/89
f 45/88/88 37/89/89 25/90/90
f 25/90/90 37/89/89 26/91/91
f 25/92/92 24/93/93 45/94/94
f 45/94/94 24/93/93 35/95/95
f 41/96/96 45/97/97 42/98/98
f 42/98/98 45/97/97 35/99/99
f 42/98/98 35/99/99 46/100/100
f 46/100/100 35/99/99 34/101/101
f 41/96/96 44/102/102 45/97/97
f 46/103/103 20/104/104 42/105/105
f 42/105/105 20/104/104 16/106/106
f 42/105/105 16/106/106 43/107/107
f 43/107/107 16/106/106 15/108/108
f 8/109/109 38/110/110 9/111/111
f 9/111/111 38/110/110 17/112/112
f 19/113/113 43/114/114 14/115/115
f 14/115/115 43/114/114 15/116/116
f 32/117/117 31/118/118 47/119/119
f 47/119/119 31/118/118 48/120/120
f 33/121/121 32/122/122 49/123/123
f 49/123/123 32/122/122 47/124/124
f 28/125/125 33/126/126 50/127/127
f 50/127/127 33/126/126 49/128/128
f 52/129/129 53/130/130 51/131/131
f 51/131/131 53/130/130 54/132/132
f 53/133/133 55/134/134 54/135/135
f 54/135/135 55/134/134 56/136/136
f 54/135/135 56/136/136 58/137/137
f 58/137/137 56/136/136 57/138/138
f 51/139/139 54/140/140 59/141/141
f 59/141/141 54/140/140 58/142/142
f 57/143/143 60/144/144 58/145/145
f 58/145/145 60/144/144 59/146/146
f 62/147/147 63/148/148 61/149/149
f 61/149/149 63/148/148 64/150/150
f 63/151/151 65/152/152 64/153/153
f 64/153/153 65/152/152 66/154/154
f 64/153/153 66/154/154 68/155/155
f 68/155/155 66/154/154 67/156/156
f 61/157/157 64/158/158 69/159/159
f 69/159/159 64/158/158 68/160/160
f 67/161/161 70/162/162 68/163/163
f 68/163/163 70/162/162 69/164/164
f 72/165/165 73/166/166 71/167/167
f 71/167/167 73/166/166 74/168/168
f 73/169/169 75/170/170 74/171/171
f 74/171/171 75/170/170 76/172/172
f 74/171/171 76/172/172 78/173/173
f 78/173/173 76/172/172 77/174/174
f 71/175/175 74/176/176 79/177/177
f 79/177/177 74/176/176 78/178/178
f 77/179/179 80/180/180 78/181/181
f 78/181/181 80/180/180 79/182/182
f 53/183/183 52/184/184 55/185/185
f 55/185/185 52/184/184 81/186/186
f 60/187/187 57/188/188 82/189/189
f 82/189/189 57/188/188 56/190/190
f 52/191/191 51/192/192 81/193/193
f 81/193/193 51/192/192 59/194/194
f 81/193/193 59/194/194 82/195/195
f 82/195/195 59/194/194 60/196/196
f 62/197/197 61/198/198 84/199/199
f 84/199/199 61/198/198 69/200/200
f 84/199/199 69/200/200 83/201/201
f 83/201/201 69/200/200 70/202/202
f 63/203/203 62/204/204 65/205/205
f 65/205/205 62/204/204 84/206/206
f 70/207/207 67/208/208 83/209/209
f 83/209/209 67/208/208 66/210/210
f 80/211/211 77/212/212 85/213/213
f 85/213/213 77/212/212 76/214/214
f 72/215/215 71/216/216 86/217/217
f 86/217/217 71/216/216 79/218/218
f 86/217/217 79/218/218 85/219/219
f 85/219/219 79/218/218 80/220/220
f 73/221/221 72/222/222 75/223/223
f 75/223/223 72/222/222 86/224/224
f 29/225/225 28/226/226 87/227/227
f 87/227/227 28/226/226 50/228/228
f 30/229/229 29/230/230 88/231/231
f 88/231/231 29/230/230 87/232/232
f 31/233/233 30/234/234 48/235/235
f 48/235/235 30/234/234 88/236/236
f 86/237/237 65/238/238 75/239/239
f 75/239/239 65/238/238 56/240/240
f 75/239/239 56/240/240 55/241/241
f 65/238/238 86/237/237 66/242/242
f 66/242/242 86/237/237 85/243/243
f 66/242/242 85/243/243 49/244/244
f 49/244/244 85/243/243 76/245/245
f 49/244/244 76/245/245 50/246/246
f 50/246/246 76/245/245 55/241/241
f 50/246/246 55/241/241 81/247/247
f 76/245/245 75/239/239 55/241/241
f 66/242/242 49/244/244 83/248/248
f 83/248/248 49/244/244 47/249/249
f 83/248/248 47/249/249 84/250/250
f 84/250/250 47/249/249 48/251/251
f 84/250/250 48/251/251 65/238/238
f 65/238/238 48/251/251 56/240/240
f 50/246/246 81/247/247 87/252/252
f 87/252/252 81/247/247 82/253/253
f 87/252/252 82/253/253 88/254/254
f 88/254/254 82/253/253 56/240/240
f 88/254/254 56/240/240 48/251/251
f 3/255/255 27/256/256 4/257/257
f 4/257/257 27/256/256 36/258/258
f 4/257/257 36/258/258 8/259/259
f 8/259/259 36/258/258 38/260/260
f 20/261/261 46/262/262 21/263/263
f 21/263/263 46/262/262 34/264/264
# 88 vertices
# 264 texture params
# 264 normals
# 172 facets

# 1 groups
