# WaveFront *.obj file (generated by Autodesk ATF)

mtllib PowerFemaleTerminal220v.mtl

g PowerFemaleTerminal220v

v 54.250000 186.000000 56.557445
v 56.250000 186.000000 54.557445
v 56.250000 204.000000 54.557445
v 54.250000 204.000000 56.557445
v 56.250000 186.000000 34.057445
v 56.250000 199.200000 34.057445
v 56.250000 199.200000 22.057445
v 56.250000 204.000000 22.057445
v 27.750000 186.000000 56.557445
v 25.750000 186.000000 54.557445
v 25.750000 186.000000 34.057445
v 27.750000 204.000000 56.557445
v 25.750000 204.000000 54.557445
v 25.750000 204.000000 22.057445
v 25.750000 199.200000 22.057445
v 25.750000 199.200000 34.057445
v 27.750000 199.200000 20.057445
v 27.750000 204.000000 20.057445
v 54.250000 199.200000 20.057445
v 54.250000 204.000000 20.057445
v 28.750000 204.000000 47.957445
v 28.750000 187.000000 47.957445
v 28.750000 187.000000 37.057445
v 28.750000 204.000000 37.057445
v 34.350000 204.000000 53.557445
v 34.350000 187.000000 53.557445
v 47.650000 204.000000 53.557445
v 47.650000 187.000000 53.557445
v 50.250000 202.000000 46.057445
v 50.250000 204.000000 44.057445
v 47.250000 204.000000 44.057445
v 47.250000 202.000000 46.057445
v 47.250000 204.000000 42.057445
v 47.250000 202.000000 40.057445
v 47.250000 187.000000 40.057445
v 47.250000 187.000000 46.057445
v 50.250000 204.000000 42.057445
v 50.250000 202.000000 40.057445
v 31.750000 202.000000 40.057445
v 31.750000 204.000000 42.057445
v 34.750000 204.000000 42.057445
v 34.750000 202.000000 40.057445
v 34.750000 204.000000 44.057445
v 34.750000 202.000000 46.057445
v 34.750000 187.000000 46.057445
v 34.750000 187.000000 40.057445
v 31.750000 204.000000 44.057445
v 31.750000 202.000000 46.057445
v 39.500000 202.000000 45.307445
v 39.500000 204.000000 47.307445
v 42.500000 204.000000 47.307445
v 42.500000 202.000000 45.307445
v 42.500000 204.000000 48.557445
v 42.500000 202.000000 50.557445
v 42.500000 187.000000 50.557445
v 42.500000 187.000000 45.307445
v 39.500000 204.000000 48.557445
v 39.500000 202.000000 50.557445
v 50.250000 187.000000 46.057445
v 50.250000 187.000000 40.057445
v 31.750000 187.000000 40.057445
v 31.750000 187.000000 46.057445
v 39.500000 187.000000 50.557445
v 39.500000 187.000000 45.307445
v 53.250000 204.000000 47.957445
v 53.250000 187.000000 47.957445
v 53.250000 204.000000 37.057445
v 53.250000 187.000000 37.057445
vt -0.141421 -1.800000 0.000000
vt 0.141421 -1.800000 0.000000
vt -0.141421 0.000000 0.000000
vt 0.141421 0.000000 0.000000
vt -1.200000 0.000000 0.000000
vt 2.050000 0.000000 0.000000
vt 0.000000 0.480000 0.000000
vt 2.050000 1.800000 0.000000
vt 0.000000 1.800000 0.000000
vt -1.200000 0.480000 0.000000
vt -1.125000 1.325000 0.000000
vt -1.125000 -1.325000 0.000000
vt -0.925000 1.525000 0.000000
vt -0.925000 -1.525000 0.000000
vt 1.125000 -1.525000 0.000000
vt 1.125000 1.525000 0.000000
vt -0.141421 -1.800000 0.000000
vt 0.141421 -1.800000 0.000000
vt -0.141421 0.000000 0.000000
vt 0.141421 0.000000 0.000000
vt 2.250000 1.800000 0.000000
vt 0.200000 1.800000 0.000000
vt 2.250000 0.480000 0.000000
vt 0.200000 0.000000 0.000000
vt 3.450000 0.000000 0.000000
vt 3.450000 0.480000 0.000000
vt -0.141421 -0.480000 0.000000
vt 0.141421 -0.480000 0.000000
vt -0.141421 0.000000 0.000000
vt 0.141421 0.000000 0.000000
vt 0.425000 -1.525000 0.000000
vt 1.625000 -1.525000 0.000000
vt 1.625000 1.525000 0.000000
vt 1.825000 -1.325000 0.000000
vt 1.825000 1.325000 0.000000
vt 0.425000 1.525000 0.000000
vt 0.200000 0.000000 0.000000
vt 2.850000 0.000000 0.000000
vt 0.200000 0.480000 0.000000
vt 2.850000 0.480000 0.000000
vt -0.141421 -0.480000 0.000000
vt 0.141421 -0.480000 0.000000
vt -0.141421 0.000000 0.000000
vt 0.141421 0.000000 0.000000
vt -0.000000 1.700000 0.000000
vt -1.090000 1.700000 0.000000
vt 0.000000 0.000000 0.000000
vt -1.090000 0.000000 0.000000
vt 0.000000 1.700000 0.000000
vt -0.791960 1.700000 0.000000
vt -0.000000 0.000000 0.000000
vt -0.791960 0.000000 0.000000
vt -0.000000 1.700000 0.000000
vt -1.330000 1.700000 0.000000
vt 0.000000 0.000000 0.000000
vt -1.330000 0.000000 0.000000
vt 0.200000 0.000000 0.000000
vt 2.850000 0.000000 0.000000
vt 0.200000 1.800000 0.000000
vt 2.850000 1.800000 0.000000
vt 0.612500 0.141421 0.000000
vt 0.312500 0.141421 0.000000
vt 0.612500 -0.141421 0.000000
vt 0.312500 -0.141421 0.000000
vt -0.600000 0.200000 0.000000
vt -0.400000 0.000000 0.000000
vt -0.600000 1.700000 0.000000
vt -0.200000 0.000000 0.000000
vt -0.000000 1.700000 0.000000
vt -0.000000 0.200000 0.000000
vt -0.625000 -0.125000 0.000000
vt -0.925000 -0.125000 0.000000
vt -0.625000 -0.325000 0.000000
vt -0.925000 -0.325000 0.000000
vt -0.162500 0.141421 0.000000
vt -0.462500 0.141421 0.000000
vt -0.162500 -0.141421 0.000000
vt -0.462500 -0.141421 0.000000
vt 0.612500 0.141421 0.000000
vt 0.312500 0.141421 0.000000
vt 0.612500 -0.141421 0.000000
vt 0.312500 -0.141421 0.000000
vt -0.600000 0.200000 0.000000
vt -0.400000 0.000000 0.000000
vt -0.600000 1.700000 0.000000
vt -0.200000 0.000000 0.000000
vt -0.000000 1.700000 0.000000
vt -0.000000 0.200000 0.000000
vt 0.625000 -0.325000 0.000000
vt 0.925000 -0.325000 0.000000
vt 0.625000 -0.125000 0.000000
vt 0.925000 -0.125000 0.000000
vt -0.162500 0.141421 0.000000
vt -0.462500 0.141421 0.000000
vt -0.162500 -0.141421 0.000000
vt -0.462500 -0.141421 0.000000
vt 0.225000 0.141421 0.000000
vt -0.075000 0.141421 0.000000
vt 0.225000 -0.141421 0.000000
vt -0.075000 -0.141421 0.000000
vt -0.525000 0.200000 0.000000
vt -0.325000 0.000000 0.000000
vt -0.525000 1.700000 0.000000
vt -0.200000 0.000000 0.000000
vt -0.000000 1.700000 0.000000
vt -0.000000 0.200000 0.000000
vt -0.150000 0.200000 0.000000
vt 0.150000 0.200000 0.000000
vt -0.150000 0.325000 0.000000
vt 0.150000 0.325000 0.000000
vt 0.225000 0.141421 0.000000
vt -0.075000 0.141421 0.000000
vt 0.225000 -0.141421 0.000000
vt -0.075000 -0.141421 0.000000
vt -0.300000 0.200000 0.000000
vt -0.000000 0.200000 0.000000
vt -0.300000 1.700000 0.000000
vt -0.000000 1.700000 0.000000
vt -0.300000 0.200000 0.000000
vt -0.000000 0.200000 0.000000
vt -0.300000 1.700000 0.000000
vt -0.000000 1.700000 0.000000
vt -0.000000 0.200000 0.000000
vt -0.000000 1.700000 0.000000
vt -0.200000 0.000000 0.000000
vt -0.600000 1.700000 0.000000
vt -0.400000 0.000000 0.000000
vt -0.600000 0.200000 0.000000
vt -0.000000 0.200000 0.000000
vt -0.000000 1.700000 0.000000
vt -0.200000 0.000000 0.000000
vt -0.600000 1.700000 0.000000
vt -0.400000 0.000000 0.000000
vt -0.600000 0.200000 0.000000
vt -0.300000 0.200000 0.000000
vt -0.000000 0.200000 0.000000
vt -0.300000 1.700000 0.000000
vt -0.000000 1.700000 0.000000
vt -0.300000 0.200000 0.000000
vt -0.000000 0.200000 0.000000
vt -0.300000 1.700000 0.000000
vt -0.000000 1.700000 0.000000
vt -0.300000 0.200000 0.000000
vt -0.000000 0.200000 0.000000
vt -0.300000 1.700000 0.000000
vt -0.000000 1.700000 0.000000
vt -0.000000 0.200000 0.000000
vt -0.000000 1.700000 0.000000
vt -0.200000 0.000000 0.000000
vt -0.525000 1.700000 0.000000
vt -0.325000 0.000000 0.000000
vt -0.525000 0.200000 0.000000
vt -0.300000 0.200000 0.000000
vt -0.000000 0.200000 0.000000
vt -0.300000 1.700000 0.000000
vt -0.000000 1.700000 0.000000
vt -0.000000 1.700000 0.000000
vt -0.791960 1.700000 0.000000
vt -0.000000 0.000000 0.000000
vt -0.791960 0.000000 0.000000
vt -0.000000 1.700000 0.000000
vt -1.090000 1.700000 0.000000
vt -0.000000 0.000000 0.000000
vt -1.090000 0.000000 0.000000
vt -0.000000 1.700000 0.000000
vt -2.450000 1.700000 0.000000
vt -0.000000 0.000000 0.000000
vt -2.450000 0.000000 0.000000
vt -0.000000 0.150000 0.000000
vt -0.525000 -0.625000 0.000000
vt -0.000000 -0.150000 0.000000
vt 0.075000 -0.625000 0.000000
vt 0.525000 -0.150000 0.000000
vt 0.825000 -0.665000 0.000000
vt 0.525000 0.150000 0.000000
vt 0.825000 0.665000 0.000000
vt 0.075000 0.625000 0.000000
vt 0.075000 0.925000 0.000000
vt 0.265000 1.225000 0.000000
vt -0.525000 0.925000 0.000000
vt -0.825000 1.225000 0.000000
vt -0.525000 0.625000 0.000000
vt -0.825000 -1.225000 0.000000
vt -0.525000 -0.925000 0.000000
vt 0.265000 -1.225000 0.000000
vt 0.075000 -0.925000 0.000000
vt -1.525000 0.925000 0.000000
vt -1.225000 0.265000 0.000000
vt -1.325000 1.125000 0.000000
vt -0.665000 0.825000 0.000000
vt 0.665000 0.825000 0.000000
vt -1.225000 -0.825000 0.000000
vt -1.525000 -2.325000 0.000000
vt -1.325000 -2.525000 0.000000
vt 1.325000 -2.525000 0.000000
vt 1.225000 -0.825000 0.000000
vt 1.525000 -2.325000 0.000000
vt 1.525000 0.925000 0.000000
vt 1.225000 0.265000 0.000000
vt 1.325000 1.125000 0.000000
vt 0.000000 0.480000 0.000000
vt 3.050000 0.480000 0.000000
vt 0.000000 1.800000 0.000000
vt 3.050000 1.800000 0.000000
vn 0.070711 0.000000 0.070711
vn 0.070711 0.000000 0.070711
vn 0.070711 0.000000 0.070711
vn 0.070711 0.000000 0.070711
vn 0.100000 0.000000 0.000000
vn 0.100000 0.000000 0.000000
vn 0.100000 0.000000 0.000000
vn 0.100000 0.000000 0.000000
vn 0.100000 0.000000 0.000000
vn 0.100000 0.000000 0.000000
vn 0.000000 -0.100000 0.000000
vn 0.000000 -0.100000 0.000000
vn 0.000000 -0.100000 0.000000
vn 0.000000 -0.100000 0.000000
vn 0.000000 -0.100000 0.000000
vn 0.000000 -0.100000 0.000000
vn -0.070711 0.000000 0.070711
vn -0.070711 0.000000 0.070711
vn -0.070711 0.000000 0.070711
vn -0.070711 0.000000 0.070711
vn -0.100000 0.000000 0.000000
vn -0.100000 0.000000 0.000000
vn -0.100000 0.000000 0.000000
vn -0.100000 0.000000 0.000000
vn -0.100000 0.000000 0.000000
vn -0.100000 0.000000 0.000000
vn -0.070711 0.000000 -0.070711
vn -0.070711 0.000000 -0.070711
vn -0.070711 0.000000 -0.070711
vn -0.070711 0.000000 -0.070711
vn 0.000000 -0.100000 0.000000
vn 0.000000 -0.100000 0.000000
vn 0.000000 -0.100000 0.000000
vn 0.000000 -0.100000 0.000000
vn 0.000000 -0.100000 0.000000
vn 0.000000 -0.100000 0.000000
vn 0.000000 0.000000 -0.100000
vn 0.000000 0.000000 -0.100000
vn 0.000000 0.000000 -0.100000
vn 0.000000 0.000000 -0.100000
vn 0.070711 0.000000 -0.070711
vn 0.070711 0.000000 -0.070711
vn 0.070711 0.000000 -0.070711
vn 0.070711 0.000000 -0.070711
vn 0.100000 0.000000 0.000000
vn 0.100000 0.000000 0.000000
vn 0.100000 0.000000 0.000000
vn 0.100000 0.000000 0.000000
vn 0.070711 0.000000 -0.070711
vn 0.070711 0.000000 -0.070711
vn 0.070711 0.000000 -0.070711
vn 0.070711 0.000000 -0.070711
vn 0.000000 0.000000 -0.100000
vn 0.000000 0.000000 -0.100000
vn 0.000000 0.000000 -0.100000
vn 0.000000 0.000000 -0.100000
vn 0.000000 0.000000 0.100000
vn 0.000000 0.000000 0.100000
vn 0.000000 0.000000 0.100000
vn 0.000000 0.000000 0.100000
vn 0.000000 0.070711 0.070711
vn 0.000000 0.070711 0.070711
vn 0.000000 0.070711 0.070711
vn 0.000000 0.070711 0.070711
vn -0.100000 0.000000 0.000000
vn -0.100000 0.000000 0.000000
vn -0.100000 0.000000 0.000000
vn -0.100000 0.000000 0.000000
vn -0.100000 0.000000 0.000000
vn -0.100000 0.000000 0.000000
vn 0.000000 0.100000 0.000000
vn 0.000000 0.100000 0.000000
vn 0.000000 0.100000 0.000000
vn 0.000000 0.100000 0.000000
vn 0.000000 0.070711 -0.070711
vn 0.000000 0.070711 -0.070711
vn 0.000000 0.070711 -0.070711
vn 0.000000 0.070711 -0.070711
vn 0.000000 0.070711 -0.070711
vn 0.000000 0.070711 -0.070711
vn 0.000000 0.070711 -0.070711
vn 0.000000 0.070711 -0.070711
vn 0.100000 0.000000 0.000000
vn 0.100000 0.000000 0.000000
vn 0.100000 0.000000 0.000000
vn 0.100000 0.000000 0.000000
vn 0.100000 0.000000 0.000000
vn 0.100000 0.000000 0.000000
vn 0.000000 0.100000 0.000000
vn 0.000000 0.100000 0.000000
vn 0.000000 0.100000 0.000000
vn 0.000000 0.100000 0.000000
vn 0.000000 0.070711 0.070711
vn 0.000000 0.070711 0.070711
vn 0.000000 0.070711 0.070711
vn 0.000000 0.070711 0.070711
vn 0.000000 0.070711 -0.070711
vn 0.000000 0.070711 -0.070711
vn 0.000000 0.070711 -0.070711
vn 0.000000 0.070711 -0.070711
vn 0.100000 0.000000 0.000000
vn 0.100000 0.000000 0.000000
vn 0.100000 0.000000 0.000000
vn 0.100000 0.000000 0.000000
vn 0.100000 0.000000 0.000000
vn 0.100000 0.000000 0.000000
vn 0.000000 0.100000 0.000000
vn 0.000000 0.100000 0.000000
vn 0.000000 0.100000 0.000000
vn 0.000000 0.100000 0.000000
vn 0.000000 0.070711 0.070711
vn 0.000000 0.070711 0.070711
vn 0.000000 0.070711 0.070711
vn 0.000000 0.070711 0.070711
vn 0.000000 0.000000 0.100000
vn 0.000000 0.000000 0.100000
vn 0.000000 0.000000 0.100000
vn 0.000000 0.000000 0.100000
vn 0.000000 0.000000 -0.100000
vn 0.000000 0.000000 -0.100000
vn 0.000000 0.000000 -0.100000
vn 0.000000 0.000000 -0.100000
vn 0.100000 0.000000 0.000000
vn 0.100000 0.000000 0.000000
vn 0.100000 0.000000 0.000000
vn 0.100000 0.000000 0.000000
vn 0.100000 0.000000 0.000000
vn 0.100000 0.000000 0.000000
vn -0.100000 0.000000 0.000000
vn -0.100000 0.000000 0.000000
vn -0.100000 0.000000 0.000000
vn -0.100000 0.000000 0.000000
vn -0.100000 0.000000 0.000000
vn -0.100000 0.000000 0.000000
vn 0.000000 0.000000 -0.100000
vn 0.000000 0.000000 -0.100000
vn 0.000000 0.000000 -0.100000
vn 0.000000 0.000000 -0.100000
vn 0.000000 0.000000 0.100000
vn 0.000000 0.000000 0.100000
vn 0.000000 0.000000 0.100000
vn 0.000000 0.000000 0.100000
vn 0.000000 0.000000 0.100000
vn 0.000000 0.000000 0.100000
vn 0.000000 0.000000 0.100000
vn 0.000000 0.000000 0.100000
vn -0.100000 0.000000 0.000000
vn -0.100000 0.000000 0.000000
vn -0.100000 0.000000 0.000000
vn -0.100000 0.000000 0.000000
vn -0.100000 0.000000 0.000000
vn -0.100000 0.000000 0.000000
vn 0.000000 0.000000 -0.100000
vn 0.000000 0.000000 -0.100000
vn 0.000000 0.000000 -0.100000
vn 0.000000 0.000000 -0.100000
vn -0.070711 0.000000 -0.070711
vn -0.070711 0.000000 -0.070711
vn -0.070711 0.000000 -0.070711
vn -0.070711 0.000000 -0.070711
vn -0.100000 0.000000 0.000000
vn -0.100000 0.000000 0.000000
vn -0.100000 0.000000 0.000000
vn -0.100000 0.000000 0.000000
vn 0.000000 0.000000 0.100000
vn 0.000000 0.000000 0.100000
vn 0.000000 0.000000 0.100000
vn 0.000000 0.000000 0.100000
vn -0.000000 0.100000 -0.000000
vn -0.000000 0.100000 -0.000000
vn -0.000000 0.100000 -0.000000
vn -0.000000 0.100000 -0.000000
vn -0.000000 0.100000 -0.000000
vn -0.000000 0.100000 -0.000000
vn -0.000000 0.100000 -0.000000
vn -0.000000 0.100000 -0.000000
vn -0.000000 0.100000 -0.000000
vn -0.000000 0.100000 -0.000000
vn -0.000000 0.100000 -0.000000
vn -0.000000 0.100000 -0.000000
vn -0.000000 0.100000 -0.000000
vn -0.000000 0.100000 -0.000000
vn -0.000000 0.100000 -0.000000
vn -0.000000 0.100000 -0.000000
vn -0.000000 0.100000 -0.000000
vn -0.000000 0.100000 -0.000000
vn 0.000000 0.100000 0.000000
vn 0.000000 0.100000 0.000000
vn 0.000000 0.100000 0.000000
vn 0.000000 0.100000 0.000000
vn 0.000000 0.100000 0.000000
vn 0.000000 0.100000 0.000000
vn 0.000000 0.100000 0.000000
vn 0.000000 0.100000 0.000000
vn 0.000000 0.100000 0.000000
vn 0.000000 0.100000 0.000000
vn 0.000000 0.100000 0.000000
vn 0.000000 0.100000 0.000000
vn 0.000000 0.100000 0.000000
vn 0.000000 0.100000 0.000000
vn 0.000000 0.000000 -0.100000
vn 0.000000 0.000000 -0.100000
vn 0.000000 0.000000 -0.100000
vn 0.000000 0.000000 -0.100000
usemtl Steel_-_Satin
f 1/1/1 2/2/2 4/3/3
f 4/3/3 2/2/2 3/4/4
f 8/5/5 3/6/6 6/7/7
f 6/7/7 3/6/6 2/8/8
f 6/7/7 2/8/8 5/9/9
f 6/7/7 7/10/10 8/5/5
f 1/11/11 9/12/12 2/13/13
f 2/13/13 9/12/12 10/14/14
f 2/13/13 10/14/14 11/15/15
f 11/15/15 5/16/16 2/13/13
f 10/17/17 9/18/18 13/19/19
f 13/19/19 9/18/18 12/20/20
f 11/21/21 10/22/22 16/23/23
f 16/23/23 10/22/22 13/24/24
f 16/23/23 13/24/24 14/25/25
f 14/25/25 15/26/26 16/23/23
f 17/27/27 15/28/28 18/29/29
f 18/29/29 15/28/28 14/30/30
f 16/31/31 15/32/32 7/33/33
f 7/33/33 15/32/32 17/34/34
f 7/33/33 17/34/34 19/35/35
f 7/33/33 6/36/36 16/31/31
f 18/37/37 20/38/38 17/39/39
f 17/39/39 20/38/38 19/40/40
f 7/41/41 19/42/42 8/43/43
f 8/43/43 19/42/42 20/44/44
f 22/45/45 23/46/46 21/47/47
f 21/47/47 23/46/46 24/48/48
f 26/49/49 22/50/50 25/51/51
f 25/51/51 22/50/50 21/52/52
f 28/53/53 26/54/54 27/55/55
f 27/55/55 26/54/54 25/56/56
f 4/57/57 12/58/58 1/59/59
f 1/59/59 12/58/58 9/60/60
f 30/61/61 31/62/62 29/63/63
f 29/63/63 31/62/62 32/64/64
f 32/65/65 31/66/66 36/67/67
f 36/67/67 31/66/66 33/68/68
f 36/67/67 33/68/68 35/69/69
f 35/69/69 33/68/68 34/70/70
f 31/71/71 30/72/72 33/73/73
f 33/73/73 30/72/72 37/74/74
f 33/75/75 37/76/76 34/77/77
f 34/77/77 37/76/76 38/78/78
f 40/79/79 41/80/80 39/81/81
f 39/81/81 41/80/80 42/82/82
f 42/83/83 41/84/84 46/85/85
f 46/85/85 41/84/84 43/86/86
f 46/85/85 43/86/86 45/87/87
f 45/87/87 43/86/86 44/88/88
f 41/89/89 40/90/90 43/91/91
f 43/91/91 40/90/90 47/92/92
f 43/93/93 47/94/94 44/95/95
f 44/95/95 47/94/94 48/96/96
f 50/97/97 51/98/98 49/99/99
f 49/99/99 51/98/98 52/100/100
f 52/101/101 51/102/102 56/103/103
f 56/103/103 51/102/102 53/104/104
f 56/103/103 53/104/104 55/105/105
f 55/105/105 53/104/104 54/106/106
f 51/107/107 50/108/108 53/109/109
f 53/109/109 50/108/108 57/110/110
f 53/111/111 57/112/112 54/113/113
f 54/113/113 57/112/112 58/114/114
f 29/115/115 32/116/116 59/117/117
f 59/117/117 32/116/116 36/118/118
f 34/119/119 38/120/120 35/121/121
f 35/121/121 38/120/120 60/122/122
f 29/123/123 59/124/124 30/125/125
f 30/125/125 59/124/124 60/126/126
f 30/125/125 60/126/126 37/127/127
f 37/127/127 60/126/126 38/128/128
f 39/129/129 61/130/130 40/131/131
f 40/131/131 61/130/130 62/132/132
f 40/131/131 62/132/132 47/133/133
f 47/133/133 62/132/132 48/134/134
f 39/135/135 42/136/136 61/137/137
f 61/137/137 42/136/136 46/138/138
f 44/139/139 48/140/140 45/141/141
f 45/141/141 48/140/140 62/142/142
f 54/143/143 58/144/144 55/145/145
f 55/145/145 58/144/144 63/146/146
f 49/147/147 64/148/148 50/149/149
f 50/149/149 64/148/148 63/150/150
f 50/149/149 63/150/150 57/151/151
f 57/151/151 63/150/150 58/152/152
f 49/153/153 52/154/154 64/155/155
f 64/155/155 52/154/154 56/156/156
f 66/157/157 28/158/158 65/159/159
f 65/159/159 28/158/158 27/160/160
f 68/161/161 66/162/162 67/163/163
f 67/163/163 66/162/162 65/164/164
f 23/165/165 68/166/166 24/167/167
f 24/167/167 68/166/166 67/168/168
f 56/169/169 46/170/170 64/171/171
f 64/171/171 46/170/170 45/172/172
f 64/171/171 45/172/172 63/173/173
f 63/173/173 45/172/172 26/174/174
f 63/173/173 26/174/174 55/175/175
f 55/175/175 26/174/174 28/176/176
f 55/175/175 28/176/176 36/177/177
f 36/177/177 28/176/176 59/178/178
f 59/178/178 28/176/176 66/179/179
f 59/178/178 66/179/179 60/180/180
f 60/180/180 66/179/179 68/181/181
f 60/180/180 68/181/181 35/182/182
f 35/182/182 68/181/181 23/183/183
f 35/182/182 23/183/183 46/170/170
f 46/170/170 23/183/183 61/184/184
f 61/184/184 23/183/183 22/185/185
f 61/184/184 22/185/185 62/186/186
f 62/186/186 22/185/185 26/174/174
f 62/186/186 26/174/174 45/172/172
f 55/175/175 36/177/177 56/169/169
f 56/169/169 36/177/177 35/182/182
f 56/169/169 35/182/182 46/170/170
f 3/187/187 65/188/188 4/189/189
f 4/189/189 65/188/188 27/190/190
f 4/189/189 27/190/190 25/191/191
f 65/188/188 3/187/187 67/192/192
f 67/192/192 3/187/187 8/193/193
f 67/192/192 8/193/193 20/194/194
f 20/194/194 18/195/195 67/192/192
f 67/192/192 18/195/195 24/196/196
f 24/196/196 18/195/195 14/197/197
f 24/196/196 14/197/197 13/198/198
f 24/196/196 13/198/198 21/199/199
f 21/199/199 13/198/198 12/200/200
f 21/199/199 12/200/200 25/191/191
f 25/191/191 12/200/200 4/189/189
f 16/201/201 6/202/202 11/203/203
f 11/203/203 6/202/202 5/204/204
# 68 vertices
# 204 texture params
# 204 normals
# 132 facets

# 1 groups
