# WaveFront *.obj file (generated by Autodesk ATF)

mtllib SwitchButtonOnOffBorder.mtl

g SwitchButtonOnOffBorder

v -22.000000 0.000000 5.600000
v -22.000000 0.000000 21.600000
v -22.000000 -1.000000 21.600000
v -22.000000 -1.000000 5.600000
v -11.000000 0.000000 5.600000
v -11.000000 -1.000000 5.600000
v -11.000000 0.000000 21.600000
v -11.000000 -1.000000 21.600000
v -9.000000 0.000000 3.600000
v -9.000000 0.000000 23.600000
v -9.000000 -1.000000 23.600000
v -9.000000 -1.000000 3.600000
v -24.000000 0.000000 3.600000
v -24.000000 -1.000000 3.600000
v -24.000000 0.000000 23.600000
v -24.000000 -1.000000 23.600000
vt 0.000000 0.000000 0.000000
vt 1.600000 0.000000 0.000000
vt 0.000000 0.100000 0.000000
vt 1.600000 0.100000 0.000000
vt -0.000000 0.000000 0.000000
vt 1.100000 0.000000 0.000000
vt 0.000000 0.100000 0.000000
vt 1.100000 0.100000 0.000000
vt -0.000000 0.000000 0.000000
vt 1.600000 0.000000 0.000000
vt 0.000000 0.100000 0.000000
vt 1.600000 0.100000 0.000000
vt 0.000000 0.000000 0.000000
vt 1.100000 0.000000 0.000000
vt 0.000000 0.100000 0.000000
vt 1.100000 0.100000 0.000000
vt 0.000000 0.000000 0.000000
vt 2.000000 0.000000 0.000000
vt 0.000000 0.100000 0.000000
vt 2.000000 0.100000 0.000000
vt 0.000000 0.000000 0.000000
vt 1.500000 0.000000 0.000000
vt 0.000000 0.100000 0.000000
vt 1.500000 0.100000 0.000000
vt 0.000000 0.000000 0.000000
vt 2.000000 0.000000 0.000000
vt 0.000000 0.100000 0.000000
vt 2.000000 0.100000 0.000000
vt 0.000000 0.000000 0.000000
vt 1.500000 0.000000 0.000000
vt 0.000000 0.100000 0.000000
vt 1.500000 0.100000 0.000000
vt 0.550000 0.800000 0.000000
vt 0.550000 -0.800000 0.000000
vt 0.750000 -1.000000 0.000000
vt -0.550000 -0.800000 0.000000
vt -0.750000 -1.000000 0.000000
vt -0.550000 0.800000 0.000000
vt -0.750000 1.000000 0.000000
vt 0.750000 1.000000 0.000000
vt -0.800000 0.550000 0.000000
vt -1.000000 -0.750000 0.000000
vt -0.800000 -0.550000 0.000000
vt 1.000000 -0.750000 0.000000
vt 0.800000 -0.550000 0.000000
vt 0.800000 0.550000 0.000000
vt 1.000000 0.750000 0.000000
vt -1.000000 0.750000 0.000000
vn 0.100000 0.000000 0.000000
vn 0.100000 0.000000 0.000000
vn 0.100000 0.000000 0.000000
vn 0.100000 0.000000 0.000000
vn 0.000000 0.000000 0.100000
vn 0.000000 0.000000 0.100000
vn 0.000000 0.000000 0.100000
vn 0.000000 0.000000 0.100000
vn -0.100000 0.000000 0.000000
vn -0.100000 0.000000 0.000000
vn -0.100000 0.000000 0.000000
vn -0.100000 0.000000 0.000000
vn 0.000000 0.000000 -0.100000
vn 0.000000 0.000000 -0.100000
vn 0.000000 0.000000 -0.100000
vn 0.000000 0.000000 -0.100000
vn 0.100000 0.000000 0.000000
vn 0.100000 0.000000 0.000000
vn 0.100000 0.000000 0.000000
vn 0.100000 0.000000 0.000000
vn 0.000000 0.000000 -0.100000
vn 0.000000 0.000000 -0.100000
vn 0.000000 0.000000 -0.100000
vn 0.000000 0.000000 -0.100000
vn -0.100000 0.000000 0.000000
vn -0.100000 0.000000 0.000000
vn -0.100000 0.000000 0.000000
vn -0.100000 0.000000 0.000000
vn 0.000000 0.000000 0.100000
vn 0.000000 0.000000 0.100000
vn 0.000000 0.000000 0.100000
vn 0.000000 0.000000 0.100000
vn 0.000000 0.100000 0.000000
vn 0.000000 0.100000 0.000000
vn 0.000000 0.100000 0.000000
vn 0.000000 0.100000 0.000000
vn 0.000000 0.100000 0.000000
vn 0.000000 0.100000 0.000000
vn 0.000000 0.100000 0.000000
vn 0.000000 0.100000 0.000000
vn 0.000000 -0.100000 0.000000
vn 0.000000 -0.100000 0.000000
vn 0.000000 -0.100000 0.000000
vn 0.000000 -0.100000 0.000000
vn 0.000000 -0.100000 0.000000
vn 0.000000 -0.100000 0.000000
vn 0.000000 -0.100000 0.000000
vn 0.000000 -0.100000 0.000000
usemtl Steel_-_Satin
f 1/1/1 2/2/2 4/3/3
f 4/3/3 2/2/2 3/4/4
f 5/5/5 1/6/6 6/7/7
f 6/7/7 1/6/6 4/8/8
f 7/9/9 5/10/10 8/11/11
f 8/11/11 5/10/10 6/12/12
f 2/13/13 7/14/14 3/15/15
f 3/15/15 7/14/14 8/16/16
f 9/17/17 10/18/18 12/19/19
f 12/19/19 10/18/18 11/20/20
f 13/21/21 9/22/22 14/23/23
f 14/23/23 9/22/22 12/24/24
f 15/25/25 13/26/26 16/27/27
f 16/27/27 13/26/26 14/28/28
f 10/29/29 15/30/30 11/31/31
f 11/31/31 15/30/30 16/32/32
f 5/33/33 7/34/34 10/35/35
f 10/35/35 7/34/34 2/36/36
f 10/35/35 2/36/36 15/37/37
f 15/37/37 2/36/36 1/38/38
f 15/37/37 1/38/38 13/39/39
f 13/39/39 1/38/38 5/33/33
f 13/39/39 5/33/33 9/40/40
f 9/40/40 5/33/33 10/35/35
f 8/41/41 16/42/42 3/43/43
f 3/43/43 16/42/42 14/44/44
f 3/43/43 14/44/44 4/45/45
f 4/45/45 14/44/44 6/46/46
f 6/46/46 14/44/44 12/47/47
f 6/46/46 12/47/47 11/48/48
f 16/42/42 8/41/41 11/48/48
f 11/48/48 8/41/41 6/46/46
# 16 vertices
# 48 texture params
# 48 normals
# 32 facets

# 1 groups
