# WaveFront *.obj file (generated by Autodesk ATF)

mtllib YellowMotorBar.mtl

g YellowMotorBar

v -90.923714 -87.147585 13.122367
v -90.525022 -87.147585 13.442252
v -90.072332 -87.147585 13.679641
v -89.582488 -87.147585 13.825702
v -89.073714 -87.147585 13.875000
v -88.564940 -87.147585 13.825702
v -88.075095 -87.147585 13.679641
v -87.622405 -87.147585 13.442252
v -87.223714 -87.147585 13.122367
v -87.223714 -50.647585 13.122367
v -87.622405 -50.647585 13.442252
v -88.075095 -50.647585 13.679641
v -88.564940 -50.647585 13.825702
v -89.073714 -50.647585 13.875000
v -89.582488 -50.647585 13.825702
v -90.072332 -50.647585 13.679641
v -90.525022 -50.647585 13.442252
v -90.923714 -50.647585 13.122367
v -90.525022 -78.022585 13.442252
v -90.525022 -68.897585 13.442252
v -90.525022 -59.772585 13.442252
v -90.072332 -78.022585 13.679641
v -90.072332 -68.897585 13.679641
v -90.072332 -59.772585 13.679641
v -89.582488 -78.022585 13.825702
v -89.582488 -68.897585 13.825702
v -89.582488 -59.772585 13.825702
v -89.073714 -78.022585 13.875000
v -89.073714 -68.897585 13.875000
v -89.073714 -59.772585 13.875000
v -88.564940 -78.022585 13.825702
v -88.564940 -68.897585 13.825702
v -88.564940 -59.772585 13.825702
v -88.075095 -78.022585 13.679641
v -88.075095 -68.897585 13.679641
v -88.075095 -59.772585 13.679641
v -87.622405 -78.022585 13.442252
v -87.622405 -68.897585 13.442252
v -87.622405 -59.772585 13.442252
v -90.923714 -87.147585 9.327633
v -90.923714 -50.647585 9.327633
v -87.223714 -87.147585 9.327633
v -87.622405 -87.147585 9.007748
v -88.075095 -87.147585 8.770359
v -88.564940 -87.147585 8.624298
v -89.073714 -87.147585 8.575000
v -89.582488 -87.147585 8.624298
v -90.072332 -87.147585 8.770359
v -90.525022 -87.147585 9.007748
v -90.525022 -50.647585 9.007748
v -90.072332 -50.647585 8.770359
v -89.582488 -50.647585 8.624298
v -89.073714 -50.647585 8.575000
v -88.564940 -50.647585 8.624298
v -88.075095 -50.647585 8.770359
v -87.622405 -50.647585 9.007748
v -87.223714 -50.647585 9.327633
v -87.622405 -78.022585 9.007748
v -87.622405 -68.897585 9.007748
v -87.622405 -59.772585 9.007748
v -88.075095 -78.022585 8.770359
v -88.075095 -68.897585 8.770359
v -88.075095 -59.772585 8.770359
v -88.564940 -78.022585 8.624298
v -88.564940 -68.897585 8.624298
v -88.564940 -59.772585 8.624298
v -89.073714 -78.022585 8.575000
v -89.073714 -68.897585 8.575000
v -89.073714 -59.772585 8.575000
v -89.582488 -78.022585 8.624298
v -89.582488 -68.897585 8.624298
v -89.582488 -59.772585 8.624298
v -90.072332 -78.022585 8.770359
v -90.072332 -68.897585 8.770359
v -90.072332 -59.772585 8.770359
v -90.525022 -78.022585 9.007748
v -90.525022 -68.897585 9.007748
v -90.525022 -59.772585 9.007748
vt -0.000000 -0.569847 0.000000
vt -0.912500 -0.569847 0.000000
vt -0.000000 -0.621042 0.000000
vt -1.825000 -0.569847 0.000000
vt -3.650000 -0.621042 0.000000
vt -2.737500 -0.569847 0.000000
vt -3.650000 -0.569847 0.000000
vt -3.650000 -0.518652 0.000000
vt -2.737500 -0.518652 0.000000
vt -3.650000 -0.467456 0.000000
vt -2.737500 -0.467456 0.000000
vt -3.650000 -0.416261 0.000000
vt -2.737500 -0.416261 0.000000
vt -3.650000 -0.365066 0.000000
vt -2.737500 -0.365066 0.000000
vt -3.650000 -0.313870 0.000000
vt -2.737500 -0.313870 0.000000
vt -3.650000 -0.262675 0.000000
vt -2.737500 -0.262675 0.000000
vt -3.650000 -0.211480 0.000000
vt -1.825000 -0.262675 0.000000
vt -0.000000 -0.211480 0.000000
vt -0.912500 -0.262675 0.000000
vt -0.000000 -0.262675 0.000000
vt -0.000000 -0.313870 0.000000
vt -0.912500 -0.313870 0.000000
vt -0.000000 -0.365066 0.000000
vt -0.912500 -0.365066 0.000000
vt -0.000000 -0.416261 0.000000
vt -0.912500 -0.416261 0.000000
vt -0.000000 -0.467456 0.000000
vt -0.912500 -0.467456 0.000000
vt -0.000000 -0.518652 0.000000
vt -0.912500 -0.518652 0.000000
vt -1.825000 -0.518652 0.000000
vt -1.825000 -0.467456 0.000000
vt -1.825000 -0.416261 0.000000
vt -1.825000 -0.365066 0.000000
vt -1.825000 -0.313870 0.000000
vt 0.000000 0.000000 0.000000
vt 0.379473 0.000000 0.000000
vt 0.000000 3.650000 0.000000
vt 0.379473 3.650000 0.000000
vt -0.000000 0.262675 0.000000
vt -0.912500 0.262675 0.000000
vt -0.000000 0.211480 0.000000
vt -1.825000 0.262675 0.000000
vt -3.650000 0.211480 0.000000
vt -2.737500 0.262675 0.000000
vt -3.650000 0.262675 0.000000
vt -3.650000 0.313870 0.000000
vt -2.737500 0.313870 0.000000
vt -3.650000 0.365066 0.000000
vt -2.737500 0.365066 0.000000
vt -3.650000 0.416261 0.000000
vt -2.737500 0.416261 0.000000
vt -3.650000 0.467456 0.000000
vt -2.737500 0.467456 0.000000
vt -3.650000 0.518652 0.000000
vt -2.737500 0.518652 0.000000
vt -3.650000 0.569847 0.000000
vt -2.737500 0.569847 0.000000
vt -3.650000 0.621042 0.000000
vt -1.825000 0.569847 0.000000
vt -0.000000 0.621042 0.000000
vt -0.912500 0.569847 0.000000
vt -0.000000 0.569847 0.000000
vt -0.000000 0.518652 0.000000
vt -0.912500 0.518652 0.000000
vt -0.000000 0.467456 0.000000
vt -0.912500 0.467456 0.000000
vt -0.000000 0.416261 0.000000
vt -0.912500 0.416261 0.000000
vt -0.000000 0.365066 0.000000
vt -0.912500 0.365066 0.000000
vt -0.000000 0.313870 0.000000
vt -0.912500 0.313870 0.000000
vt -1.825000 0.313870 0.000000
vt -1.825000 0.365066 0.000000
vt -1.825000 0.416261 0.000000
vt -1.825000 0.467456 0.000000
vt -1.825000 0.518652 0.000000
vt -0.000000 0.000000 0.000000
vt 0.379473 0.000000 0.000000
vt -0.000000 3.650000 0.000000
vt 0.379473 3.650000 0.000000
vt 0.185000 0.189737 0.000000
vt 0.145131 0.221725 0.000000
vt 0.185000 -0.189737 0.000000
vt 0.145131 -0.221725 0.000000
vt 0.099862 0.245464 0.000000
vt 0.099862 -0.245464 0.000000
vt 0.050877 0.260070 0.000000
vt 0.050877 -0.260070 0.000000
vt 0.000000 0.265000 0.000000
vt 0.000000 -0.265000 0.000000
vt -0.050877 -0.260070 0.000000
vt -0.050877 0.260070 0.000000
vt -0.099862 -0.245464 0.000000
vt -0.099862 0.245464 0.000000
vt -0.145131 -0.221725 0.000000
vt -0.145131 0.221725 0.000000
vt -0.185000 -0.189737 0.000000
vt -0.185000 0.189737 0.000000
vt -0.185000 0.189737 0.000000
vt -0.185000 -0.189737 0.000000
vt -0.145131 0.221725 0.000000
vt -0.145131 -0.221725 0.000000
vt -0.099862 0.245464 0.000000
vt -0.099862 -0.245464 0.000000
vt -0.050877 0.260070 0.000000
vt -0.050877 -0.260070 0.000000
vt -0.000000 0.265000 0.000000
vt -0.000000 -0.265000 0.000000
vt 0.050877 -0.260070 0.000000
vt 0.050877 0.260070 0.000000
vt 0.099862 -0.245464 0.000000
vt 0.099862 0.245464 0.000000
vt 0.145131 -0.221725 0.000000
vt 0.145131 0.221725 0.000000
vt 0.185000 -0.189737 0.000000
vt 0.185000 0.189737 0.000000
vn -0.054766 0.000000 0.083670
vn -0.054766 0.000000 0.083670
vn -0.069811 0.000000 0.071599
vn -0.054766 0.000000 0.083670
vn -0.069811 0.000000 0.071599
vn -0.054766 0.000000 0.083670
vn -0.054766 0.000000 0.083670
vn -0.037684 0.000000 0.092628
vn -0.037684 0.000000 0.092628
vn -0.019199 0.000000 0.098140
vn -0.019199 0.000000 0.098140
vn 0.000000 -0.000000 0.100000
vn 0.000000 -0.000000 0.100000
vn 0.019199 -0.000000 0.098140
vn 0.019199 -0.000000 0.098140
vn 0.037684 -0.000000 0.092628
vn 0.037684 -0.000000 0.092628
vn 0.054766 -0.000000 0.083670
vn 0.054766 -0.000000 0.083670
vn 0.069811 -0.000000 0.071599
vn 0.054766 -0.000000 0.083670
vn 0.069811 -0.000000 0.071599
vn 0.054766 -0.000000 0.083670
vn 0.054766 -0.000000 0.083670
vn 0.037684 -0.000000 0.092628
vn 0.037684 -0.000000 0.092628
vn 0.019199 -0.000000 0.098140
vn 0.019199 -0.000000 0.098140
vn 0.000000 -0.000000 0.100000
vn 0.000000 -0.000000 0.100000
vn -0.019199 0.000000 0.098140
vn -0.019199 0.000000 0.098140
vn -0.037684 0.000000 0.092628
vn -0.037684 0.000000 0.092628
vn -0.037684 0.000000 0.092628
vn -0.019199 0.000000 0.098140
vn 0.000000 -0.000000 0.100000
vn 0.019199 -0.000000 0.098140
vn 0.037684 -0.000000 0.092628
vn -0.100000 0.000000 0.000000
vn -0.100000 0.000000 0.000000
vn -0.100000 0.000000 0.000000
vn -0.100000 0.000000 0.000000
vn 0.054766 0.000000 -0.083670
vn 0.054766 0.000000 -0.083670
vn 0.069811 0.000000 -0.071599
vn 0.054766 0.000000 -0.083670
vn 0.069811 0.000000 -0.071599
vn 0.054766 0.000000 -0.083670
vn 0.054766 0.000000 -0.083670
vn 0.037684 0.000000 -0.092628
vn 0.037684 0.000000 -0.092628
vn 0.019199 0.000000 -0.098140
vn 0.019199 0.000000 -0.098140
vn 0.000000 0.000000 -0.100000
vn 0.000000 0.000000 -0.100000
vn -0.019199 0.000000 -0.098140
vn -0.019199 0.000000 -0.098140
vn -0.037684 0.000000 -0.092628
vn -0.037684 0.000000 -0.092628
vn -0.054766 0.000000 -0.083670
vn -0.054766 0.000000 -0.083670
vn -0.069811 0.000000 -0.071599
vn -0.054766 0.000000 -0.083670
vn -0.069811 0.000000 -0.071599
vn -0.054766 0.000000 -0.083670
vn -0.054766 0.000000 -0.083670
vn -0.037684 0.000000 -0.092628
vn -0.037684 0.000000 -0.092628
vn -0.019199 0.000000 -0.098140
vn -0.019199 0.000000 -0.098140
vn 0.000000 0.000000 -0.100000
vn 0.000000 0.000000 -0.100000
vn 0.019199 0.000000 -0.098140
vn 0.019199 0.000000 -0.098140
vn 0.037684 0.000000 -0.092628
vn 0.037684 0.000000 -0.092628
vn 0.037684 0.000000 -0.092628
vn 0.019199 0.000000 -0.098140
vn 0.000000 0.000000 -0.100000
vn -0.019199 0.000000 -0.098140
vn -0.037684 0.000000 -0.092628
vn 0.100000 0.000000 0.000000
vn 0.100000 0.000000 0.000000
vn 0.100000 0.000000 0.000000
vn 0.100000 0.000000 0.000000
vn 0.000000 -0.100000 0.000000
vn 0.000000 -0.100000 0.000000
vn 0.000000 -0.100000 0.000000
vn 0.000000 -0.100000 0.000000
vn 0.000000 -0.100000 0.000000
vn 0.000000 -0.100000 0.000000
vn 0.000000 -0.100000 0.000000
vn 0.000000 -0.100000 0.000000
vn 0.000000 -0.100000 0.000000
vn 0.000000 -0.100000 0.000000
vn 0.000000 -0.100000 0.000000
vn 0.000000 -0.100000 0.000000
vn 0.000000 -0.100000 0.000000
vn 0.000000 -0.100000 0.000000
vn 0.000000 -0.100000 0.000000
vn 0.000000 -0.100000 0.000000
vn 0.000000 -0.100000 0.000000
vn 0.000000 -0.100000 0.000000
vn -0.000000 0.100000 -0.000000
vn -0.000000 0.100000 -0.000000
vn -0.000000 0.100000 -0.000000
vn -0.000000 0.100000 -0.000000
vn -0.000000 0.100000 -0.000000
vn -0.000000 0.100000 -0.000000
vn -0.000000 0.100000 -0.000000
vn -0.000000 0.100000 -0.000000
vn -0.000000 0.100000 -0.000000
vn -0.000000 0.100000 -0.000000
vn -0.000000 0.100000 -0.000000
vn -0.000000 0.100000 -0.000000
vn -0.000000 0.100000 -0.000000
vn -0.000000 0.100000 -0.000000
vn -0.000000 0.100000 -0.000000
vn -0.000000 0.100000 -0.000000
vn -0.000000 0.100000 -0.000000
vn -0.000000 0.100000 -0.000000
usemtl Steel_-_Satin
f 2/1/1 19/2/2 1/3/3
f 1/3/3 19/2/2 20/4/4
f 1/3/3 20/4/4 18/5/5
f 18/5/5 20/4/4 21/6/6
f 18/5/5 21/6/6 17/7/7
f 17/7/7 21/6/6 16/8/8
f 16/8/8 21/6/6 24/9/9
f 16/8/8 24/9/9 15/10/10
f 15/10/10 24/9/9 27/11/11
f 15/10/10 27/11/11 14/12/12
f 14/12/12 27/11/11 30/13/13
f 14/12/12 30/13/13 13/14/14
f 13/14/14 30/13/13 33/15/15
f 13/14/14 33/15/15 12/16/16
f 12/16/16 33/15/15 36/17/17
f 12/16/16 36/17/17 11/18/18
f 11/18/18 36/17/17 39/19/19
f 11/18/18 39/19/19 10/20/20
f 10/20/20 39/19/19 38/21/21
f 10/20/20 38/21/21 9/22/22
f 9/22/22 38/21/21 37/23/23
f 9/22/22 37/23/23 8/24/24
f 8/24/24 37/23/23 7/25/25
f 7/25/25 37/23/23 34/26/26
f 7/25/25 34/26/26 6/27/27
f 6/27/27 34/26/26 31/28/28
f 6/27/27 31/28/28 5/29/29
f 5/29/29 31/28/28 28/30/30
f 5/29/29 28/30/30 4/31/31
f 4/31/31 28/30/30 25/32/32
f 4/31/31 25/32/32 3/33/33
f 3/33/33 25/32/32 22/34/34
f 3/33/33 22/34/34 2/1/1
f 2/1/1 22/34/34 19/2/2
f 24/9/9 21/6/6 20/4/4
f 20/4/4 19/2/2 23/35/35
f 23/35/35 19/2/2 22/34/34
f 23/35/35 22/34/34 26/36/36
f 26/36/36 22/34/34 25/32/32
f 26/36/36 25/32/32 29/37/37
f 29/37/37 25/32/32 28/30/30
f 29/37/37 28/30/30 32/38/38
f 32/38/38 28/30/30 31/28/28
f 32/38/38 31/28/28 35/39/39
f 35/39/39 31/28/28 34/26/26
f 35/39/39 34/26/26 38/21/21
f 38/21/21 34/26/26 37/23/23
f 27/11/11 24/9/9 23/35/35
f 23/35/35 24/9/9 20/4/4
f 27/11/11 23/35/35 26/36/36
f 30/13/13 27/11/11 26/36/36
f 30/13/13 26/36/36 29/37/37
f 33/15/15 30/13/13 29/37/37
f 33/15/15 29/37/37 32/38/38
f 36/17/17 33/15/15 32/38/38
f 36/17/17 32/38/38 35/39/39
f 39/19/19 36/17/17 35/39/39
f 39/19/19 35/39/39 38/21/21
f 40/40/40 1/41/41 41/42/42
f 41/42/42 1/41/41 18/43/43
f 43/44/44 58/45/45 42/46/46
f 42/46/46 58/45/45 59/47/47
f 42/46/46 59/47/47 57/48/48
f 57/48/48 59/47/47 60/49/49
f 57/48/48 60/49/49 56/50/50
f 56/50/50 60/49/49 55/51/51
f 55/51/51 60/49/49 63/52/52
f 55/51/51 63/52/52 54/53/53
f 54/53/53 63/52/52 66/54/54
f 54/53/53 66/54/54 53/55/55
f 53/55/55 66/54/54 69/56/56
f 53/55/55 69/56/56 52/57/57
f 52/57/57 69/56/56 72/58/58
f 52/57/57 72/58/58 51/59/59
f 51/59/59 72/58/58 75/60/60
f 51/59/59 75/60/60 50/61/61
f 50/61/61 75/60/60 78/62/62
f 50/61/61 78/62/62 41/63/63
f 41/63/63 78/62/62 77/64/64
f 41/63/63 77/64/64 40/65/65
f 40/65/65 77/64/64 76/66/66
f 40/65/65 76/66/66 49/67/67
f 49/67/67 76/66/66 48/68/68
f 48/68/68 76/66/66 73/69/69
f 48/68/68 73/69/69 47/70/70
f 47/70/70 73/69/69 70/71/71
f 47/70/70 70/71/71 46/72/72
f 46/72/72 70/71/71 67/73/73
f 46/72/72 67/73/73 45/74/74
f 45/74/74 67/73/73 64/75/75
f 45/74/74 64/75/75 44/76/76
f 44/76/76 64/75/75 61/77/77
f 44/76/76 61/77/77 43/44/44
f 43/44/44 61/77/77 58/45/45
f 63/52/52 60/49/49 59/47/47
f 59/47/47 58/45/45 62/78/78
f 62/78/78 58/45/45 61/77/77
f 62/78/78 61/77/77 65/79/79
f 65/79/79 61/77/77 64/75/75
f 65/79/79 64/75/75 68/80/80
f 68/80/80 64/75/75 67/73/73
f 68/80/80 67/73/73 71/81/81
f 71/81/81 67/73/73 70/71/71
f 71/81/81 70/71/71 74/82/82
f 74/82/82 70/71/71 73/69/69
f 74/82/82 73/69/69 77/64/64
f 77/64/64 73/69/69 76/66/66
f 66/54/54 63/52/52 62/78/78
f 62/78/78 63/52/52 59/47/47
f 66/54/54 62/78/78 65/79/79
f 69/56/56 66/54/54 65/79/79
f 69/56/56 65/79/79 68/80/80
f 72/58/58 69/56/56 68/80/80
f 72/58/58 68/80/80 71/81/81
f 75/60/60 72/58/58 71/81/81
f 75/60/60 71/81/81 74/82/82
f 78/62/62 75/60/60 74/82/82
f 78/62/62 74/82/82 77/64/64
f 9/83/83 42/84/84 10/85/85
f 10/85/85 42/84/84 57/86/86
f 9/87/87 8/88/88 42/89/89
f 42/89/89 8/88/88 43/90/90
f 43/90/90 8/88/88 7/91/91
f 43/90/90 7/91/91 44/92/92
f 44/92/92 7/91/91 6/93/93
f 44/92/92 6/93/93 45/94/94
f 45/94/94 6/93/93 5/95/95
f 45/94/94 5/95/95 46/96/96
f 46/96/96 5/95/95 47/97/97
f 47/97/97 5/95/95 4/98/98
f 47/97/97 4/98/98 48/99/99
f 48/99/99 4/98/98 3/100/100
f 48/99/99 3/100/100 49/101/101
f 49/101/101 3/100/100 2/102/102
f 49/101/101 2/102/102 40/103/103
f 40/103/103 2/102/102 1/104/104
f 10/105/105 57/106/106 11/107/107
f 11/107/107 57/106/106 56/108/108
f 11/107/107 56/108/108 12/109/109
f 12/109/109 56/108/108 55/110/110
f 12/109/109 55/110/110 13/111/111
f 13/111/111 55/110/110 54/112/112
f 13/111/111 54/112/112 14/113/113
f 14/113/113 54/112/112 53/114/114
f 14/113/113 53/114/114 52/115/115
f 14/113/113 52/115/115 15/116/116
f 15/116/116 52/115/115 51/117/117
f 15/116/116 51/117/117 16/118/118
f 16/118/118 51/117/117 50/119/119
f 16/118/118 50/119/119 17/120/120
f 17/120/120 50/119/119 41/121/121
f 17/120/120 41/121/121 18/122/122
# 78 vertices
# 122 texture params
# 122 normals
# 152 facets

# 1 groups
