# Blender 4.4.1
# www.blender.org
mtllib light_resistor.mtl
o LightResistor
v -0.001991 0.000206 -0.000005
v -0.001951 0.000206 -0.000156
v -0.001841 0.000206 -0.000265
v -0.001691 0.000206 -0.000305
v -0.001541 0.000206 -0.000265
v -0.001431 0.000206 -0.000156
v -0.001391 0.000206 -0.000005
v -0.001431 0.000206 0.000145
v -0.001541 0.000206 0.000254
v -0.001691 0.000206 0.000294
v -0.001841 0.000206 0.000254
v -0.001951 0.000206 0.000145
v -0.001991 0.000006 -0.000005
v -0.001951 0.000006 0.000145
v -0.001841 0.000006 0.000254
v -0.001691 0.000006 0.000294
v -0.001541 0.000006 0.000254
v -0.001431 0.000006 0.000145
v -0.001391 0.000006 -0.000005
v -0.001431 0.000006 -0.000156
v -0.001541 0.000006 -0.000265
v -0.001691 0.000006 -0.000305
v -0.001841 0.000006 -0.000265
v -0.001951 0.000006 -0.000156
v 0.001409 0.000206 -0.000005
v 0.001449 0.000206 -0.000156
v 0.001559 0.000206 -0.000265
v 0.001709 0.000206 -0.000305
v 0.001859 0.000206 -0.000265
v 0.001968 0.000206 -0.000156
v 0.002009 0.000206 -0.000005
v 0.001968 0.000206 0.000145
v 0.001859 0.000206 0.000254
v 0.001709 0.000206 0.000294
v 0.001559 0.000206 0.000254
v 0.001449 0.000206 0.000145
v 0.001409 0.000006 -0.000005
v 0.001449 0.000006 0.000145
v 0.001559 0.000006 0.000254
v 0.001709 0.000006 0.000294
v 0.001859 0.000006 0.000254
v 0.001968 0.000006 0.000145
v 0.002009 0.000006 -0.000005
v 0.001968 0.000006 -0.000156
v 0.001859 0.000006 -0.000265
v 0.001709 0.000006 -0.000305
v 0.001559 0.000006 -0.000265
v 0.001449 0.000006 -0.000156
v -0.001991 -0.001794 -0.000005
v -0.001951 -0.001794 -0.000156
v -0.001841 -0.001794 -0.000265
v -0.001691 -0.001794 -0.000305
v -0.001541 -0.001794 -0.000265
v -0.001431 -0.001794 -0.000156
v -0.001391 -0.001794 -0.000005
v -0.001431 -0.001794 0.000145
v -0.001541 -0.001794 0.000254
v -0.001691 -0.001794 0.000294
v -0.001841 -0.001794 0.000254
v -0.001951 -0.001794 0.000145
v 0.001409 -0.001794 -0.000005
v 0.001449 -0.001794 -0.000156
v 0.001559 -0.001794 -0.000265
v 0.001709 -0.001794 -0.000305
v 0.001859 -0.001794 -0.000265
v 0.001968 -0.001794 -0.000156
v 0.002009 -0.001794 -0.000005
v 0.001968 -0.001794 0.000145
v 0.001859 -0.001794 0.000254
v 0.001709 -0.001794 0.000294
v 0.001559 -0.001794 0.000254
v 0.001449 -0.001794 0.000145
v -0.001491 -0.001794 -0.002005
v -0.001806 -0.001794 -0.001725
v -0.002068 -0.001794 -0.001396
v -0.002273 -0.001794 -0.001028
v -0.002412 -0.001794 -0.000631
v -0.002482 -0.001794 -0.000216
v -0.002482 -0.001794 0.000205
v -0.002412 -0.001794 0.000620
v -0.002273 -0.001794 0.001017
v -0.002068 -0.001794 0.001385
v -0.001806 -0.001794 0.001714
v -0.001491 -0.001794 0.001994
v -0.001491 0.000006 0.001994
v -0.001806 0.000006 0.001714
v -0.002068 0.000006 0.001385
v -0.002273 0.000006 0.001017
v -0.002412 0.000006 0.000620
v -0.002482 0.000006 0.000205
v -0.002482 0.000006 -0.000216
v -0.002412 0.000006 -0.000631
v -0.002273 0.000006 -0.001028
v -0.002068 0.000006 -0.001396
v -0.001806 0.000006 -0.001725
v -0.001491 0.000006 -0.002005
v 0.001509 -0.001794 -0.002005
v 0.001509 0.000006 -0.002005
v 0.001509 -0.001794 0.001994
v 0.001823 -0.001794 0.001714
v 0.002086 -0.001794 0.001385
v 0.002290 -0.001794 0.001017
v 0.002429 -0.001794 0.000620
v 0.002500 -0.001794 0.000205
v 0.002500 -0.001794 -0.000216
v 0.002429 -0.001794 -0.000631
v 0.002290 -0.001794 -0.001028
v 0.002086 -0.001794 -0.001396
v 0.001823 -0.001794 -0.001725
v 0.001823 0.000006 -0.001725
v 0.002086 0.000006 -0.001396
v 0.002290 0.000006 -0.001028
v 0.002429 0.000006 -0.000631
v 0.002500 0.000006 -0.000216
v 0.002500 0.000006 0.000205
v 0.002429 0.000006 0.000620
v 0.002290 0.000006 0.001017
v 0.002086 0.000006 0.001385
v 0.001823 0.000006 0.001714
v 0.001509 0.000006 0.001994
vn -0.8661 -0.0000 -0.5000
vn -0.8661 -0.0000 -0.4999
vn -1.0000 -0.0000 -0.0000
vn -0.8661 -0.0000 0.4999
vn -0.8661 -0.0000 0.5000
vn -0.4998 -0.0000 0.8661
vn -0.5000 -0.0000 0.8660
vn -0.0000 -0.0000 1.0000
vn 0.4999 -0.0000 0.8661
vn 0.8661 -0.0000 0.5000
vn 0.8661 -0.0000 0.4999
vn 1.0000 -0.0000 -0.0000
vn 0.8661 -0.0000 -0.4999
vn 0.8661 -0.0000 -0.5000
vn 0.4999 -0.0000 -0.8661
vn -0.0000 -0.0000 -1.0000
vn -0.4999 -0.0000 -0.8661
vn -0.4998 -0.0000 -0.8661
vn -0.0000 1.0000 -0.0000
vn -0.8659 -0.0000 -0.5002
vn -0.8659 -0.0000 0.5002
vn -0.5000 -0.0000 0.8661
vn 0.0001 -0.0000 1.0000
vn -0.0001 -0.0000 1.0000
vn 0.4995 -0.0000 0.8663
vn 0.4998 -0.0000 0.8662
vn 0.8660 -0.0000 0.5001
vn 0.8660 -0.0000 -0.5001
vn 0.0001 -0.0000 -1.0000
vn 0.0002 -0.0000 -1.0000
vn -0.5000 -0.0000 -0.8661
vn -0.6000 -0.0000 -0.8000
vn -0.7257 -0.0000 -0.6880
vn -0.8309 -0.0000 -0.5564
vn -0.9124 -0.0000 -0.4093
vn -0.9682 -0.0000 -0.2501
vn -0.9965 -0.0000 -0.0841
vn -0.9965 -0.0000 0.0841
vn -0.9682 -0.0000 0.2501
vn -0.9124 -0.0000 0.4093
vn -0.8309 -0.0000 0.5564
vn -0.7257 -0.0000 0.6880
vn -0.6000 -0.0000 0.8000
vn 0.6000 -0.0000 0.8000
vn 0.7257 -0.0000 0.6880
vn 0.8309 -0.0000 0.5564
vn 0.9124 -0.0000 0.4093
vn 0.9682 -0.0000 0.2503
vn 0.9965 -0.0000 0.0841
vn 0.9965 -0.0000 -0.0841
vn 0.9682 -0.0000 -0.2503
vn 0.9124 -0.0000 -0.4093
vn 0.8309 -0.0000 -0.5564
vn 0.7257 -0.0000 -0.6880
vn 0.6000 -0.0000 -0.8000
vn -0.0000 -1.0000 -0.0000
vt 0.685469 0.154746
vt 0.665938 0.154746
vt 0.685469 0.139121
vt 0.665938 0.139121
vt 0.685469 0.326621
vt 0.665938 0.326621
vt 0.685469 0.310996
vt 0.665938 0.310996
vt 0.685469 0.295371
vt 0.665938 0.295371
vt 0.685469 0.279746
vt 0.665938 0.279746
vt 0.685469 0.264121
vt 0.665938 0.264121
vt 0.685469 0.248496
vt 0.665938 0.248496
vt 0.685469 0.232871
vt 0.665938 0.232871
vt 0.685469 0.217246
vt 0.665938 0.217246
vt 0.685469 0.201621
vt 0.665938 0.201621
vt 0.685469 0.185996
vt 0.665938 0.185996
vt 0.685469 0.170371
vt 0.665938 0.170371
vt 0.632615 0.491521
vt 0.687302 0.491521
vt 0.628709 0.507146
vt 0.691209 0.507146
vt 0.632615 0.522771
vt 0.687302 0.522771
vt 0.644334 0.534490
vt 0.675584 0.534490
vt 0.659959 0.538396
vt 0.675584 0.479802
vt 0.644334 0.479802
vt 0.659959 0.475896
vt 0.750056 0.017366
vt 0.969836 0.017366
vt 0.750056 0.069922
vt 0.969836 0.069922
vt 0.969836 0.122478
vt 0.750056 0.122478
vt 0.969836 0.170257
vt 0.750056 0.170257
vt 0.969836 0.222813
vt 0.750056 0.222813
vt 0.969836 0.275369
vt 0.750056 0.275369
vt 0.969836 0.327925
vt 0.750056 0.327925
vt 0.969836 0.380481
vt 0.750056 0.380481
vt 0.969836 0.428259
vt 0.750056 0.428259
vt 0.969836 0.480815
vt 0.750056 0.480815
vt 0.969836 0.533371
vt 0.750056 0.533371
vt 0.750056 0.585927
vt 0.969836 0.585927
vt 0.970078 0.606731
vt 0.970078 0.974624
vt 0.750298 0.606731
vt 0.750298 0.974624
vt 0.096115 0.767715
vt 0.032000 0.772295
vt 0.091536 0.749397
vt 0.032000 0.726498
vt 0.096115 0.731078
vt 0.041160 0.676122
vt 0.109854 0.717339
vt 0.123593 0.712760
vt 0.059478 0.630326
vt 0.082376 0.584530
vt 0.041160 0.822671
vt 0.109854 0.781454
vt 0.123593 0.786034
vt 0.141912 0.781454
vt 0.082376 0.914264
vt 0.059478 0.868467
vt 0.155651 0.767715
vt 0.151071 0.982958
vt 0.114434 0.950901
vt 0.160230 0.749397
vt 0.489964 0.749397
vt 0.494544 0.767715
vt 0.499124 0.982958
vt 0.508283 0.781454
vt 0.535761 0.950901
vt 0.567818 0.914264
vt 0.526602 0.786034
vt 0.590717 0.868467
vt 0.609035 0.822671
vt 0.540340 0.781454
vt 0.554079 0.767715
vt 0.494544 0.731078
vt 0.155651 0.731078
vt 0.499124 0.515835
vt 0.151071 0.515835
vt 0.141912 0.717339
vt 0.114434 0.547893
vt 0.618194 0.772295
vt 0.558659 0.749397
vt 0.618194 0.726498
vt 0.554079 0.731078
vt 0.609035 0.676122
vt 0.540340 0.717339
vt 0.526602 0.712760
vt 0.508283 0.717339
vt 0.567818 0.584530
vt 0.590717 0.630326
vt 0.535761 0.547893
vt 0.554500 0.233075
vt 0.618615 0.228496
vt 0.559080 0.251394
vt 0.618615 0.274292
vt 0.554500 0.269712
vt 0.609456 0.324668
vt 0.540761 0.283451
vt 0.527022 0.288031
vt 0.591137 0.370465
vt 0.568239 0.416261
vt 0.609456 0.178120
vt 0.540761 0.219336
vt 0.527022 0.214757
vt 0.508704 0.219336
vt 0.568239 0.086527
vt 0.591137 0.132323
vt 0.494965 0.233075
vt 0.499544 0.017832
vt 0.536182 0.049890
vt 0.490385 0.251394
vt 0.160651 0.251394
vt 0.156071 0.233075
vt 0.151492 0.017832
vt 0.142332 0.219336
vt 0.114855 0.049890
vt 0.082797 0.086527
vt 0.124014 0.214757
vt 0.059899 0.132323
vt 0.041580 0.178120
vt 0.110275 0.219336
vt 0.096536 0.233075
vt 0.156071 0.269712
vt 0.494965 0.269712
vt 0.151492 0.484955
vt 0.499544 0.484955
vt 0.508704 0.283451
vt 0.536182 0.452898
vt 0.032421 0.228496
vt 0.091956 0.251394
vt 0.032421 0.274292
vt 0.096536 0.269712
vt 0.041580 0.324668
vt 0.110275 0.283451
vt 0.124014 0.288031
vt 0.142332 0.283451
vt 0.082797 0.416261
vt 0.059899 0.370465
vt 0.114855 0.452898
s 1
usemtl Steel_-_Satin
f 2/1/1 24/2/2 1/3/3
f 1/3/3 24/2/2 13/4/3
f 1/5/3 13/6/3 12/7/4
f 12/7/4 13/6/3 14/8/5
f 12/7/4 14/8/5 11/9/6
f 11/9/6 14/8/5 15/10/7
f 11/9/6 15/10/7 10/11/8
f 10/11/8 15/10/7 16/12/8
f 10/11/8 16/12/8 9/13/9
f 9/13/9 16/12/8 17/14/9
f 9/13/9 17/14/9 8/15/10
f 8/15/10 17/14/9 18/16/11
f 8/15/10 18/16/11 7/17/12
f 7/17/12 18/16/11 19/18/12
f 7/17/12 19/18/12 6/19/13
f 6/19/13 19/18/12 20/20/14
f 6/19/13 20/20/14 5/21/15
f 5/21/15 20/20/14 21/22/15
f 5/21/15 21/22/15 4/23/16
f 4/23/16 21/22/15 22/24/16
f 4/23/16 22/24/16 3/25/17
f 3/25/17 22/24/16 23/26/18
f 3/25/17 23/26/18 2/1/1
f 2/1/1 23/26/18 24/2/2
f 12/27/19 8/28/19 1/29/19
f 1/29/19 8/28/19 7/30/19
f 1/29/19 7/30/19 2/31/19
f 2/31/19 7/30/19 6/32/19
f 2/31/19 6/32/19 3/33/19
f 3/33/19 6/32/19 5/34/19
f 3/33/19 5/34/19 4/35/19
f 8/28/19 12/27/19 9/36/19
f 9/36/19 12/27/19 11/37/19
f 9/36/19 11/37/19 10/38/19
f 26/1/20 48/2/20 25/3/3
f 25/3/3 48/2/20 37/4/3
f 25/5/3 37/6/3 36/7/21
f 36/7/21 37/6/3 38/8/21
f 36/7/21 38/8/21 35/9/22
f 35/9/22 38/8/21 39/10/7
f 35/9/22 39/10/7 34/11/23
f 34/11/23 39/10/7 40/12/24
f 34/11/23 40/12/24 33/13/25
f 33/13/25 40/12/24 41/14/26
f 33/13/25 41/14/26 32/15/27
f 32/15/27 41/14/26 42/16/27
f 32/15/27 42/16/27 31/17/12
f 31/17/12 42/16/27 43/18/12
f 31/17/12 43/18/12 30/19/28
f 30/19/28 43/18/12 44/20/28
f 30/19/28 44/20/28 29/21/15
f 29/21/15 44/20/28 45/22/15
f 29/21/15 45/22/15 28/23/29
f 28/23/29 45/22/15 46/24/30
f 28/23/29 46/24/30 27/25/17
f 27/25/17 46/24/30 47/26/31
f 27/25/17 47/26/31 26/1/20
f 26/1/20 47/26/31 48/2/20
f 36/27/19 32/28/19 25/29/19
f 25/29/19 32/28/19 31/30/19
f 25/29/19 31/30/19 26/31/19
f 26/31/19 31/30/19 30/32/19
f 26/31/19 30/32/19 27/33/19
f 27/33/19 30/32/19 29/34/19
f 27/33/19 29/34/19 28/35/19
f 32/28/19 36/27/19 33/36/19
f 33/36/19 36/27/19 35/37/19
f 33/36/19 35/37/19 34/38/19
f 96/39/32 73/40/32 95/41/33
f 95/41/33 73/40/32 74/42/33
f 95/41/33 74/42/33 75/43/34
f 95/41/33 75/43/34 94/44/34
f 94/44/34 75/43/34 76/45/35
f 94/44/34 76/45/35 93/46/35
f 93/46/35 76/45/35 77/47/36
f 93/46/35 77/47/36 92/48/36
f 92/48/36 77/47/36 78/49/37
f 92/48/36 78/49/37 91/50/37
f 91/50/37 78/49/37 79/51/38
f 91/50/37 79/51/38 90/52/38
f 90/52/38 79/51/38 80/53/39
f 90/52/38 80/53/39 89/54/39
f 89/54/39 80/53/39 81/55/40
f 89/54/39 81/55/40 88/56/40
f 88/56/40 81/55/40 82/57/41
f 88/56/40 82/57/41 87/58/41
f 87/58/41 82/57/41 83/59/42
f 87/58/41 83/59/42 86/60/42
f 86/60/42 83/59/42 85/61/43
f 85/61/43 83/59/42 84/62/43
f 97/63/16 73/64/16 98/65/16
f 98/65/16 73/64/16 96/66/16
f 120/39/44 99/40/44 119/41/45
f 119/41/45 99/40/44 100/42/45
f 119/41/45 100/42/45 101/43/46
f 119/41/45 101/43/46 118/44/46
f 118/44/46 101/43/46 102/45/47
f 118/44/46 102/45/47 117/46/47
f 117/46/47 102/45/47 103/47/48
f 117/46/47 103/47/48 116/48/48
f 116/48/48 103/47/48 104/49/49
f 116/48/48 104/49/49 115/50/49
f 115/50/49 104/49/49 105/51/50
f 115/50/49 105/51/50 114/52/50
f 114/52/50 105/51/50 106/53/51
f 114/52/50 106/53/51 113/54/51
f 113/54/51 106/53/51 107/55/52
f 113/54/51 107/55/52 112/56/52
f 112/56/52 107/55/52 108/57/53
f 112/56/52 108/57/53 111/58/53
f 111/58/53 108/57/53 109/59/54
f 111/58/53 109/59/54 110/60/54
f 110/60/54 109/59/54 98/61/55
f 98/61/55 109/59/54 97/62/55
f 84/63/8 99/64/8 85/65/8
f 85/65/8 99/64/8 120/66/8
f 24/67/19 91/68/19 13/69/19
f 13/69/19 91/68/19 90/70/19
f 13/69/19 90/70/19 14/71/19
f 14/71/19 90/70/19 89/72/19
f 14/71/19 89/72/19 15/73/19
f 15/73/19 89/72/19 16/74/19
f 16/74/19 89/72/19 88/75/19
f 16/74/19 88/75/19 87/76/19
f 91/68/19 24/67/19 92/77/19
f 92/77/19 24/67/19 23/78/19
f 92/77/19 23/78/19 22/79/19
f 21/80/19 94/81/19 22/79/19
f 22/79/19 94/81/19 93/82/19
f 22/79/19 93/82/19 92/77/19
f 20/83/19 96/84/19 21/80/19
f 21/80/19 96/84/19 95/85/19
f 21/80/19 95/85/19 94/81/19
f 19/86/19 37/87/19 20/83/19
f 20/83/19 37/87/19 48/88/19
f 20/83/19 48/88/19 96/84/19
f 96/84/19 48/88/19 98/89/19
f 98/89/19 48/88/19 47/90/19
f 98/89/19 47/90/19 110/91/19
f 110/91/19 47/90/19 111/92/19
f 111/92/19 47/90/19 46/93/19
f 111/92/19 46/93/19 112/94/19
f 112/94/19 46/93/19 113/95/19
f 113/95/19 46/93/19 45/96/19
f 113/95/19 45/96/19 44/97/19
f 37/87/19 19/86/19 38/98/19
f 38/98/19 19/86/19 18/99/19
f 38/98/19 18/99/19 120/100/19
f 120/100/19 18/99/19 85/101/19
f 85/101/19 18/99/19 17/102/19
f 85/101/19 17/102/19 86/103/19
f 86/103/19 17/102/19 87/76/19
f 87/76/19 17/102/19 16/74/19
f 113/95/19 44/97/19 114/104/19
f 114/104/19 44/97/19 43/105/19
f 114/104/19 43/105/19 115/106/19
f 115/106/19 43/105/19 42/107/19
f 115/106/19 42/107/19 116/108/19
f 116/108/19 42/107/19 41/109/19
f 116/108/19 41/109/19 40/110/19
f 39/111/19 118/112/19 40/110/19
f 40/110/19 118/112/19 117/113/19
f 40/110/19 117/113/19 116/108/19
f 38/98/19 120/100/19 39/111/19
f 39/111/19 120/100/19 119/114/19
f 39/111/19 119/114/19 118/112/19
f 60/115/56 79/116/56 49/117/56
f 49/117/56 79/116/56 78/118/56
f 49/117/56 78/118/56 50/119/56
f 50/119/56 78/118/56 77/120/56
f 50/119/56 77/120/56 51/121/56
f 51/121/56 77/120/56 52/122/56
f 52/122/56 77/120/56 76/123/56
f 52/122/56 76/123/56 75/124/56
f 79/116/56 60/115/56 80/125/56
f 80/125/56 60/115/56 59/126/56
f 80/125/56 59/126/56 58/127/56
f 57/128/56 82/129/56 58/127/56
f 58/127/56 82/129/56 81/130/56
f 58/127/56 81/130/56 80/125/56
f 56/131/56 84/132/56 57/128/56
f 57/128/56 84/132/56 83/133/56
f 57/128/56 83/133/56 82/129/56
f 55/134/56 61/135/56 56/131/56
f 56/131/56 61/135/56 72/136/56
f 56/131/56 72/136/56 84/132/56
f 84/132/56 72/136/56 99/137/56
f 99/137/56 72/136/56 71/138/56
f 99/137/56 71/138/56 100/139/56
f 100/139/56 71/138/56 101/140/56
f 101/140/56 71/138/56 70/141/56
f 101/140/56 70/141/56 102/142/56
f 102/142/56 70/141/56 103/143/56
f 103/143/56 70/141/56 69/144/56
f 103/143/56 69/144/56 68/145/56
f 61/135/56 55/134/56 62/146/56
f 62/146/56 55/134/56 54/147/56
f 62/146/56 54/147/56 97/148/56
f 97/148/56 54/147/56 73/149/56
f 73/149/56 54/147/56 53/150/56
f 73/149/56 53/150/56 74/151/56
f 74/151/56 53/150/56 75/124/56
f 75/124/56 53/150/56 52/122/56
f 103/143/56 68/145/56 104/152/56
f 104/152/56 68/145/56 67/153/56
f 104/152/56 67/153/56 105/154/56
f 105/154/56 67/153/56 66/155/56
f 105/154/56 66/155/56 106/156/56
f 106/156/56 66/155/56 65/157/56
f 106/156/56 65/157/56 64/158/56
f 63/159/56 108/160/56 64/158/56
f 64/158/56 108/160/56 107/161/56
f 64/158/56 107/161/56 106/156/56
f 62/146/56 97/148/56 63/159/56
f 63/159/56 97/148/56 109/162/56
f 63/159/56 109/162/56 108/160/56
