# Blender 4.4.1
# www.blender.org
mtllib switch_body.mtl
o switch_body
v 0.006541 0.000001 0.002750
v 0.006541 -0.005699 0.002750
v 0.006541 -0.005699 -0.002750
v 0.006541 0.000001 -0.002750
v -0.006543 0.000001 0.002750
v -0.006543 0.000001 -0.002750
v -0.006543 -0.005699 0.002750
v -0.006543 -0.005699 -0.002750
vn 1.0000 -0.0000 -0.0000
vn -0.0000 1.0000 -0.0000
vn -1.0000 -0.0000 -0.0000
vn -0.0000 -1.0000 -0.0000
vn -0.0000 -0.0000 1.0000
vn -0.0000 -0.0000 -1.0000
vt 0.750229 0.230078
vt 0.943873 0.230078
vt 0.750229 0.416928
vt 0.943873 0.416928
vt 0.294634 0.231475
vt 0.739125 0.231475
vt 0.294634 0.418324
vt 0.739125 0.418325
vt 0.094014 0.234070
vt 0.287658 0.234070
vt 0.094014 0.420920
vt 0.287658 0.420920
vt 0.740067 0.823137
vt 0.295575 0.823137
vt 0.740067 0.636288
vt 0.295575 0.636288
vt 0.296008 0.026424
vt 0.740499 0.026424
vt 0.296008 0.220069
vt 0.740499 0.220069
vt 0.296683 0.624041
vt 0.296683 0.430396
vt 0.741174 0.624040
vt 0.741174 0.430396
s 1
usemtl mat_switch_body
f 1/1/1 2/2/1 4/3/1
f 4/3/1 2/2/1 3/4/1
f 5/5/2 1/6/2 6/7/2
f 6/7/2 1/6/2 4/8/2
f 7/9/3 5/10/3 8/11/3
f 8/11/3 5/10/3 6/12/3
f 2/13/4 7/14/4 3/15/4
f 3/15/4 7/14/4 8/16/4
f 7/17/5 2/18/5 5/19/5
f 5/19/5 2/18/5 1/20/5
f 8/21/6 6/22/6 3/23/6
f 3/23/6 6/22/6 4/24/6
