# WaveFront *.obj file (generated by Autodesk ATF)

mtllib AxisStepMotor.mtl

g AxisStepMotor

v 11.966552 94.150731 0.000000
v 14.966552 94.150731 0.000000
v 14.966552 94.150731 20.000000
v 11.966552 94.150731 20.000000
v 15.268054 94.417355 0.000000
v 15.522863 94.728906 0.000000
v 15.724375 95.077309 0.000000
v 15.867368 95.453534 0.000000
v 15.948134 95.847829 0.000000
v 15.964581 96.249975 0.000000
v 15.916283 96.649548 0.000000
v 15.804490 97.036193 0.000000
v 15.632102 97.399888 0.000000
v 15.403585 97.731206 0.000000
v 15.124863 98.021561 0.000000
v 14.803159 98.263426 0.000000
v 14.446813 98.450533 0.000000
v 14.065059 98.578032 0.000000
v 13.667793 98.642618 0.000000
v 13.265311 98.642618 0.000000
v 12.868045 98.578032 0.000000
v 12.486291 98.450533 0.000000
v 12.129944 98.263426 0.000000
v 11.808241 98.021561 0.000000
v 11.529519 97.731206 0.000000
v 11.301002 97.399888 0.000000
v 11.128613 97.036193 0.000000
v 11.016821 96.649548 0.000000
v 10.968522 96.249975 0.000000
v 10.984970 95.847829 0.000000
v 11.065736 95.453534 0.000000
v 11.208729 95.077309 0.000000
v 11.410241 94.728906 0.000000
v 11.665050 94.417355 0.000000
v 11.665050 94.417355 20.000000
v 11.410241 94.728906 20.000000
v 11.208729 95.077309 20.000000
v 11.065736 95.453534 20.000000
v 10.984970 95.847829 20.000000
v 10.968522 96.249975 20.000000
v 11.016821 96.649548 20.000000
v 11.128613 97.036193 20.000000
v 11.301002 97.399888 20.000000
v 11.529519 97.731206 20.000000
v 11.808241 98.021561 20.000000
v 12.129944 98.263426 20.000000
v 12.486291 98.450533 20.000000
v 12.868045 98.578032 20.000000
v 13.265311 98.642618 20.000000
v 13.667793 98.642618 20.000000
v 14.065059 98.578032 20.000000
v 14.446813 98.450533 20.000000
v 14.803159 98.263426 20.000000
v 15.124863 98.021561 20.000000
v 15.403585 97.731206 20.000000
v 15.632102 97.399888 20.000000
v 15.804490 97.036193 20.000000
v 15.916283 96.649548 20.000000
v 15.964581 96.249975 20.000000
v 15.948134 95.847829 20.000000
v 15.867368 95.453534 20.000000
v 15.724375 95.077309 20.000000
v 15.522863 94.728906 20.000000
v 15.268054 94.417355 20.000000
v 15.268054 94.417355 6.666667
v 15.268054 94.417355 13.333333
v 15.522863 94.728906 6.666667
v 15.522863 94.728906 13.333333
v 15.724375 95.077309 6.666667
v 15.724375 95.077309 13.333333
v 15.867368 95.453534 6.666667
v 15.867368 95.453534 13.333333
v 15.948134 95.847829 6.666667
v 15.948134 95.847829 13.333333
v 15.964581 96.249975 6.666667
v 15.964581 96.249975 13.333333
v 15.916283 96.649548 6.666667
v 15.916283 96.649548 13.333333
v 15.804490 97.036193 6.666667
v 15.804490 97.036193 13.333333
v 15.632102 97.399888 6.666667
v 15.632102 97.399888 13.333333
v 15.403585 97.731206 6.666667
v 15.403585 97.731206 13.333333
v 15.124863 98.021561 6.666667
v 15.124863 98.021561 13.333333
v 14.803159 98.263426 6.666667
v 14.803159 98.263426 13.333333
v 14.446813 98.450533 6.666667
v 14.446813 98.450533 13.333333
v 14.065059 98.578032 6.666667
v 14.065059 98.578032 13.333333
v 13.667793 98.642618 6.666667
v 13.667793 98.642618 13.333333
v 13.265311 98.642618 6.666667
v 13.265311 98.642618 13.333333
v 12.868045 98.578032 6.666667
v 12.868045 98.578032 13.333333
v 12.486291 98.450533 6.666667
v 12.486291 98.450533 13.333333
v 12.129944 98.263426 6.666667
v 12.129944 98.263426 13.333333
v 11.808241 98.021561 6.666667
v 11.808241 98.021561 13.333333
v 11.529519 97.731206 6.666667
v 11.529519 97.731206 13.333333
v 11.301002 97.399888 6.666667
v 11.301002 97.399888 13.333333
v 11.128613 97.036193 6.666667
v 11.128613 97.036193 13.333333
v 11.016821 96.649548 6.666667
v 11.016821 96.649548 13.333333
v 10.968522 96.249975 6.666667
v 10.968522 96.249975 13.333333
v 10.984970 95.847829 6.666667
v 10.984970 95.847829 13.333333
v 11.065736 95.453534 6.666667
v 11.065736 95.453534 13.333333
v 11.208729 95.077309 6.666667
v 11.208729 95.077309 13.333333
v 11.410241 94.728906 6.666667
v 11.410241 94.728906 13.333333
v 11.665050 94.417355 6.666667
v 11.665050 94.417355 13.333333
vt 0.000000 0.000000 0.000000
vt 0.300000 0.000000 0.000000
vt 0.000000 2.000000 0.000000
vt 0.300000 2.000000 0.000000
vt -0.000000 -0.191532 0.000000
vt -0.666667 -0.191532 0.000000
vt -0.000000 -0.231824 0.000000
vt -1.333333 -0.191532 0.000000
vt -2.000000 -0.231824 0.000000
vt -2.000000 -0.191532 0.000000
vt -2.000000 -0.151240 0.000000
vt -1.333333 -0.151240 0.000000
vt -2.000000 -0.110948 0.000000
vt -1.333333 -0.110948 0.000000
vt -2.000000 -0.070657 0.000000
vt -1.333333 -0.070657 0.000000
vt -2.000000 -0.030365 0.000000
vt -1.333333 -0.030365 0.000000
vt -2.000000 0.009927 0.000000
vt -1.333333 0.009927 0.000000
vt -2.000000 0.050219 0.000000
vt -1.333333 0.050219 0.000000
vt -2.000000 0.090511 0.000000
vt -1.333333 0.090511 0.000000
vt -2.000000 0.130802 0.000000
vt -1.333333 0.130802 0.000000
vt -2.000000 0.171094 0.000000
vt -1.333333 0.171094 0.000000
vt -2.000000 0.211386 0.000000
vt -1.333333 0.211386 0.000000
vt -2.000000 0.251678 0.000000
vt -1.333333 0.251678 0.000000
vt -2.000000 0.291970 0.000000
vt -1.333333 0.291970 0.000000
vt -2.000000 0.332261 0.000000
vt -1.333333 0.332261 0.000000
vt -2.000000 0.372553 0.000000
vt -1.333333 0.372553 0.000000
vt -2.000000 0.412845 0.000000
vt -1.333333 0.412845 0.000000
vt -2.000000 0.453137 0.000000
vt -1.333333 0.453137 0.000000
vt -2.000000 0.493429 0.000000
vt -1.333333 0.493429 0.000000
vt -2.000000 0.533720 0.000000
vt -1.333333 0.533720 0.000000
vt -2.000000 0.574012 0.000000
vt -1.333333 0.574012 0.000000
vt -2.000000 0.614304 0.000000
vt -1.333333 0.614304 0.000000
vt -2.000000 0.654596 0.000000
vt -1.333333 0.654596 0.000000
vt -2.000000 0.694888 0.000000
vt -1.333333 0.694888 0.000000
vt -2.000000 0.735179 0.000000
vt -1.333333 0.735179 0.000000
vt -2.000000 0.775471 0.000000
vt -1.333333 0.775471 0.000000
vt -2.000000 0.815763 0.000000
vt -1.333333 0.815763 0.000000
vt -2.000000 0.856055 0.000000
vt -1.333333 0.856055 0.000000
vt -2.000000 0.896347 0.000000
vt -1.333333 0.896347 0.000000
vt -2.000000 0.936638 0.000000
vt -1.333333 0.936638 0.000000
vt -2.000000 0.976930 0.000000
vt -1.333333 0.976930 0.000000
vt -2.000000 1.017222 0.000000
vt -0.666667 0.976930 0.000000
vt -0.000000 1.017222 0.000000
vt -0.000000 0.976930 0.000000
vt -0.000000 0.936638 0.000000
vt -0.666667 0.936638 0.000000
vt -0.000000 0.896347 0.000000
vt -0.666667 0.896347 0.000000
vt -0.000000 0.856055 0.000000
vt -0.666667 0.856055 0.000000
vt -0.000000 0.815763 0.000000
vt -0.666667 0.815763 0.000000
vt -0.000000 0.775471 0.000000
vt -0.666667 0.775471 0.000000
vt -0.000000 0.735179 0.000000
vt -0.666667 0.735179 0.000000
vt -0.000000 0.694888 0.000000
vt -0.666667 0.694888 0.000000
vt -0.000000 0.654596 0.000000
vt -0.666667 0.654596 0.000000
vt -0.000000 0.614304 0.000000
vt -0.666667 0.614304 0.000000
vt -0.000000 0.574012 0.000000
vt -0.666667 0.574012 0.000000
vt -0.000000 0.533720 0.000000
vt -0.666667 0.533720 0.000000
vt -0.000000 0.493429 0.000000
vt -0.666667 0.493429 0.000000
vt -0.000000 0.453137 0.000000
vt -0.666667 0.453137 0.000000
vt -0.000000 0.412845 0.000000
vt -0.666667 0.412845 0.000000
vt -0.000000 0.372553 0.000000
vt -0.666667 0.372553 0.000000
vt -0.000000 0.332261 0.000000
vt -0.666667 0.332261 0.000000
vt -0.000000 0.291970 0.000000
vt -0.666667 0.291970 0.000000
vt -0.000000 0.251678 0.000000
vt -0.666667 0.251678 0.000000
vt -0.000000 0.211386 0.000000
vt -0.666667 0.211386 0.000000
vt -0.000000 0.171094 0.000000
vt -0.666667 0.171094 0.000000
vt -0.000000 0.130802 0.000000
vt -0.666667 0.130802 0.000000
vt -0.000000 0.090511 0.000000
vt -0.666667 0.090511 0.000000
vt -0.000000 0.050219 0.000000
vt -0.666667 0.050219 0.000000
vt -0.000000 0.009927 0.000000
vt -0.666667 0.009927 0.000000
vt -0.000000 -0.030365 0.000000
vt -0.666667 -0.030365 0.000000
vt -0.000000 -0.070657 0.000000
vt -0.666667 -0.070657 0.000000
vt -0.000000 -0.110948 0.000000
vt -0.666667 -0.110948 0.000000
vt -0.000000 -0.151240 0.000000
vt -0.666667 -0.151240 0.000000
vt -0.150000 -0.225000 0.000000
vt 0.150000 -0.225000 0.000000
vt -0.180150 -0.198338 0.000000
vt 0.180150 -0.198338 0.000000
vt -0.205631 -0.167182 0.000000
vt 0.205631 -0.167182 0.000000
vt -0.225782 -0.132342 0.000000
vt 0.225782 -0.132342 0.000000
vt -0.240082 -0.094720 0.000000
vt 0.240082 -0.094720 0.000000
vt -0.248158 -0.055290 0.000000
vt 0.248158 -0.055290 0.000000
vt -0.249803 -0.015076 0.000000
vt 0.249803 -0.015076 0.000000
vt -0.244973 0.024882 0.000000
vt 0.244973 0.024882 0.000000
vt -0.233794 0.063546 0.000000
vt 0.233794 0.063546 0.000000
vt -0.216555 0.099916 0.000000
vt 0.216555 0.099916 0.000000
vt -0.193703 0.133048 0.000000
vt 0.193703 0.133048 0.000000
vt -0.165831 0.162083 0.000000
vt 0.165831 0.162083 0.000000
vt -0.133661 0.186270 0.000000
vt 0.133661 0.186270 0.000000
vt -0.098026 0.204980 0.000000
vt 0.098026 0.204980 0.000000
vt -0.059851 0.217730 0.000000
vt 0.059851 0.217730 0.000000
vt -0.020124 0.224189 0.000000
vt 0.020124 0.224189 0.000000
vt -0.150000 -0.225000 0.000000
vt 0.150000 -0.225000 0.000000
vt -0.180150 -0.198338 0.000000
vt 0.180150 -0.198338 0.000000
vt -0.205631 -0.167182 0.000000
vt 0.205631 -0.167182 0.000000
vt -0.225782 -0.132342 0.000000
vt 0.225782 -0.132342 0.000000
vt -0.240082 -0.094720 0.000000
vt 0.240082 -0.094720 0.000000
vt -0.248158 -0.055290 0.000000
vt 0.248158 -0.055290 0.000000
vt -0.249803 -0.015076 0.000000
vt 0.249803 -0.015076 0.000000
vt -0.244973 0.024882 0.000000
vt 0.244973 0.024882 0.000000
vt -0.233794 0.063546 0.000000
vt 0.233794 0.063546 0.000000
vt -0.216555 0.099916 0.000000
vt 0.216555 0.099916 0.000000
vt -0.193703 0.133048 0.000000
vt 0.193703 0.133048 0.000000
vt -0.165831 0.162083 0.000000
vt 0.165831 0.162083 0.000000
vt -0.133661 0.186270 0.000000
vt 0.133661 0.186270 0.000000
vt -0.098026 0.204980 0.000000
vt 0.098026 0.204980 0.000000
vt -0.059851 0.217730 0.000000
vt 0.059851 0.217730 0.000000
vt -0.020124 0.224189 0.000000
vt 0.020124 0.224189 0.000000
vn 0.000000 -0.100000 0.000000
vn 0.000000 -0.100000 0.000000
vn 0.000000 -0.100000 0.000000
vn 0.000000 -0.100000 0.000000
vn 0.072060 -0.069335 0.000000
vn 0.072060 -0.069335 0.000000
vn 0.060000 -0.080000 0.000000
vn 0.072060 -0.069335 0.000000
vn 0.060000 -0.080000 0.000000
vn 0.072060 -0.069335 0.000000
vn 0.082252 -0.056873 0.000000
vn 0.082252 -0.056873 0.000000
vn 0.090313 -0.042937 0.000000
vn 0.090313 -0.042937 0.000000
vn 0.096033 -0.027888 0.000000
vn 0.096033 -0.027888 0.000000
vn 0.099263 -0.012116 0.000000
vn 0.099263 -0.012116 0.000000
vn 0.099921 0.003970 0.000000
vn 0.099921 0.003970 0.000000
vn 0.097989 0.019953 0.000000
vn 0.097989 0.019953 0.000000
vn 0.093518 0.035418 0.000000
vn 0.093518 0.035418 0.000000
vn 0.086622 0.049966 0.000000
vn 0.086622 0.049966 0.000000
vn 0.077481 0.063219 0.000000
vn 0.077481 0.063219 0.000000
vn 0.066332 0.074833 0.000000
vn 0.066332 0.074833 0.000000
vn 0.053464 0.084508 0.000000
vn 0.053464 0.084508 0.000000
vn 0.039210 0.091992 0.000000
vn 0.039210 0.091992 0.000000
vn 0.023940 0.097092 0.000000
vn 0.023940 0.097092 0.000000
vn 0.008050 0.099675 0.000000
vn 0.008050 0.099675 0.000000
vn -0.008050 0.099675 -0.000000
vn -0.008050 0.099675 -0.000000
vn -0.023940 0.097092 -0.000000
vn -0.023940 0.097092 -0.000000
vn -0.039210 0.091992 -0.000000
vn -0.039210 0.091992 -0.000000
vn -0.053464 0.084508 -0.000000
vn -0.053464 0.084508 -0.000000
vn -0.066332 0.074833 -0.000000
vn -0.066332 0.074833 -0.000000
vn -0.077481 0.063219 -0.000000
vn -0.077481 0.063219 -0.000000
vn -0.086622 0.049966 -0.000000
vn -0.086622 0.049966 -0.000000
vn -0.093518 0.035418 -0.000000
vn -0.093518 0.035418 -0.000000
vn -0.097989 0.019953 -0.000000
vn -0.097989 0.019953 -0.000000
vn -0.099921 0.003970 -0.000000
vn -0.099921 0.003970 -0.000000
vn -0.099263 -0.012116 0.000000
vn -0.099263 -0.012116 0.000000
vn -0.096033 -0.027888 0.000000
vn -0.096033 -0.027888 0.000000
vn -0.090313 -0.042937 0.000000
vn -0.090313 -0.042937 0.000000
vn -0.082252 -0.056873 0.000000
vn -0.082252 -0.056873 0.000000
vn -0.072060 -0.069335 0.000000
vn -0.072060 -0.069335 0.000000
vn -0.060000 -0.080000 0.000000
vn -0.072060 -0.069335 0.000000
vn -0.060000 -0.080000 0.000000
vn -0.072060 -0.069335 0.000000
vn -0.082252 -0.056873 0.000000
vn -0.082252 -0.056873 0.000000
vn -0.090313 -0.042937 0.000000
vn -0.090313 -0.042937 0.000000
vn -0.096033 -0.027888 0.000000
vn -0.096033 -0.027888 0.000000
vn -0.099263 -0.012116 0.000000
vn -0.099263 -0.012116 0.000000
vn -0.099921 0.003970 -0.000000
vn -0.099921 0.003970 -0.000000
vn -0.097989 0.019953 -0.000000
vn -0.097989 0.019953 -0.000000
vn -0.093518 0.035418 -0.000000
vn -0.093518 0.035418 -0.000000
vn -0.086622 0.049966 -0.000000
vn -0.086622 0.049966 -0.000000
vn -0.077481 0.063219 -0.000000
vn -0.077481 0.063219 -0.000000
vn -0.066332 0.074833 -0.000000
vn -0.066332 0.074833 -0.000000
vn -0.053464 0.084508 -0.000000
vn -0.053464 0.084508 -0.000000
vn -0.039210 0.091992 -0.000000
vn -0.039210 0.091992 -0.000000
vn -0.023940 0.097092 -0.000000
vn -0.023940 0.097092 -0.000000
vn -0.008050 0.099675 -0.000000
vn -0.008050 0.099675 -0.000000
vn 0.008050 0.099675 0.000000
vn 0.008050 0.099675 0.000000
vn 0.023940 0.097092 0.000000
vn 0.023940 0.097092 0.000000
vn 0.039210 0.091992 0.000000
vn 0.039210 0.091992 0.000000
vn 0.053464 0.084508 0.000000
vn 0.053464 0.084508 0.000000
vn 0.066332 0.074833 0.000000
vn 0.066332 0.074833 0.000000
vn 0.077481 0.063219 0.000000
vn 0.077481 0.063219 0.000000
vn 0.086622 0.049966 0.000000
vn 0.086622 0.049966 0.000000
vn 0.093518 0.035418 0.000000
vn 0.093518 0.035418 0.000000
vn 0.097989 0.019953 0.000000
vn 0.097989 0.019953 0.000000
vn 0.099921 0.003970 0.000000
vn 0.099921 0.003970 0.000000
vn 0.099263 -0.012116 0.000000
vn 0.099263 -0.012116 0.000000
vn 0.096033 -0.027888 0.000000
vn 0.096033 -0.027888 0.000000
vn 0.090313 -0.042937 0.000000
vn 0.090313 -0.042937 0.000000
vn 0.082252 -0.056873 0.000000
vn 0.082252 -0.056873 0.000000
vn 0.000000 0.000000 0.100000
vn 0.000000 0.000000 0.100000
vn 0.000000 0.000000 0.100000
vn 0.000000 0.000000 0.100000
vn 0.000000 0.000000 0.100000
vn 0.000000 0.000000 0.100000
vn 0.000000 0.000000 0.100000
vn 0.000000 0.000000 0.100000
vn 0.000000 0.000000 0.100000
vn 0.000000 0.000000 0.100000
vn 0.000000 0.000000 0.100000
vn 0.000000 0.000000 0.100000
vn 0.000000 0.000000 0.100000
vn 0.000000 0.000000 0.100000
vn 0.000000 0.000000 0.100000
vn 0.000000 0.000000 0.100000
vn 0.000000 0.000000 0.100000
vn 0.000000 0.000000 0.100000
vn 0.000000 0.000000 0.100000
vn 0.000000 0.000000 0.100000
vn 0.000000 0.000000 0.100000
vn 0.000000 0.000000 0.100000
vn 0.000000 0.000000 0.100000
vn 0.000000 0.000000 0.100000
vn 0.000000 0.000000 0.100000
vn 0.000000 0.000000 0.100000
vn 0.000000 0.000000 0.100000
vn 0.000000 0.000000 0.100000
vn 0.000000 0.000000 0.100000
vn 0.000000 0.000000 0.100000
vn 0.000000 0.000000 0.100000
vn 0.000000 0.000000 0.100000
vn 0.000000 0.000000 -0.100000
vn 0.000000 0.000000 -0.100000
vn 0.000000 0.000000 -0.100000
vn 0.000000 0.000000 -0.100000
vn 0.000000 0.000000 -0.100000
vn 0.000000 0.000000 -0.100000
vn 0.000000 0.000000 -0.100000
vn 0.000000 0.000000 -0.100000
vn 0.000000 0.000000 -0.100000
vn 0.000000 0.000000 -0.100000
vn 0.000000 0.000000 -0.100000
vn 0.000000 0.000000 -0.100000
vn 0.000000 0.000000 -0.100000
vn 0.000000 0.000000 -0.100000
vn 0.000000 0.000000 -0.100000
vn 0.000000 0.000000 -0.100000
vn 0.000000 0.000000 -0.100000
vn 0.000000 0.000000 -0.100000
vn 0.000000 0.000000 -0.100000
vn 0.000000 0.000000 -0.100000
vn 0.000000 0.000000 -0.100000
vn 0.000000 0.000000 -0.100000
vn 0.000000 0.000000 -0.100000
vn 0.000000 0.000000 -0.100000
vn 0.000000 0.000000 -0.100000
vn 0.000000 0.000000 -0.100000
vn 0.000000 0.000000 -0.100000
vn 0.000000 0.000000 -0.100000
vn 0.000000 0.000000 -0.100000
vn 0.000000 0.000000 -0.100000
vn 0.000000 0.000000 -0.100000
vn 0.000000 0.000000 -0.100000
usemtl Steel_-_Satin
f 1/1/1 2/2/2 4/3/3
f 4/3/3 2/2/2 3/4/4
f 5/5/5 65/6/6 2/7/7
f 2/7/7 65/6/6 66/8/8
f 2/7/7 66/8/8 3/9/9
f 3/9/9 66/8/8 64/10/10
f 64/10/10 66/8/8 63/11/11
f 63/11/11 66/8/8 68/12/12
f 63/11/11 68/12/12 62/13/13
f 62/13/13 68/12/12 70/14/14
f 62/13/13 70/14/14 61/15/15
f 61/15/15 70/14/14 72/16/16
f 61/15/15 72/16/16 60/17/17
f 60/17/17 72/16/16 74/18/18
f 60/17/17 74/18/18 59/19/19
f 59/19/19 74/18/18 76/20/20
f 59/19/19 76/20/20 58/21/21
f 58/21/21 76/20/20 78/22/22
f 58/21/21 78/22/22 57/23/23
f 57/23/23 78/22/22 80/24/24
f 57/23/23 80/24/24 56/25/25
f 56/25/25 80/24/24 82/26/26
f 56/25/25 82/26/26 55/27/27
f 55/27/27 82/26/26 84/28/28
f 55/27/27 84/28/28 54/29/29
f 54/29/29 84/28/28 86/30/30
f 54/29/29 86/30/30 53/31/31
f 53/31/31 86/30/30 88/32/32
f 53/31/31 88/32/32 52/33/33
f 52/33/33 88/32/32 90/34/34
f 52/33/33 90/34/34 51/35/35
f 51/35/35 90/34/34 92/36/36
f 51/35/35 92/36/36 50/37/37
f 50/37/37 92/36/36 94/38/38
f 50/37/37 94/38/38 49/39/39
f 49/39/39 94/38/38 96/40/40
f 49/39/39 96/40/40 48/41/41
f 48/41/41 96/40/40 98/42/42
f 48/41/41 98/42/42 47/43/43
f 47/43/43 98/42/42 100/44/44
f 47/43/43 100/44/44 46/45/45
f 46/45/45 100/44/44 102/46/46
f 46/45/45 102/46/46 45/47/47
f 45/47/47 102/46/46 104/48/48
f 45/47/47 104/48/48 44/49/49
f 44/49/49 104/48/48 106/50/50
f 44/49/49 106/50/50 43/51/51
f 43/51/51 106/50/50 108/52/52
f 43/51/51 108/52/52 42/53/53
f 42/53/53 108/52/52 110/54/54
f 42/53/53 110/54/54 41/55/55
f 41/55/55 110/54/54 112/56/56
f 41/55/55 112/56/56 40/57/57
f 40/57/57 112/56/56 114/58/58
f 40/57/57 114/58/58 39/59/59
f 39/59/59 114/58/58 116/60/60
f 39/59/59 116/60/60 38/61/61
f 38/61/61 116/60/60 118/62/62
f 38/61/61 118/62/62 37/63/63
f 37/63/63 118/62/62 120/64/64
f 37/63/63 120/64/64 36/65/65
f 36/65/65 120/64/64 122/66/66
f 36/65/65 122/66/66 35/67/67
f 35/67/67 122/66/66 124/68/68
f 35/67/67 124/68/68 4/69/69
f 4/69/69 124/68/68 123/70/70
f 4/69/69 123/70/70 1/71/71
f 1/71/71 123/70/70 34/72/72
f 34/72/72 123/70/70 33/73/73
f 33/73/73 123/70/70 121/74/74
f 33/73/73 121/74/74 32/75/75
f 32/75/75 121/74/74 119/76/76
f 32/75/75 119/76/76 31/77/77
f 31/77/77 119/76/76 117/78/78
f 31/77/77 117/78/78 30/79/79
f 30/79/79 117/78/78 115/80/80
f 30/79/79 115/80/80 29/81/81
f 29/81/81 115/80/80 113/82/82
f 29/81/81 113/82/82 28/83/83
f 28/83/83 113/82/82 111/84/84
f 28/83/83 111/84/84 27/85/85
f 27/85/85 111/84/84 109/86/86
f 27/85/85 109/86/86 26/87/87
f 26/87/87 109/86/86 107/88/88
f 26/87/87 107/88/88 25/89/89
f 25/89/89 107/88/88 105/90/90
f 25/89/89 105/90/90 24/91/91
f 24/91/91 105/90/90 103/92/92
f 24/91/91 103/92/92 23/93/93
f 23/93/93 103/92/92 101/94/94
f 23/93/93 101/94/94 22/95/95
f 22/95/95 101/94/94 99/96/96
f 22/95/95 99/96/96 21/97/97
f 21/97/97 99/96/96 97/98/98
f 21/97/97 97/98/98 20/99/99
f 20/99/99 97/98/98 95/100/100
f 20/99/99 95/100/100 19/101/101
f 19/101/101 95/100/100 93/102/102
f 19/101/101 93/102/102 18/103/103
f 18/103/103 93/102/102 91/104/104
f 18/103/103 91/104/104 17/105/105
f 17/105/105 91/104/104 89/106/106
f 17/105/105 89/106/106 16/107/107
f 16/107/107 89/106/106 87/108/108
f 16/107/107 87/108/108 15/109/109
f 15/109/109 87/108/108 85/110/110
f 15/109/109 85/110/110 14/111/111
f 14/111/111 85/110/110 83/112/112
f 14/111/111 83/112/112 13/113/113
f 13/113/113 83/112/112 81/114/114
f 13/113/113 81/114/114 12/115/115
f 12/115/115 81/114/114 79/116/116
f 12/115/115 79/116/116 11/117/117
f 11/117/117 79/116/116 77/118/118
f 11/117/117 77/118/118 10/119/119
f 10/119/119 77/118/118 75/120/120
f 10/119/119 75/120/120 9/121/121
f 9/121/121 75/120/120 73/122/122
f 9/121/121 73/122/122 8/123/123
f 8/123/123 73/122/122 71/124/124
f 8/123/123 71/124/124 7/125/125
f 7/125/125 71/124/124 69/126/126
f 7/125/125 69/126/126 6/127/127
f 6/127/127 69/126/126 67/128/128
f 6/127/127 67/128/128 5/5/5
f 5/5/5 67/128/128 65/6/6
f 68/12/12 66/8/8 65/6/6
f 68/12/12 65/6/6 67/128/128
f 70/14/14 68/12/12 67/128/128
f 70/14/14 67/128/128 69/126/126
f 72/16/16 70/14/14 69/126/126
f 72/16/16 69/126/126 71/124/124
f 74/18/18 72/16/16 71/124/124
f 74/18/18 71/124/124 73/122/122
f 76/20/20 74/18/18 73/122/122
f 76/20/20 73/122/122 75/120/120
f 78/22/22 76/20/20 75/120/120
f 78/22/22 75/120/120 77/118/118
f 80/24/24 78/22/22 77/118/118
f 80/24/24 77/118/118 79/116/116
f 82/26/26 80/24/24 79/116/116
f 82/26/26 79/116/116 81/114/114
f 84/28/28 82/26/26 81/114/114
f 84/28/28 81/114/114 83/112/112
f 86/30/30 84/28/28 83/112/112
f 86/30/30 83/112/112 85/110/110
f 88/32/32 86/30/30 85/110/110
f 88/32/32 85/110/110 87/108/108
f 90/34/34 88/32/32 87/108/108
f 90/34/34 87/108/108 89/106/106
f 92/36/36 90/34/34 89/106/106
f 92/36/36 89/106/106 91/104/104
f 94/38/38 92/36/36 91/104/104
f 94/38/38 91/104/104 93/102/102
f 96/40/40 94/38/38 93/102/102
f 96/40/40 93/102/102 95/100/100
f 98/42/42 96/40/40 95/100/100
f 98/42/42 95/100/100 97/98/98
f 100/44/44 98/42/42 97/98/98
f 100/44/44 97/98/98 99/96/96
f 102/46/46 100/44/44 99/96/96
f 102/46/46 99/96/96 101/94/94
f 104/48/48 102/46/46 101/94/94
f 104/48/48 101/94/94 103/92/92
f 106/50/50 104/48/48 103/92/92
f 106/50/50 103/92/92 105/90/90
f 108/52/52 106/50/50 105/90/90
f 108/52/52 105/90/90 107/88/88
f 110/54/54 108/52/52 107/88/88
f 110/54/54 107/88/88 109/86/86
f 112/56/56 110/54/54 109/86/86
f 112/56/56 109/86/86 111/84/84
f 114/58/58 112/56/56 111/84/84
f 114/58/58 111/84/84 113/82/82
f 116/60/60 114/58/58 113/82/82
f 116/60/60 113/82/82 115/80/80
f 118/62/62 116/60/60 115/80/80
f 118/62/62 115/80/80 117/78/78
f 120/64/64 118/62/62 117/78/78
f 120/64/64 117/78/78 119/76/76
f 122/66/66 120/64/64 119/76/76
f 122/66/66 119/76/76 121/74/74
f 124/68/68 122/66/66 121/74/74
f 124/68/68 121/74/74 123/70/70
f 4/129/129 3/130/130 35/131/131
f 35/131/131 3/130/130 64/132/132
f 35/131/131 64/132/132 36/133/133
f 36/133/133 64/132/132 63/134/134
f 36/133/133 63/134/134 37/135/135
f 37/135/135 63/134/134 62/136/136
f 37/135/135 62/136/136 38/137/137
f 38/137/137 62/136/136 61/138/138
f 38/137/137 61/138/138 39/139/139
f 39/139/139 61/138/138 60/140/140
f 39/139/139 60/140/140 40/141/141
f 40/141/141 60/140/140 59/142/142
f 40/141/141 59/142/142 41/143/143
f 41/143/143 59/142/142 58/144/144
f 41/143/143 58/144/144 42/145/145
f 42/145/145 58/144/144 57/146/146
f 42/145/145 57/146/146 43/147/147
f 43/147/147 57/146/146 56/148/148
f 43/147/147 56/148/148 44/149/149
f 44/149/149 56/148/148 55/150/150
f 44/149/149 55/150/150 45/151/151
f 45/151/151 55/150/150 54/152/152
f 45/151/151 54/152/152 46/153/153
f 46/153/153 54/152/152 53/154/154
f 46/153/153 53/154/154 47/155/155
f 47/155/155 53/154/154 52/156/156
f 47/155/155 52/156/156 48/157/157
f 48/157/157 52/156/156 51/158/158
f 48/157/157 51/158/158 49/159/159
f 49/159/159 51/158/158 50/160/160
f 2/161/161 1/162/162 5/163/163
f 5/163/163 1/162/162 34/164/164
f 5/163/163 34/164/164 6/165/165
f 6/165/165 34/164/164 33/166/166
f 6/165/165 33/166/166 7/167/167
f 7/167/167 33/166/166 32/168/168
f 7/167/167 32/168/168 8/169/169
f 8/169/169 32/168/168 31/170/170
f 8/169/169 31/170/170 9/171/171
f 9/171/171 31/170/170 30/172/172
f 9/171/171 30/172/172 10/173/173
f 10/173/173 30/172/172 29/174/174
f 10/173/173 29/174/174 11/175/175
f 11/175/175 29/174/174 28/176/176
f 11/175/175 28/176/176 12/177/177
f 12/177/177 28/176/176 27/178/178
f 12/177/177 27/178/178 13/179/179
f 13/179/179 27/178/178 26/180/180
f 13/179/179 26/180/180 14/181/181
f 14/181/181 26/180/180 25/182/182
f 14/181/181 25/182/182 15/183/183
f 15/183/183 25/182/182 24/184/184
f 15/183/183 24/184/184 16/185/185
f 16/185/185 24/184/184 23/186/186
f 16/185/185 23/186/186 17/187/187
f 17/187/187 23/186/186 22/188/188
f 17/187/187 22/188/188 18/189/189
f 18/189/189 22/188/188 21/190/190
f 18/189/189 21/190/190 19/191/191
f 19/191/191 21/190/190 20/192/192
# 124 vertices
# 192 texture params
# 192 normals
# 244 facets

# 1 groups
