# WaveFront *.obj file (generated by Autodesk ATF)

mtllib LedMonoColorPlus.mtl

g LedMonoColorPlus

v 85.558865 0.450564 -0.538593
v 85.558865 0.450564 0.538593
v 85.558865 -0.549436 0.538593
v 85.558865 -0.549436 -0.538593
v 84.481679 0.450564 -0.538593
v 84.481679 -0.549436 -0.538593
v 84.481679 0.450564 0.538593
v 84.481679 -0.549436 0.538593
v 85.345272 -0.549436 0.325000
v 85.345272 -0.549436 -0.325000
v 84.695272 -0.549436 -0.325000
v 84.695272 -0.549436 0.325000
v 85.345272 0.450564 -0.325000
v 85.345272 0.450564 0.325000
v 84.695272 0.450564 0.325000
v 84.695272 0.450564 -0.325000
v 84.695272 -4.049436 0.325000
v 85.345272 -4.049436 0.325000
v 85.345272 3.450564 0.325000
v 84.695272 3.450564 0.325000
v 84.695272 -4.049436 -0.325000
v 85.345272 2.350873 -0.325000
v 85.345272 2.350873 0.000000
v 85.345272 3.450564 0.000000
v 85.345272 -4.049436 -0.325000
v 85.834522 2.350873 -0.325000
v 85.834522 2.350873 0.000000
v 85.345272 3.450564 -0.325000
v 84.695272 3.450564 -0.325000
vt 0.000000 0.000000 0.000000
vt 0.107719 0.000000 0.000000
vt 0.000000 0.100000 0.000000
vt 0.107719 0.100000 0.000000
vt 0.000000 0.000000 0.000000
vt 0.107719 0.000000 0.000000
vt 0.000000 0.100000 0.000000
vt 0.107719 0.100000 0.000000
vt 0.000000 0.000000 0.000000
vt 0.107719 0.000000 0.000000
vt 0.000000 0.100000 0.000000
vt 0.107719 0.100000 0.000000
vt 0.000000 0.000000 0.000000
vt 0.107719 0.000000 0.000000
vt 0.000000 0.100000 0.000000
vt 0.107719 0.100000 0.000000
vt 0.032500 0.032500 0.000000
vt -0.053859 0.053859 0.000000
vt -0.032500 0.032500 0.000000
vt -0.053859 -0.053859 0.000000
vt -0.032500 -0.032500 0.000000
vt 0.053859 -0.053859 0.000000
vt 0.032500 -0.032500 0.000000
vt 0.053859 0.053859 0.000000
vt -0.032500 0.032500 0.000000
vt -0.053859 -0.053859 0.000000
vt -0.032500 -0.032500 0.000000
vt 0.053859 -0.053859 0.000000
vt 0.032500 -0.032500 0.000000
vt 0.032500 0.032500 0.000000
vt 0.053859 0.053859 0.000000
vt -0.053859 0.053859 0.000000
vt 0.065000 -0.100000 0.000000
vt 0.000000 -0.100000 0.000000
vt 0.065000 -0.450000 0.000000
vt 0.000000 -0.450000 0.000000
vt 0.000000 0.000000 0.000000
vt 0.065000 0.000000 0.000000
vt 0.000000 0.300000 0.000000
vt 0.065000 0.300000 0.000000
vt 0.065000 -0.100000 0.000000
vt 0.000000 -0.100000 0.000000
vt 0.065000 -0.450000 0.000000
vt 0.000000 -0.450000 0.000000
vt -0.000000 0.300000 0.000000
vt -0.000000 0.000000 0.000000
vt 0.032500 0.190031 0.000000
vt 0.065000 0.000000 0.000000
vt 0.065000 0.190031 0.000000
vt 0.032500 0.300000 0.000000
vt 0.065000 -0.100000 0.000000
vt 0.000000 -0.100000 0.000000
vt 0.065000 -0.450000 0.000000
vt 0.000000 -0.450000 0.000000
vt 0.032500 0.032500 0.000000
vt -0.032500 0.032500 0.000000
vt 0.032500 -0.032500 0.000000
vt -0.032500 -0.032500 0.000000
vt 0.048925 0.032500 0.000000
vt 0.000000 0.032500 0.000000
vt 0.048925 0.000000 0.000000
vt 0.000000 0.000000 0.000000
vt 0.000000 0.000000 0.000000
vt 0.120361 0.000000 0.000000
vt 0.000000 0.032500 0.000000
vt 0.120361 0.032500 0.000000
vt 0.008038 0.054985 0.000000
vt 0.008038 -0.054985 0.000000
vt 0.056962 -0.054985 0.000000
vt -0.000000 0.000000 0.000000
vt 0.065000 0.000000 0.000000
vt -0.000000 0.190031 0.000000
vt 0.065000 0.300000 0.000000
vt -0.000000 0.300000 0.000000
vt -0.048925 0.190031 0.000000
vt 0.065000 -0.100000 0.000000
vt 0.000000 -0.100000 0.000000
vt 0.065000 -0.450000 0.000000
vt 0.000000 -0.450000 0.000000
vt 0.000000 0.000000 0.000000
vt 0.065000 0.000000 0.000000
vt 0.000000 0.300000 0.000000
vt 0.065000 0.300000 0.000000
vt -0.032500 0.032500 0.000000
vt -0.032500 -0.032500 0.000000
vt 0.000000 0.032500 0.000000
vt 0.032500 -0.032500 0.000000
vt 0.032500 0.032500 0.000000
vn 0.100000 0.000000 0.000000
vn 0.100000 0.000000 0.000000
vn 0.100000 0.000000 0.000000
vn 0.100000 0.000000 0.000000
vn 0.000000 0.000000 -0.100000
vn 0.000000 0.000000 -0.100000
vn 0.000000 0.000000 -0.100000
vn 0.000000 0.000000 -0.100000
vn -0.100000 0.000000 0.000000
vn -0.100000 0.000000 0.000000
vn -0.100000 0.000000 0.000000
vn -0.100000 0.000000 0.000000
vn 0.000000 0.000000 0.100000
vn 0.000000 0.000000 0.100000
vn 0.000000 0.000000 0.100000
vn 0.000000 0.000000 0.100000
vn 0.000000 -0.100000 0.000000
vn 0.000000 -0.100000 0.000000
vn 0.000000 -0.100000 0.000000
vn 0.000000 -0.100000 0.000000
vn 0.000000 -0.100000 0.000000
vn 0.000000 -0.100000 0.000000
vn 0.000000 -0.100000 0.000000
vn 0.000000 -0.100000 0.000000
vn -0.000000 0.100000 -0.000000
vn -0.000000 0.100000 -0.000000
vn -0.000000 0.100000 -0.000000
vn -0.000000 0.100000 -0.000000
vn -0.000000 0.100000 -0.000000
vn -0.000000 0.100000 -0.000000
vn -0.000000 0.100000 -0.000000
vn -0.000000 0.100000 -0.000000
vn 0.000000 -0.000000 0.100000
vn 0.000000 -0.000000 0.100000
vn 0.000000 -0.000000 0.100000
vn 0.000000 -0.000000 0.100000
vn 0.000000 -0.000000 0.100000
vn 0.000000 -0.000000 0.100000
vn 0.000000 -0.000000 0.100000
vn 0.000000 -0.000000 0.100000
vn -0.100000 0.000000 0.000000
vn -0.100000 0.000000 0.000000
vn -0.100000 0.000000 0.000000
vn -0.100000 0.000000 0.000000
vn 0.100000 0.000000 0.000000
vn 0.100000 0.000000 0.000000
vn 0.100000 0.000000 0.000000
vn 0.100000 0.000000 0.000000
vn 0.100000 0.000000 0.000000
vn 0.100000 0.000000 0.000000
vn 0.000000 0.000000 -0.100000
vn 0.000000 0.000000 -0.100000
vn 0.000000 0.000000 -0.100000
vn 0.000000 0.000000 -0.100000
vn 0.000000 -0.100000 0.000000
vn 0.000000 -0.100000 0.000000
vn 0.000000 -0.100000 0.000000
vn 0.000000 -0.100000 0.000000
vn 0.000000 -0.100000 0.000000
vn 0.000000 -0.100000 0.000000
vn 0.000000 -0.100000 0.000000
vn 0.000000 -0.100000 0.000000
vn 0.091366 0.040648 0.000000
vn 0.091366 0.040648 0.000000
vn 0.091366 0.040648 0.000000
vn 0.091366 0.040648 0.000000
vn 0.000000 -0.000000 0.100000
vn 0.000000 -0.000000 0.100000
vn 0.000000 -0.000000 0.100000
vn 0.000000 0.000000 -0.100000
vn 0.000000 0.000000 -0.100000
vn 0.000000 0.000000 -0.100000
vn 0.000000 0.000000 -0.100000
vn 0.000000 0.000000 -0.100000
vn 0.000000 0.000000 -0.100000
vn 0.100000 0.000000 0.000000
vn 0.100000 0.000000 0.000000
vn 0.100000 0.000000 0.000000
vn 0.100000 0.000000 0.000000
vn -0.100000 0.000000 0.000000
vn -0.100000 0.000000 0.000000
vn -0.100000 0.000000 0.000000
vn -0.100000 0.000000 0.000000
vn 0.000000 0.100000 0.000000
vn 0.000000 0.100000 0.000000
vn 0.000000 0.100000 0.000000
vn 0.000000 0.100000 0.000000
vn 0.000000 0.100000 0.000000
usemtl Steel_-_Satin
f 1/1/1 2/2/2 4/3/3
f 4/3/3 2/2/2 3/4/4
f 5/5/5 1/6/6 6/7/7
f 6/7/7 1/6/6 4/8/8
f 7/9/9 5/10/10 8/11/11
f 8/11/11 5/10/10 6/12/12
f 2/13/13 7/14/14 3/15/15
f 3/15/15 7/14/14 8/16/16
f 10/17/17 3/18/18 9/19/19
f 9/19/19 3/18/18 8/20/20
f 9/19/19 8/20/20 12/21/21
f 12/21/21 8/20/20 6/22/22
f 12/21/21 6/22/22 11/23/23
f 11/23/23 6/22/22 10/17/17
f 10/17/17 6/22/22 4/24/24
f 10/17/17 4/24/24 3/18/18
f 14/25/25 1/26/26 13/27/27
f 13/27/27 1/26/26 5/28/28
f 13/27/27 5/28/28 16/29/29
f 16/29/29 5/28/28 15/30/30
f 15/30/30 5/28/28 7/31/31
f 15/30/30 7/31/31 2/32/32
f 1/26/26 14/25/25 2/32/32
f 2/32/32 14/25/25 15/30/30
f 9/33/33 12/34/34 18/35/35
f 18/35/35 12/34/34 17/36/36
f 15/37/37 14/38/38 20/39/39
f 20/39/39 14/38/38 19/40/40
f 12/41/41 11/42/42 17/43/43
f 17/43/43 11/42/42 21/44/44
f 19/45/45 14/46/46 23/47/47
f 23/47/47 14/46/46 13/48/48
f 23/47/47 13/48/48 22/49/49
f 23/47/47 24/50/50 19/45/45
f 11/51/51 10/52/52 21/53/53
f 21/53/53 10/52/52 25/54/54
f 25/55/55 18/56/56 21/57/57
f 21/57/57 18/56/56 17/58/58
f 22/59/59 26/60/60 23/61/61
f 23/61/61 26/60/60 27/62/62
f 24/63/63 27/64/64 28/65/65
f 28/65/65 27/64/64 26/66/66
f 24/67/67 23/68/68 27/69/69
f 13/70/70 16/71/71 22/72/72
f 22/72/72 16/71/71 29/73/73
f 22/72/72 29/73/73 28/74/74
f 28/74/74 26/75/75 22/72/72
f 10/76/76 9/77/77 25/78/78
f 25/78/78 9/77/77 18/79/79
f 16/80/80 15/81/81 29/82/82
f 29/82/82 15/81/81 20/83/83
f 28/84/84 29/85/85 24/86/86
f 24/86/86 29/85/85 20/87/87
f 24/86/86 20/87/87 19/88/88
# 29 vertices
# 88 texture params
# 88 normals
# 54 facets

# 1 groups
