# WaveFront *.obj file (generated by Autodesk ATF)

mtllib MiniMotorGearHide.mtl

g MiniMotorGearHide

v 13.089298 39.896788 -10.700000
v 13.118120 40.189424 -10.700000
v 13.203478 40.470813 -10.700000
v 13.342093 40.730143 -10.700000
v 13.528638 40.957448 -10.700000
v 13.755942 41.143992 -10.700000
v 14.015273 41.282607 -10.700000
v 14.296662 41.367966 -10.700000
v 14.589298 41.396788 -10.700000
v 14.881933 41.367966 -10.700000
v 15.163323 41.282607 -10.700000
v 15.422653 41.143992 -10.700000
v 15.649958 40.957448 -10.700000
v 15.836502 40.730143 -10.700000
v 15.975117 40.470813 -10.700000
v 16.060476 40.189424 -10.700000
v 16.089298 39.896788 -10.700000
v 16.060476 39.604153 -10.700000
v 15.975117 39.322763 -10.700000
v 15.836502 39.063433 -10.700000
v 15.649958 38.836128 -10.700000
v 15.422653 38.649584 -10.700000
v 15.163323 38.510969 -10.700000
v 14.881933 38.425610 -10.700000
v 14.589298 38.396788 -10.700000
v 14.296662 38.425610 -10.700000
v 14.015273 38.510969 -10.700000
v 13.755942 38.649584 -10.700000
v 13.528638 38.836128 -10.700000
v 13.342093 39.063433 -10.700000
v 13.203478 39.322763 -10.700000
v 13.118120 39.604153 -10.700000
v 13.089298 39.896788 -11.400000
v 13.118120 40.189424 -11.400000
v 13.203478 40.470813 -11.400000
v 13.342093 40.730143 -11.400000
v 13.528638 40.957448 -11.400000
v 13.755942 41.143992 -11.400000
v 14.015273 41.282607 -11.400000
v 14.296662 41.367966 -11.400000
v 14.589298 41.396788 -11.400000
v 14.881933 41.367966 -11.400000
v 15.163323 41.282607 -11.400000
v 15.422653 41.143992 -11.400000
v 15.649958 40.957448 -11.400000
v 15.836502 40.730143 -11.400000
v 15.975117 40.470813 -11.400000
v 16.060476 40.189424 -11.400000
v 16.089298 39.896788 -11.400000
v 16.060476 39.604153 -11.400000
v 15.975117 39.322763 -11.400000
v 15.836502 39.063433 -11.400000
v 15.649958 38.836128 -11.400000
v 15.422653 38.649584 -11.400000
v 15.163323 38.510969 -11.400000
v 14.881933 38.425610 -11.400000
v 14.589298 38.396788 -11.400000
v 14.296662 38.425610 -11.400000
v 14.015273 38.510969 -11.400000
v 13.755942 38.649584 -11.400000
v 13.528638 38.836128 -11.400000
v 13.342093 39.063433 -11.400000
v 13.203478 39.322763 -11.400000
v 13.118120 39.604153 -11.400000
v 8.589298 35.896788 -11.400000
v 9.589298 34.896788 -11.400000
v 9.589298 34.896788 0.000000
v 8.589298 35.896788 0.000000
v 8.589298 43.896788 0.000000
v 8.589298 43.896788 -11.400000
v 9.589298 44.896788 -11.400000
v 9.589298 44.896788 0.000000
v 19.589298 44.896788 0.000000
v 19.589298 44.896788 -11.400000
v 19.589298 34.896788 -11.400000
v 20.589298 35.896788 -11.400000
v 20.589298 35.896788 0.000000
v 19.589298 34.896788 0.000000
v 20.589298 43.896788 -11.400000
v 20.589298 43.896788 0.000000
vt 0.147118 0.029264 0.000000
vt -0.147118 0.029264 0.000000
vt 0.150000 0.000000 0.000000
vt -0.150000 0.000000 0.000000
vt 0.147118 -0.029264 0.000000
vt -0.147118 -0.029264 0.000000
vt 0.138582 -0.057403 0.000000
vt -0.138582 -0.057403 0.000000
vt 0.124720 -0.083336 0.000000
vt -0.124720 -0.083336 0.000000
vt 0.106066 -0.106066 0.000000
vt -0.106066 -0.106066 0.000000
vt 0.083336 -0.124720 0.000000
vt -0.083336 -0.124720 0.000000
vt 0.057403 -0.138582 0.000000
vt -0.057403 -0.138582 0.000000
vt 0.029264 -0.147118 0.000000
vt -0.029264 -0.147118 0.000000
vt 0.000000 -0.150000 0.000000
vt -0.138582 0.057403 0.000000
vt 0.138582 0.057403 0.000000
vt -0.124720 0.083336 0.000000
vt 0.124720 0.083336 0.000000
vt -0.106066 0.106066 0.000000
vt 0.106066 0.106066 0.000000
vt -0.083336 0.124720 0.000000
vt 0.083336 0.124720 0.000000
vt -0.057403 0.138582 0.000000
vt 0.057403 0.138582 0.000000
vt -0.029264 0.147118 0.000000
vt 0.029264 0.147118 0.000000
vt 0.000000 0.150000 0.000000
vt 0.070000 -0.441786 0.000000
vt 0.000000 -0.441786 0.000000
vt 0.070000 -0.471239 0.000000
vt 0.000000 -0.471239 0.000000
vt 0.070000 0.471239 0.000000
vt 0.000000 0.471239 0.000000
vt 0.070000 0.441786 0.000000
vt 0.000000 0.441786 0.000000
vt 0.000000 0.412334 0.000000
vt 0.070000 -0.412334 0.000000
vt 0.000000 -0.412334 0.000000
vt 0.070000 -0.382882 0.000000
vt 0.000000 -0.382882 0.000000
vt 0.070000 -0.353429 0.000000
vt 0.000000 -0.353429 0.000000
vt 0.070000 -0.323977 0.000000
vt 0.000000 -0.323977 0.000000
vt 0.070000 -0.294524 0.000000
vt 0.000000 -0.294524 0.000000
vt 0.070000 -0.265072 0.000000
vt 0.000000 -0.265072 0.000000
vt 0.070000 -0.235619 0.000000
vt 0.000000 -0.235619 0.000000
vt 0.070000 -0.206167 0.000000
vt 0.000000 -0.206167 0.000000
vt 0.070000 -0.176715 0.000000
vt 0.000000 -0.176715 0.000000
vt 0.070000 -0.147262 0.000000
vt 0.000000 -0.147262 0.000000
vt 0.070000 -0.117810 0.000000
vt 0.000000 -0.117810 0.000000
vt 0.070000 -0.088357 0.000000
vt 0.000000 -0.088357 0.000000
vt 0.070000 -0.058905 0.000000
vt 0.000000 -0.058905 0.000000
vt 0.070000 -0.029452 0.000000
vt 0.000000 -0.029452 0.000000
vt 0.070000 0.000000 0.000000
vt 0.000000 0.000000 0.000000
vt 0.070000 0.029452 0.000000
vt 0.000000 0.029452 0.000000
vt 0.070000 0.058905 0.000000
vt 0.000000 0.058905 0.000000
vt 0.070000 0.088357 0.000000
vt 0.000000 0.088357 0.000000
vt 0.070000 0.117810 0.000000
vt 0.000000 0.117810 0.000000
vt 0.070000 0.147262 0.000000
vt 0.000000 0.147262 0.000000
vt 0.070000 0.176715 0.000000
vt 0.000000 0.176715 0.000000
vt 0.070000 0.206167 0.000000
vt 0.000000 0.206167 0.000000
vt 0.070000 0.235619 0.000000
vt 0.000000 0.235619 0.000000
vt 0.070000 0.265072 0.000000
vt 0.000000 0.265072 0.000000
vt 0.070000 0.294524 0.000000
vt 0.000000 0.294524 0.000000
vt 0.070000 0.323977 0.000000
vt 0.000000 0.323977 0.000000
vt 0.070000 0.353429 0.000000
vt 0.000000 0.353429 0.000000
vt 0.070000 0.382882 0.000000
vt 0.000000 0.382882 0.000000
vt 0.070000 0.412334 0.000000
vt -0.070000 -0.070711 0.000000
vt 1.070000 -0.070711 0.000000
vt -0.070000 0.070711 0.000000
vt 1.070000 0.070711 0.000000
vt 0.100000 -1.070000 0.000000
vt 0.900000 -1.070000 0.000000
vt 0.100000 0.070000 0.000000
vt 0.900000 0.070000 0.000000
vt -0.070000 -0.070711 0.000000
vt 1.070000 -0.070711 0.000000
vt -0.070000 0.070711 0.000000
vt 1.070000 0.070711 0.000000
vt 0.100000 -1.070000 0.000000
vt 1.100000 -1.070000 0.000000
vt 0.100000 0.070000 0.000000
vt 1.100000 0.070000 0.000000
vt 0.070000 0.070711 0.000000
vt -1.070000 0.070711 0.000000
vt 0.070000 -0.070711 0.000000
vt -1.070000 -0.070711 0.000000
vt 1.100000 0.070000 0.000000
vt 0.100000 0.070000 0.000000
vt 1.100000 -1.070000 0.000000
vt 0.100000 -1.070000 0.000000
vt 0.070000 0.070711 0.000000
vt -1.070000 0.070711 0.000000
vt 0.070000 -0.070711 0.000000
vt -1.070000 -0.070711 0.000000
vt 0.900000 0.070000 0.000000
vt 0.100000 0.070000 0.000000
vt 0.900000 -1.070000 0.000000
vt 0.100000 -1.070000 0.000000
vt 0.147118 -0.029264 0.000000
vt 0.600000 -0.400000 0.000000
vt 0.150000 0.000000 0.000000
vt 0.600000 0.400000 0.000000
vt 0.147118 0.029264 0.000000
vt 0.138582 0.057403 0.000000
vt 0.124720 0.083336 0.000000
vt 0.106066 0.106066 0.000000
vt 0.500000 0.500000 0.000000
vt 0.083336 0.124720 0.000000
vt 0.057403 0.138582 0.000000
vt 0.029264 0.147118 0.000000
vt 0.000000 0.150000 0.000000
vt -0.500000 0.500000 0.000000
vt -0.029264 0.147118 0.000000
vt -0.057403 0.138582 0.000000
vt -0.083336 0.124720 0.000000
vt -0.106066 0.106066 0.000000
vt -0.600000 0.400000 0.000000
vt -0.124720 0.083336 0.000000
vt -0.138582 0.057403 0.000000
vt -0.147118 0.029264 0.000000
vt -0.150000 0.000000 0.000000
vt -0.600000 -0.400000 0.000000
vt -0.147118 -0.029264 0.000000
vt -0.138582 -0.057403 0.000000
vt -0.124720 -0.083336 0.000000
vt -0.106066 -0.106066 0.000000
vt -0.500000 -0.500000 0.000000
vt -0.083336 -0.124720 0.000000
vt -0.057403 -0.138582 0.000000
vt -0.029264 -0.147118 0.000000
vt 0.000000 -0.150000 0.000000
vt 0.500000 -0.500000 0.000000
vt 0.029264 -0.147118 0.000000
vt 0.057403 -0.138582 0.000000
vt 0.083336 -0.124720 0.000000
vt 0.106066 -0.106066 0.000000
vt 0.124720 -0.083336 0.000000
vt 0.138582 -0.057403 0.000000
vt -0.500000 -0.500000 0.000000
vt 0.500000 -0.500000 0.000000
vt -0.600000 -0.400000 0.000000
vt 0.600000 -0.400000 0.000000
vt -0.600000 0.400000 0.000000
vt 0.600000 0.400000 0.000000
vt -0.500000 0.500000 0.000000
vt 0.500000 0.500000 0.000000
vn 0.000000 0.000000 -0.100000
vn 0.000000 0.000000 -0.100000
vn 0.000000 0.000000 -0.100000
vn 0.000000 0.000000 -0.100000
vn 0.000000 0.000000 -0.100000
vn 0.000000 0.000000 -0.100000
vn 0.000000 0.000000 -0.100000
vn 0.000000 0.000000 -0.100000
vn 0.000000 0.000000 -0.100000
vn 0.000000 0.000000 -0.100000
vn 0.000000 0.000000 -0.100000
vn 0.000000 0.000000 -0.100000
vn 0.000000 0.000000 -0.100000
vn 0.000000 0.000000 -0.100000
vn 0.000000 0.000000 -0.100000
vn 0.000000 0.000000 -0.100000
vn 0.000000 0.000000 -0.100000
vn 0.000000 0.000000 -0.100000
vn 0.000000 0.000000 -0.100000
vn 0.000000 0.000000 -0.100000
vn 0.000000 0.000000 -0.100000
vn 0.000000 0.000000 -0.100000
vn 0.000000 0.000000 -0.100000
vn 0.000000 0.000000 -0.100000
vn 0.000000 0.000000 -0.100000
vn 0.000000 0.000000 -0.100000
vn 0.000000 0.000000 -0.100000
vn 0.000000 0.000000 -0.100000
vn 0.000000 0.000000 -0.100000
vn 0.000000 0.000000 -0.100000
vn 0.000000 0.000000 -0.100000
vn 0.000000 0.000000 -0.100000
vn 0.098079 0.019509 0.000000
vn 0.098079 0.019509 0.000000
vn 0.100000 0.000000 0.000000
vn 0.100000 0.000000 0.000000
vn 0.098079 -0.019509 0.000000
vn 0.098079 -0.019509 0.000000
vn 0.092388 -0.038268 0.000000
vn 0.092388 0.038268 0.000000
vn 0.092388 0.038268 0.000000
vn 0.083147 0.055557 0.000000
vn 0.083147 0.055557 0.000000
vn 0.070711 0.070711 0.000000
vn 0.070711 0.070711 0.000000
vn 0.055557 0.083147 0.000000
vn 0.055557 0.083147 0.000000
vn 0.038268 0.092388 0.000000
vn 0.038268 0.092388 0.000000
vn 0.019509 0.098079 0.000000
vn 0.019509 0.098079 0.000000
vn -0.000000 0.100000 0.000000
vn -0.000000 0.100000 0.000000
vn -0.019509 0.098079 0.000000
vn -0.019509 0.098079 0.000000
vn -0.038268 0.092388 0.000000
vn -0.038268 0.092388 0.000000
vn -0.055557 0.083147 0.000000
vn -0.055557 0.083147 0.000000
vn -0.070711 0.070711 0.000000
vn -0.070711 0.070711 0.000000
vn -0.083147 0.055557 0.000000
vn -0.083147 0.055557 0.000000
vn -0.092388 0.038268 0.000000
vn -0.092388 0.038268 0.000000
vn -0.098079 0.019509 0.000000
vn -0.098079 0.019509 0.000000
vn -0.100000 0.000000 0.000000
vn -0.100000 0.000000 0.000000
vn -0.098079 -0.019509 0.000000
vn -0.098079 -0.019509 0.000000
vn -0.092388 -0.038268 0.000000
vn -0.092388 -0.038268 0.000000
vn -0.083147 -0.055557 0.000000
vn -0.083147 -0.055557 0.000000
vn -0.070711 -0.070711 0.000000
vn -0.070711 -0.070711 0.000000
vn -0.055557 -0.083147 0.000000
vn -0.055557 -0.083147 0.000000
vn -0.038268 -0.092388 0.000000
vn -0.038268 -0.092388 0.000000
vn -0.019509 -0.098079 0.000000
vn -0.019509 -0.098079 0.000000
vn -0.000000 -0.100000 0.000000
vn -0.000000 -0.100000 0.000000
vn 0.019509 -0.098079 0.000000
vn 0.019509 -0.098079 0.000000
vn 0.038268 -0.092388 0.000000
vn 0.038268 -0.092388 0.000000
vn 0.055557 -0.083147 0.000000
vn 0.055557 -0.083147 0.000000
vn 0.070711 -0.070711 0.000000
vn 0.070711 -0.070711 0.000000
vn 0.083147 -0.055557 0.000000
vn 0.083147 -0.055557 0.000000
vn 0.092388 -0.038268 0.000000
vn -0.070711 -0.070711 0.000000
vn -0.070711 -0.070711 0.000000
vn -0.070711 -0.070711 0.000000
vn -0.070711 -0.070711 0.000000
vn -0.100000 0.000000 0.000000
vn -0.100000 0.000000 0.000000
vn -0.100000 0.000000 0.000000
vn -0.100000 0.000000 0.000000
vn -0.070711 0.070711 0.000000
vn -0.070711 0.070711 0.000000
vn -0.070711 0.070711 0.000000
vn -0.070711 0.070711 0.000000
vn 0.000000 0.100000 0.000000
vn 0.000000 0.100000 0.000000
vn 0.000000 0.100000 0.000000
vn 0.000000 0.100000 0.000000
vn 0.070711 -0.070711 0.000000
vn 0.070711 -0.070711 0.000000
vn 0.070711 -0.070711 0.000000
vn 0.070711 -0.070711 0.000000
vn 0.000000 -0.100000 0.000000
vn 0.000000 -0.100000 0.000000
vn 0.000000 -0.100000 0.000000
vn 0.000000 -0.100000 0.000000
vn 0.070711 0.070711 0.000000
vn 0.070711 0.070711 0.000000
vn 0.070711 0.070711 0.000000
vn 0.070711 0.070711 0.000000
vn 0.100000 0.000000 0.000000
vn 0.100000 0.000000 0.000000
vn 0.100000 0.000000 0.000000
vn 0.100000 0.000000 0.000000
vn 0.000000 0.000000 -0.100000
vn 0.000000 0.000000 -0.100000
vn 0.000000 0.000000 -0.100000
vn 0.000000 0.000000 -0.100000
vn 0.000000 0.000000 -0.100000
vn 0.000000 0.000000 -0.100000
vn 0.000000 0.000000 -0.100000
vn 0.000000 0.000000 -0.100000
vn 0.000000 0.000000 -0.100000
vn 0.000000 0.000000 -0.100000
vn 0.000000 0.000000 -0.100000
vn 0.000000 0.000000 -0.100000
vn 0.000000 0.000000 -0.100000
vn 0.000000 0.000000 -0.100000
vn 0.000000 0.000000 -0.100000
vn 0.000000 0.000000 -0.100000
vn 0.000000 0.000000 -0.100000
vn 0.000000 0.000000 -0.100000
vn 0.000000 0.000000 -0.100000
vn 0.000000 0.000000 -0.100000
vn 0.000000 0.000000 -0.100000
vn 0.000000 0.000000 -0.100000
vn 0.000000 0.000000 -0.100000
vn 0.000000 0.000000 -0.100000
vn 0.000000 0.000000 -0.100000
vn 0.000000 0.000000 -0.100000
vn 0.000000 0.000000 -0.100000
vn 0.000000 0.000000 -0.100000
vn 0.000000 0.000000 -0.100000
vn 0.000000 0.000000 -0.100000
vn 0.000000 0.000000 -0.100000
vn 0.000000 0.000000 -0.100000
vn 0.000000 0.000000 -0.100000
vn 0.000000 0.000000 -0.100000
vn 0.000000 0.000000 -0.100000
vn 0.000000 0.000000 -0.100000
vn 0.000000 0.000000 -0.100000
vn 0.000000 0.000000 -0.100000
vn 0.000000 0.000000 -0.100000
vn 0.000000 0.000000 -0.100000
vn 0.000000 0.000000 0.100000
vn 0.000000 0.000000 0.100000
vn 0.000000 0.000000 0.100000
vn 0.000000 0.000000 0.100000
vn 0.000000 0.000000 0.100000
vn 0.000000 0.000000 0.100000
vn 0.000000 0.000000 0.100000
vn 0.000000 0.000000 0.100000
usemtl Steel_-_Satin
f 2/1/1 16/2/2 1/3/3
f 1/3/3 16/2/2 17/4/4
f 1/3/3 17/4/4 32/5/5
f 32/5/5 17/4/4 18/6/6
f 32/5/5 18/6/6 31/7/7
f 31/7/7 18/6/6 19/8/8
f 31/7/7 19/8/8 30/9/9
f 30/9/9 19/8/8 20/10/10
f 30/9/9 20/10/10 29/11/11
f 29/11/11 20/10/10 21/12/12
f 29/11/11 21/12/12 28/13/13
f 28/13/13 21/12/12 22/14/14
f 28/13/13 22/14/14 27/15/15
f 27/15/15 22/14/14 23/16/16
f 27/15/15 23/16/16 26/17/17
f 26/17/17 23/16/16 24/18/18
f 26/17/17 24/18/18 25/19/19
f 16/2/2 2/1/1 15/20/20
f 15/20/20 2/1/1 3/21/21
f 15/20/20 3/21/21 14/22/22
f 14/22/22 3/21/21 4/23/23
f 14/22/22 4/23/23 13/24/24
f 13/24/24 4/23/23 5/25/25
f 13/24/24 5/25/25 12/26/26
f 12/26/26 5/25/25 6/27/27
f 12/26/26 6/27/27 11/28/28
f 11/28/28 6/27/27 7/29/29
f 11/28/28 7/29/29 10/30/30
f 10/30/30 7/29/29 8/31/31
f 10/30/30 8/31/31 9/32/32
f 32/33/33 64/34/34 1/35/35
f 1/35/35 64/34/34 33/36/36
f 1/37/35 33/38/36 2/39/37
f 2/39/37 33/38/36 34/40/38
f 2/39/37 34/40/38 35/41/39
f 32/33/33 31/42/40 64/34/34
f 64/34/34 31/42/40 63/43/41
f 63/43/41 31/42/40 30/44/42
f 63/43/41 30/44/42 62/45/43
f 62/45/43 30/44/42 29/46/44
f 62/45/43 29/46/44 61/47/45
f 61/47/45 29/46/44 28/48/46
f 61/47/45 28/48/46 60/49/47
f 60/49/47 28/48/46 27/50/48
f 60/49/47 27/50/48 59/51/49
f 59/51/49 27/50/48 26/52/50
f 59/51/49 26/52/50 58/53/51
f 58/53/51 26/52/50 25/54/52
f 58/53/51 25/54/52 57/55/53
f 57/55/53 25/54/52 24/56/54
f 57/55/53 24/56/54 56/57/55
f 56/57/55 24/56/54 23/58/56
f 56/57/55 23/58/56 55/59/57
f 55/59/57 23/58/56 22/60/58
f 55/59/57 22/60/58 54/61/59
f 54/61/59 22/60/58 21/62/60
f 54/61/59 21/62/60 53/63/61
f 53/63/61 21/62/60 20/64/62
f 53/63/61 20/64/62 52/65/63
f 52/65/63 20/64/62 19/66/64
f 52/65/63 19/66/64 51/67/65
f 51/67/65 19/66/64 18/68/66
f 51/67/65 18/68/66 50/69/67
f 50/69/67 18/68/66 17/70/68
f 50/69/67 17/70/68 49/71/69
f 49/71/69 17/70/68 16/72/70
f 49/71/69 16/72/70 48/73/71
f 48/73/71 16/72/70 15/74/72
f 48/73/71 15/74/72 47/75/73
f 47/75/73 15/74/72 14/76/74
f 47/75/73 14/76/74 46/77/75
f 46/77/75 14/76/74 13/78/76
f 46/77/75 13/78/76 45/79/77
f 45/79/77 13/78/76 12/80/78
f 45/79/77 12/80/78 44/81/79
f 44/81/79 12/80/78 11/82/80
f 44/81/79 11/82/80 43/83/81
f 43/83/81 11/82/80 10/84/82
f 43/83/81 10/84/82 42/85/83
f 42/85/83 10/84/82 9/86/84
f 42/85/83 9/86/84 41/87/85
f 41/87/85 9/86/84 8/88/86
f 41/87/85 8/88/86 40/89/87
f 40/89/87 8/88/86 7/90/88
f 40/89/87 7/90/88 39/91/89
f 39/91/89 7/90/88 6/92/90
f 39/91/89 6/92/90 38/93/91
f 38/93/91 6/92/90 5/94/92
f 38/93/91 5/94/92 37/95/93
f 37/95/93 5/94/92 4/96/94
f 37/95/93 4/96/94 36/97/95
f 36/97/95 4/96/94 3/98/96
f 36/97/95 3/98/96 35/41/39
f 35/41/39 3/98/96 2/39/37
f 66/99/97 67/100/98 65/101/99
f 65/101/99 67/100/98 68/102/100
f 68/103/101 69/104/102 65/105/103
f 65/105/103 69/104/102 70/106/104
f 70/107/105 69/108/106 71/109/107
f 71/109/107 69/108/106 72/110/108
f 72/111/109 73/112/110 71/113/111
f 71/113/111 73/112/110 74/114/112
f 76/115/113 77/116/114 75/117/115
f 75/117/115 77/116/114 78/118/116
f 66/119/117 75/120/118 67/121/119
f 67/121/119 75/120/118 78/122/120
f 74/123/121 73/124/122 79/125/123
f 79/125/123 73/124/122 80/126/124
f 76/127/125 79/128/126 77/129/127
f 77/129/127 79/128/126 80/130/128
f 64/131/129 65/132/130 33/133/131
f 33/133/131 65/132/130 70/134/132
f 33/133/131 70/134/132 34/135/133
f 34/135/133 70/134/132 35/136/134
f 35/136/134 70/134/132 36/137/135
f 36/137/135 70/134/132 37/138/136
f 37/138/136 70/134/132 71/139/137
f 37/138/136 71/139/137 38/140/138
f 38/140/138 71/139/137 39/141/139
f 39/141/139 71/139/137 40/142/140
f 40/142/140 71/139/137 41/143/141
f 41/143/141 71/139/137 74/144/142
f 41/143/141 74/144/142 42/145/143
f 42/145/143 74/144/142 43/146/144
f 43/146/144 74/144/142 44/147/145
f 44/147/145 74/144/142 45/148/146
f 45/148/146 74/144/142 79/149/147
f 45/148/146 79/149/147 46/150/148
f 46/150/148 79/149/147 47/151/149
f 47/151/149 79/149/147 48/152/150
f 48/152/150 79/149/147 49/153/151
f 49/153/151 79/149/147 76/154/152
f 49/153/151 76/154/152 50/155/153
f 50/155/153 76/154/152 51/156/154
f 51/156/154 76/154/152 52/157/155
f 52/157/155 76/154/152 53/158/156
f 53/158/156 76/154/152 75/159/157
f 53/158/156 75/159/157 54/160/158
f 54/160/158 75/159/157 55/161/159
f 55/161/159 75/159/157 56/162/160
f 56/162/160 75/159/157 57/163/161
f 57/163/161 75/159/157 66/164/162
f 57/163/161 66/164/162 58/165/163
f 58/165/163 66/164/162 59/166/164
f 59/166/164 66/164/162 60/167/165
f 60/167/165 66/164/162 61/168/166
f 61/168/166 66/164/162 65/132/130
f 61/168/166 65/132/130 62/169/167
f 62/169/167 65/132/130 63/170/168
f 63/170/168 65/132/130 64/131/129
f 67/171/169 78/172/170 68/173/171
f 68/173/171 78/172/170 77/174/172
f 68/173/171 77/174/172 69/175/173
f 69/175/173 77/174/172 80/176/174
f 69/175/173 80/176/174 72/177/175
f 72/177/175 80/176/174 73/178/176
# 80 vertices
# 178 texture params
# 176 normals
# 156 facets

# 1 groups
