# WaveFront *.obj file (generated by Autodesk ATF)

mtllib Pin1ThinStraight.mtl

g Pin1ThinStraight

v -18.000000 2.921445 -4.209923
v -18.000000 3.241445 -3.562730
v -17.350000 3.241445 -3.562730
v -17.350000 2.921445 -4.209923
v -18.000000 2.601445 -3.562730
v -17.350000 2.601445 -3.562730
v -18.000000 2.601445 6.076298
v -17.350000 2.601445 6.076298
v -18.000000 2.921445 6.790077
v -17.350000 2.921445 6.790077
v -18.000000 3.241445 6.076298
v -17.350000 3.241445 6.076298
vt 0.000000 0.000000 0.000000
vt 0.072198 0.000000 0.000000
vt 0.000000 0.065000 0.000000
vt 0.072198 0.065000 0.000000
vt 0.000000 0.000000 0.000000
vt 0.072198 0.000000 0.000000
vt 0.000000 0.065000 0.000000
vt 0.072198 0.065000 0.000000
vt 0.000000 0.000000 0.000000
vt 0.963903 0.000000 0.000000
vt 0.000000 0.065000 0.000000
vt 0.963903 0.065000 0.000000
vt 0.000000 0.000000 0.000000
vt 0.078223 0.000000 0.000000
vt -0.000000 0.065000 0.000000
vt 0.078223 0.065000 0.000000
vt 0.000000 0.000000 0.000000
vt 0.078223 0.000000 0.000000
vt 0.000000 0.065000 0.000000
vt 0.078223 0.065000 0.000000
vt 0.000000 0.000000 0.000000
vt 0.963903 0.000000 0.000000
vt 0.000000 0.065000 0.000000
vt 0.963903 0.065000 0.000000
vt 0.485281 0.032000 0.000000
vt -0.478622 0.032000 0.000000
vt 0.550000 0.000000 0.000000
vt -0.550000 0.000000 0.000000
vt -0.478622 -0.032000 0.000000
vt 0.485281 -0.032000 0.000000
vt -0.032000 -0.485281 0.000000
vt -0.000000 -0.550000 0.000000
vt -0.032000 0.478622 0.000000
vt -0.000000 0.550000 0.000000
vt 0.032000 0.478622 0.000000
vt 0.032000 -0.485281 0.000000
vn 0.000000 0.089641 -0.044322
vn 0.000000 0.089641 -0.044322
vn 0.000000 0.089641 -0.044322
vn 0.000000 0.089641 -0.044322
vn 0.000000 -0.089641 -0.044322
vn 0.000000 -0.089641 -0.044322
vn 0.000000 -0.089641 -0.044322
vn 0.000000 -0.089641 -0.044322
vn 0.000000 -0.100000 0.000000
vn 0.000000 -0.100000 0.000000
vn 0.000000 -0.100000 0.000000
vn 0.000000 -0.100000 0.000000
vn 0.000000 -0.091249 0.040909
vn 0.000000 -0.091249 0.040909
vn 0.000000 -0.091249 0.040909
vn 0.000000 -0.091249 0.040909
vn 0.000000 0.091249 0.040909
vn 0.000000 0.091249 0.040909
vn 0.000000 0.091249 0.040909
vn 0.000000 0.091249 0.040909
vn 0.000000 0.100000 0.000000
vn 0.000000 0.100000 0.000000
vn 0.000000 0.100000 0.000000
vn 0.000000 0.100000 0.000000
vn 0.100000 0.000000 0.000000
vn 0.100000 0.000000 0.000000
vn 0.100000 0.000000 0.000000
vn 0.100000 0.000000 0.000000
vn 0.100000 0.000000 0.000000
vn 0.100000 0.000000 0.000000
vn -0.100000 0.000000 0.000000
vn -0.100000 0.000000 0.000000
vn -0.100000 0.000000 0.000000
vn -0.100000 0.000000 0.000000
vn -0.100000 0.000000 0.000000
vn -0.100000 0.000000 0.000000
usemtl Steel_-_Satin
f 1/1/1 2/2/2 4/3/3
f 4/3/3 2/2/2 3/4/4
f 5/5/5 1/6/6 6/7/7
f 6/7/7 1/6/6 4/8/8
f 7/9/9 5/10/10 8/11/11
f 8/11/11 5/10/10 6/12/12
f 9/13/13 7/14/14 10/15/15
f 10/15/15 7/14/14 8/16/16
f 11/17/17 9/18/18 12/19/19
f 12/19/19 9/18/18 10/20/20
f 2/21/21 11/22/22 3/23/23
f 3/23/23 11/22/22 12/24/24
f 3/25/25 12/26/26 4/27/27
f 4/27/27 12/26/26 10/28/28
f 4/27/27 10/28/28 8/29/29
f 8/29/29 6/30/30 4/27/27
f 2/31/31 1/32/32 11/33/33
f 11/33/33 1/32/32 9/34/34
f 9/34/34 1/32/32 7/35/35
f 7/35/35 1/32/32 5/36/36
# 12 vertices
# 36 texture params
# 36 normals
# 20 facets

# 1 groups
