# WaveFront *.obj file (generated by Autodesk ATF)

mtllib PinSoldering.mtl

g PinSoldering

v 2.666220 11.574399 0.000000
v 2.318491 11.935115 0.000000
v 3.128320 12.824399 -1.057526
v 3.195276 12.824399 -1.100000
v 3.508575 12.499399 -1.100000
v 2.318491 13.713682 0.000000
v 2.666220 14.074399 0.000000
v 3.508575 13.149399 -1.100000
v 4.470761 11.574399 0.000000
v 4.818491 11.935115 0.000000
v 4.818491 13.713682 0.000000
v 4.470761 14.074399 0.000000
v 3.628406 13.149399 -1.100000
v 3.628406 12.499399 -1.100000
v 3.941705 12.824399 -1.100000
v 4.008662 12.824399 -1.057526
vt 0.114779 -0.123928 0.000000
vt 0.144142 -0.083331 0.000000
vt -0.015275 -0.019824 0.000000
vt 0.019110 0.016754 0.000000
vt 0.011181 0.016754 0.000000
vt 0.013185 -0.015150 0.000000
vt 0.021114 -0.015150 0.000000
vt -0.013271 0.021427 0.000000
vt 0.146146 0.084935 0.000000
vt 0.116783 0.125532 0.000000
vt 0.005350 -0.032500 0.000000
vt 0.138548 -0.121428 0.000000
vt 0.138548 0.056428 0.000000
vt -0.090227 -0.125000 0.000000
vt 0.090227 -0.125000 0.000000
vt -0.125000 -0.088928 0.000000
vt -0.125000 0.088928 0.000000
vt 0.125000 -0.088928 0.000000
vt -0.090227 0.125000 0.000000
vt 0.125000 0.088928 0.000000
vt 0.090227 0.125000 0.000000
vt 0.130992 0.143723 0.000000
vt -0.049463 0.143723 0.000000
vt 0.046756 0.000000 0.000000
vt 0.034773 0.000000 0.000000
vt -0.116783 -0.125532 0.000000
vt 0.013271 -0.021427 0.000000
vt -0.146146 -0.084935 0.000000
vt -0.021114 0.015150 0.000000
vt -0.013185 0.015150 0.000000
vt -0.005992 -0.032500 0.000000
vt 0.005992 -0.032500 0.000000
vt -0.037321 -0.000000 0.000000
vt 0.037321 -0.000000 0.000000
vt -0.005992 0.032500 0.000000
vt 0.005992 0.032500 0.000000
vt -0.034773 -0.000000 0.000000
vt -0.046756 -0.000000 0.000000
vt 0.049463 -0.143723 0.000000
vt -0.130992 -0.143723 0.000000
vt -0.011181 -0.016754 0.000000
vt 0.015275 0.019824 0.000000
vt -0.019110 -0.016754 0.000000
vt -0.144142 0.083331 0.000000
vt -0.114779 0.123928 0.000000
vt -0.138548 -0.056428 0.000000
vt -0.005350 0.032500 0.000000
vt -0.138548 0.121428 0.000000
vn -0.047596 -0.045882 -0.075030
vn -0.047596 -0.045882 -0.075030
vn -0.047596 -0.045882 -0.075030
vn -0.047596 -0.045882 -0.075030
vn -0.047596 -0.045882 -0.075030
vn -0.047596 0.045882 -0.075030
vn -0.047596 0.045882 -0.075030
vn -0.047596 0.045882 -0.075030
vn -0.047596 0.045882 -0.075030
vn -0.047596 0.045882 -0.075030
vn -0.079395 0.000000 -0.060799
vn -0.079395 0.000000 -0.060799
vn -0.079395 0.000000 -0.060799
vn 0.000000 0.000000 0.100000
vn 0.000000 0.000000 0.100000
vn 0.000000 0.000000 0.100000
vn 0.000000 0.000000 0.100000
vn 0.000000 0.000000 0.100000
vn 0.000000 0.000000 0.100000
vn 0.000000 0.000000 0.100000
vn 0.000000 0.000000 0.100000
vn 0.000000 0.076536 -0.064360
vn 0.000000 0.076536 -0.064360
vn 0.000000 0.076536 -0.064360
vn 0.000000 0.076536 -0.064360
vn 0.047596 -0.045882 -0.075030
vn 0.047596 -0.045882 -0.075030
vn 0.047596 -0.045882 -0.075030
vn 0.047596 -0.045882 -0.075030
vn 0.047596 -0.045882 -0.075030
vn -0.000000 -0.000000 -0.100000
vn -0.000000 -0.000000 -0.100000
vn -0.000000 -0.000000 -0.100000
vn -0.000000 -0.000000 -0.100000
vn -0.000000 -0.000000 -0.100000
vn -0.000000 -0.000000 -0.100000
vn -0.000000 -0.076536 -0.064360
vn -0.000000 -0.076536 -0.064360
vn -0.000000 -0.076536 -0.064360
vn -0.000000 -0.076536 -0.064360
vn 0.047596 0.045882 -0.075030
vn 0.047596 0.045882 -0.075030
vn 0.047596 0.045882 -0.075030
vn 0.047596 0.045882 -0.075030
vn 0.047596 0.045882 -0.075030
vn 0.079395 0.000000 -0.060799
vn 0.079395 0.000000 -0.060799
vn 0.079395 0.000000 -0.060799
usemtl Steel_-_Satin
f 1/1/1 2/2/2 5/3/3
f 5/3/3 2/2/2 3/4/4
f 5/3/3 3/4/4 4/5/5
f 4/6/6 3/7/7 8/8/8
f 8/8/8 3/7/7 6/9/9
f 8/8/8 6/9/9 7/10/10
f 3/11/11 2/12/12 6/13/13
f 1/14/14 9/15/15 2/16/16
f 2/16/16 9/15/15 6/17/17
f 6/17/17 9/15/15 10/18/18
f 6/17/17 10/18/18 7/19/19
f 7/19/19 10/18/18 11/20/20
f 7/19/19 11/20/20 12/21/21
f 7/22/22 12/23/23 8/24/24
f 8/24/24 12/23/23 13/25/25
f 9/26/26 14/27/27 10/28/28
f 10/28/28 14/27/27 16/29/29
f 16/29/29 14/27/27 15/30/30
f 14/31/31 5/32/32 15/33/33
f 15/33/33 5/32/32 4/34/34
f 15/33/33 4/34/34 13/35/35
f 13/35/35 4/34/34 8/36/36
f 5/37/37 14/38/38 1/39/39
f 1/39/39 14/38/38 9/40/40
f 15/41/41 13/42/42 16/43/43
f 16/43/43 13/42/42 11/44/44
f 11/44/44 13/42/42 12/45/45
f 10/46/46 16/47/47 11/48/48
# 16 vertices
# 48 texture params
# 48 normals
# 28 facets

# 1 groups
