# WaveFront *.obj file (generated by Autodesk ATF)

mtllib SwitchButtonOnOff.mtl

g SwitchButtonOnOff

v -22.000000 -4.211728 7.455901
v -22.000000 -3.816854 6.189840
v -11.000000 -3.816854 6.189840
v -11.000000 -4.211728 7.455901
v -11.000000 -3.824159 8.217808
v -11.000000 -3.488645 9.004029
v -11.000000 -3.206702 9.811011
v -11.000000 -2.979604 10.635110
v -11.000000 -2.808377 11.472602
v -11.000000 -2.693794 12.319705
v -11.000000 -2.636373 13.172591
v -11.000000 -2.636373 14.027409
v -11.000000 -2.693794 14.880295
v -11.000000 -2.808377 15.727398
v -11.000000 -2.979604 16.564890
v -11.000000 -3.206702 17.388989
v -11.000000 -3.488645 18.195971
v -11.000000 -3.824159 18.982192
v -11.000000 -4.211728 19.744099
v -22.000000 -4.211728 19.744099
v -22.000000 -3.824159 18.982192
v -22.000000 -3.488645 18.195971
v -22.000000 -3.206702 17.388989
v -22.000000 -2.979604 16.564890
v -22.000000 -2.808377 15.727398
v -22.000000 -2.693794 14.880295
v -22.000000 -2.636373 14.027409
v -22.000000 -2.636373 13.172591
v -22.000000 -2.693794 12.319705
v -22.000000 -2.808377 11.472602
v -22.000000 -2.979604 10.635110
v -22.000000 -3.206702 9.811011
v -22.000000 -3.488645 9.004029
v -22.000000 -3.824159 8.217808
v -11.000000 -3.202790 5.987318
v -11.000000 -2.574246 5.835589
v -11.000000 -1.935415 5.735664
v -11.000000 -1.290561 5.688210
v -11.000000 -0.643984 5.693544
v -11.000000 -0.000000 5.751630
v -11.000000 -0.000000 21.448370
v -11.000000 -0.643984 21.506456
v -11.000000 -1.290561 21.511790
v -11.000000 -1.935415 21.464336
v -11.000000 -2.574246 21.364411
v -11.000000 -3.202790 21.212682
v -11.000000 -3.816854 21.010160
v -22.000000 -3.816854 21.010160
v -22.000000 -0.000000 21.448370
v -22.000000 -0.643984 21.506456
v -22.000000 -1.290561 21.511790
v -22.000000 -1.935415 21.464336
v -22.000000 -2.574246 21.364411
v -22.000000 -3.202790 21.212682
v -22.000000 -3.202790 5.987318
v -22.000000 -2.574246 5.835589
v -22.000000 -1.935415 5.735664
v -22.000000 -1.290561 5.688210
v -22.000000 -0.643984 5.693544
v -22.000000 -0.000000 5.751630
vt -0.066311 -1.100000 0.000000
vt 0.066311 -1.100000 0.000000
vt -0.066311 0.000000 0.000000
vt 0.066311 0.000000 0.000000
vt 1.100000 0.641234 0.000000
vt -0.000000 0.641234 0.000000
vt 1.100000 0.555736 0.000000
vt 0.000000 0.555736 0.000000
vt 1.100000 0.470238 0.000000
vt 0.000000 0.470238 0.000000
vt 1.100000 0.384740 0.000000
vt 0.000000 0.384740 0.000000
vt 1.100000 0.299242 0.000000
vt -0.000000 0.299242 0.000000
vt 1.100000 0.213745 0.000000
vt 0.000000 0.213745 0.000000
vt 1.100000 0.128247 0.000000
vt 0.000000 0.128247 0.000000
vt 1.100000 0.042749 0.000000
vt 0.000000 0.042749 0.000000
vt 1.100000 -0.042749 0.000000
vt 0.000000 -0.042749 0.000000
vt 1.100000 -0.128247 0.000000
vt 0.000000 -0.128247 0.000000
vt 1.100000 -0.213745 0.000000
vt 0.000000 -0.213745 0.000000
vt 1.100000 -0.299242 0.000000
vt 0.000000 -0.299242 0.000000
vt 1.100000 -0.384740 0.000000
vt 0.000000 -0.384740 0.000000
vt 1.100000 -0.470238 0.000000
vt 0.000000 -0.470238 0.000000
vt 1.100000 -0.555736 0.000000
vt 0.000000 -0.555736 0.000000
vt 1.100000 -0.641234 0.000000
vt 0.000000 -0.641234 0.000000
vt 0.185590 0.421173 0.000000
vt 0.058984 0.381685 0.000000
vt 0.261781 0.382416 0.000000
vt 0.038732 0.320279 0.000000
vt 0.340403 0.348864 0.000000
vt 0.421101 0.320670 0.000000
vt 0.023559 0.257425 0.000000
vt 0.503511 0.297960 0.000000
vt 0.013566 0.193542 0.000000
vt 0.587260 0.280838 0.000000
vt 0.671971 0.269379 0.000000
vt 0.008821 0.129056 0.000000
vt 0.757259 0.263637 0.000000
vt 0.009354 0.064398 0.000000
vt 1.590646 0.064398 0.000000
vt 1.584837 0.000000 0.000000
vt 0.015163 0.000000 0.000000
vt 0.842741 0.263637 0.000000
vt 1.591179 0.129056 0.000000
vt 0.928029 0.269379 0.000000
vt 1.586434 0.193542 0.000000
vt 1.012740 0.280838 0.000000
vt 1.096489 0.297960 0.000000
vt 1.576441 0.257425 0.000000
vt 1.178899 0.320670 0.000000
vt 1.561268 0.320279 0.000000
vt 1.259597 0.348864 0.000000
vt 1.338219 0.382416 0.000000
vt 1.541016 0.381685 0.000000
vt 1.414410 0.421173 0.000000
vt -0.066311 -1.100000 0.000000
vt 0.066311 -1.100000 0.000000
vt -0.066311 0.000000 0.000000
vt 0.066311 0.000000 0.000000
vt -1.100000 -1.527962 0.000000
vt -0.000000 -1.527962 0.000000
vt -1.100000 -1.463284 0.000000
vt -0.000000 -1.463284 0.000000
vt -1.100000 -1.398607 0.000000
vt -0.000000 -1.398607 0.000000
vt -1.100000 -1.333929 0.000000
vt -0.000000 -1.333929 0.000000
vt -1.100000 -1.269251 0.000000
vt -0.000000 -1.269251 0.000000
vt -1.100000 -1.204573 0.000000
vt -0.000000 -1.204573 0.000000
vt -1.100000 -1.139895 0.000000
vt -0.000000 -1.139895 0.000000
vt -0.000000 1.527962 0.000000
vt -1.100000 1.527962 0.000000
vt -0.000000 1.463284 0.000000
vt -1.100000 1.463284 0.000000
vt -0.000000 1.398607 0.000000
vt -1.100000 1.398607 0.000000
vt -0.000000 1.333929 0.000000
vt -1.100000 1.333929 0.000000
vt -0.000000 1.269251 0.000000
vt -1.100000 1.269251 0.000000
vt -0.000000 1.204573 0.000000
vt -1.100000 1.204573 0.000000
vt -0.000000 1.139895 0.000000
vt -1.100000 1.139895 0.000000
vt 1.414410 0.421173 0.000000
vt 1.338219 0.382416 0.000000
vt 1.541016 0.381685 0.000000
vt 1.561268 0.320279 0.000000
vt 1.259597 0.348864 0.000000
vt 1.178899 0.320670 0.000000
vt 1.576441 0.257425 0.000000
vt 1.096489 0.297960 0.000000
vt 1.586434 0.193542 0.000000
vt 1.012740 0.280838 0.000000
vt 0.928029 0.269379 0.000000
vt 1.591179 0.129056 0.000000
vt 0.842741 0.263637 0.000000
vt 1.590646 0.064398 0.000000
vt 0.757259 0.263637 0.000000
vt 0.009354 0.064398 0.000000
vt 0.008821 0.129056 0.000000
vt 0.671971 0.269379 0.000000
vt 0.013566 0.193542 0.000000
vt 0.587260 0.280838 0.000000
vt 0.503511 0.297960 0.000000
vt 0.023559 0.257425 0.000000
vt 0.421101 0.320670 0.000000
vt 0.038732 0.320279 0.000000
vt 0.340403 0.348864 0.000000
vt 0.261781 0.382416 0.000000
vt 0.185590 0.421173 0.000000
vt 0.058984 0.381685 0.000000
vt 0.015163 0.000000 0.000000
vt 1.584837 0.000000 0.000000
vt 0.550000 0.784837 0.000000
vt -0.550000 0.784837 0.000000
vt 0.550000 -0.784837 0.000000
vt -0.550000 -0.784837 0.000000
vn 0.000000 -0.095465 -0.029775
vn 0.000000 -0.095465 -0.029775
vn 0.000000 -0.095465 -0.029775
vn 0.000000 -0.095465 -0.029775
vn 0.000000 -0.087557 0.048309
vn 0.000000 -0.087557 0.048309
vn 0.000000 -0.090604 0.042319
vn 0.000000 -0.090604 0.042319
vn 0.000000 -0.093242 0.036137
vn 0.000000 -0.093242 0.036137
vn 0.000000 -0.095459 0.029792
vn 0.000000 -0.095459 0.029792
vn 0.000000 -0.097245 0.023312
vn 0.000000 -0.097245 0.023312
vn 0.000000 -0.098591 0.016727
vn 0.000000 -0.098591 0.016727
vn 0.000000 -0.099492 0.010067
vn 0.000000 -0.099492 0.010067
vn 0.000000 -0.099944 0.003361
vn 0.000000 -0.099944 0.003361
vn 0.000000 -0.099944 -0.003361
vn 0.000000 -0.099944 -0.003361
vn 0.000000 -0.099492 -0.010067
vn 0.000000 -0.099492 -0.010067
vn 0.000000 -0.098591 -0.016727
vn 0.000000 -0.098591 -0.016727
vn 0.000000 -0.097245 -0.023312
vn 0.000000 -0.097245 -0.023312
vn 0.000000 -0.095459 -0.029792
vn 0.000000 -0.095459 -0.029792
vn 0.000000 -0.093242 -0.036137
vn 0.000000 -0.093242 -0.036137
vn 0.000000 -0.090604 -0.042319
vn 0.000000 -0.090604 -0.042319
vn 0.000000 -0.087557 -0.048309
vn 0.000000 -0.087557 -0.048309
vn 0.100000 0.000000 0.000000
vn 0.100000 0.000000 0.000000
vn 0.100000 0.000000 0.000000
vn 0.100000 0.000000 0.000000
vn 0.100000 0.000000 0.000000
vn 0.100000 0.000000 0.000000
vn 0.100000 0.000000 0.000000
vn 0.100000 0.000000 0.000000
vn 0.100000 0.000000 0.000000
vn 0.100000 0.000000 0.000000
vn 0.100000 0.000000 0.000000
vn 0.100000 0.000000 0.000000
vn 0.100000 0.000000 0.000000
vn 0.100000 0.000000 0.000000
vn 0.100000 0.000000 0.000000
vn 0.100000 0.000000 0.000000
vn 0.100000 0.000000 0.000000
vn 0.100000 0.000000 0.000000
vn 0.100000 0.000000 0.000000
vn 0.100000 0.000000 0.000000
vn 0.100000 0.000000 0.000000
vn 0.100000 0.000000 0.000000
vn 0.100000 0.000000 0.000000
vn 0.100000 0.000000 0.000000
vn 0.100000 0.000000 0.000000
vn 0.100000 0.000000 0.000000
vn 0.100000 0.000000 0.000000
vn 0.100000 0.000000 0.000000
vn 0.100000 0.000000 0.000000
vn 0.100000 0.000000 0.000000
vn 0.000000 -0.095465 0.029775
vn 0.000000 -0.095465 0.029775
vn 0.000000 -0.095465 0.029775
vn 0.000000 -0.095465 0.029775
vn 0.000000 -0.035174 0.093610
vn 0.000000 -0.035174 0.093610
vn 0.000000 -0.027416 0.096168
vn 0.000000 -0.027416 0.096168
vn 0.000000 -0.019476 0.098085
vn 0.000000 -0.019476 0.098085
vn 0.000000 -0.011406 0.099347
vn 0.000000 -0.011406 0.099347
vn 0.000000 -0.003260 0.099947
vn 0.000000 -0.003260 0.099947
vn 0.000000 0.004908 0.099879
vn 0.000000 0.004908 0.099879
vn 0.000000 0.013043 0.099146
vn 0.000000 0.013043 0.099146
vn 0.000000 -0.035174 -0.093610
vn 0.000000 -0.035174 -0.093610
vn 0.000000 -0.027416 -0.096168
vn 0.000000 -0.027416 -0.096168
vn 0.000000 -0.019476 -0.098085
vn 0.000000 -0.019476 -0.098085
vn 0.000000 -0.011406 -0.099347
vn 0.000000 -0.011406 -0.099347
vn 0.000000 -0.003260 -0.099947
vn 0.000000 -0.003260 -0.099947
vn -0.000000 0.004908 -0.099879
vn -0.000000 0.004908 -0.099879
vn -0.000000 0.013043 -0.099146
vn -0.000000 0.013043 -0.099146
vn -0.100000 0.000000 0.000000
vn -0.100000 0.000000 0.000000
vn -0.100000 0.000000 0.000000
vn -0.100000 0.000000 0.000000
vn -0.100000 0.000000 0.000000
vn -0.100000 0.000000 0.000000
vn -0.100000 0.000000 0.000000
vn -0.100000 0.000000 0.000000
vn -0.100000 0.000000 0.000000
vn -0.100000 0.000000 0.000000
vn -0.100000 0.000000 0.000000
vn -0.100000 0.000000 0.000000
vn -0.100000 0.000000 0.000000
vn -0.100000 0.000000 0.000000
vn -0.100000 0.000000 0.000000
vn -0.100000 0.000000 0.000000
vn -0.100000 0.000000 0.000000
vn -0.100000 0.000000 0.000000
vn -0.100000 0.000000 0.000000
vn -0.100000 0.000000 0.000000
vn -0.100000 0.000000 0.000000
vn -0.100000 0.000000 0.000000
vn -0.100000 0.000000 0.000000
vn -0.100000 0.000000 0.000000
vn -0.100000 0.000000 0.000000
vn -0.100000 0.000000 0.000000
vn -0.100000 0.000000 0.000000
vn -0.100000 0.000000 0.000000
vn -0.100000 0.000000 0.000000
vn -0.100000 0.000000 0.000000
vn 0.000000 0.100000 0.000000
vn 0.000000 0.100000 0.000000
vn 0.000000 0.100000 0.000000
vn 0.000000 0.100000 0.000000
usemtl Steel_-_Satin
f 1/1/1 2/2/2 4/3/3
f 4/3/3 2/2/2 3/4/4
f 1/5/5 4/6/6 34/7/7
f 34/7/7 4/6/6 5/8/8
f 34/7/7 5/8/8 33/9/9
f 33/9/9 5/8/8 6/10/10
f 33/9/9 6/10/10 32/11/11
f 32/11/11 6/10/10 7/12/12
f 32/11/11 7/12/12 31/13/13
f 31/13/13 7/12/12 8/14/14
f 31/13/13 8/14/14 30/15/15
f 30/15/15 8/14/14 9/16/16
f 30/15/15 9/16/16 29/17/17
f 29/17/17 9/16/16 10/18/18
f 29/17/17 10/18/18 28/19/19
f 28/19/19 10/18/18 11/20/20
f 28/19/19 11/20/20 27/21/21
f 27/21/21 11/20/20 12/22/22
f 27/21/21 12/22/22 26/23/23
f 26/23/23 12/22/22 13/24/24
f 26/23/23 13/24/24 25/25/25
f 25/25/25 13/24/24 14/26/26
f 25/25/25 14/26/26 24/27/27
f 24/27/27 14/26/26 15/28/28
f 24/27/27 15/28/28 23/29/29
f 23/29/29 15/28/28 16/30/30
f 23/29/29 16/30/30 22/31/31
f 22/31/31 16/30/30 17/32/32
f 22/31/31 17/32/32 21/33/33
f 21/33/33 17/32/32 18/34/34
f 21/33/33 18/34/34 20/35/35
f 20/35/35 18/34/34 19/36/36
f 4/37/37 3/38/38 5/39/39
f 5/39/39 3/38/38 35/40/40
f 5/39/39 35/40/40 6/41/41
f 6/41/41 35/40/40 7/42/42
f 7/42/42 35/40/40 36/43/43
f 7/42/42 36/43/43 8/44/44
f 8/44/44 36/43/43 37/45/45
f 8/44/44 37/45/45 9/46/46
f 9/46/46 37/45/45 10/47/47
f 10/47/47 37/45/45 38/48/48
f 10/47/47 38/48/48 11/49/49
f 11/49/49 38/48/48 39/50/50
f 11/49/49 39/50/50 42/51/51
f 42/51/51 39/50/50 41/52/52
f 41/52/52 39/50/50 40/53/53
f 11/49/49 42/51/51 12/54/54
f 12/54/54 42/51/51 43/55/55
f 12/54/54 43/55/55 13/56/56
f 13/56/56 43/55/55 44/57/57
f 13/56/56 44/57/57 14/58/58
f 14/58/58 44/57/57 15/59/59
f 15/59/59 44/57/57 45/60/60
f 15/59/59 45/60/60 16/61/61
f 16/61/61 45/60/60 46/62/62
f 16/61/61 46/62/62 17/63/63
f 17/63/63 46/62/62 18/64/64
f 18/64/64 46/62/62 47/65/65
f 18/64/64 47/65/65 19/66/66
f 48/67/67 20/68/68 47/69/69
f 47/69/69 20/68/68 19/70/70
f 48/71/71 47/72/72 54/73/73
f 54/73/73 47/72/72 46/74/74
f 54/73/73 46/74/74 53/75/75
f 53/75/75 46/74/74 45/76/76
f 53/75/75 45/76/76 52/77/77
f 52/77/77 45/76/76 44/78/78
f 52/77/77 44/78/78 51/79/79
f 51/79/79 44/78/78 43/80/80
f 51/79/79 43/80/80 50/81/81
f 50/81/81 43/80/80 42/82/82
f 50/81/81 42/82/82 49/83/83
f 49/83/83 42/82/82 41/84/84
f 3/85/85 2/86/86 35/87/87
f 35/87/87 2/86/86 55/88/88
f 35/87/87 55/88/88 36/89/89
f 36/89/89 55/88/88 56/90/90
f 36/89/89 56/90/90 37/91/91
f 37/91/91 56/90/90 57/92/92
f 37/91/91 57/92/92 38/93/93
f 38/93/93 57/92/92 58/94/94
f 38/93/93 58/94/94 39/95/95
f 39/95/95 58/94/94 59/96/96
f 39/95/95 59/96/96 40/97/97
f 40/97/97 59/96/96 60/98/98
f 1/99/99 34/100/100 2/101/101
f 2/101/101 34/100/100 55/102/102
f 55/102/102 34/100/100 33/103/103
f 55/102/102 33/103/103 32/104/104
f 55/102/102 32/104/104 56/105/105
f 56/105/105 32/104/104 31/106/106
f 56/105/105 31/106/106 57/107/107
f 57/107/107 31/106/106 30/108/108
f 57/107/107 30/108/108 29/109/109
f 57/107/107 29/109/109 58/110/110
f 58/110/110 29/109/109 28/111/111
f 58/110/110 28/111/111 59/112/112
f 59/112/112 28/111/111 27/113/113
f 59/112/112 27/113/113 50/114/114
f 50/114/114 27/113/113 51/115/115
f 51/115/115 27/113/113 26/116/116
f 51/115/115 26/116/116 52/117/117
f 52/117/117 26/116/116 25/118/118
f 52/117/117 25/118/118 24/119/119
f 52/117/117 24/119/119 53/120/120
f 53/120/120 24/119/119 23/121/121
f 53/120/120 23/121/121 54/122/122
f 54/122/122 23/121/121 22/123/123
f 54/122/122 22/123/123 21/124/124
f 20/125/125 48/126/126 21/124/124
f 21/124/124 48/126/126 54/122/122
f 49/127/127 60/128/128 50/114/114
f 50/114/114 60/128/128 59/112/112
f 40/129/129 60/130/130 41/131/131
f 41/131/131 60/130/130 49/132/132
# 60 vertices
# 132 texture params
# 132 normals
# 116 facets

# 1 groups
