# WaveFront *.obj file (generated by Autodesk ATF)

mtllib ToggleButton1C25BodyButton.mtl

g ToggleButton1C25BodyButton

v 3.000000 16.000000 -2.000000
v 3.000000 18.280208 -2.000000
v 3.855399 19.299632 -2.000000
v 5.344086 19.283661 -2.000000
v 6.143267 18.331234 -2.000000
v 6.143267 16.000000 -2.000000
v 3.000000 18.280208 2.000000
v 3.855399 19.299632 2.000000
v 5.344086 19.283661 2.000000
v 6.143267 18.331234 2.000000
v 6.143267 16.000000 2.000000
v 3.000000 16.000000 2.000000
vt 0.157163 -0.164982 0.000000
vt 0.157163 0.063039 0.000000
vt -0.157163 -0.164982 0.000000
vt -0.157163 0.068142 0.000000
vt -0.077245 0.163385 0.000000
vt 0.071623 0.164982 0.000000
vt 0.133076 0.200000 0.000000
vt -0.000000 0.200000 0.000000
vt 0.133076 -0.200000 0.000000
vt 0.000000 -0.200000 0.000000
vt 0.148877 0.200000 0.000000
vt 0.000000 0.200000 0.000000
vt 0.148877 -0.200000 0.000000
vt 0.000000 -0.200000 0.000000
vt 0.124331 0.200000 0.000000
vt 0.000000 0.200000 0.000000
vt 0.124331 -0.200000 0.000000
vt 0.000000 -0.200000 0.000000
vt 0.233123 0.200000 0.000000
vt 0.000000 0.200000 0.000000
vt 0.233123 -0.200000 0.000000
vt 0.000000 -0.200000 0.000000
vt 0.314327 0.200000 0.000000
vt 0.000000 0.200000 0.000000
vt 0.314327 -0.200000 0.000000
vt 0.000000 -0.200000 0.000000
vt 0.228021 0.200000 0.000000
vt 0.000000 0.200000 0.000000
vt 0.228021 -0.200000 0.000000
vt 0.000000 -0.200000 0.000000
vt -0.157163 -0.164982 0.000000
vt 0.157163 -0.164982 0.000000
vt -0.157163 0.063039 0.000000
vt 0.157163 0.068142 0.000000
vt 0.077245 0.163385 0.000000
vt -0.071623 0.164982 0.000000
vn 0.000000 0.000000 -0.100000
vn 0.000000 0.000000 -0.100000
vn 0.000000 0.000000 -0.100000
vn 0.000000 0.000000 -0.100000
vn 0.000000 0.000000 -0.100000
vn 0.000000 0.000000 -0.100000
vn -0.076604 0.064279 0.000000
vn -0.076604 0.064279 0.000000
vn -0.076604 0.064279 0.000000
vn -0.076604 0.064279 0.000000
vn 0.001073 0.099994 0.000000
vn 0.001073 0.099994 0.000000
vn 0.001073 0.099994 0.000000
vn 0.001073 0.099994 0.000000
vn 0.076604 0.064279 0.000000
vn 0.076604 0.064279 0.000000
vn 0.076604 0.064279 0.000000
vn 0.076604 0.064279 0.000000
vn 0.100000 0.000000 0.000000
vn 0.100000 0.000000 0.000000
vn 0.100000 0.000000 0.000000
vn 0.100000 0.000000 0.000000
vn 0.000000 -0.100000 0.000000
vn 0.000000 -0.100000 0.000000
vn 0.000000 -0.100000 0.000000
vn 0.000000 -0.100000 0.000000
vn -0.100000 0.000000 0.000000
vn -0.100000 0.000000 0.000000
vn -0.100000 0.000000 0.000000
vn -0.100000 0.000000 0.000000
vn 0.000000 0.000000 0.100000
vn 0.000000 0.000000 0.100000
vn 0.000000 0.000000 0.100000
vn 0.000000 0.000000 0.100000
vn 0.000000 0.000000 0.100000
vn 0.000000 0.000000 0.100000
usemtl Steel_-_Satin
f 1/1/1 2/2/2 6/3/3
f 6/3/3 2/2/2 5/4/4
f 5/4/4 2/2/2 4/5/5
f 4/5/5 2/2/2 3/6/6
f 7/7/7 8/8/8 2/9/9
f 2/9/9 8/8/8 3/10/10
f 8/11/11 9/12/12 3/13/13
f 3/13/13 9/12/12 4/14/14
f 9/15/15 10/16/16 4/17/17
f 4/17/17 10/16/16 5/18/18
f 10/19/19 11/20/20 5/21/21
f 5/21/21 11/20/20 6/22/22
f 11/23/23 12/24/24 6/25/25
f 6/25/25 12/24/24 1/26/26
f 12/27/27 7/28/28 1/29/29
f 1/29/29 7/28/28 2/30/30
f 12/31/31 11/32/32 7/33/33
f 7/33/33 11/32/32 10/34/34
f 7/33/33 10/34/34 9/35/35
f 9/35/35 8/36/36 7/33/33
# 12 vertices
# 36 texture params
# 36 normals
# 20 facets

# 1 groups
