# WaveFront *.obj file (generated by Autodesk ATF)

mtllib TouchButtonCylinderHoder.mtl

g TouchButtonCylinderHoder

v -52.067719 9.779185 -1.800000
v -52.067719 9.779185 1.800000
v -52.067719 9.986667 1.800000
v -52.067719 9.986667 -1.800000
v -51.967719 9.779185 1.800000
v -51.659683 10.102226 1.800000
v -33.664739 16.811107 1.800000
v -34.800069 19.856354 1.800000
v -34.950841 20.164506 1.800000
v -35.158834 20.437324 1.800000
v -35.416054 20.664321 1.800000
v -35.712617 20.836776 1.800000
v -36.037126 20.948061 1.800000
v -36.377110 20.993899 1.800000
v -36.719503 20.972528 1.800000
v -37.051149 20.884771 1.800000
v -37.332249 20.779971 1.800000
v -37.640401 20.629199 1.800000
v -37.913218 20.421206 1.800000
v -38.140216 20.163986 1.800000
v -38.312671 19.867423 1.800000
v -38.423955 19.542914 1.800000
v -38.469793 19.202931 1.800000
v -38.448423 18.860537 1.800000
v -38.360665 18.528891 1.800000
v -37.297815 15.678055 1.800000
v -51.776896 10.279959 1.800000
v -52.056564 9.986667 1.800000
v -51.967719 9.779185 -1.800000
v -37.297815 15.678055 -1.500000
v -33.737220 17.005518 -1.500000
v -34.800069 19.856354 -1.500000
v -34.950841 20.164506 -1.500000
v -35.158834 20.437324 -1.500000
v -35.416054 20.664321 -1.500000
v -35.712617 20.836776 -1.500000
v -36.037126 20.948061 -1.500000
v -36.377110 20.993899 -1.500000
v -36.719503 20.972528 -1.500000
v -37.051149 20.884771 -1.500000
v -37.332249 20.779971 -1.500000
v -37.640401 20.629199 -1.500000
v -37.913218 20.421206 -1.500000
v -38.140216 20.163986 -1.500000
v -38.312671 19.867423 -1.500000
v -38.423955 19.542914 -1.500000
v -38.469793 19.202931 -1.500000
v -38.448423 18.860537 -1.500000
v -38.360665 18.528891 -1.500000
v -34.800069 19.856354 -1.800000
v -34.950841 20.164506 -1.800000
v -35.158834 20.437324 -1.800000
v -35.416054 20.664321 -1.800000
v -35.712617 20.836776 -1.800000
v -36.037126 20.948061 -1.800000
v -36.377110 20.993899 -1.800000
v -36.719503 20.972528 -1.800000
v -37.051149 20.884771 -1.800000
v -38.360665 18.528891 -1.800000
v -37.297815 15.678055 -1.800000
v -37.332249 20.779971 -1.800000
v -37.640401 20.629199 -1.800000
v -37.913218 20.421206 -1.800000
v -38.140216 20.163986 -1.800000
v -38.312671 19.867423 -1.800000
v -38.423955 19.542914 -1.800000
v -38.469793 19.202931 -1.800000
v -38.448423 18.860537 -1.800000
v -33.737220 17.005518 1.500000
v -37.297815 15.678055 1.500000
v -38.360665 18.528891 1.500000
v -38.448423 18.860537 1.500000
v -38.469793 19.202931 1.500000
v -38.423955 19.542914 1.500000
v -38.312671 19.867423 1.500000
v -38.140216 20.163986 1.500000
v -37.913218 20.421206 1.500000
v -37.640401 20.629199 1.500000
v -37.332249 20.779971 1.500000
v -37.051149 20.884771 1.500000
v -36.719503 20.972528 1.500000
v -36.377110 20.993899 1.500000
v -36.037126 20.948061 1.500000
v -35.712617 20.836776 1.500000
v -35.416054 20.664321 1.500000
v -35.158834 20.437324 1.500000
v -34.950841 20.164506 1.500000
v -34.800069 19.856354 1.500000
v -51.776896 10.279959 -1.800000
v -52.056564 9.986667 -1.800000
v -33.664739 16.811107 -1.800000
v -51.659683 10.102226 -1.800000
vt -0.180000 -0.020748 0.000000
vt 0.180000 -0.020748 0.000000
vt -0.180000 0.000000 0.000000
vt 0.180000 0.000000 0.000000
vt -0.800149 -0.340568 0.000000
vt -0.800149 -0.361317 0.000000
vt -0.799034 -0.340568 0.000000
vt -0.790149 -0.361317 0.000000
vt -0.759345 -0.329013 0.000000
vt 1.040149 0.341876 0.000000
vt 0.676841 0.228570 0.000000
vt -0.771067 -0.311239 0.000000
vt 0.570556 0.513654 0.000000
vt 0.926616 0.646400 0.000000
vt 0.561781 0.546819 0.000000
vt 0.559644 0.581058 0.000000
vt 0.564227 0.615056 0.000000
vt 0.575356 0.647507 0.000000
vt 0.592601 0.677163 0.000000
vt 0.911539 0.677215 0.000000
vt 0.615301 0.702885 0.000000
vt 0.890739 0.704497 0.000000
vt 0.642583 0.723685 0.000000
vt 0.673398 0.738762 0.000000
vt 0.865017 0.727197 0.000000
vt 0.701508 0.749242 0.000000
vt 0.835361 0.744442 0.000000
vt 0.802910 0.755571 0.000000
vt 0.768912 0.760155 0.000000
vt 0.734673 0.758018 0.000000
vt 0.240000 -0.180000 0.000000
vt 0.250000 -0.180000 0.000000
vt 0.240000 0.180000 0.000000
vt 0.250000 0.180000 0.000000
vt 0.236685 -0.133102 0.000000
vt 0.130400 0.151982 0.000000
vt -0.119375 -0.265848 0.000000
vt -0.225660 0.019235 0.000000
vt -0.234435 0.052400 0.000000
vt -0.236572 0.086639 0.000000
vt -0.231989 0.120638 0.000000
vt -0.220860 0.153088 0.000000
vt -0.203615 0.182745 0.000000
vt -0.180915 0.208467 0.000000
vt -0.153633 0.229266 0.000000
vt -0.122818 0.244343 0.000000
vt -0.094708 0.254823 0.000000
vt 0.115323 0.182797 0.000000
vt 0.094523 0.210078 0.000000
vt 0.068801 0.232778 0.000000
vt 0.039145 0.250024 0.000000
vt 0.006694 0.261152 0.000000
vt -0.027304 0.265736 0.000000
vt -0.061544 0.263599 0.000000
vt -0.000000 0.274889 0.000000
vt -0.030000 0.274889 0.000000
vt -0.000000 0.240528 0.000000
vt -0.030000 0.240528 0.000000
vt -0.000000 0.206167 0.000000
vt -0.030000 0.206167 0.000000
vt -0.000000 0.171806 0.000000
vt -0.030000 0.171806 0.000000
vt -0.000000 0.137445 0.000000
vt -0.030000 0.137445 0.000000
vt -0.000000 0.103084 0.000000
vt -0.030000 0.103084 0.000000
vt -0.000000 0.068722 0.000000
vt -0.030000 0.068722 0.000000
vt -0.000000 0.034361 0.000000
vt -0.030000 0.034361 0.000000
vt -0.000000 0.000000 0.000000
vt -0.030000 0.000000 0.000000
vt 0.304252 0.030000 0.000000
vt -0.000000 0.030000 0.000000
vt 0.304252 0.000000 0.000000
vt -0.000000 0.000000 0.000000
vt -0.000000 0.274889 0.000000
vt -0.030000 0.274889 0.000000
vt -0.000000 0.240528 0.000000
vt -0.030000 0.240528 0.000000
vt -0.000000 0.206167 0.000000
vt -0.030000 0.206167 0.000000
vt -0.000000 0.171806 0.000000
vt -0.030000 0.171806 0.000000
vt -0.000000 0.137445 0.000000
vt -0.030000 0.137445 0.000000
vt -0.000000 0.103084 0.000000
vt -0.030000 0.103084 0.000000
vt -0.000000 0.068722 0.000000
vt -0.030000 0.068722 0.000000
vt -0.000000 0.034361 0.000000
vt -0.030000 0.034361 0.000000
vt -0.000000 0.000000 0.000000
vt -0.030000 0.000000 0.000000
vt 0.030000 0.030000 0.000000
vt 0.000000 0.030000 0.000000
vt 0.030000 0.000000 0.000000
vt 0.000000 0.000000 0.000000
vt -0.236685 -0.133102 0.000000
vt 0.119375 -0.265848 0.000000
vt -0.130400 0.151982 0.000000
vt 0.225660 0.019235 0.000000
vt 0.234435 0.052400 0.000000
vt 0.236572 0.086639 0.000000
vt 0.231989 0.120638 0.000000
vt 0.220860 0.153088 0.000000
vt 0.203615 0.182745 0.000000
vt 0.180915 0.208467 0.000000
vt 0.153633 0.229266 0.000000
vt 0.122818 0.244343 0.000000
vt 0.094708 0.254823 0.000000
vt -0.115323 0.182797 0.000000
vt -0.094523 0.210078 0.000000
vt -0.068801 0.232778 0.000000
vt -0.039145 0.250024 0.000000
vt -0.006694 0.261152 0.000000
vt 0.027304 0.265736 0.000000
vt 0.061544 0.263599 0.000000
vt -0.080000 0.000000 0.000000
vt -0.050000 0.000000 0.000000
vt -0.080000 0.034361 0.000000
vt -0.050000 0.034361 0.000000
vt -0.080000 0.068722 0.000000
vt -0.050000 0.068722 0.000000
vt -0.080000 0.103084 0.000000
vt -0.050000 0.103084 0.000000
vt -0.080000 0.137445 0.000000
vt -0.050000 0.137445 0.000000
vt -0.080000 0.171806 0.000000
vt -0.050000 0.171806 0.000000
vt -0.080000 0.206167 0.000000
vt -0.050000 0.206167 0.000000
vt -0.080000 0.240528 0.000000
vt -0.050000 0.240528 0.000000
vt -0.080000 0.274889 0.000000
vt -0.050000 0.274889 0.000000
vt -0.000000 0.050000 0.000000
vt 0.304252 0.050000 0.000000
vt -0.000000 0.080000 0.000000
vt 0.304252 0.080000 0.000000
vt 0.000000 0.050000 0.000000
vt 0.030000 0.050000 0.000000
vt 0.000000 0.080000 0.000000
vt 0.030000 0.080000 0.000000
vt -0.080000 0.000000 0.000000
vt -0.050000 0.000000 0.000000
vt -0.080000 0.034361 0.000000
vt -0.050000 0.034361 0.000000
vt -0.080000 0.068722 0.000000
vt -0.050000 0.068722 0.000000
vt -0.080000 0.103084 0.000000
vt -0.050000 0.103084 0.000000
vt -0.080000 0.137445 0.000000
vt -0.050000 0.137445 0.000000
vt -0.080000 0.171806 0.000000
vt -0.050000 0.171806 0.000000
vt -0.080000 0.206167 0.000000
vt -0.050000 0.206167 0.000000
vt -0.080000 0.240528 0.000000
vt -0.050000 0.240528 0.000000
vt -0.080000 0.274889 0.000000
vt -0.050000 0.274889 0.000000
vt 0.380000 -0.180000 0.000000
vt 1.925261 -0.180000 0.000000
vt 0.380000 -0.150000 0.000000
vt 0.380000 0.150000 0.000000
vt -0.000000 0.150000 0.000000
vt 1.925261 0.180000 0.000000
vt 0.380000 0.180000 0.000000
vt 0.000000 -0.150000 0.000000
vt 0.800149 -0.340568 0.000000
vt 0.799034 -0.340568 0.000000
vt 0.800149 -0.361317 0.000000
vt 0.790149 -0.361317 0.000000
vt 0.759345 -0.329013 0.000000
vt 0.771067 -0.311239 0.000000
vt -0.676841 0.228570 0.000000
vt -1.040149 0.341876 0.000000
vt -0.570556 0.513654 0.000000
vt -0.926616 0.646400 0.000000
vt -0.561781 0.546819 0.000000
vt -0.559644 0.581058 0.000000
vt -0.564227 0.615056 0.000000
vt -0.575356 0.647507 0.000000
vt -0.592601 0.677163 0.000000
vt -0.911539 0.677215 0.000000
vt -0.615301 0.702885 0.000000
vt -0.890739 0.704497 0.000000
vt -0.642583 0.723685 0.000000
vt -0.673398 0.738762 0.000000
vt -0.865017 0.727197 0.000000
vt -0.701508 0.749242 0.000000
vt -0.835361 0.744442 0.000000
vt -0.802910 0.755571 0.000000
vt -0.734673 0.758018 0.000000
vt -0.768912 0.760155 0.000000
vt 0.044636 0.180000 0.000000
vt 0.000000 0.180000 0.000000
vt 0.044636 -0.180000 0.000000
vt 0.000000 -0.180000 0.000000
vt 0.001115 0.180000 0.000000
vt -0.000000 0.180000 0.000000
vt 0.001115 -0.180000 0.000000
vt 0.000000 -0.180000 0.000000
vt 0.040526 0.180000 0.000000
vt 0.000000 0.180000 0.000000
vt 0.040526 -0.180000 0.000000
vt -0.000000 -0.180000 0.000000
vt 0.020748 0.150000 0.000000
vt 0.000000 -0.180000 0.000000
vt 0.020748 -0.150000 0.000000
vt 0.325000 -0.180000 0.000000
vt 0.325000 -0.150000 0.000000
vt 0.325000 0.150000 0.000000
vt 0.325000 0.180000 0.000000
vt 0.000000 0.180000 0.000000
vt 1.920487 0.180000 0.000000
vt 0.000000 0.180000 0.000000
vt 1.920487 -0.180000 0.000000
vt 0.000000 -0.180000 0.000000
vn -0.100000 0.000000 0.000000
vn -0.100000 0.000000 0.000000
vn -0.100000 0.000000 0.000000
vn -0.100000 0.000000 0.000000
vn 0.000000 0.000000 0.100000
vn 0.000000 0.000000 0.100000
vn 0.000000 0.000000 0.100000
vn 0.000000 0.000000 0.100000
vn 0.000000 0.000000 0.100000
vn 0.000000 0.000000 0.100000
vn 0.000000 0.000000 0.100000
vn 0.000000 0.000000 0.100000
vn 0.000000 0.000000 0.100000
vn 0.000000 0.000000 0.100000
vn 0.000000 0.000000 0.100000
vn 0.000000 0.000000 0.100000
vn 0.000000 0.000000 0.100000
vn 0.000000 0.000000 0.100000
vn 0.000000 0.000000 0.100000
vn 0.000000 0.000000 0.100000
vn 0.000000 0.000000 0.100000
vn 0.000000 0.000000 0.100000
vn 0.000000 0.000000 0.100000
vn 0.000000 0.000000 0.100000
vn 0.000000 0.000000 0.100000
vn 0.000000 0.000000 0.100000
vn 0.000000 0.000000 0.100000
vn 0.000000 0.000000 0.100000
vn 0.000000 0.000000 0.100000
vn 0.000000 0.000000 0.100000
vn 0.000000 -0.100000 0.000000
vn 0.000000 -0.100000 0.000000
vn 0.000000 -0.100000 0.000000
vn 0.000000 -0.100000 0.000000
vn 0.000000 0.000000 0.100000
vn 0.000000 0.000000 0.100000
vn 0.000000 0.000000 0.100000
vn 0.000000 0.000000 0.100000
vn 0.000000 0.000000 0.100000
vn 0.000000 0.000000 0.100000
vn 0.000000 0.000000 0.100000
vn 0.000000 0.000000 0.100000
vn 0.000000 0.000000 0.100000
vn 0.000000 0.000000 0.100000
vn 0.000000 0.000000 0.100000
vn 0.000000 0.000000 0.100000
vn 0.000000 0.000000 0.100000
vn 0.000000 0.000000 0.100000
vn 0.000000 0.000000 0.100000
vn 0.000000 0.000000 0.100000
vn 0.000000 0.000000 0.100000
vn 0.000000 0.000000 0.100000
vn 0.000000 0.000000 0.100000
vn 0.000000 0.000000 0.100000
vn -0.034933 0.093700 -0.000000
vn -0.034933 0.093700 -0.000000
vn -0.015982 0.098715 -0.000000
vn -0.015982 0.098715 -0.000000
vn 0.003583 0.099936 0.000000
vn 0.003583 0.099936 0.000000
vn 0.023011 0.097316 0.000000
vn 0.023011 0.097316 0.000000
vn 0.041554 0.090957 0.000000
vn 0.041554 0.090957 0.000000
vn 0.058501 0.081103 0.000000
vn 0.058501 0.081103 0.000000
vn 0.073199 0.068131 0.000000
vn 0.073199 0.068131 0.000000
vn 0.085084 0.052542 0.000000
vn 0.085084 0.052542 0.000000
vn 0.093700 0.034933 0.000000
vn 0.093700 0.034933 0.000000
vn -0.093700 -0.034933 0.000000
vn -0.093700 -0.034933 0.000000
vn -0.093700 -0.034933 0.000000
vn -0.093700 -0.034933 0.000000
vn -0.098715 -0.015982 0.000000
vn -0.098715 -0.015982 0.000000
vn -0.099936 0.003583 -0.000000
vn -0.099936 0.003583 -0.000000
vn -0.097316 0.023011 -0.000000
vn -0.097316 0.023011 -0.000000
vn -0.090957 0.041554 -0.000000
vn -0.090957 0.041554 -0.000000
vn -0.081103 0.058501 -0.000000
vn -0.081103 0.058501 -0.000000
vn -0.068131 0.073199 -0.000000
vn -0.068131 0.073199 -0.000000
vn -0.052542 0.085084 -0.000000
vn -0.052542 0.085084 -0.000000
vn -0.034933 0.093700 -0.000000
vn -0.034933 0.093700 -0.000000
vn 0.000000 0.000000 -0.100000
vn 0.000000 0.000000 -0.100000
vn 0.000000 0.000000 -0.100000
vn 0.000000 0.000000 -0.100000
vn 0.000000 0.000000 -0.100000
vn 0.000000 0.000000 -0.100000
vn 0.000000 0.000000 -0.100000
vn 0.000000 0.000000 -0.100000
vn 0.000000 0.000000 -0.100000
vn 0.000000 0.000000 -0.100000
vn 0.000000 0.000000 -0.100000
vn 0.000000 0.000000 -0.100000
vn 0.000000 0.000000 -0.100000
vn 0.000000 0.000000 -0.100000
vn 0.000000 0.000000 -0.100000
vn 0.000000 0.000000 -0.100000
vn 0.000000 0.000000 -0.100000
vn 0.000000 0.000000 -0.100000
vn 0.000000 0.000000 -0.100000
vn 0.000000 0.000000 -0.100000
vn -0.034933 0.093700 -0.000000
vn -0.034933 0.093700 -0.000000
vn -0.052542 0.085084 -0.000000
vn -0.052542 0.085084 -0.000000
vn -0.068131 0.073199 -0.000000
vn -0.068131 0.073199 -0.000000
vn -0.081103 0.058501 -0.000000
vn -0.081103 0.058501 -0.000000
vn -0.090957 0.041554 -0.000000
vn -0.090957 0.041554 -0.000000
vn -0.097316 0.023011 -0.000000
vn -0.097316 0.023011 -0.000000
vn -0.099936 0.003583 -0.000000
vn -0.099936 0.003583 -0.000000
vn -0.098715 -0.015982 0.000000
vn -0.098715 -0.015982 0.000000
vn -0.093700 -0.034933 0.000000
vn -0.093700 -0.034933 0.000000
vn -0.093700 -0.034933 0.000000
vn -0.093700 -0.034933 0.000000
vn -0.034933 0.093700 0.000000
vn -0.034933 0.093700 0.000000
vn 0.093700 0.034933 0.000000
vn 0.093700 0.034933 0.000000
vn 0.085084 0.052542 0.000000
vn 0.085084 0.052542 0.000000
vn 0.073199 0.068131 0.000000
vn 0.073199 0.068131 0.000000
vn 0.058501 0.081103 0.000000
vn 0.058501 0.081103 0.000000
vn 0.041554 0.090957 0.000000
vn 0.041554 0.090957 0.000000
vn 0.023011 0.097316 0.000000
vn 0.023011 0.097316 0.000000
vn 0.003583 0.099936 0.000000
vn 0.003583 0.099936 0.000000
vn -0.015982 0.098715 -0.000000
vn -0.015982 0.098715 -0.000000
vn -0.034933 0.093700 0.000000
vn -0.034933 0.093700 0.000000
vn -0.034933 0.093700 0.000000
vn -0.034933 0.093700 0.000000
vn -0.034933 0.093700 0.000000
vn -0.034933 0.093700 0.000000
vn -0.034933 0.093700 0.000000
vn -0.034933 0.093700 0.000000
vn 0.000000 0.000000 -0.100000
vn 0.000000 0.000000 -0.100000
vn 0.000000 0.000000 -0.100000
vn 0.000000 0.000000 -0.100000
vn 0.000000 0.000000 -0.100000
vn 0.000000 0.000000 -0.100000
vn 0.000000 0.000000 -0.100000
vn 0.000000 0.000000 -0.100000
vn 0.000000 0.000000 -0.100000
vn 0.000000 0.000000 -0.100000
vn 0.000000 0.000000 -0.100000
vn 0.000000 0.000000 -0.100000
vn 0.000000 0.000000 -0.100000
vn 0.000000 0.000000 -0.100000
vn 0.000000 0.000000 -0.100000
vn 0.000000 0.000000 -0.100000
vn 0.000000 0.000000 -0.100000
vn 0.000000 0.000000 -0.100000
vn 0.000000 0.000000 -0.100000
vn 0.000000 0.000000 -0.100000
vn 0.000000 0.000000 -0.100000
vn 0.000000 0.000000 -0.100000
vn 0.000000 0.000000 -0.100000
vn 0.000000 0.000000 -0.100000
vn 0.000000 0.000000 -0.100000
vn 0.000000 0.000000 -0.100000
vn 0.072372 -0.069010 0.000000
vn 0.072372 -0.069010 0.000000
vn 0.072372 -0.069010 0.000000
vn 0.072372 -0.069010 0.000000
vn 0.000000 0.100000 0.000000
vn 0.000000 0.100000 0.000000
vn 0.000000 0.100000 0.000000
vn 0.000000 0.100000 0.000000
vn -0.072372 0.069010 0.000000
vn -0.072372 0.069010 0.000000
vn -0.072372 0.069010 0.000000
vn -0.072372 0.069010 0.000000
vn 0.093700 0.034933 0.000000
vn 0.093700 0.034933 0.000000
vn 0.093700 0.034933 0.000000
vn 0.093700 0.034933 0.000000
vn 0.034933 -0.093700 0.000000
vn 0.034933 -0.093700 0.000000
vn 0.034933 -0.093700 0.000000
vn 0.034933 -0.093700 0.000000
usemtl Steel_-_Satin
f 1/1/1 2/2/2 4/3/3
f 4/3/3 2/2/2 3/4/4
f 3/5/5 2/6/6 28/7/7
f 28/7/7 2/6/6 5/8/8
f 28/7/7 5/8/8 6/9/9
f 7/10/10 26/11/11 6/9/9
f 6/9/9 26/11/11 27/12/12
f 6/9/9 27/12/12 28/7/7
f 26/11/11 7/10/10 25/13/13
f 25/13/13 7/10/10 8/14/14
f 25/13/13 8/14/14 24/15/15
f 24/15/15 8/14/14 23/16/16
f 23/16/16 8/14/14 22/17/17
f 22/17/17 8/14/14 21/18/18
f 21/18/18 8/14/14 20/19/19
f 20/19/19 8/14/14 9/20/20
f 20/19/19 9/20/20 19/21/21
f 19/21/21 9/20/20 10/22/22
f 19/21/21 10/22/22 18/23/23
f 18/23/23 10/22/22 17/24/24
f 17/24/24 10/22/22 11/25/25
f 17/24/24 11/25/25 16/26/26
f 16/26/26 11/25/25 12/27/27
f 16/26/26 12/27/27 13/28/28
f 14/29/29 15/30/30 13/28/28
f 13/28/28 15/30/30 16/26/26
f 1/31/31 29/32/32 2/33/33
f 2/33/33 29/32/32 5/34/34
f 31/35/35 32/36/36 30/37/37
f 30/37/37 32/36/36 49/38/38
f 49/38/38 32/36/36 48/39/39
f 48/39/39 32/36/36 47/40/40
f 47/40/40 32/36/36 46/41/41
f 46/41/41 32/36/36 45/42/42
f 45/42/42 32/36/36 44/43/43
f 44/43/43 32/36/36 43/44/44
f 43/44/44 32/36/36 42/45/45
f 42/45/45 32/36/36 41/46/46
f 41/46/46 32/36/36 40/47/47
f 40/47/47 32/36/36 33/48/48
f 40/47/47 33/48/48 34/49/49
f 34/49/49 35/50/50 40/47/47
f 40/47/47 35/50/50 36/51/51
f 40/47/47 36/51/51 37/52/52
f 37/52/52 38/53/53 40/47/47
f 40/47/47 38/53/53 39/54/54
f 58/55/55 40/56/56 57/57/57
f 57/57/57 40/56/56 39/58/58
f 57/57/57 39/58/58 56/59/59
f 56/59/59 39/58/58 38/60/60
f 56/59/59 38/60/60 55/61/61
f 55/61/61 38/60/60 37/62/62
f 55/61/61 37/62/62 54/63/63
f 54/63/63 37/62/62 36/64/64
f 54/63/63 36/64/64 53/65/65
f 53/65/65 36/64/64 35/66/66
f 53/65/65 35/66/66 52/67/67
f 52/67/67 35/66/66 34/68/68
f 52/67/67 34/68/68 51/69/69
f 51/69/69 34/68/68 33/70/70
f 51/69/69 33/70/70 50/71/71
f 50/71/71 33/70/70 32/72/72
f 30/73/73 49/74/74 60/75/75
f 60/75/75 49/74/74 59/76/76
f 59/77/76 49/78/74 68/79/77
f 68/79/77 49/78/74 48/80/78
f 68/79/77 48/80/78 67/81/79
f 67/81/79 48/80/78 47/82/80
f 67/81/79 47/82/80 66/83/81
f 66/83/81 47/82/80 46/84/82
f 66/83/81 46/84/82 65/85/83
f 65/85/83 46/84/82 45/86/84
f 65/85/83 45/86/84 64/87/85
f 64/87/85 45/86/84 44/88/86
f 64/87/85 44/88/86 63/89/87
f 63/89/87 44/88/86 43/90/88
f 63/89/87 43/90/88 62/91/89
f 62/91/89 43/90/88 42/92/90
f 62/91/89 42/92/90 61/93/91
f 61/93/91 42/92/90 41/94/92
f 41/95/92 40/96/56 61/97/91
f 61/97/91 40/96/56 58/98/55
f 69/99/93 70/100/94 88/101/95
f 88/101/95 70/100/94 71/102/96
f 88/101/95 71/102/96 72/103/97
f 72/103/97 73/104/98 88/101/95
f 88/101/95 73/104/98 74/105/99
f 88/101/95 74/105/99 75/106/100
f 75/106/100 76/107/101 88/101/95
f 88/101/95 76/107/101 77/108/102
f 88/101/95 77/108/102 78/109/103
f 78/109/103 79/110/104 88/101/95
f 88/101/95 79/110/104 80/111/105
f 88/101/95 80/111/105 87/112/106
f 87/112/106 80/111/105 86/113/107
f 86/113/107 80/111/105 85/114/108
f 85/114/108 80/111/105 84/115/109
f 84/115/109 80/111/105 83/116/110
f 83/116/110 80/111/105 82/117/111
f 82/117/111 80/111/105 81/118/112
f 17/119/113 79/120/114 18/121/115
f 18/121/115 79/120/114 78/122/116
f 18/121/115 78/122/116 19/123/117
f 19/123/117 78/122/116 77/124/118
f 19/123/117 77/124/118 20/125/119
f 20/125/119 77/124/118 76/126/120
f 20/125/119 76/126/120 21/127/121
f 21/127/121 76/126/120 75/128/122
f 21/127/121 75/128/122 22/129/123
f 22/129/123 75/128/122 74/130/124
f 22/129/123 74/130/124 23/131/125
f 23/131/125 74/130/124 73/132/126
f 23/131/125 73/132/126 24/133/127
f 24/133/127 73/132/126 72/134/128
f 24/133/127 72/134/128 25/135/129
f 25/135/129 72/134/128 71/136/130
f 71/137/130 70/138/131 25/139/129
f 25/139/129 70/138/131 26/140/132
f 80/141/133 79/142/114 16/143/134
f 16/143/134 79/142/114 17/144/113
f 8/145/135 88/146/136 9/147/137
f 9/147/137 88/146/136 87/148/138
f 9/147/137 87/148/138 10/149/139
f 10/149/139 87/148/138 86/150/140
f 10/149/139 86/150/140 11/151/141
f 11/151/141 86/150/140 85/152/142
f 11/151/141 85/152/142 12/153/143
f 12/153/143 85/152/142 84/154/144
f 12/153/143 84/154/144 13/155/145
f 13/155/145 84/154/144 83/156/146
f 13/155/145 83/156/146 14/157/147
f 14/157/147 83/156/146 82/158/148
f 14/157/147 82/158/148 15/159/149
f 15/159/149 82/158/148 81/160/150
f 15/159/149 81/160/150 16/161/134
f 16/161/134 81/160/150 80/162/133
f 60/163/151 89/164/152 30/165/153
f 30/165/153 89/164/152 70/166/154
f 30/165/153 70/166/154 69/167/155
f 89/164/152 27/168/156 70/166/154
f 70/166/154 27/168/156 26/169/157
f 69/167/155 31/170/158 30/165/153
f 4/171/159 90/172/160 1/173/161
f 1/173/161 90/172/160 29/174/162
f 29/174/162 90/172/160 92/175/163
f 92/175/163 90/172/160 89/176/164
f 92/175/163 89/176/164 60/177/165
f 92/175/163 60/177/165 91/178/166
f 91/178/166 60/177/165 59/179/167
f 91/178/166 59/179/167 50/180/168
f 50/180/168 59/179/167 68/181/169
f 50/180/168 68/181/169 67/182/170
f 67/182/170 66/183/171 50/180/168
f 50/180/168 66/183/171 65/184/172
f 50/180/168 65/184/172 64/185/173
f 50/180/168 64/185/173 51/186/174
f 51/186/174 64/185/173 63/187/175
f 51/186/174 63/187/175 52/188/176
f 52/188/176 63/187/175 62/189/177
f 52/188/176 62/189/177 61/190/178
f 52/188/176 61/190/178 53/191/179
f 53/191/179 61/190/178 58/192/180
f 53/191/179 58/192/180 54/193/181
f 54/193/181 58/192/180 55/194/182
f 55/194/182 58/192/180 57/195/183
f 55/194/182 57/195/183 56/196/184
f 6/197/185 5/198/186 92/199/187
f 92/199/187 5/198/186 29/200/188
f 3/201/189 28/202/190 4/203/191
f 4/203/191 28/202/190 90/204/192
f 28/205/193 27/206/194 90/207/195
f 90/207/195 27/206/194 89/208/196
f 69/209/197 91/210/198 31/211/199
f 31/211/199 91/210/198 50/212/71
f 31/211/199 50/212/71 32/213/72
f 88/214/136 8/215/135 69/209/197
f 69/209/197 8/215/135 7/216/200
f 69/209/197 7/216/200 91/210/198
f 7/217/201 6/218/202 91/219/203
f 91/219/203 6/218/202 92/220/204
# 92 vertices
# 220 texture params
# 204 normals
# 180 facets

# 1 groups
