# WaveFront *.obj file (generated by Autodesk ATF)

mtllib TouchButtonTip.mtl

g TouchButtonTip

v -48.467719 9.779185 -1.000000
v -48.467719 11.019715 -1.000000
v -48.095425 11.379185 -1.000000
v -46.534382 11.379185 -1.000000
v -46.067719 11.019715 -1.000000
v -46.067719 9.779185 -1.000000
v -48.467719 11.019715 1.000000
v -48.095425 11.379185 1.000000
v -46.534382 11.379185 1.000000
v -46.067719 11.019715 1.000000
v -46.067719 9.779185 1.000000
v -48.467719 9.779185 1.000000
vt -0.120000 -0.080000 0.000000
vt 0.120000 -0.080000 0.000000
vt -0.120000 0.044053 0.000000
vt 0.120000 0.044053 0.000000
vt -0.073334 0.080000 0.000000
vt 0.082771 0.080000 0.000000
vt 0.051751 0.100000 0.000000
vt -0.000000 0.100000 0.000000
vt 0.051751 -0.100000 0.000000
vt 0.000000 -0.100000 0.000000
vt 0.156104 0.100000 0.000000
vt 0.000000 0.100000 0.000000
vt 0.156104 -0.100000 0.000000
vt 0.000000 -0.100000 0.000000
vt 0.058906 0.100000 0.000000
vt 0.000000 0.100000 0.000000
vt 0.058906 -0.100000 0.000000
vt 0.000000 -0.100000 0.000000
vt 0.124053 0.100000 0.000000
vt 0.000000 0.100000 0.000000
vt 0.124053 -0.100000 0.000000
vt 0.000000 -0.100000 0.000000
vt 0.240000 0.100000 0.000000
vt 0.000000 0.100000 0.000000
vt 0.240000 -0.100000 0.000000
vt 0.000000 -0.100000 0.000000
vt 0.124053 0.100000 0.000000
vt 0.000000 0.100000 0.000000
vt 0.124053 -0.100000 0.000000
vt 0.000000 -0.100000 0.000000
vt -0.120000 -0.080000 0.000000
vt 0.120000 -0.080000 0.000000
vt -0.120000 0.044053 0.000000
vt 0.120000 0.044053 0.000000
vt 0.073334 0.080000 0.000000
vt -0.082771 0.080000 0.000000
vn 0.000000 0.000000 -0.100000
vn 0.000000 0.000000 -0.100000
vn 0.000000 0.000000 -0.100000
vn 0.000000 0.000000 -0.100000
vn 0.000000 0.000000 -0.100000
vn 0.000000 0.000000 -0.100000
vn -0.069461 0.071939 0.000000
vn -0.069461 0.071939 0.000000
vn -0.069461 0.071939 0.000000
vn -0.069461 0.071939 0.000000
vn 0.000000 0.100000 0.000000
vn 0.000000 0.100000 0.000000
vn 0.000000 0.100000 0.000000
vn 0.000000 0.100000 0.000000
vn 0.061024 0.079221 0.000000
vn 0.061024 0.079221 0.000000
vn 0.061024 0.079221 0.000000
vn 0.061024 0.079221 0.000000
vn 0.100000 0.000000 0.000000
vn 0.100000 0.000000 0.000000
vn 0.100000 0.000000 0.000000
vn 0.100000 0.000000 0.000000
vn 0.000000 -0.100000 0.000000
vn 0.000000 -0.100000 0.000000
vn 0.000000 -0.100000 0.000000
vn 0.000000 -0.100000 0.000000
vn -0.100000 0.000000 0.000000
vn -0.100000 0.000000 0.000000
vn -0.100000 0.000000 0.000000
vn -0.100000 0.000000 0.000000
vn 0.000000 0.000000 0.100000
vn 0.000000 0.000000 0.100000
vn 0.000000 0.000000 0.100000
vn 0.000000 0.000000 0.100000
vn 0.000000 0.000000 0.100000
vn 0.000000 0.000000 0.100000
usemtl Steel_-_Satin
f 6/1/1 1/2/2 5/3/3
f 5/3/3 1/2/2 2/4/4
f 5/3/3 2/4/4 4/5/5
f 4/5/5 2/4/4 3/6/6
f 7/7/7 8/8/8 2/9/9
f 2/9/9 8/8/8 3/10/10
f 8/11/11 9/12/12 3/13/13
f 3/13/13 9/12/12 4/14/14
f 9/15/15 10/16/16 4/17/17
f 4/17/17 10/16/16 5/18/18
f 10/19/19 11/20/20 5/21/21
f 5/21/21 11/20/20 6/22/22
f 11/23/23 12/24/24 6/25/25
f 6/25/25 12/24/24 1/26/26
f 12/27/27 7/28/28 1/29/29
f 1/29/29 7/28/28 2/30/30
f 12/31/31 11/32/32 7/33/33
f 7/33/33 11/32/32 10/34/34
f 7/33/33 10/34/34 9/35/35
f 9/35/35 8/36/36 7/33/33
# 12 vertices
# 36 texture params
# 36 normals
# 20 facets

# 1 groups
