# WaveFront *.obj file (generated by Autodesk ATF)

mtllib TouchButtonMetalLine.mtl

g TouchButtonMetalLine

v -52.067719 18.779185 -1.000000
v -52.067719 18.779185 2.000000
v -52.067719 18.986667 2.000000
v -52.067719 18.986667 -1.000000
v -51.967719 18.779185 2.000000
v -51.659683 19.102226 2.000000
v -26.168748 28.605766 2.000000
v -26.241228 28.800176 2.000000
v -51.776896 19.279959 2.000000
v -52.056564 18.986667 2.000000
v -51.967719 18.779185 -1.000000
v -52.056564 18.986667 -1.000000
v -51.776896 19.279959 -1.000000
v -26.241228 28.800176 -1.000000
v -26.168748 28.605766 -1.000000
v -51.659683 19.102226 -1.000000
vt -0.100000 -0.020748 0.000000
vt 0.200000 -0.020748 0.000000
vt -0.100000 0.000000 0.000000
vt 0.200000 0.000000 0.000000
vt -1.174949 -0.480301 0.000000
vt -1.174949 -0.501050 0.000000
vt -1.173833 -0.480301 0.000000
vt -1.164949 -0.501050 0.000000
vt -1.134145 -0.468745 0.000000
vt -1.145866 -0.450972 0.000000
vt 1.414949 0.481609 0.000000
vt 1.407701 0.501050 0.000000
vt 0.240000 -0.100000 0.000000
vt 0.250000 -0.100000 0.000000
vt 0.240000 0.200000 0.000000
vt 0.250000 0.200000 0.000000
vt 1.174949 -0.480301 0.000000
vt 1.173833 -0.480301 0.000000
vt 1.174949 -0.501050 0.000000
vt 1.164949 -0.501050 0.000000
vt 1.134145 -0.468745 0.000000
vt 1.145866 -0.450972 0.000000
vt -1.414949 0.481609 0.000000
vt -1.407701 0.501050 0.000000
vt 0.020748 0.200000 0.000000
vt 0.000000 0.200000 0.000000
vt 0.020748 -0.100000 0.000000
vt 0.000000 -0.100000 0.000000
vt 2.720487 0.200000 0.000000
vt 0.000000 0.200000 0.000000
vt 2.720487 -0.100000 0.000000
vt 0.000000 -0.100000 0.000000
vt 0.044636 0.200000 0.000000
vt 0.000000 0.200000 0.000000
vt 0.044636 -0.100000 0.000000
vt 0.000000 -0.100000 0.000000
vt 0.001115 0.200000 0.000000
vt -0.000000 0.200000 0.000000
vt 0.001115 -0.100000 0.000000
vt 0.000000 -0.100000 0.000000
vt 0.040526 0.200000 0.000000
vt 0.000000 0.200000 0.000000
vt 0.040526 -0.100000 0.000000
vt -0.000000 -0.100000 0.000000
vt 2.725261 0.200000 0.000000
vt -0.000000 0.200000 0.000000
vt 2.725261 -0.100000 0.000000
vt 0.000000 -0.100000 0.000000
vn -0.100000 0.000000 0.000000
vn -0.100000 0.000000 0.000000
vn -0.100000 0.000000 0.000000
vn -0.100000 0.000000 0.000000
vn 0.000000 0.000000 0.100000
vn 0.000000 0.000000 0.100000
vn 0.000000 0.000000 0.100000
vn 0.000000 0.000000 0.100000
vn 0.000000 0.000000 0.100000
vn 0.000000 0.000000 0.100000
vn 0.000000 0.000000 0.100000
vn 0.000000 0.000000 0.100000
vn 0.000000 -0.100000 0.000000
vn 0.000000 -0.100000 0.000000
vn 0.000000 -0.100000 0.000000
vn 0.000000 -0.100000 0.000000
vn 0.000000 0.000000 -0.100000
vn 0.000000 0.000000 -0.100000
vn 0.000000 0.000000 -0.100000
vn 0.000000 0.000000 -0.100000
vn 0.000000 0.000000 -0.100000
vn 0.000000 0.000000 -0.100000
vn 0.000000 0.000000 -0.100000
vn 0.000000 0.000000 -0.100000
vn 0.093700 0.034933 0.000000
vn 0.093700 0.034933 0.000000
vn 0.093700 0.034933 0.000000
vn 0.093700 0.034933 0.000000
vn 0.034933 -0.093700 0.000000
vn 0.034933 -0.093700 0.000000
vn 0.034933 -0.093700 0.000000
vn 0.034933 -0.093700 0.000000
vn 0.072372 -0.069010 0.000000
vn 0.072372 -0.069010 0.000000
vn 0.072372 -0.069010 0.000000
vn 0.072372 -0.069010 0.000000
vn 0.000000 0.100000 0.000000
vn 0.000000 0.100000 0.000000
vn 0.000000 0.100000 0.000000
vn 0.000000 0.100000 0.000000
vn -0.072372 0.069010 0.000000
vn -0.072372 0.069010 0.000000
vn -0.072372 0.069010 0.000000
vn -0.072372 0.069010 0.000000
vn -0.034933 0.093700 0.000000
vn -0.034933 0.093700 0.000000
vn -0.034933 0.093700 0.000000
vn -0.034933 0.093700 0.000000
usemtl Steel_-_Satin
f 1/1/1 2/2/2 4/3/3
f 4/3/3 2/2/2 3/4/4
f 3/5/5 2/6/6 10/7/7
f 10/7/7 2/6/6 5/8/8
f 10/7/7 5/8/8 6/9/9
f 10/7/7 6/9/9 9/10/10
f 9/10/10 6/9/9 7/11/11
f 9/10/10 7/11/11 8/12/12
f 1/13/13 11/14/14 2/15/15
f 2/15/15 11/14/14 5/16/16
f 4/17/17 12/18/18 1/19/19
f 1/19/19 12/18/18 11/20/20
f 11/20/20 12/18/18 16/21/21
f 16/21/21 12/18/18 13/22/22
f 16/21/21 13/22/22 15/23/23
f 15/23/23 13/22/22 14/24/24
f 8/25/25 7/26/26 14/27/27
f 14/27/27 7/26/26 15/28/28
f 7/29/29 6/30/30 15/31/31
f 15/31/31 6/30/30 16/32/32
f 6/33/33 5/34/34 16/35/35
f 16/35/35 5/34/34 11/36/36
f 3/37/37 10/38/38 4/39/39
f 4/39/39 10/38/38 12/40/40
f 10/41/41 9/42/42 12/43/43
f 12/43/43 9/42/42 13/44/44
f 9/45/45 8/46/46 13/47/47
f 13/47/47 8/46/46 14/48/48
# 16 vertices
# 48 texture params
# 48 normals
# 28 facets

# 1 groups
